<?xml version="1.0" encoding="UTF-8"?>
<!DOCTYPE svg PUBLIC "-//W3C//DTD SVG 1.1//EN" "http://www.w3.org/Graphics/SVG/1.1/DTD/svg11.dtd">
<!-- Creator: CorelDRAW X7 -->
<svg xmlns="http://www.w3.org/2000/svg" xml:space="preserve" width="84.6666mm" height="84.6666mm" version="1.1" style="shape-rendering:geometricPrecision; text-rendering:geometricPrecision; image-rendering:optimizeQuality; fill-rule:evenodd; clip-rule:evenodd"
viewBox="0 0 8467 8467"
 xmlns:xlink="http://www.w3.org/1999/xlink">
 <defs>
  <style type="text/css">
   <![CDATA[
    .fil5 {fill:none}
    .fil3 {fill:#E31E24}
    .fil8 {fill:black}
    .fil1 {fill:#79D1BF}
    .fil0 {fill:#90F5E1}
    .fil2 {fill:#E0033A}
    .fil4 {fill:#FBD14E}
    .fil7 {fill:#FFC202}
    .fil6 {fill:white}
    .fil10 {fill:#FEFEFE;fill-rule:nonzero}
    .fil9 {fill:#FDD34D;fill-rule:nonzero}
   ]]>
  </style>
    <clipPath id="id0">
     <path d="M3317 4332c0,47 -413,85 -921,85 -508,0 -920,-38 -920,-85l0 -1232 1841 0 0 1232z"/>
    </clipPath>
    <clipPath id="id1">
     <path d="M3653 3414c572,0 1035,561 1035,1254 0,693 -463,1255 -1035,1255l-951 96 0 -854c-54,-152 -84,-320 -84,-497 0,-176 30,-344 84,-496l0 -854 951 96z"/>
    </clipPath>
    <clipPath id="id2">
     <path d="M3737 2488c125,-265 -33,-603 -354,-756 -321,-152 -683,-61 -809,204l-254 420 396 187c59,59 130,110 211,149 82,39 167,62 249,70l396 188 165 -462z"/>
    </clipPath>
    <clipPath id="id3">
     <path d="M5018 2449c92,-263 -91,-567 -410,-679 -319,-111 -652,11 -744,274l-197 422 392 138c61,49 134,90 215,119 81,28 163,41 242,41l393 138 109 -453z"/>
    </clipPath>
    <clipPath id="id4">
     <path d="M6511 3830c0,45 -391,81 -873,81 -482,0 -873,-36 -873,-81l0 -688 1746 0 0 688z"/>
    </clipPath>
    <clipPath id="id5">
     <path d="M1372 1156c427,112 761,247 747,301 -14,55 -372,7 -798,-106 -427,-112 -761,-247 -747,-301 14,-54 372,-7 798,106z"/>
    </clipPath>
    <clipPath id="id6">
     <path d="M7459 1644c441,-10 800,26 801,82 1,56 -355,110 -796,121 -441,10 -800,-26 -801,-82 -2,-56 355,-110 796,-121z"/>
    </clipPath>
 </defs>
 <g id="Layer_x0020_1">
  <metadata id="CorelCorpID_0Corel-Layer"/>
  <rect class="fil0" width="8467" height="8467"/>
  <rect class="fil1" y="381" width="8086" height="8086" rx="374" ry="374"/>
  <rect class="fil2" x="374" width="8086" height="8086" rx="381" ry="381"/>
  <g id="_2276731905808">
   <path class="fil3" d="M3317 4332c0,47 -413,85 -921,85 -508,0 -920,-38 -920,-85l0 -1232 1841 0 0 1232z"/>
   <g style="clip-path:url(#id0)">
    <g>
     <g>
      <polygon id="1" class="fil2" points="436,3190 986,2641 986,2641 1116,2510 1247,2641 1666,3060 2085,2641 2216,2510 2346,2641 2346,2641 2765,3060 3185,2641 3185,2641 3315,2510 3445,2641 3865,3060 4284,2641 4414,2510 4545,2641 4545,2641 5094,3190 4964,3321 4414,2771 3995,3190 3995,3190 3865,3321 3734,3190 3734,3190 3315,2771 2896,3190 2896,3190 2765,3321 2635,3190 2635,3190 2216,2771 1796,3190 1796,3190 1666,3321 1536,3190 1536,3190 1116,2771 567,3321 "/>
      <polygon class="fil4" points="436,3451 986,2901 986,2901 1116,2771 1247,2901 1666,3321 2085,2901 2216,2771 2346,2901 2346,2901 2765,3321 3185,2901 3185,2901 3315,2771 3445,2901 3865,3321 4284,2901 4414,2771 4545,2901 4545,2901 5094,3451 4964,3581 4414,3032 3995,3451 3995,3451 3865,3581 3734,3451 3734,3451 3315,3032 2896,3451 2896,3451 2765,3581 2635,3451 2635,3451 2216,3032 1796,3451 1796,3451 1666,3581 1536,3451 1536,3451 1116,3032 567,3581 "/>
      <polygon class="fil2" points="436,3712 986,3162 986,3162 1116,3032 1247,3162 1666,3581 2085,3162 2216,3032 2346,3162 2346,3162 2765,3581 3185,3162 3185,3162 3315,3032 3445,3162 3865,3581 4284,3162 4414,3032 4545,3162 4545,3162 5094,3712 4964,3842 4414,3292 3995,3712 3995,3712 3865,3842 3734,3712 3734,3712 3315,3292 2896,3712 2896,3712 2765,3842 2635,3712 2635,3712 2216,3292 1796,3712 1796,3712 1666,3842 1536,3712 1536,3712 1116,3292 567,3842 "/>
      <polygon class="fil4" points="436,3972 986,3423 986,3423 1116,3292 1247,3423 1666,3842 2085,3423 2216,3292 2346,3423 2346,3423 2765,3842 3185,3423 3185,3423 3315,3292 3445,3423 3865,3842 4284,3423 4414,3292 4545,3423 4545,3423 5094,3972 4964,4103 4414,3553 3995,3972 3995,3972 3865,4103 3734,3972 3734,3972 3315,3553 2896,3972 2896,3972 2765,4103 2635,3972 2635,3972 2216,3553 1796,3972 1796,3972 1666,4103 1536,3972 1536,3972 1116,3553 567,4103 "/>
      <polygon class="fil2" points="436,4233 986,3683 986,3683 1116,3553 1247,3683 1666,4103 2085,3683 2216,3553 2346,3683 2346,3683 2765,4103 3185,3683 3185,3683 3315,3553 3445,3683 3865,4103 4284,3683 4414,3553 4545,3683 4545,3683 5094,4233 4964,4363 4414,3814 3995,4233 3995,4233 3865,4363 3734,4233 3734,4233 3315,3814 2896,4233 2896,4233 2765,4363 2635,4233 2635,4233 2216,3814 1796,4233 1796,4233 1666,4363 1536,4233 1536,4233 1116,3814 567,4363 "/>
      <polygon class="fil4" points="436,4493 986,3944 986,3944 1116,3814 1247,3944 1666,4363 2085,3944 2216,3814 2346,3944 2346,3944 2765,4363 3185,3944 3185,3944 3315,3814 3445,3944 3865,4363 4284,3944 4414,3814 4545,3944 4545,3944 5094,4493 4964,4624 4414,4074 3995,4493 3995,4493 3865,4624 3734,4493 3734,4493 3315,4074 2896,4493 2896,4493 2765,4624 2635,4493 2635,4493 2216,4074 1796,4493 1796,4493 1666,4624 1536,4493 1536,4493 1116,4074 567,4624 "/>
      <polygon class="fil2" points="436,4754 986,4204 986,4204 1116,4074 1247,4204 1666,4624 2085,4204 2216,4074 2346,4204 2346,4204 2765,4624 3185,4204 3185,4204 3315,4074 3445,4204 3865,4624 4284,4204 4414,4074 4545,4204 4545,4204 5094,4754 4964,4884 4414,4335 3995,4754 3995,4754 3865,4884 3734,4754 3734,4754 3315,4335 2896,4754 2896,4754 2765,4884 2635,4754 2635,4754 2216,4335 1796,4754 1796,4754 1666,4884 1536,4754 1536,4754 1116,4335 567,4884 "/>
      <polygon class="fil4" points="436,5015 986,4465 986,4465 1116,4335 1247,4465 1666,4884 2085,4465 2216,4335 2346,4465 2346,4465 2765,4884 3185,4465 3185,4465 3315,4335 3445,4465 3865,4884 4284,4465 4414,4335 4545,4465 4545,4465 5094,5015 4964,5145 4414,4595 3995,5015 3995,5015 3865,5145 3734,5015 3734,5015 3315,4595 2896,5015 2896,5015 2765,5145 2635,5015 2635,5015 2216,4595 1796,5015 1796,5015 1666,5145 1536,5015 1536,5015 1116,4595 567,5145 "/>
     </g>
    </g>
   </g>
   <path class="fil5" d="M3317 4332c0,47 -413,85 -921,85 -508,0 -920,-38 -920,-85l0 -1232 1841 0 0 1232z"/>
   <ellipse class="fil6" cx="2396" cy="3100" rx="921" ry="85"/>
   <path class="fil3" d="M3653 3414c572,0 1035,561 1035,1254 0,693 -463,1255 -1035,1255l-951 96 0 -854c-54,-152 -84,-320 -84,-497 0,-176 30,-344 84,-496l0 -854 951 96z"/>
   <g style="clip-path:url(#id1)">
    <g>
     <g>
      <g>
       <rect class="fil4" transform="matrix(6.37644E-015 -0.408374 0.0405692 1.82972E-015 2270.88 6431.13)" width="720" height="8551"/>
       <rect class="fil2" transform="matrix(6.37644E-015 -0.408374 0.0405692 1.82972E-015 2270.88 6137.24)" width="720" height="8551"/>
       <rect class="fil4" transform="matrix(6.37644E-015 -0.408374 0.0405692 1.82972E-015 2270.88 5843.35)" width="720" height="8551"/>
       <rect class="fil2" transform="matrix(6.37644E-015 -0.408374 0.0405692 1.82972E-015 2270.88 5549.46)" width="720" height="8551"/>
       <rect class="fil4" transform="matrix(6.37644E-015 -0.408374 0.0405692 1.82972E-015 2270.88 5255.57)" width="720" height="8551"/>
       <rect class="fil2" transform="matrix(6.37644E-015 -0.408374 0.0405692 1.82972E-015 2270.88 4961.68)" width="720" height="8551"/>
       <rect class="fil4" transform="matrix(6.37644E-015 -0.408374 0.0405692 1.82972E-015 2270.88 4667.78)" width="720" height="8551"/>
       <rect class="fil2" transform="matrix(6.37644E-015 -0.408374 0.0405692 1.82972E-015 2270.88 4373.89)" width="720" height="8551"/>
       <rect class="fil4" transform="matrix(6.37644E-015 -0.408374 0.0405692 1.82972E-015 2270.88 4080)" width="720" height="8551"/>
       <rect class="fil2" transform="matrix(6.37644E-015 -0.408374 0.0405692 1.82972E-015 2270.88 3786.11)" width="720" height="8551"/>
       <rect class="fil4" transform="matrix(6.37644E-015 -0.408374 0.0405692 1.82972E-015 2270.88 3492.22)" width="720" height="8551"/>
       <rect class="fil2" transform="matrix(6.37644E-015 -0.408374 0.0405692 1.82972E-015 2270.88 3198.33)" width="720" height="8551"/>
       <rect class="fil4" transform="matrix(6.37644E-015 -0.408374 0.0405692 1.82972E-015 2270.88 2904.44)" width="720" height="8551"/>
       <rect class="fil2" transform="matrix(6.37644E-015 -0.408374 0.0405692 1.82972E-015 2270.88 2610.55)" width="720" height="8551"/>
       <rect class="fil4" transform="matrix(6.37644E-015 -0.408374 0.0405692 1.82972E-015 2270.88 2316.66)" width="720" height="8551"/>
      </g>
      <g>
       <rect class="fil4" transform="matrix(6.37644E-015 -0.408374 0.0405692 1.82972E-015 2617.8 6725.02)" width="720" height="8551"/>
       <rect class="fil2" transform="matrix(6.37644E-015 -0.408374 0.0405692 1.82972E-015 2617.8 6431.13)" width="720" height="8551"/>
       <rect class="fil4" transform="matrix(6.37644E-015 -0.408374 0.0405692 1.82972E-015 2617.8 6137.24)" width="720" height="8551"/>
       <rect class="fil2" transform="matrix(6.37644E-015 -0.408374 0.0405692 1.82972E-015 2617.8 5843.35)" width="720" height="8551"/>
       <rect class="fil4" transform="matrix(6.37644E-015 -0.408374 0.0405692 1.82972E-015 2617.8 5549.46)" width="720" height="8551"/>
       <rect class="fil2" transform="matrix(6.37644E-015 -0.408374 0.0405692 1.82972E-015 2617.8 5255.57)" width="720" height="8551"/>
       <rect class="fil4" transform="matrix(6.37644E-015 -0.408374 0.0405692 1.82972E-015 2617.8 4961.68)" width="720" height="8551"/>
       <rect class="fil2" transform="matrix(6.37644E-015 -0.408374 0.0405692 1.82972E-015 2617.8 4667.79)" width="720" height="8551"/>
       <rect class="fil4" transform="matrix(6.37644E-015 -0.408374 0.0405692 1.82972E-015 2617.8 4373.9)" width="720" height="8551"/>
       <rect class="fil2" transform="matrix(6.37644E-015 -0.408374 0.0405692 1.82972E-015 2617.8 4080.01)" width="720" height="8551"/>
       <rect class="fil4" transform="matrix(6.37644E-015 -0.408374 0.0405692 1.82972E-015 2617.8 3786.12)" width="720" height="8551"/>
       <rect class="fil2" transform="matrix(6.37644E-015 -0.408374 0.0405692 1.82972E-015 2617.8 3492.22)" width="720" height="8551"/>
       <rect class="fil4" transform="matrix(6.37644E-015 -0.408374 0.0405692 1.82972E-015 2617.8 3198.33)" width="720" height="8551"/>
       <rect class="fil2" transform="matrix(6.37644E-015 -0.408374 0.0405692 1.82972E-015 2617.8 2904.44)" width="720" height="8551"/>
       <rect class="fil4" transform="matrix(6.37644E-015 -0.408374 0.0405692 1.82972E-015 2617.8 2610.55)" width="720" height="8551"/>
      </g>
     </g>
     <g>
      <g>
       <rect class="fil4" transform="matrix(6.37644E-015 -0.408374 0.0405692 1.82972E-015 2964.72 6431.13)" width="720" height="8551"/>
       <rect class="fil2" transform="matrix(6.37644E-015 -0.408374 0.0405692 1.82972E-015 2964.72 6137.24)" width="720" height="8551"/>
       <rect class="fil4" transform="matrix(6.37644E-015 -0.408374 0.0405692 1.82972E-015 2964.72 5843.35)" width="720" height="8551"/>
       <rect class="fil2" transform="matrix(6.37644E-015 -0.408374 0.0405692 1.82972E-015 2964.72 5549.46)" width="720" height="8551"/>
       <rect class="fil4" transform="matrix(6.37644E-015 -0.408374 0.0405692 1.82972E-015 2964.72 5255.57)" width="720" height="8551"/>
       <rect class="fil2" transform="matrix(6.37644E-015 -0.408374 0.0405692 1.82972E-015 2964.72 4961.68)" width="720" height="8551"/>
       <rect class="fil4" transform="matrix(6.37644E-015 -0.408374 0.0405692 1.82972E-015 2964.72 4667.78)" width="720" height="8551"/>
       <rect class="fil2" transform="matrix(6.37644E-015 -0.408374 0.0405692 1.82972E-015 2964.72 4373.89)" width="720" height="8551"/>
       <rect class="fil4" transform="matrix(6.37644E-015 -0.408374 0.0405692 1.82972E-015 2964.72 4080)" width="720" height="8551"/>
       <rect class="fil2" transform="matrix(6.37644E-015 -0.408374 0.0405692 1.82972E-015 2964.72 3786.11)" width="720" height="8551"/>
       <rect class="fil4" transform="matrix(6.37644E-015 -0.408374 0.0405692 1.82972E-015 2964.72 3492.22)" width="720" height="8551"/>
       <rect class="fil2" transform="matrix(6.37644E-015 -0.408374 0.0405692 1.82972E-015 2964.72 3198.33)" width="720" height="8551"/>
       <rect class="fil4" transform="matrix(6.37644E-015 -0.408374 0.0405692 1.82972E-015 2964.72 2904.44)" width="720" height="8551"/>
       <rect class="fil2" transform="matrix(6.37644E-015 -0.408374 0.0405692 1.82972E-015 2964.72 2610.55)" width="720" height="8551"/>
       <rect class="fil4" transform="matrix(6.37644E-015 -0.408374 0.0405692 1.82972E-015 2964.72 2316.66)" width="720" height="8551"/>
      </g>
      <g>
       <rect class="fil4" transform="matrix(6.37644E-015 -0.408374 0.0405692 1.82972E-015 3311.64 6725.02)" width="720" height="8551"/>
       <rect class="fil2" transform="matrix(6.37644E-015 -0.408374 0.0405692 1.82972E-015 3311.64 6431.13)" width="720" height="8551"/>
       <rect class="fil4" transform="matrix(6.37644E-015 -0.408374 0.0405692 1.82972E-015 3311.64 6137.24)" width="720" height="8551"/>
       <rect class="fil2" transform="matrix(6.37644E-015 -0.408374 0.0405692 1.82972E-015 3311.64 5843.35)" width="720" height="8551"/>
       <rect class="fil4" transform="matrix(6.37644E-015 -0.408374 0.0405692 1.82972E-015 3311.64 5549.46)" width="720" height="8551"/>
       <rect class="fil2" transform="matrix(6.37644E-015 -0.408374 0.0405692 1.82972E-015 3311.64 5255.57)" width="720" height="8551"/>
       <rect class="fil4" transform="matrix(6.37644E-015 -0.408374 0.0405692 1.82972E-015 3311.64 4961.68)" width="720" height="8551"/>
       <rect class="fil2" transform="matrix(6.37644E-015 -0.408374 0.0405692 1.82972E-015 3311.64 4667.79)" width="720" height="8551"/>
       <rect class="fil4" transform="matrix(6.37644E-015 -0.408374 0.0405692 1.82972E-015 3311.64 4373.9)" width="720" height="8551"/>
       <rect class="fil2" transform="matrix(6.37644E-015 -0.408374 0.0405692 1.82972E-015 3311.64 4080.01)" width="720" height="8551"/>
       <rect class="fil4" transform="matrix(6.37644E-015 -0.408374 0.0405692 1.82972E-015 3311.64 3786.12)" width="720" height="8551"/>
       <rect class="fil2" transform="matrix(6.37644E-015 -0.408374 0.0405692 1.82972E-015 3311.64 3492.22)" width="720" height="8551"/>
       <rect class="fil4" transform="matrix(6.37644E-015 -0.408374 0.0405692 1.82972E-015 3311.64 3198.33)" width="720" height="8551"/>
       <rect class="fil2" transform="matrix(6.37644E-015 -0.408374 0.0405692 1.82972E-015 3311.64 2904.44)" width="720" height="8551"/>
       <rect class="fil4" transform="matrix(6.37644E-015 -0.408374 0.0405692 1.82972E-015 3311.64 2610.55)" width="720" height="8551"/>
      </g>
     </g>
     <g>
      <g>
       <rect class="fil4" transform="matrix(6.37644E-015 -0.408374 0.0405692 1.82972E-015 3658.56 6431.13)" width="720" height="8551"/>
       <rect class="fil2" transform="matrix(6.37644E-015 -0.408374 0.0405692 1.82972E-015 3658.56 6137.24)" width="720" height="8551"/>
       <rect class="fil4" transform="matrix(6.37644E-015 -0.408374 0.0405692 1.82972E-015 3658.56 5843.35)" width="720" height="8551"/>
       <rect class="fil2" transform="matrix(6.37644E-015 -0.408374 0.0405692 1.82972E-015 3658.56 5549.46)" width="720" height="8551"/>
       <rect class="fil4" transform="matrix(6.37644E-015 -0.408374 0.0405692 1.82972E-015 3658.56 5255.57)" width="720" height="8551"/>
       <rect class="fil2" transform="matrix(6.37644E-015 -0.408374 0.0405692 1.82972E-015 3658.56 4961.68)" width="720" height="8551"/>
       <rect class="fil4" transform="matrix(6.37644E-015 -0.408374 0.0405692 1.82972E-015 3658.56 4667.78)" width="720" height="8551"/>
       <rect class="fil2" transform="matrix(6.37644E-015 -0.408374 0.0405692 1.82972E-015 3658.56 4373.89)" width="720" height="8551"/>
       <rect class="fil4" transform="matrix(6.37644E-015 -0.408374 0.0405692 1.82972E-015 3658.56 4080)" width="720" height="8551"/>
       <rect class="fil2" transform="matrix(6.37644E-015 -0.408374 0.0405692 1.82972E-015 3658.56 3786.11)" width="720" height="8551"/>
       <rect class="fil4" transform="matrix(6.37644E-015 -0.408374 0.0405692 1.82972E-015 3658.56 3492.22)" width="720" height="8551"/>
       <rect class="fil2" transform="matrix(6.37644E-015 -0.408374 0.0405692 1.82972E-015 3658.56 3198.33)" width="720" height="8551"/>
       <rect class="fil4" transform="matrix(6.37644E-015 -0.408374 0.0405692 1.82972E-015 3658.56 2904.44)" width="720" height="8551"/>
       <rect class="fil2" transform="matrix(6.37644E-015 -0.408374 0.0405692 1.82972E-015 3658.56 2610.55)" width="720" height="8551"/>
       <rect class="fil4" transform="matrix(6.37644E-015 -0.408374 0.0405692 1.82972E-015 3658.56 2316.66)" width="720" height="8551"/>
      </g>
      <g>
       <rect class="fil4" transform="matrix(6.37644E-015 -0.408374 0.0405692 1.82972E-015 4005.48 6725.02)" width="720" height="8551"/>
       <rect class="fil2" transform="matrix(6.37644E-015 -0.408374 0.0405692 1.82972E-015 4005.48 6431.13)" width="720" height="8551"/>
       <rect class="fil4" transform="matrix(6.37644E-015 -0.408374 0.0405692 1.82972E-015 4005.48 6137.24)" width="720" height="8551"/>
       <rect class="fil2" transform="matrix(6.37644E-015 -0.408374 0.0405692 1.82972E-015 4005.48 5843.35)" width="720" height="8551"/>
       <rect class="fil4" transform="matrix(6.37644E-015 -0.408374 0.0405692 1.82972E-015 4005.48 5549.46)" width="720" height="8551"/>
       <rect class="fil2" transform="matrix(6.37644E-015 -0.408374 0.0405692 1.82972E-015 4005.48 5255.57)" width="720" height="8551"/>
       <rect class="fil4" transform="matrix(6.37644E-015 -0.408374 0.0405692 1.82972E-015 4005.48 4961.68)" width="720" height="8551"/>
       <rect class="fil2" transform="matrix(6.37644E-015 -0.408374 0.0405692 1.82972E-015 4005.48 4667.79)" width="720" height="8551"/>
       <rect class="fil4" transform="matrix(6.37644E-015 -0.408374 0.0405692 1.82972E-015 4005.48 4373.9)" width="720" height="8551"/>
       <rect class="fil2" transform="matrix(6.37644E-015 -0.408374 0.0405692 1.82972E-015 4005.48 4080.01)" width="720" height="8551"/>
       <rect class="fil4" transform="matrix(6.37644E-015 -0.408374 0.0405692 1.82972E-015 4005.48 3786.12)" width="720" height="8551"/>
       <rect class="fil2" transform="matrix(6.37644E-015 -0.408374 0.0405692 1.82972E-015 4005.48 3492.22)" width="720" height="8551"/>
       <rect class="fil4" transform="matrix(6.37644E-015 -0.408374 0.0405692 1.82972E-015 4005.48 3198.33)" width="720" height="8551"/>
       <rect class="fil2" transform="matrix(6.37644E-015 -0.408374 0.0405692 1.82972E-015 4005.48 2904.44)" width="720" height="8551"/>
       <rect class="fil4" transform="matrix(6.37644E-015 -0.408374 0.0405692 1.82972E-015 4005.48 2610.55)" width="720" height="8551"/>
      </g>
     </g>
     <g>
      <g>
       <rect class="fil4" transform="matrix(6.37644E-015 -0.408374 0.0405692 1.82972E-015 4352.4 6431.13)" width="720" height="8551"/>
       <rect class="fil2" transform="matrix(6.37644E-015 -0.408374 0.0405692 1.82972E-015 4352.4 6137.24)" width="720" height="8551"/>
       <rect class="fil4" transform="matrix(6.37644E-015 -0.408374 0.0405692 1.82972E-015 4352.4 5843.35)" width="720" height="8551"/>
       <rect class="fil2" transform="matrix(6.37644E-015 -0.408374 0.0405692 1.82972E-015 4352.4 5549.46)" width="720" height="8551"/>
       <rect class="fil4" transform="matrix(6.37644E-015 -0.408374 0.0405692 1.82972E-015 4352.4 5255.57)" width="720" height="8551"/>
       <rect class="fil2" transform="matrix(6.37644E-015 -0.408374 0.0405692 1.82972E-015 4352.4 4961.68)" width="720" height="8551"/>
       <rect class="fil4" transform="matrix(6.37644E-015 -0.408374 0.0405692 1.82972E-015 4352.4 4667.78)" width="720" height="8551"/>
       <rect class="fil2" transform="matrix(6.37644E-015 -0.408374 0.0405692 1.82972E-015 4352.4 4373.89)" width="720" height="8551"/>
       <rect class="fil4" transform="matrix(6.37644E-015 -0.408374 0.0405692 1.82972E-015 4352.4 4080)" width="720" height="8551"/>
       <rect class="fil2" transform="matrix(6.37644E-015 -0.408374 0.0405692 1.82972E-015 4352.4 3786.11)" width="720" height="8551"/>
       <rect class="fil4" transform="matrix(6.37644E-015 -0.408374 0.0405692 1.82972E-015 4352.4 3492.22)" width="720" height="8551"/>
       <rect class="fil2" transform="matrix(6.37644E-015 -0.408374 0.0405692 1.82972E-015 4352.4 3198.33)" width="720" height="8551"/>
       <rect class="fil4" transform="matrix(6.37644E-015 -0.408374 0.0405692 1.82972E-015 4352.4 2904.44)" width="720" height="8551"/>
       <rect class="fil2" transform="matrix(6.37644E-015 -0.408374 0.0405692 1.82972E-015 4352.4 2610.55)" width="720" height="8551"/>
       <rect class="fil4" transform="matrix(6.37644E-015 -0.408374 0.0405692 1.82972E-015 4352.4 2316.66)" width="720" height="8551"/>
      </g>
      <g>
       <rect class="fil4" transform="matrix(6.37644E-015 -0.408374 0.0405692 1.82972E-015 4699.32 6725.02)" width="720" height="8551"/>
       <rect class="fil2" transform="matrix(6.37644E-015 -0.408374 0.0405692 1.82972E-015 4699.32 6431.13)" width="720" height="8551"/>
       <rect class="fil4" transform="matrix(6.37644E-015 -0.408374 0.0405692 1.82972E-015 4699.32 6137.24)" width="720" height="8551"/>
       <rect class="fil2" transform="matrix(6.37644E-015 -0.408374 0.0405692 1.82972E-015 4699.32 5843.35)" width="720" height="8551"/>
       <rect class="fil4" transform="matrix(6.37644E-015 -0.408374 0.0405692 1.82972E-015 4699.32 5549.46)" width="720" height="8551"/>
       <rect class="fil2" transform="matrix(6.37644E-015 -0.408374 0.0405692 1.82972E-015 4699.32 5255.57)" width="720" height="8551"/>
       <rect class="fil4" transform="matrix(6.37644E-015 -0.408374 0.0405692 1.82972E-015 4699.32 4961.68)" width="720" height="8551"/>
       <rect class="fil2" transform="matrix(6.37644E-015 -0.408374 0.0405692 1.82972E-015 4699.32 4667.79)" width="720" height="8551"/>
       <rect class="fil4" transform="matrix(6.37644E-015 -0.408374 0.0405692 1.82972E-015 4699.32 4373.9)" width="720" height="8551"/>
       <rect class="fil2" transform="matrix(6.37644E-015 -0.408374 0.0405692 1.82972E-015 4699.32 4080.01)" width="720" height="8551"/>
       <rect class="fil4" transform="matrix(6.37644E-015 -0.408374 0.0405692 1.82972E-015 4699.32 3786.12)" width="720" height="8551"/>
       <rect class="fil2" transform="matrix(6.37644E-015 -0.408374 0.0405692 1.82972E-015 4699.32 3492.22)" width="720" height="8551"/>
       <rect class="fil4" transform="matrix(6.37644E-015 -0.408374 0.0405692 1.82972E-015 4699.32 3198.33)" width="720" height="8551"/>
       <rect class="fil2" transform="matrix(6.37644E-015 -0.408374 0.0405692 1.82972E-015 4699.32 2904.44)" width="720" height="8551"/>
       <rect class="fil4" transform="matrix(6.37644E-015 -0.408374 0.0405692 1.82972E-015 4699.32 2610.55)" width="720" height="8551"/>
      </g>
     </g>
    </g>
   </g>
   <path class="fil5" d="M3653 3414c572,0 1035,561 1035,1254 0,693 -463,1255 -1035,1255l-951 96 0 -854c-54,-152 -84,-320 -84,-497 0,-176 30,-344 84,-496l0 -854 951 96z"/>
   <ellipse class="fil6" cx="2702" cy="4668" rx="1114" ry="1350"/>
   <path class="fil3" d="M3737 2488c125,-265 -33,-603 -354,-756 -321,-152 -683,-61 -809,204l-254 420 396 187c59,59 130,110 211,149 82,39 167,62 249,70l396 188 165 -462z"/>
   <g style="clip-path:url(#id2)">
    <g>
     <g>
      <polygon id="1" class="fil2" points="1912,1327 2270,1097 2270,1097 2355,1043 2409,1128 2584,1401 2857,1226 2942,1171 2997,1256 2997,1256 3172,1529 3445,1354 3445,1354 3529,1299 3584,1384 3759,1657 4032,1482 4117,1427 4171,1512 4171,1512 4401,1870 4316,1924 4087,1567 3814,1742 3814,1742 3729,1796 3674,1711 3674,1711 3499,1439 3226,1614 3226,1614 3141,1668 3087,1583 3087,1583 2912,1310 2639,1486 2639,1486 2554,1540 2499,1455 2499,1455 2324,1182 1966,1412 "/>
      <polygon class="fil4" points="1882,1466 2239,1237 2239,1237 2324,1182 2379,1267 2554,1540 2827,1365 2912,1310 2966,1395 2966,1395 3141,1668 3414,1493 3414,1493 3499,1439 3554,1523 3729,1796 4002,1621 4087,1567 4141,1652 4141,1652 4371,2009 4286,2064 4056,1706 3783,1881 3783,1881 3698,1936 3644,1851 3644,1851 3469,1578 3196,1753 3196,1753 3111,1807 3056,1723 3056,1723 2881,1450 2608,1625 2608,1625 2524,1679 2469,1594 2469,1594 2294,1321 1936,1551 "/>
      <polygon class="fil2" points="1851,1606 2209,1376 2209,1376 2294,1321 2348,1406 2524,1679 2796,1504 2881,1450 2936,1534 2936,1534 3111,1807 3384,1632 3384,1632 3469,1578 3523,1663 3698,1936 3971,1760 4056,1706 4111,1791 4111,1791 4340,2149 4255,2203 4026,1845 3753,2020 3753,2020 3668,2075 3613,1990 3613,1990 3438,1717 3165,1892 3165,1892 3081,1947 3026,1862 3026,1862 2851,1589 2578,1764 2578,1764 2493,1819 2439,1734 2439,1734 2263,1461 1906,1690 "/>
      <polygon class="fil4" points="1821,1745 2179,1515 2179,1515 2263,1461 2318,1546 2493,1819 2766,1643 2851,1589 2905,1674 2905,1674 3081,1947 3353,1772 3353,1772 3438,1717 3493,1802 3668,2075 3941,1900 4026,1845 4080,1930 4080,1930 4310,2288 4225,2342 3995,1985 3722,2160 3722,2160 3638,2214 3583,2129 3583,2129 3408,1856 3135,2032 3135,2032 3050,2086 2996,2001 2996,2001 2821,1728 2548,1903 2548,1903 2463,1958 2408,1873 2408,1873 2233,1600 1875,1830 "/>
      <polygon class="fil2" points="1790,1884 2148,1654 2148,1654 2233,1600 2288,1685 2463,1958 2736,1783 2821,1728 2875,1813 2875,1813 3050,2086 3323,1911 3323,1911 3408,1856 3462,1941 3638,2214 3911,2039 3995,1985 4050,2069 4050,2069 4279,2427 4195,2482 3965,2124 3692,2299 3692,2299 3607,2353 3553,2269 3553,2269 3378,1996 3105,2171 3105,2171 3020,2225 2965,2140 2965,2140 2790,1867 2517,2043 2517,2043 2432,2097 2378,2012 2378,2012 2203,1739 1845,1969 "/>
      <polygon class="fil4" points="1760,2023 2118,1794 2118,1794 2203,1739 2257,1824 2432,2097 2705,1922 2790,1867 2845,1952 2845,1952 3020,2225 3293,2050 3293,2050 3378,1996 3432,2080 3607,2353 3880,2178 3965,2124 4019,2209 4019,2209 4249,2566 4164,2621 3935,2263 3662,2438 3662,2438 3577,2493 3522,2408 3522,2408 3347,2135 3074,2310 3074,2310 2989,2365 2935,2280 2935,2280 2760,2007 2487,2182 2487,2182 2402,2236 2347,2152 2347,2152 2172,1879 1815,2108 "/>
      <polygon class="fil2" points="1730,2163 2087,1933 2087,1933 2172,1879 2227,1963 2402,2236 2675,2061 2760,2007 2814,2092 2814,2092 2989,2365 3262,2189 3262,2189 3347,2135 3402,2220 3577,2493 3850,2318 3935,2263 3989,2348 3989,2348 4219,2706 4134,2760 3904,2402 3631,2578 3631,2578 3546,2632 3492,2547 3492,2547 3317,2274 3044,2449 3044,2449 2959,2504 2905,2419 2905,2419 2729,2146 2456,2321 2456,2321 2372,2376 2317,2291 2317,2291 2142,2018 1784,2247 "/>
      <polygon class="fil4" points="1699,2302 2057,2072 2057,2072 2142,2018 2196,2103 2372,2376 2645,2200 2729,2146 2784,2231 2784,2231 2959,2504 3232,2329 3232,2329 3317,2274 3371,2359 3546,2632 3819,2457 3904,2402 3959,2487 3959,2487 4188,2845 4103,2899 3874,2542 3601,2717 3601,2717 3516,2771 3462,2686 3462,2686 3286,2413 3013,2589 3013,2589 2929,2643 2874,2558 2874,2558 2699,2285 2426,2460 2426,2460 2341,2515 2287,2430 2287,2430 2112,2157 1754,2387 "/>
     </g>
    </g>
   </g>
   <path class="fil5" d="M3737 2488c125,-265 -33,-603 -354,-756 -321,-152 -683,-61 -809,204l-254 420 396 187c59,59 130,110 211,149 82,39 167,62 249,70l396 188 165 -462z"/>
   <circle class="fil6" transform="matrix(0.111344 -0.234449 -0.284181 -0.134963 2946.05 2652.61)" r="2201"/>
   <path class="fil4" d="M5018 2449c92,-263 -91,-567 -410,-679 -319,-111 -652,11 -744,274l-197 422 392 138c61,49 134,90 215,119 81,28 163,41 242,41l393 138 109 -453z"/>
   <g style="clip-path:url(#id3)">
    <g>
     <g>
      <g>
       <circle class="fil2" cx="3670" cy="1439" r="78"/>
       <circle class="fil2" cx="4126" cy="1439" r="78"/>
       <circle class="fil2" cx="3898" cy="1439" r="78"/>
       <circle class="fil2" cx="4354" cy="1439" r="78"/>
       <circle class="fil2" cx="4582" cy="1439" r="78"/>
       <circle class="fil2" cx="4810" cy="1439" r="78"/>
       <circle class="fil2" cx="5039" cy="1439" r="78"/>
      </g>
      <g>
       <circle class="fil2" cx="3670" cy="2973" r="78"/>
       <circle class="fil2" cx="4126" cy="2973" r="78"/>
       <circle class="fil2" cx="3898" cy="2973" r="78"/>
       <circle class="fil2" cx="4354" cy="2973" r="78"/>
       <circle class="fil2" cx="4582" cy="2973" r="78"/>
       <circle class="fil2" cx="4810" cy="2973" r="78"/>
       <circle class="fil2" cx="5039" cy="2973" r="78"/>
      </g>
      <g>
       <circle class="fil2" cx="3670" cy="2754" r="78"/>
       <circle class="fil2" cx="4126" cy="2754" r="78"/>
       <circle class="fil2" cx="3898" cy="2754" r="78"/>
       <circle class="fil2" cx="4354" cy="2754" r="78"/>
       <circle class="fil2" cx="4582" cy="2754" r="78"/>
       <circle class="fil2" cx="4810" cy="2754" r="78"/>
       <circle class="fil2" cx="5039" cy="2754" r="78"/>
      </g>
      <g>
       <circle class="fil2" cx="3670" cy="2534" r="78"/>
       <circle class="fil2" cx="4126" cy="2534" r="78"/>
       <circle class="fil2" cx="3898" cy="2534" r="78"/>
       <circle class="fil2" cx="4354" cy="2534" r="78"/>
       <circle class="fil2" cx="4582" cy="2534" r="78"/>
       <circle class="fil2" cx="4810" cy="2534" r="78"/>
       <circle class="fil2" cx="5039" cy="2534" r="78"/>
      </g>
      <g>
       <circle class="fil2" cx="3670" cy="2315" r="78"/>
       <circle class="fil2" cx="4126" cy="2315" r="78"/>
       <circle class="fil2" cx="3898" cy="2315" r="78"/>
       <circle class="fil2" cx="4354" cy="2315" r="78"/>
       <circle class="fil2" cx="4582" cy="2315" r="78"/>
       <circle class="fil2" cx="4810" cy="2315" r="78"/>
       <circle class="fil2" cx="5039" cy="2315" r="78"/>
      </g>
      <g>
       <circle class="fil2" cx="3670" cy="2096" r="78"/>
       <circle class="fil2" cx="4126" cy="2096" r="78"/>
       <circle class="fil2" cx="3898" cy="2096" r="78"/>
       <circle class="fil2" cx="4354" cy="2096" r="78"/>
       <circle class="fil2" cx="4582" cy="2096" r="78"/>
       <circle class="fil2" cx="4810" cy="2096" r="78"/>
       <circle class="fil2" cx="5039" cy="2096" r="78"/>
      </g>
      <g>
       <circle class="fil2" cx="3670" cy="1877" r="78"/>
       <circle class="fil2" cx="4126" cy="1877" r="78"/>
       <circle class="fil2" cx="3898" cy="1877" r="78"/>
       <circle class="fil2" cx="4354" cy="1877" r="78"/>
       <circle class="fil2" cx="4582" cy="1877" r="78"/>
       <circle class="fil2" cx="4810" cy="1877" r="78"/>
       <circle class="fil2" cx="5039" cy="1877" r="78"/>
      </g>
      <g>
       <circle class="fil2" cx="3670" cy="1658" r="78"/>
       <circle class="fil2" cx="4126" cy="1658" r="78"/>
       <circle class="fil2" cx="3898" cy="1658" r="78"/>
       <circle class="fil2" cx="4354" cy="1658" r="78"/>
       <circle class="fil2" cx="4582" cy="1658" r="78"/>
       <circle class="fil2" cx="4810" cy="1658" r="78"/>
       <circle class="fil2" cx="5039" cy="1658" r="78"/>
      </g>
      <g>
       <circle class="fil2" cx="3670" cy="3192" r="78"/>
       <circle class="fil2" cx="4126" cy="3192" r="78"/>
       <circle class="fil2" cx="3898" cy="3192" r="78"/>
       <circle class="fil2" cx="4354" cy="3192" r="78"/>
       <circle class="fil2" cx="4582" cy="3192" r="78"/>
       <circle class="fil2" cx="4810" cy="3192" r="78"/>
       <circle class="fil2" cx="5039" cy="3192" r="78"/>
      </g>
     </g>
    </g>
   </g>
   <path class="fil5" d="M5018 2449c92,-263 -91,-567 -410,-679 -319,-111 -652,11 -744,274l-197 422 392 138c61,49 134,90 215,119 81,28 163,41 242,41l393 138 109 -453z"/>
   <circle class="fil6" transform="matrix(0.0816777 -0.232728 -0.282095 -0.0990032 4287.64 2683.78)" r="2201"/>
   <path class="fil3" d="M6511 3830c0,45 -391,81 -873,81 -482,0 -873,-36 -873,-81l0 -688 1746 0 0 688z"/>
   <g style="clip-path:url(#id4)">
    <g>
     <g>
      <rect class="fil2" x="4651" y="2793" width="123" height="1467"/>
      <rect class="fil4" x="4774" y="2793" width="123" height="1467"/>
      <rect class="fil2" x="4898" y="2793" width="123" height="1467"/>
      <rect class="fil4" x="5021" y="2793" width="123" height="1467"/>
      <rect class="fil2" x="5144" y="2793" width="123" height="1467"/>
      <rect class="fil4" x="5268" y="2793" width="123" height="1467"/>
      <rect class="fil2" x="5391" y="2793" width="123" height="1467"/>
      <rect class="fil4" x="5515" y="2793" width="123" height="1467"/>
      <rect class="fil2" x="5638" y="2793" width="123" height="1467"/>
      <rect class="fil4" x="5761" y="2793" width="123" height="1467"/>
      <rect class="fil2" x="5885" y="2793" width="123" height="1467"/>
      <rect class="fil4" x="6008" y="2793" width="123" height="1467"/>
      <rect class="fil2" x="6132" y="2793" width="123" height="1467"/>
      <rect class="fil4" x="6255" y="2793" width="123" height="1467"/>
      <rect class="fil2" x="6379" y="2793" width="123" height="1467"/>
      <rect class="fil5" x="6502" y="2793" width="123" height="1467"/>
     </g>
    </g>
   </g>
   <path class="fil5" d="M6511 3830c0,45 -391,81 -873,81 -482,0 -873,-36 -873,-81l0 -688 1746 0 0 688z"/>
   <ellipse class="fil6" cx="5638" cy="3142" rx="873" ry="81"/>
   <path class="fil3" d="M1372 1156c427,112 761,247 747,301 -14,55 -372,7 -798,-106 -427,-112 -761,-247 -747,-301 14,-54 372,-7 798,106z"/>
   <g style="clip-path:url(#id5)">
    <g>
     <g>
      <rect class="fil2" x="359" y="520" width="123" height="1467"/>
      <rect class="fil4" x="483" y="520" width="123" height="1467"/>
      <rect class="fil2" x="606" y="520" width="123" height="1467"/>
      <rect class="fil4" x="729" y="520" width="123" height="1467"/>
      <rect class="fil2" x="853" y="520" width="123" height="1467"/>
      <rect class="fil4" x="976" y="520" width="123" height="1467"/>
      <rect class="fil2" x="1100" y="520" width="123" height="1467"/>
      <rect class="fil4" x="1223" y="520" width="123" height="1467"/>
      <rect class="fil2" x="1347" y="520" width="123" height="1467"/>
      <rect class="fil4" x="1470" y="520" width="123" height="1467"/>
      <rect class="fil2" x="1593" y="520" width="123" height="1467"/>
      <rect class="fil4" x="1717" y="520" width="123" height="1467"/>
      <rect class="fil2" x="1840" y="520" width="123" height="1467"/>
      <rect class="fil4" x="1964" y="520" width="123" height="1467"/>
      <rect class="fil2" x="2087" y="520" width="123" height="1467"/>
      <rect class="fil5" x="2210" y="520" width="123" height="1467"/>
     </g>
    </g>
   </g>
   <path class="fil5" d="M1372 1156c427,112 761,247 747,301 -14,55 -372,7 -798,-106 -427,-112 -761,-247 -747,-301 14,-54 372,-7 798,106z"/>
   <path class="fil3" d="M7459 1644c441,-10 800,26 801,82 1,56 -355,110 -796,121 -441,10 -800,-26 -801,-82 -2,-56 355,-110 796,-121z"/>
   <g style="clip-path:url(#id6)">
    <g>
     <g>
      <rect class="fil2" x="6474" y="1012" width="123" height="1467"/>
      <rect class="fil4" x="6597" y="1012" width="123" height="1467"/>
      <rect class="fil2" x="6721" y="1012" width="123" height="1467"/>
      <rect class="fil4" x="6844" y="1012" width="123" height="1467"/>
      <rect class="fil2" x="6968" y="1012" width="123" height="1467"/>
      <rect class="fil4" x="7091" y="1012" width="123" height="1467"/>
      <rect class="fil2" x="7214" y="1012" width="123" height="1467"/>
      <rect class="fil4" x="7338" y="1012" width="123" height="1467"/>
      <rect class="fil2" x="7461" y="1012" width="123" height="1467"/>
      <rect class="fil4" x="7585" y="1012" width="123" height="1467"/>
      <rect class="fil2" x="7708" y="1012" width="123" height="1467"/>
      <rect class="fil4" x="7832" y="1012" width="123" height="1467"/>
      <rect class="fil2" x="7955" y="1012" width="123" height="1467"/>
      <rect class="fil4" x="8078" y="1012" width="123" height="1467"/>
      <rect class="fil2" x="8202" y="1012" width="123" height="1467"/>
      <rect class="fil5" x="8325" y="1012" width="123" height="1467"/>
     </g>
    </g>
   </g>
   <path class="fil5" d="M7459 1644c441,-10 800,26 801,82 1,56 -355,110 -796,121 -441,10 -800,-26 -801,-82 -2,-56 355,-110 796,-121z"/>
   <rect class="fil7" x="5638" y="3911" width="39.9903" height="1963.52"/>
   <rect class="fil7" x="7433" y="1847" width="30.422" height="3712.69"/>
   <rect class="fil7" x="1292" y="1351" width="28.1894" height="3836.73"/>
  </g>
  <g id="_2276731904112">
   <path class="fil8" d="M2822 5867c6,-15 22,-26 39,-26l846 0c23,0 42,19 42,43l0 236c0,24 -19,43 -42,43l-239 0 0 786c0,24 -20,43 -43,43l-282 0c-24,0 -43,-19 -43,-43l0 -786 -239 0c-17,0 -33,-11 -39,-26 -7,15 -22,26 -40,26l-238 0 0 786c0,24 -20,43 -43,43l-282 0c-24,0 -43,-19 -43,-43l0 -786 -239 0c-24,0 -43,-19 -43,-43l0 -236c0,-24 19,-43 43,-43l845 0c18,0 33,11 40,26zm-1982 507c101,46 160,129 160,261 0,261 -234,357 -462,357l-416 0c-24,0 -43,-19 -43,-43l0 -1065c0,-24 19,-43 43,-43l383 0c211,0 446,51 446,309 0,92 -42,173 -111,224zm755 392l-230 0 -45 193c-4,20 -21,33 -42,33l-288 0c-14,0 -26,-6 -35,-17 -8,-12 -10,-25 -6,-38l324 -1065c6,-19 22,-31 41,-31l341 0c19,0 36,12 41,31l325 1065c4,13 1,26 -7,38 -8,11 -20,17 -34,17l-299 0c-20,0 -37,-13 -41,-33l-45 -193zm2594 -96l360 0c23,0 43,20 43,43l0 236c0,24 -20,43 -43,43l-685 0c-24,0 -43,-19 -43,-43l0 -1065c0,-24 19,-43 43,-43l282 0c23,0 43,19 43,43l0 786zm868 -507l0 81 304 0c24,0 43,20 43,43l0 236c0,24 -19,43 -43,43l-304 0 0 104 380 0c23,0 43,20 43,43l0 236c0,24 -20,43 -43,43l-705 0c-23,0 -43,-19 -43,-43l0 -1065c0,-24 20,-43 43,-43l688 0c24,0 43,19 43,43l0 236c0,24 -19,43 -43,43l-363 0zm1379 849c-352,0 -537,-265 -537,-600 0,-338 186,-590 537,-590 351,0 538,253 538,590 0,335 -185,600 -538,600zm1010 -849l0 117 311 0c23,0 43,20 43,43l0 236c0,24 -20,43 -43,43l-311 0 0 347c0,24 -19,43 -43,43l-282 0c-24,0 -43,-19 -43,-43l0 -1065c0,-24 19,-43 43,-43l695 0c23,0 43,19 43,43l0 236c0,24 -20,43 -43,43l-370 0zm-7164 1464l-239 0c-24,0 -43,-19 -43,-43l0 -236c0,-23 19,-43 43,-43l845 0c24,0 43,20 43,43l0 236c0,24 -19,43 -43,43l-239 0 0 786c0,24 -19,43 -42,43l-282 0c-24,0 -43,-19 -43,-43l0 -786zm1088 75l232 0 0 -354c0,-23 20,-43 43,-43l282 0c24,0 43,20 43,43l0 1065c0,24 -19,43 -43,43l-282 0c-23,0 -43,-19 -43,-43l0 -379 -232 0 0 379c0,24 -19,43 -43,43l-281 0c-24,0 -43,-19 -43,-43l0 -1065c0,-23 19,-43 43,-43l281 0c24,0 43,20 43,43l0 354zm1118 -75l0 81 304 0c24,0 43,20 43,43l0 236c0,24 -19,43 -43,43l-304 0 0 104 380 0c23,0 43,20 43,43l0 236c0,24 -20,43 -43,43l-705 0c-24,0 -43,-19 -43,-43l0 -1065c0,-23 19,-43 43,-43l688 0c24,0 43,20 43,43l0 236c0,24 -19,43 -43,43l-363 0zm1648 211c101,46 161,129 161,261 0,262 -234,357 -463,357l-416 0c-23,0 -43,-19 -43,-43l0 -1065c0,-23 20,-43 43,-43l384 0c210,0 446,51 446,309 0,92 -42,173 -112,224zm755 392l-230 0 -44 193c-5,20 -22,33 -42,33l-288 0c-14,0 -27,-6 -35,-17 -8,-11 -11,-25 -6,-38l324 -1065c6,-19 22,-31 41,-31l341 0c19,0 35,12 41,31l324 1065c4,13 2,27 -6,38 -9,11 -21,17 -35,17l-298 0c-20,0 -37,-13 -42,-33l-45 -193zm1047 -431c-4,-48 -7,-95 -7,-143l0 -308c0,-23 20,-43 43,-43l269 0c24,0 43,20 43,43l0 1065c0,24 -19,43 -43,43l-288 0c-17,0 -32,-9 -39,-24l-233 -471c4,48 6,96 6,144l0 308c0,24 -19,43 -42,43l-269 0c-24,0 -43,-19 -43,-43l0 -1065c0,-23 19,-43 43,-43l288 0c17,0 31,9 39,24l233 470zm498 614l0 -1065c0,-23 19,-43 43,-43l314 0c371,0 591,190 591,571 0,368 -209,580 -574,580l-331 0c-24,0 -43,-19 -43,-43zm996 -160l161 -193c15,-18 41,-21 60,-6 58,47 146,94 222,94 22,0 78,1 78,-33 0,-24 -99,-56 -118,-64l-132 -55c-144,-58 -241,-177 -241,-336 0,-43 8,-86 24,-126 66,-167 243,-248 415,-248 141,0 283,56 384,155 16,15 17,40 4,57l-141 177c-15,18 -40,21 -59,8 -59,-42 -114,-69 -188,-69 -18,0 -68,1 -68,29 0,22 112,60 130,67l129 51c150,59 235,167 235,331 0,36 -5,71 -15,106 -60,193 -254,278 -444,278 -155,0 -316,-60 -432,-163 -17,-16 -19,-42 -4,-60zm-6986 -1992l52 0c49,0 92,-14 92,-69 0,-9 -1,-21 -7,-29 -15,-18 -64,-20 -85,-20l-52 0 0 118zm0 429l72 0c58,0 121,-8 121,-78 0,-14 -2,-29 -10,-40 -20,-27 -81,-29 -111,-29l-72 0 0 147zm990 -228l87 0 -4 -20c-14,-54 -27,-109 -39,-164 -12,55 -25,109 -39,164l-5 20zm5000 221c135,0 164,-168 164,-271 0,-107 -28,-262 -164,-262 -135,0 -163,155 -163,262 0,103 29,271 163,271zm-2693 1042l52 0c49,0 91,-14 91,-69 0,-9 -1,-21 -7,-28 -14,-19 -63,-20 -84,-20l-52 0 0 117zm0 429l72 0c58,0 121,-8 121,-78 0,-13 -2,-29 -11,-40 -20,-26 -81,-29 -110,-29l-72 0 0 147zm990 -228l87 0 -5 -20c-14,-54 -26,-109 -39,-164 -12,55 -24,110 -38,164l-5 20zm2071 218c158,-10 205,-106 205,-268 0,-168 -49,-250 -205,-258l0 526z"/>
  </g>
  <path class="fil9" d="M122 6949l416 0c229,0 419,-95 419,-314 0,-141 -75,-220 -226,-250l0 -6c125,-33 177,-138 177,-229 0,-210 -180,-266 -403,-266l-383 0 0 1065zm281 -645l0 -204 95 0c92,0 135,27 135,92 0,66 -43,112 -135,112l-95 0zm0 429l0 -233 115 0c112,0 164,33 164,112 0,78 -52,121 -164,121l-115 0z"/>
  <path id="1" class="fil9" d="M1382 6505l18 -74c26,-101 52,-229 75,-337l7 0c26,106 52,236 78,337l18 74 -196 0zm299 444l299 0 -325 -1065 -341 0 -324 1065 288 0 53 -226 298 0 52 226z"/>
  <polygon id="2" class="fil9" points="2219,6949 2501,6949 2501,6120 2782,6120 2782,5884 1937,5884 1937,6120 2219,6120 "/>
  <polygon id="3" class="fil9" points="3143,6949 3425,6949 3425,6120 3707,6120 3707,5884 2861,5884 2861,6120 3143,6120 "/>
  <polygon id="4" class="fil9" points="3864,6949 4549,6949 4549,6713 4146,6713 4146,5884 3864,5884 "/>
  <polygon id="5" class="fil9" points="4732,6949 5437,6949 5437,6713 5014,6713 5014,6523 5361,6523 5361,6287 5014,6287 5014,6120 5420,6120 5420,5884 4732,5884 "/>
  <path id="6" class="fil9" d="M6436 6969c295,0 495,-207 495,-557 0,-349 -200,-548 -495,-548 -295,0 -495,197 -495,548 0,350 200,557 495,557zm0 -243c-128,0 -206,-121 -206,-314 0,-194 78,-305 206,-305 128,0 207,111 207,305 0,193 -79,314 -207,314z"/>
  <polygon id="7" class="fil9" points="7121,6949 7403,6949 7403,6559 7757,6559 7757,6323 7403,6323 7403,6120 7816,6120 7816,5884 7121,5884 "/>
  <polygon id="8" class="fil9" points="325,8413 607,8413 607,7584 888,7584 888,7348 43,7348 43,7584 325,7584 "/>
  <polygon id="9" class="fil9" points="1046,8413 1327,8413 1327,7991 1645,7991 1645,8413 1927,8413 1927,7348 1645,7348 1645,7745 1327,7745 1327,7348 1046,7348 "/>
  <polygon id="10" class="fil9" points="2163,8413 2868,8413 2868,8177 2445,8177 2445,7987 2792,7987 2792,7751 2445,7751 2445,7584 2851,7584 2851,7348 2163,7348 "/>
  <path id="11" class="fil9" d="M3418 8413l416 0c230,0 420,-95 420,-314 0,-141 -76,-220 -226,-249l0 -7c124,-33 177,-137 177,-229 0,-210 -181,-266 -403,-266l-384 0 0 1065zm282 -645l0 -203 95 0c92,0 134,26 134,91 0,66 -42,112 -134,112l-95 0zm0 429l0 -233 115 0c111,0 164,33 164,112 0,78 -53,121 -164,121l-115 0z"/>
  <path id="12" class="fil9" d="M4678 7969l18 -73c26,-102 53,-230 76,-338l6 0c26,107 53,236 79,338l18 73 -197 0zm300 444l298 0 -324 -1065 -341 0 -324 1065 288 0 52 -226 299 0 52 226z"/>
  <path id="13" class="fil9" d="M5378 8413l269 0 0 -308c0,-131 -23,-285 -37,-406l7 0 102 238 236 476 288 0 0 -1065 -269 0 0 308c0,131 23,292 36,407l-6 0 -102 -240 -236 -475 -288 0 0 1065z"/>
  <path id="14" class="fil9" d="M6479 8413l331 0c308,0 531,-160 531,-537 0,-377 -223,-528 -548,-528l-314 0 0 1065zm282 -226l0 -613 16 0c154,0 275,53 275,302 0,249 -121,311 -275,311l-16 0z"/>
  <path id="15" class="fil9" d="M7465 8281c115,103 269,152 403,152 266,0 416,-161 416,-341 0,-147 -75,-239 -208,-291l-129 -51c-97,-38 -157,-56 -157,-107 0,-47 42,-72 111,-72 79,0 141,26 213,77l141 -177c-98,-96 -233,-142 -354,-142 -233,0 -396,149 -396,331 0,154 99,250 214,296l133 56c90,36 144,52 144,103 0,48 -36,75 -121,75 -79,0 -174,-42 -249,-103l-161 194z"/>
  <g id="_2276731901776">
   <path class="fil8" d="M5430 8243l0 -1000c0,-33 27,-59 59,-59l289 0c23,0 43,12 53,33l197 396c-1,-21 -1,-41 -1,-62l0 -308c0,-33 26,-59 59,-59l269 0c32,0 59,26 59,59l0 1065c0,33 -27,59 -59,59l-289 0c-23,0 -43,-12 -53,-33l-197 -398c1,22 2,43 2,64l0 308c0,33 -27,59 -60,59l-269 0c-21,0 -40,-11 -50,-28 -1,1 -2,3 -3,4 -12,16 -29,24 -48,24l-298 0c-28,0 -52,-18 -58,-46l-42 -180 -204 0 -42 180c-6,28 -29,46 -57,46l-289 0c-19,0 -36,-8 -47,-24 -12,-15 -15,-34 -9,-52l33 -110c-83,133 -257,186 -429,186l-416 0c-33,0 -59,-26 -59,-59l0 -1065c0,-33 26,-59 59,-59l383 0c221,0 463,57 463,324 0,89 -37,168 -98,222 93,50 147,136 147,263 0,9 0,18 -1,27l242 -794c8,-26 30,-42 57,-42l340 0c27,0 50,16 57,42l310 1017zm-2497 -2525c11,-9 25,-15 40,-15l845 0c33,0 60,27 60,60l0 236c0,32 -27,59 -60,59l-222 0 0 770c0,32 -27,59 -60,59l-281 0c-33,0 -60,-27 -60,-59l0 -770 -222 0c-15,0 -29,-6 -40,-15 -10,9 -24,15 -39,15l-222 0 0 770c0,32 -27,59 -60,59l-281 0c-33,0 -60,-27 -60,-59l0 -770 -222 0c-33,0 -60,-27 -60,-59l0 -236c0,-33 27,-60 60,-60l845 0c15,0 29,6 39,15zm-1806 821l242 -794c8,-25 31,-42 57,-42l341 0c26,0 49,17 57,42l324 1065c6,19 3,37 -9,53 -12,16 -28,24 -48,24l-298 0c-28,0 -51,-19 -58,-46l-41 -180 -204 0 -42 180c-6,27 -30,46 -58,46l-288 0c-20,0 -36,-8 -48,-24 -12,-16 -15,-34 -9,-53l33 -109c-82,132 -256,186 -429,186l-416 0c-32,0 -59,-27 -59,-59l0 -1065c0,-33 27,-60 59,-60l384 0c220,0 462,57 462,325 0,89 -36,167 -97,222 92,50 146,135 146,263 0,9 0,18 -1,26zm3190 -7l343 0c33,0 60,27 60,60l0 236c0,32 -27,59 -60,59l-684 0c-33,0 -60,-27 -60,-59l0 -1065c0,-33 27,-60 60,-60l281 0c33,0 60,27 60,60l0 769zm868 -474l0 48 288 0c33,0 59,27 59,60l0 236c0,32 -26,59 -59,59l-288 0 0 71 363 0c33,0 60,27 60,60l0 236c0,32 -27,59 -60,59l-704 0c-33,0 -59,-27 -59,-59l0 -1065c0,-33 26,-60 59,-60l688 0c33,0 59,27 59,60l0 236c0,32 -26,59 -59,59l-347 0zm1363 849c-362,0 -554,-272 -554,-617 0,-346 193,-606 554,-606 360,0 554,261 554,606 0,345 -192,617 -554,617zm1026 -849l0 84 295 0c32,0 59,27 59,60l0 236c0,32 -27,59 -59,59l-295 0 0 331c0,32 -27,59 -59,59l-282 0c-33,0 -60,-27 -60,-59l0 -1065c0,-33 27,-60 60,-60l695 0c32,0 59,27 59,60l0 236c0,32 -27,59 -59,59l-354 0zm-7197 1480l-222 0c-33,0 -60,-26 -60,-59l0 -236c0,-33 27,-59 60,-59l845 0c33,0 59,26 59,59l0 236c0,33 -26,59 -59,59l-222 0 0 770c0,33 -27,59 -60,59l-282 0c-32,0 -59,-26 -59,-59l0 -770zm1122 42l199 0 0 -337c0,-33 26,-59 59,-59l282 0c33,0 59,26 59,59l0 1065c0,33 -26,59 -59,59l-282 0c-33,0 -59,-26 -59,-59l0 -363 -199 0 0 363c0,33 -27,59 -60,59l-282 0c-32,0 -59,-26 -59,-59l0 -1065c0,-33 27,-59 59,-59l282 0c33,0 60,26 60,59l0 337zm1117 -42l0 49 288 0c33,0 59,26 59,59l0 236c0,33 -26,59 -59,59l-288 0 0 72 363 0c33,0 60,26 60,59l0 236c0,33 -27,59 -60,59l-704 0c-33,0 -60,-26 -60,-59l0 -1065c0,-33 27,-59 60,-59l688 0c33,0 59,26 59,59l0 236c0,33 -26,59 -59,59l-347 0zm3915 770l0 -1065c0,-33 27,-59 60,-59l314 0c379,0 607,197 607,587 0,377 -216,596 -590,596l-331 0c-33,0 -60,-26 -60,-59zm1517 -298c-12,-13 -90,-42 -107,-49l-132 -55c-151,-60 -252,-185 -252,-352 0,-45 8,-89 25,-131 69,-174 252,-259 431,-259 145,0 291,58 395,160 22,21 24,55 5,79l-141 177c-19,24 -55,30 -80,11 -57,-39 -109,-66 -179,-66 -10,0 -45,2 -52,11 0,0 0,0 0,0 15,15 101,46 119,53l130 51c156,61 245,176 245,347 0,37 -5,74 -16,110 -62,201 -262,290 -459,290 -159,0 -324,-61 -443,-168 -23,-21 -26,-57 -6,-82l161 -193c20,-25 57,-29 83,-8 55,44 139,90 212,90 10,0 53,-2 61,-11 0,-1 0,-3 0,-5zm-7474 -1887l36 0c39,0 75,-8 75,-52 0,-5 0,-15 -3,-19 -10,-12 -59,-14 -72,-14l-36 0 0 85zm0 429l56 0c48,0 104,-3 104,-62 0,-9 -1,-22 -7,-29 -15,-21 -75,-23 -97,-23l-56 0 0 114zm995 -228l45 0c-8,-31 -15,-62 -22,-93 -8,31 -15,62 -23,93l0 0zm4979 222c123,0 147,-163 147,-256 0,-96 -23,-245 -147,-245 -124,0 -147,149 -147,245 0,93 24,256 147,256zm-2677 1057l36 0c39,0 75,-7 75,-52 0,-5 -1,-15 -4,-19 -9,-12 -58,-13 -71,-13l-36 0 0 84zm0 429l55 0c48,0 105,-3 105,-61 0,-10 -1,-22 -7,-30 -16,-21 -75,-23 -98,-23l-55 0 0 114zm994 -227l46 0c-8,-31 -16,-62 -23,-94 -7,32 -15,63 -22,93l-1 1zm2067 215c135,-14 173,-102 173,-249 0,-152 -40,-228 -173,-241l0 490z"/>
  </g>
  <path class="fil10" d="M233 6828l416 0c230,0 420,-95 420,-315 0,-141 -75,-219 -226,-249l0 -7c124,-32 177,-137 177,-229 0,-210 -180,-265 -403,-265l-384 0 0 1065zm282 -646l0 -203 95 0c92,0 134,26 134,92 0,65 -42,111 -134,111l-95 0zm0 429l0 -232 115 0c111,0 164,33 164,111 0,79 -53,121 -164,121l-115 0z"/>
  <path id="1" class="fil10" d="M1493 6384l18 -74c26,-102 53,-229 76,-338l6 0c26,107 53,236 79,338l18 74 -197 0zm300 444l298 0 -324 -1065 -341 0 -324 1065 288 0 52 -226 299 0 52 226z"/>
  <polygon id="2" class="fil10" points="2331,6828 2612,6828 2612,5999 2894,5999 2894,5763 2049,5763 2049,5999 2331,5999 "/>
  <polygon id="3" class="fil10" points="3255,6828 3536,6828 3536,5999 3818,5999 3818,5763 2973,5763 2973,5999 3255,5999 "/>
  <polygon id="4" class="fil10" points="3976,6828 4660,6828 4660,6592 4257,6592 4257,5763 3976,5763 "/>
  <polygon id="5" class="fil10" points="4844,6828 5548,6828 5548,6592 5126,6592 5126,6402 5473,6402 5473,6166 5126,6166 5126,5999 5532,5999 5532,5763 4844,5763 "/>
  <path id="6" class="fil10" d="M6548 6847c295,0 495,-206 495,-557 0,-349 -200,-547 -495,-547 -295,0 -495,197 -495,547 0,351 200,557 495,557zm0 -242c-128,0 -207,-121 -207,-315 0,-193 79,-304 207,-304 128,0 206,111 206,304 0,194 -78,315 -206,315z"/>
  <polygon id="7" class="fil10" points="7233,6828 7515,6828 7515,6438 7869,6438 7869,6202 7515,6202 7515,5999 7928,5999 7928,5763 7233,5763 "/>
  <polygon id="8" class="fil10" points="436,8308 718,8308 718,7479 1000,7479 1000,7243 155,7243 155,7479 436,7479 "/>
  <polygon id="9" class="fil10" points="1157,8308 1439,8308 1439,7885 1757,7885 1757,8308 2039,8308 2039,7243 1757,7243 1757,7640 1439,7640 1439,7243 1157,7243 "/>
  <polygon id="10" class="fil10" points="2275,8308 2979,8308 2979,8072 2557,8072 2557,7882 2904,7882 2904,7646 2557,7646 2557,7479 2963,7479 2963,7243 2275,7243 "/>
  <path id="11" class="fil10" d="M3530 8308l416 0c229,0 420,-95 420,-315 0,-140 -76,-219 -227,-249l0 -6c125,-33 177,-138 177,-230 0,-209 -180,-265 -403,-265l-383 0 0 1065zm282 -646l0 -203 95 0c91,0 134,27 134,92 0,66 -43,111 -134,111l-95 0zm0 430l0 -233 114 0c112,0 164,33 164,112 0,78 -52,121 -164,121l-114 0z"/>
  <path id="12" class="fil10" d="M4790 7864l18 -74c26,-101 52,-229 75,-337l7 0c26,106 52,236 78,337l18 74 -196 0zm300 444l298 0 -325 -1065 -340 0 -325 1065 289 0 52 -226 298 0 53 226z"/>
  <path id="13" class="fil10" d="M5489 8308l269 0 0 -308c0,-131 -23,-285 -36,-406l7 0 101 237 236 477 289 0 0 -1065 -269 0 0 308c0,131 23,292 36,406l-7 0 -101 -239 -236 -475 -289 0 0 1065z"/>
  <path id="14" class="fil10" d="M6591 8308l331 0c308,0 530,-161 530,-537 0,-377 -222,-528 -547,-528l-314 0 0 1065zm281 -226l0 -613 17 0c154,0 275,53 275,302 0,249 -121,311 -275,311l-17 0z"/>
  <path id="15" class="fil10" d="M7577 8175c115,104 269,153 403,153 265,0 416,-161 416,-341 0,-148 -75,-239 -208,-292l-129 -51c-97,-37 -158,-55 -158,-106 0,-48 43,-72 112,-72 78,0 141,26 213,77l141 -177c-99,-97 -233,-143 -354,-143 -233,0 -397,149 -397,331 0,154 100,251 215,297l133 56c90,36 144,52 144,103 0,47 -36,75 -121,75 -79,0 -174,-42 -250,-103l-160 193z"/>
 </g>
</svg>
