<?xml version="1.0" encoding="UTF-8"?>
<!DOCTYPE svg PUBLIC "-//W3C//DTD SVG 1.1//EN" "http://www.w3.org/Graphics/SVG/1.1/DTD/svg11.dtd">
<!-- Creator: CorelDRAW X7 -->
<svg xmlns="http://www.w3.org/2000/svg" xml:space="preserve" width="84.6666mm" height="84.6666mm" version="1.1" style="shape-rendering:geometricPrecision; text-rendering:geometricPrecision; image-rendering:optimizeQuality; fill-rule:evenodd; clip-rule:evenodd"
viewBox="0 0 8467 8467"
 xmlns:xlink="http://www.w3.org/1999/xlink">
 <defs>
  <style type="text/css">
   <![CDATA[
    .fil6 {fill:none}
    .fil3 {fill:#5F214E}
    .fil7 {fill:black}
    .fil1 {fill:#79D1BF}
    .fil0 {fill:#90F5E1}
    .fil5 {fill:#FFC202}
    .fil2 {fill:#FFE51E}
    .fil4 {fill:white}
    .fil9 {fill:#FEFEFE;fill-rule:nonzero}
    .fil8 {fill:#5F214E;fill-rule:nonzero}
   ]]>
  </style>
   <clipPath id="id0">
    <path d="M4417 2583c810,0 1466,657 1466,1467 0,810 -656,1466 -1466,1466 -810,0 -1467,-656 -1467,-1466 0,-810 657,-1467 1467,-1467z"/>
   </clipPath>
   <clipPath id="id1">
    <path d="M6840 3386l619 0 0 1328 -619 0 0 -1328z"/>
   </clipPath>
 </defs>
 <g id="Layer_x0020_1">
  <metadata id="CorelCorpID_0Corel-Layer"/>
  <rect class="fil0" width="8467" height="8467"/>
  <rect class="fil1" y="381" width="8086" height="8086" rx="374" ry="374"/>
  <rect class="fil2" x="374" y="7" width="8086" height="8086" rx="374" ry="374"/>
  <circle class="fil3" cx="4417" cy="4050" r="3593"/>
  <circle class="fil4" cx="4417" cy="4050" r="1556"/>
  <path class="fil5" d="M4417 2583c810,0 1466,657 1466,1467 0,810 -656,1466 -1466,1466 -810,0 -1467,-656 -1467,-1466 0,-810 657,-1467 1467,-1467z"/>
  <g style="clip-path:url(#id0)">
   <g id="_2277155440640">
    <polygon id="1" class="fil3" points="-92,2741 972,1677 972,1677 1225,1425 1477,1677 2289,2489 3100,1677 3353,1425 3605,1677 3605,1677 4417,2489 5229,1677 5229,1677 5481,1425 5733,1677 6545,2489 7357,1677 7609,1425 7861,1677 7861,1677 8925,2741 8673,2993 7609,1929 6797,2741 6797,2741 6545,2993 6293,2741 6293,2741 5481,1929 4669,2741 4669,2741 4417,2993 4164,2741 4165,2741 3353,1929 2541,2741 2541,2741 2289,2993 2036,2741 2036,2741 1225,1929 160,2993 "/>
    <polygon class="fil2" points="-92,3246 972,2181 972,2181 1225,1929 1477,2181 2289,2993 3100,2181 3353,1929 3605,2181 3605,2181 4417,2993 5229,2181 5229,2181 5481,1929 5733,2181 6545,2993 7357,2181 7609,1929 7861,2181 7861,2181 8925,3246 8673,3498 7609,2434 6797,3246 6797,3246 6545,3498 6293,3246 6293,3246 5481,2434 4669,3246 4669,3246 4417,3498 4164,3246 4165,3246 3353,2434 2541,3246 2541,3246 2289,3498 2036,3246 2036,3246 1225,2434 160,3498 "/>
    <polygon class="fil3" points="-92,3750 972,2686 972,2686 1225,2434 1477,2686 2289,3498 3100,2686 3353,2434 3605,2686 3605,2686 4417,3498 5229,2686 5229,2686 5481,2434 5733,2686 6545,3498 7357,2686 7609,2434 7861,2686 7861,2686 8925,3750 8673,4002 7609,2938 6797,3750 6797,3750 6545,4002 6293,3750 6293,3750 5481,2938 4669,3750 4669,3750 4417,4002 4164,3750 4165,3750 3353,2938 2541,3750 2541,3750 2289,4002 2036,3750 2036,3750 1225,2938 160,4002 "/>
    <polygon class="fil2" points="-92,4255 972,3191 972,3191 1225,2938 1477,3191 2289,4002 3100,3191 3353,2938 3605,3191 3605,3191 4417,4002 5229,3191 5229,3191 5481,2938 5733,3191 6545,4002 7357,3191 7609,2938 7861,3191 7861,3191 8925,4255 8673,4507 7609,3443 6797,4255 6797,4255 6545,4507 6293,4255 6293,4255 5481,3443 4669,4255 4669,4255 4417,4507 4164,4255 4165,4255 3353,3443 2541,4255 2541,4255 2289,4507 2036,4255 2036,4255 1225,3443 160,4507 "/>
    <polygon class="fil3" points="-92,4759 972,3695 972,3695 1225,3443 1477,3695 2289,4507 3100,3695 3353,3443 3605,3695 3605,3695 4417,4507 5229,3695 5229,3695 5481,3443 5733,3695 6545,4507 7357,3695 7609,3443 7861,3695 7861,3695 8925,4759 8673,5012 7609,3948 6797,4759 6797,4759 6545,5012 6293,4759 6293,4759 5481,3948 4669,4759 4669,4759 4417,5012 4164,4759 4165,4759 3353,3948 2541,4759 2541,4759 2289,5012 2036,4759 2036,4759 1225,3948 160,5012 "/>
    <polygon class="fil2" points="-92,5264 972,4200 972,4200 1225,3948 1477,4200 2289,5012 3100,4200 3353,3948 3605,4200 3605,4200 4417,5012 5229,4200 5229,4200 5481,3948 5733,4200 6545,5012 7357,4200 7609,3948 7861,4200 7861,4200 8925,5264 8673,5516 7609,4452 6797,5264 6797,5264 6545,5516 6293,5264 6293,5264 5481,4452 4669,5264 4669,5264 4417,5516 4164,5264 4165,5264 3353,4452 2541,5264 2541,5264 2289,5516 2036,5264 2036,5264 1225,4452 160,5516 "/>
    <polygon class="fil3" points="-92,5769 972,4704 972,4704 1225,4452 1477,4704 2289,5516 3100,4704 3353,4452 3605,4704 3605,4704 4417,5516 5229,4704 5229,4704 5481,4452 5733,4704 6545,5516 7357,4704 7609,4452 7861,4704 7861,4704 8925,5769 8673,6021 7609,4957 6797,5769 6797,5769 6545,6021 6293,5769 6293,5769 5481,4957 4669,5769 4669,5769 4417,6021 4164,5769 4165,5769 3353,4957 2541,5769 2541,5769 2289,6021 2036,5769 2036,5769 1225,4957 160,6021 "/>
    <polygon class="fil2" points="-92,6273 972,5209 972,5209 1225,4957 1477,5209 2289,6021 3100,5209 3353,4957 3605,5209 3605,5209 4417,6021 5229,5209 5229,5209 5481,4957 5733,5209 6545,6021 7357,5209 7609,4957 7861,5209 7861,5209 8925,6273 8673,6525 7609,5461 6797,6273 6797,6273 6545,6525 6293,6273 6293,6273 5481,5461 4669,6273 4669,6273 4417,6525 4164,6273 4165,6273 3353,5461 2541,6273 2541,6273 2289,6525 2036,6273 2036,6273 1225,5461 160,6525 "/>
   </g>
  </g>
  <path class="fil6" d="M4417 2583c810,0 1466,657 1466,1467 0,810 -656,1466 -1466,1466 -810,0 -1467,-656 -1467,-1466 0,-810 657,-1467 1467,-1467z"/>
  <polygon class="fil2" points="6840,3386 7459,3386 7459,4714 6840,4714 "/>
  <g style="clip-path:url(#id1)">
   <g id="_2277155421760">
    <g>
     <g>
      <circle class="fil3" cx="6465" cy="3173" r="78"/>
      <circle class="fil3" cx="6921" cy="3173" r="78"/>
      <circle class="fil3" cx="6693" cy="3173" r="78"/>
      <circle class="fil3" cx="7149" cy="3173" r="78"/>
      <circle class="fil3" cx="7377" cy="3173" r="78"/>
      <circle class="fil3" cx="7605" cy="3173" r="78"/>
      <circle class="fil3" cx="7833" cy="3173" r="78"/>
     </g>
     <g>
      <circle class="fil3" cx="6465" cy="4707" r="78"/>
      <circle class="fil3" cx="6921" cy="4707" r="78"/>
      <circle class="fil3" cx="6693" cy="4707" r="78"/>
      <circle class="fil3" cx="7149" cy="4707" r="78"/>
      <circle class="fil3" cx="7377" cy="4707" r="78"/>
      <circle class="fil3" cx="7605" cy="4707" r="78"/>
      <circle class="fil3" cx="7833" cy="4707" r="78"/>
     </g>
     <g>
      <circle class="fil3" cx="6465" cy="4488" r="78"/>
      <circle class="fil3" cx="6921" cy="4488" r="78"/>
      <circle class="fil3" cx="6693" cy="4488" r="78"/>
      <circle class="fil3" cx="7149" cy="4488" r="78"/>
      <circle class="fil3" cx="7377" cy="4488" r="78"/>
      <circle class="fil3" cx="7605" cy="4488" r="78"/>
      <circle class="fil3" cx="7833" cy="4488" r="78"/>
     </g>
     <g>
      <circle class="fil3" cx="6465" cy="4269" r="78"/>
      <circle class="fil3" cx="6921" cy="4269" r="78"/>
      <circle class="fil3" cx="6693" cy="4269" r="78"/>
      <circle class="fil3" cx="7149" cy="4269" r="78"/>
      <circle class="fil3" cx="7377" cy="4269" r="78"/>
      <circle class="fil3" cx="7605" cy="4269" r="78"/>
      <circle class="fil3" cx="7833" cy="4269" r="78"/>
     </g>
     <g>
      <circle class="fil3" cx="6465" cy="4050" r="78"/>
      <circle class="fil3" cx="6921" cy="4050" r="78"/>
      <circle class="fil3" cx="6693" cy="4050" r="78"/>
      <circle class="fil3" cx="7149" cy="4050" r="78"/>
      <circle class="fil3" cx="7377" cy="4050" r="78"/>
      <circle class="fil3" cx="7605" cy="4050" r="78"/>
      <circle class="fil3" cx="7833" cy="4050" r="78"/>
     </g>
     <g>
      <circle class="fil3" cx="6465" cy="3831" r="78"/>
      <circle class="fil3" cx="6921" cy="3831" r="78"/>
      <circle class="fil3" cx="6693" cy="3831" r="78"/>
      <circle class="fil3" cx="7149" cy="3831" r="78"/>
      <circle class="fil3" cx="7377" cy="3831" r="78"/>
      <circle class="fil3" cx="7605" cy="3831" r="78"/>
      <circle class="fil3" cx="7833" cy="3831" r="78"/>
     </g>
     <g>
      <circle class="fil3" cx="6465" cy="3612" r="78"/>
      <circle class="fil3" cx="6921" cy="3612" r="78"/>
      <circle class="fil3" cx="6693" cy="3612" r="78"/>
      <circle class="fil3" cx="7149" cy="3612" r="78"/>
      <circle class="fil3" cx="7377" cy="3612" r="78"/>
      <circle class="fil3" cx="7605" cy="3612" r="78"/>
      <circle class="fil3" cx="7833" cy="3612" r="78"/>
     </g>
     <g>
      <circle class="fil3" cx="6465" cy="3393" r="78"/>
      <circle class="fil3" cx="6921" cy="3393" r="78"/>
      <circle class="fil3" cx="6693" cy="3393" r="78"/>
      <circle class="fil3" cx="7149" cy="3393" r="78"/>
      <circle class="fil3" cx="7377" cy="3393" r="78"/>
      <circle class="fil3" cx="7605" cy="3393" r="78"/>
      <circle class="fil3" cx="7833" cy="3393" r="78"/>
     </g>
     <g>
      <circle class="fil3" cx="6465" cy="4926" r="78"/>
      <circle class="fil3" cx="6921" cy="4926" r="78"/>
      <circle class="fil3" cx="6693" cy="4926" r="78"/>
      <circle class="fil3" cx="7149" cy="4926" r="78"/>
      <circle class="fil3" cx="7377" cy="4926" r="78"/>
      <circle class="fil3" cx="7605" cy="4926" r="78"/>
      <circle class="fil3" cx="7833" cy="4926" r="78"/>
     </g>
    </g>
   </g>
  </g>
  <polygon class="fil6" points="6840,3386 7459,3386 7459,4714 6840,4714 "/>
  <path class="fil4" d="M7233 603l0 2783 -168 0 0 -2783c0,-46 37,-84 84,-84 47,0 84,38 84,84z"/>
  <circle class="fil4" cx="4417" cy="4050" r="149"/>
  <circle class="fil3" cx="954" cy="596" r="253"/>
  <circle class="fil3" cx="1814" cy="596" r="253"/>
  <g id="_2277155417408">
   <g>
    <path class="fil7" d="M6165 8161l118 -143c22,-26 61,-30 88,-9 54,44 138,90 210,90 10,0 48,-2 58,-10 0,0 0,-1 0,-1 -15,-13 -89,-40 -105,-47 0,0 0,0 -1,0l-131 -56c-152,-60 -254,-186 -254,-354 0,-46 8,-91 25,-133 70,-175 254,-261 434,-261 146,0 293,58 398,160 23,23 25,59 5,84l-141 177c-21,26 -58,32 -85,12 -56,-39 -108,-65 -177,-65 -9,0 -36,1 -47,7 21,16 98,43 116,50l129 51c158,62 248,178 248,350 0,38 -6,75 -17,111 -62,203 -263,293 -462,293 -145,0 -294,-50 -409,-139l0 56c0,35 -28,63 -63,63l-685 0c-34,0 -62,-28 -62,-63l0 -1065c0,-34 28,-63 62,-63l282 0c35,0 63,29 63,63l0 767 340 0c35,0 63,28 63,62l0 13zm-6165 223l0 -1065c0,-34 28,-63 63,-63l314 0c381,0 610,199 610,591 0,379 -217,600 -593,600l-331 0c-35,0 -63,-28 -63,-63zm1459 -766l0 42 285 0c34,0 63,28 63,62l0 236c0,35 -29,63 -63,63l-285 0 0 65 360 0c35,0 63,28 63,62l0 236c0,35 -28,63 -63,63l-704 0c-35,0 -63,-28 -63,-63l0 -1065c0,-34 28,-63 63,-63l688 0c34,0 63,29 63,63l0 236c0,35 -29,63 -63,63l-344 0zm458 242c0,-233 101,-449 314,-559 83,-43 176,-64 270,-64 139,0 271,62 369,159 23,24 24,61 2,86l-154 174c-23,26 -62,28 -88,5 -39,-34 -72,-56 -126,-56 -126,0 -173,139 -173,245 0,110 33,249 167,249 58,0 102,-24 140,-66 13,-13 29,-20 47,-20 18,1 34,8 46,21l154 171c21,23 22,58 1,83 -100,116 -239,179 -392,179 -357,0 -577,-254 -577,-607zm1006 524l0 -1065c0,-34 28,-63 63,-63l282 0c34,0 62,29 62,63l0 1065c0,35 -28,63 -62,63l-282 0c-35,0 -63,-28 -63,-63zm1335 -579c91,52 144,138 144,265 0,273 -243,377 -482,377l-416 0c-35,0 -63,-28 -63,-63l0 -1065c0,-34 28,-63 63,-63l383 0c223,0 466,59 466,329 0,87 -36,166 -95,220zm593 -187l0 42 284 0c35,0 63,28 63,62l0 236c0,35 -28,63 -63,63l-284 0 0 65 360 0c34,0 63,28 63,62l0 236c0,35 -29,63 -63,63l-705 0c-34,0 -62,-28 -62,-63l0 -1065c0,-34 28,-63 62,-63l688 0c35,0 63,29 63,63l0 236c0,35 -28,63 -63,63l-343 0zm-4444 475c130,-16 166,-102 166,-246 0,-149 -37,-223 -166,-237l0 483zm3441 -417l32 0c37,0 72,-6 72,-49 0,-3 0,-13 -3,-16 -8,-11 -57,-13 -69,-13l-32 0 0 78zm0 429l52 0c25,0 77,-3 93,-26 7,-9 8,-22 8,-32 0,-9 -1,-21 -6,-28 -15,-19 -74,-21 -95,-21l-52 0 0 107z"/>
   </g>
   <path class="fil8" d="M63 8384l331 0c308,0 531,-160 531,-537 0,-377 -223,-528 -548,-528l-314 0 0 1065zm282 -226l0 -613 16 0c154,0 275,53 275,302 0,249 -121,311 -275,311l-16 0z"/>
   <polygon id="1" class="fil8" points="1115,8384 1819,8384 1819,8148 1396,8148 1396,7958 1744,7958 1744,7722 1396,7722 1396,7555 1803,7555 1803,7319 1115,7319 "/>
   <path id="2" class="fil8" d="M1980 7860c0,364 236,544 514,544 131,0 254,-53 344,-157l-154 -171c-46,49 -105,85 -186,85 -138,0 -230,-111 -230,-311 0,-193 108,-308 236,-308 69,0 115,26 167,72l154 -174c-75,-75 -190,-140 -324,-140 -275,0 -521,203 -521,560z"/>
   <polygon id="3" class="fil8" points="2986,8384 3268,8384 3268,7319 2986,7319 "/>
   <path id="4" class="fil8" d="M3504 8384l416 0c229,0 419,-95 419,-314 0,-141 -75,-220 -226,-249l0 -7c125,-33 177,-138 177,-229 0,-210 -180,-266 -403,-266l-383 0 0 1065zm281 -645l0 -203 95 0c92,0 135,26 135,91 0,66 -43,112 -135,112l-95 0zm0 429l0 -233 115 0c111,0 164,33 164,112 0,78 -53,121 -164,121l-115 0z"/>
   <polygon id="5" class="fil8" points="4506,8384 5211,8384 5211,8148 4788,8148 4788,7958 5135,7958 5135,7722 4788,7722 4788,7555 5194,7555 5194,7319 4506,7319 "/>
   <polygon id="6" class="fil8" points="5417,8384 6102,8384 6102,8148 5699,8148 5699,7319 5417,7319 "/>
   <path id="7" class="fil8" d="M6171 8252c115,103 269,152 403,152 265,0 416,-161 416,-341 0,-147 -75,-239 -208,-292l-129 -50c-97,-38 -158,-56 -158,-107 0,-47 43,-72 112,-72 78,0 141,26 213,77l141 -177c-99,-97 -233,-142 -354,-142 -233,0 -397,149 -397,331 0,154 100,250 215,296l133 56c90,36 144,52 144,103 0,48 -36,75 -121,75 -79,0 -174,-42 -249,-103l-161 194z"/>
   <g>
    <path class="fil7" d="M6273 8049l125 -150c20,-25 57,-29 82,-8 56,44 140,90 212,90 11,0 54,-2 62,-12 0,0 0,-2 0,-4 -13,-13 -91,-42 -108,-49l-131 -55c-151,-61 -252,-185 -252,-352 0,-45 8,-90 25,-132 69,-173 252,-258 431,-258 145,0 291,57 395,159 22,22 24,56 5,80l-141 177c-20,24 -55,29 -81,11 -56,-40 -108,-66 -178,-66 -10,0 -45,2 -52,11 -1,0 -1,0 -1,0 16,15 102,46 120,53l130 51c156,61 245,176 245,347 0,37 -5,74 -16,110 -62,201 -262,290 -459,290 -146,0 -297,-51 -413,-142l0 63c0,32 -26,59 -59,59l-685 0c-33,0 -59,-27 -59,-59l0 -1065c0,-33 26,-60 59,-60l282 0c32,0 59,27 59,60l0 770 344 0c33,0 59,26 59,59l0 22zm-6158 214l0 -1065c0,-33 27,-60 59,-60l315 0c379,0 607,197 607,587 0,377 -216,597 -591,597l-331 0c-32,0 -59,-27 -59,-59zm1453 -770l0 49 288 0c32,0 59,26 59,59l0 236c0,32 -27,59 -59,59l-288 0 0 72 363 0c33,0 59,26 59,59l0 236c0,32 -26,59 -59,59l-705 0c-32,0 -59,-27 -59,-59l0 -1065c0,-33 27,-60 59,-60l689 0c32,0 59,27 59,60l0 236c0,32 -27,59 -59,59l-347 0zm464 246c0,-232 100,-447 312,-556 83,-43 175,-64 269,-64 137,0 269,61 366,158 22,22 23,58 2,81l-154 174c-21,24 -59,27 -83,5 -40,-35 -74,-57 -128,-57 -128,0 -177,141 -177,249 0,112 34,252 170,252 59,0 104,-24 144,-67 11,-12 26,-19 43,-19 18,1 32,7 44,20l154 170c20,23 21,56 1,79 -99,115 -237,178 -389,178 -356,0 -574,-253 -574,-603zm1006 524l0 -1065c0,-33 27,-60 59,-60l282 0c33,0 60,27 60,60l0 1065c0,32 -27,59 -60,59l-282 0c-32,0 -59,-27 -59,-59zm1325 -578c93,50 147,136 147,263 0,272 -241,374 -479,374l-416 0c-32,0 -59,-27 -59,-59l0 -1065c0,-33 27,-60 59,-60l384 0c220,0 462,57 462,325 0,89 -36,167 -98,222zm596 -192l0 49 288 0c33,0 59,26 59,59l0 236c0,32 -26,59 -59,59l-288 0 0 72 364 0c32,0 59,26 59,59l0 236c0,32 -27,59 -59,59l-705 0c-33,0 -59,-27 -59,-59l0 -1065c0,-33 26,-60 59,-60l688 0c33,0 59,27 59,60l0 236c0,32 -26,59 -59,59l-347 0zm-4443 482c134,-15 173,-103 173,-250 0,-152 -40,-227 -173,-240l0 490zm3440 -417l36 0c39,0 75,-7 75,-52 0,-5 0,-15 -3,-19 -10,-12 -59,-14 -72,-14l-36 0 0 85zm0 429l56 0c48,0 104,-3 104,-62 0,-9 -1,-22 -7,-29 -15,-21 -75,-23 -97,-23l-56 0 0 114z"/>
   </g>
   <path class="fil9" d="M174 8263l331 0c308,0 531,-161 531,-538 0,-376 -223,-527 -547,-527l-315 0 0 1065zm282 -226l0 -613 17 0c154,0 275,52 275,301 0,249 -121,312 -275,312l-17 0z"/>
   <polygon id="1" class="fil9" points="1226,8263 1931,8263 1931,8027 1508,8027 1508,7837 1856,7837 1856,7601 1508,7601 1508,7434 1915,7434 1915,7198 1226,7198 "/>
   <path id="2" class="fil9" d="M2091 7739c0,363 236,543 515,543 131,0 254,-52 344,-157l-154 -170c-46,49 -105,85 -187,85 -137,0 -229,-111 -229,-311 0,-194 108,-308 236,-308 69,0 114,26 167,72l154 -174c-75,-75 -190,-141 -324,-141 -276,0 -522,203 -522,561z"/>
   <polygon id="3" class="fil9" points="3097,8263 3379,8263 3379,7198 3097,7198 "/>
   <path id="4" class="fil9" d="M3615 8263l416 0c230,0 420,-95 420,-315 0,-141 -76,-219 -226,-249l0 -6c124,-33 177,-138 177,-230 0,-209 -181,-265 -403,-265l-384 0 0 1065zm282 -646l0 -203 95 0c92,0 134,26 134,92 0,65 -42,111 -134,111l-95 0zm0 430l0 -233 115 0c111,0 164,33 164,111 0,79 -53,122 -164,122l-115 0z"/>
   <polygon id="5" class="fil9" points="4618,8263 5323,8263 5323,8027 4900,8027 4900,7837 5247,7837 5247,7601 4900,7601 4900,7434 5306,7434 5306,7198 4618,7198 "/>
   <polygon id="6" class="fil9" points="5529,8263 6214,8263 6214,8027 5811,8027 5811,7198 5529,7198 "/>
   <path id="7" class="fil9" d="M6283 8130c114,103 268,152 403,152 265,0 416,-160 416,-340 0,-148 -75,-240 -208,-292l-130 -51c-96,-37 -157,-55 -157,-106 0,-48 43,-72 112,-72 78,0 140,26 213,77l140 -177c-98,-97 -232,-143 -353,-143 -233,0 -397,149 -397,331 0,154 100,251 215,297l132 55c90,36 145,53 145,104 0,47 -37,75 -122,75 -78,0 -173,-43 -249,-103l-160 193z"/>
  </g>
 </g>
</svg>
