<?xml version="1.0" encoding="UTF-8"?>
<!DOCTYPE svg PUBLIC "-//W3C//DTD SVG 1.1//EN" "http://www.w3.org/Graphics/SVG/1.1/DTD/svg11.dtd">
<!-- Creator: CorelDRAW X7 -->
<svg xmlns="http://www.w3.org/2000/svg" xml:space="preserve" width="84.6666mm" height="84.6666mm" version="1.1" style="shape-rendering:geometricPrecision; text-rendering:geometricPrecision; image-rendering:optimizeQuality; fill-rule:evenodd; clip-rule:evenodd"
viewBox="0 0 8467 8467"
 xmlns:xlink="http://www.w3.org/1999/xlink">
 <defs>
  <style type="text/css">
   <![CDATA[
    .fil3 {fill:none}
    .fil6 {fill:black}
    .fil5 {fill:#211AB4}
    .fil1 {fill:#79D1BF}
    .fil0 {fill:#90F5E1}
    .fil2 {fill:#D15513}
    .fil4 {fill:white}
    .fil7 {fill:#211AB4;fill-rule:nonzero}
    .fil8 {fill:#FEFEFE;fill-rule:nonzero}
   ]]>
  </style>
   <clipPath id="id0">
    <path d="M754 0l7332 0c209,0 381,171 381,381l0 7331c0,210 -172,381 -381,381l-7332 0c-209,0 -380,-171 -380,-381l0 -7331c0,-210 171,-381 380,-381z"/>
   </clipPath>
      <clipPath id="id1">
       <path d="M2257 3848l4724 -1946 -81 3434 -3872 1806 -771 -3294z"/>
      </clipPath>
      <clipPath id="id2">
       <path d="M754 0l7332 0c209,0 381,171 381,381l0 7331c0,210 -172,381 -381,381l-7332 0c-209,0 -380,-171 -380,-381l0 -7331c0,-210 171,-381 380,-381z"/>
      </clipPath>
      <clipPath id="id3">
       <path d="M6981 1453l-4471 -262 0 449 4471 262 0 -449z"/>
      </clipPath>
      <clipPath id="id4">
       <path d="M754 0l7332 0c209,0 381,171 381,381l0 7331c0,210 -172,381 -381,381l-7332 0c-209,0 -380,-171 -380,-381l0 -7331c0,-210 171,-381 380,-381z"/>
      </clipPath>
 </defs>
 <g id="Layer_x0020_1">
  <metadata id="CorelCorpID_0Corel-Layer"/>
  <rect class="fil0" width="8467" height="8467"/>
  <rect class="fil1" y="381" width="8086" height="8086" rx="374" ry="374"/>
  <g>
  </g>
  <g style="clip-path:url(#id0)">
   <g>
    <g id="_2313249365200">
     <rect class="fil2" x="183" y="-163" width="8447" height="8447"/>
     <g>
      <polygon class="fil3" points="1832,3635 6556,1690 6475,5123 2603,6930 "/>
      <polygon class="fil4" points="2603,6930 3028,7142 2257,3848 1832,3635 "/>
      <polygon class="fil4" points="2257,3848 6981,1902 6900,5336 3028,7142 "/>
     </g>
     <g style="clip-path:url(#id1)">
      <g>
       <polygon id="1" class="fil2" points="1571,5676 2224,4722 2224,4722 2379,4496 2605,4651 3333,5149 3831,4422 3986,4196 4212,4351 4212,4351 4939,4849 5438,4121 5438,4121 5593,3895 5819,4050 6546,4548 7044,3821 7199,3595 7425,3750 7425,3750 8379,4403 8224,4629 7271,3976 6772,4703 6772,4703 6617,4929 6391,4774 6391,4774 5664,4276 5166,5004 5166,5004 5011,5230 4785,5075 4785,5075 4057,4577 3559,5304 3559,5304 3404,5530 3178,5375 3178,5375 2450,4877 1797,5831 "/>
       <polygon class="fil5" points="1642,6057 2295,5103 2295,5103 2450,4877 2676,5032 3404,5530 3902,4803 4057,4577 4283,4731 4283,4731 5011,5230 5509,4502 5509,4502 5664,4276 5890,4431 6617,4929 7116,4202 7271,3976 7497,4131 7497,4131 8450,4784 8295,5010 7342,4357 6844,5084 6844,5084 6689,5310 6463,5155 6463,5155 5735,4657 5237,5385 5237,5385 5082,5611 4856,5456 4856,5456 4128,4958 3630,5685 3630,5685 3475,5911 3249,5756 3249,5756 2521,5258 1868,6212 "/>
       <polygon class="fil2" points="1713,6438 2367,5484 2367,5484 2521,5258 2748,5413 3475,5911 3973,5184 4128,4958 4354,5112 4354,5112 5082,5611 5580,4883 5580,4883 5735,4657 5961,4812 6689,5310 7187,4583 7342,4357 7568,4512 7568,4512 8522,5165 8367,5391 7413,4738 6915,5465 6915,5465 6760,5691 6534,5536 6534,5536 5806,5038 5308,5766 5308,5766 5153,5992 4927,5837 4927,5837 4200,5339 3701,6066 3701,6066 3546,6292 3320,6137 3320,6137 2593,5639 1940,6593 "/>
       <polygon class="fil5" points="1785,6819 2438,5865 2438,5865 2593,5639 2819,5794 3546,6292 4045,5565 4200,5339 4426,5493 4426,5493 5153,5992 5651,5264 5651,5264 5806,5038 6032,5193 6760,5691 7258,4964 7413,4738 7639,4892 7639,4893 8593,5546 8438,5772 7484,5119 6986,5846 6986,5846 6831,6072 6605,5917 6605,5917 5878,5419 5379,6147 5379,6147 5224,6373 4998,6218 4998,6218 4271,5720 3772,6447 3772,6447 3618,6673 3391,6518 3391,6518 2664,6020 2011,6974 "/>
       <polygon class="fil2" points="1856,7200 2509,6246 2509,6246 2664,6020 2890,6175 3618,6673 4116,5946 4271,5720 4497,5874 4497,5874 5224,6373 5723,5645 5723,5645 5878,5419 6104,5574 6831,6072 7329,5345 7484,5119 7710,5273 7710,5273 8664,5927 8509,6153 7556,5500 7057,6227 7057,6227 6902,6453 6676,6298 6676,6298 5949,5800 5450,6528 5450,6528 5296,6754 5069,6599 5069,6599 4342,6101 3844,6828 3844,6828 3689,7054 3463,6899 3463,6899 2735,6401 2082,7355 "/>
       <polygon class="fil5" points="1927,7581 2580,6627 2580,6627 2735,6401 2961,6556 3689,7054 4187,6327 4342,6101 4568,6255 4568,6255 5296,6754 5794,6026 5794,6026 5949,5800 6175,5955 6902,6453 7401,5726 7556,5500 7782,5654 7782,5654 8735,6308 8580,6534 7627,5881 7128,6608 7128,6608 6974,6834 6748,6679 6748,6679 6020,6181 5522,6909 5522,6909 5367,7135 5141,6980 5141,6980 4413,6481 3915,7209 3915,7209 3760,7435 3534,7280 3534,7280 2806,6782 2153,7736 "/>
       <polygon class="fil2" points="1998,7962 2652,7008 2652,7008 2806,6782 3033,6937 3760,7435 4258,6708 4413,6481 4639,6636 4639,6636 5367,7135 5865,6407 5865,6407 6020,6181 6246,6336 6974,6834 7472,6107 7627,5881 7853,6035 7853,6035 8806,6689 8652,6915 7698,6262 7200,6989 7200,6989 7045,7215 6819,7060 6819,7060 6091,6562 5593,7289 5593,7290 5438,7516 5212,7361 5212,7361 4484,6862 3986,7590 3986,7590 3831,7816 3605,7661 3605,7661 2878,7163 2225,8117 "/>
       <polygon class="fil5" points="2070,8343 2723,7389 2723,7389 2878,7163 3104,7318 3831,7816 4330,7089 4484,6862 4711,7017 4711,7017 5438,7516 5936,6788 5936,6788 6091,6562 6317,6717 7045,7215 7543,6488 7698,6262 7924,6416 7924,6416 8878,7070 8723,7296 7769,6643 7271,7370 7271,7370 7116,7596 6890,7441 6890,7441 6162,6943 5664,7670 5664,7670 5509,7897 5283,7742 5283,7742 4556,7243 4057,7971 4057,7971 3903,8197 3676,8042 3676,8042 2949,7544 2296,8498 "/>
       <polygon class="fil2" points="1001,2628 1654,1674 1654,1674 1809,1448 2035,1603 2763,2101 3261,1374 3416,1148 3642,1303 3642,1303 4369,1801 4868,1073 4868,1073 5023,847 5249,1002 5976,1501 6475,773 6629,547 6855,702 6855,702 7809,1355 7654,1581 6701,928 6202,1655 6202,1655 6047,1882 5821,1727 5821,1727 5094,1228 4596,1956 4596,1956 4441,2182 4215,2027 4215,2027 3487,1529 2989,2256 2989,2256 2834,2482 2608,2328 2608,2328 1880,1829 1227,2783 "/>
       <polygon class="fil5" points="1072,3009 1725,2055 1725,2055 1880,1829 2106,1984 2834,2482 3332,1755 3487,1529 3713,1684 3713,1684 4441,2182 4939,1454 4939,1454 5094,1228 5320,1383 6047,1882 6546,1154 6701,928 6927,1083 6927,1083 7880,1736 7725,1962 6772,1309 6274,2036 6274,2036 6119,2262 5893,2108 5893,2108 5165,1609 4667,2337 4667,2337 4512,2563 4286,2408 4286,2408 3558,1910 3060,2637 3060,2637 2905,2863 2679,2709 2679,2709 1952,2210 1298,3164 "/>
       <polygon class="fil2" points="1144,3390 1797,2436 1797,2436 1952,2210 2178,2365 2905,2863 3403,2136 3558,1910 3784,2065 3784,2065 4512,2563 5010,1835 5010,1835 5165,1609 5391,1764 6119,2262 6617,1535 6772,1309 6998,1464 6998,1464 7952,2117 7797,2343 6843,1690 6345,2417 6345,2417 6190,2643 5964,2489 5964,2489 5236,1990 4738,2718 4738,2718 4583,2944 4357,2789 4357,2789 3630,2291 3131,3018 3131,3018 2976,3244 2750,3090 2750,3090 2023,2591 1370,3545 "/>
       <polygon class="fil5" points="1215,3771 1868,2817 1868,2817 2023,2591 2249,2746 2976,3244 3475,2517 3630,2291 3856,2446 3856,2446 4583,2944 5081,2216 5081,2216 5236,1990 5462,2145 6190,2643 6688,1916 6843,1690 7069,1845 7069,1845 8023,2498 7868,2724 6914,2071 6416,2798 6416,2798 6261,3024 6035,2870 6035,2870 5308,2371 4809,3099 4809,3099 4654,3325 4428,3170 4428,3170 3701,2672 3203,3399 3203,3399 3048,3625 2822,3470 2822,3470 2094,2972 1441,3926 "/>
       <polygon class="fil2" points="1286,4152 1939,3198 1939,3198 2094,2972 2320,3127 3048,3625 3546,2898 3701,2672 3927,2827 3927,2827 4654,3325 5153,2597 5153,2597 5308,2371 5534,2526 6261,3024 6759,2297 6914,2071 7140,2226 7140,2226 8094,2879 7939,3105 6986,2452 6487,3179 6487,3179 6332,3405 6106,3251 6106,3251 5379,2752 4881,3480 4881,3480 4726,3706 4500,3551 4500,3551 3772,3053 3274,3780 3274,3780 3119,4006 2893,3851 2893,3851 2165,3353 1512,4307 "/>
       <polygon class="fil5" points="1357,4533 2010,3579 2010,3579 2165,3353 2391,3508 3119,4006 3617,3279 3772,3053 3998,3208 3998,3208 4726,3706 5224,2978 5224,2978 5379,2752 5605,2907 6332,3405 6831,2678 6986,2452 7212,2607 7212,2607 8165,3260 8010,3486 7057,2833 6559,3560 6559,3560 6404,3786 6178,3632 6178,3632 5450,3133 4952,3861 4952,3861 4797,4087 4571,3932 4571,3932 3843,3434 3345,4161 3345,4161 3190,4387 2964,4232 2964,4232 2237,3734 1583,4688 "/>
       <polygon class="fil2" points="1429,4914 2082,3960 2082,3960 2237,3734 2463,3889 3190,4387 3688,3660 3843,3434 4069,3589 4069,3589 4797,4087 5295,3359 5295,3359 5450,3133 5676,3288 6404,3786 6902,3059 7057,2833 7283,2988 7283,2988 8237,3641 8082,3867 7128,3214 6630,3941 6630,3941 6475,4167 6249,4012 6249,4012 5521,3514 5023,4242 5023,4242 4868,4468 4642,4313 4642,4313 3915,3815 3416,4542 3416,4542 3261,4768 3035,4613 3035,4613 2308,4115 1655,5069 "/>
       <polygon class="fil5" points="1500,5295 2153,4341 2153,4341 2308,4115 2534,4270 3261,4768 3760,4041 3915,3815 4141,3970 4141,3970 4868,4468 5366,3740 5366,3740 5521,3514 5747,3669 6475,4167 6973,3440 7128,3214 7354,3369 7354,3369 8308,4022 8153,4248 7199,3595 6701,4322 6701,4322 6546,4548 6320,4393 6320,4393 5593,3895 5094,4623 5094,4623 4939,4849 4713,4694 4713,4694 3986,4196 3487,4923 3487,4923 3333,5149 3107,4994 3107,4994 2379,4496 1726,5450 "/>
      </g>
     </g>
     <g style="clip-path:url(#id2)">
      <polygon class="fil3" points="2257,3848 6981,1902 6900,5336 3028,7142 "/>
      <polygon class="fil5" points="6556,1690 6981,1902 2257,3848 1832,3635 "/>
      <polygon class="fil3" points="6556,1690 6981,1902 2510,1640 2085,1428 "/>
      <polygon class="fil5" points="6556,1240 6981,1453 2510,1191 2085,978 "/>
      <polygon class="fil4" points="6981,1453 2510,1191 2510,1640 6981,1902 "/>
     </g>
     <g style="clip-path:url(#id3)">
      <g>
       <g>
        <polygon id="1" class="fil5" points="1673,491 2007,491 3441,2602 3107,2602 "/>
        <polygon class="fil5" points="2403,491 2737,491 4170,2602 3836,2602 "/>
        <polygon class="fil5" points="3132,491 3466,491 4900,2602 4566,2602 "/>
        <polygon class="fil5" points="3862,491 4196,491 5630,2602 5296,2602 "/>
        <polygon class="fil5" points="4592,491 4926,491 6359,2602 6025,2602 "/>
        <polygon class="fil5" points="5321,491 5655,491 7089,2602 6755,2602 "/>
        <polygon class="fil5" points="6051,491 6385,491 7819,2602 7485,2602 "/>
       </g>
      </g>
     </g>
     <g style="clip-path:url(#id4)">
      <polygon class="fil3" points="6981,1453 2510,1191 2510,1640 6981,1902 "/>
      <polygon class="fil4" points="2085,978 2510,1191 2510,1640 2085,1428 "/>
     </g>
    </g>
   </g>
  </g>
  <path class="fil3" d="M754 0l7332 0c209,0 381,171 381,381l0 7331c0,210 -172,381 -381,381l-7332 0c-209,0 -380,-171 -380,-381l0 -7331c0,-210 171,-381 380,-381z"/>
  <g>
   <path class="fil6" d="M4507 8375l0 -968c0,-29 24,-53 53,-53l276 0c23,0 42,14 50,35l158 418c0,1 0,1 0,2l9 26 9 -26c0,-1 0,-1 0,-1l152 -419c8,-21 27,-35 50,-35l276 0c29,0 53,24 53,53l0 1008c0,29 -24,53 -53,53l-248 0c-29,0 -53,-24 -53,-53l0 -290 -93 228c-9,20 -28,32 -49,32l-100 0c-22,0 -40,-12 -49,-32l-90 -220 0 282c0,29 -24,53 -53,53l-245 0c-21,0 -39,-13 -48,-31 -1,3 -3,6 -5,9 -11,14 -26,22 -43,22l-282 0c-25,0 -46,-17 -51,-41l-41 -173 -198 0 -40 173c-5,24 -26,41 -51,41l-273 0c-17,0 -32,-8 -43,-22 -10,-14 -13,-30 -8,-47l307 -1007c7,-23 27,-38 51,-38l322 0c24,0 44,15 51,38l299 983zm-1791 -765c3,-10 7,-21 11,-32 65,-163 236,-242 404,-242 137,0 274,54 372,150 19,19 21,49 4,70l-133 168c-17,22 -49,26 -72,10 -54,-38 -104,-63 -171,-63 -8,0 -51,1 -52,15 12,14 98,45 115,52l122 48c147,57 231,164 231,325 0,35 -5,70 -16,103 -58,189 -246,272 -431,272 -150,0 -305,-57 -416,-158 -22,-18 -24,-51 -6,-73l152 -182c19,-23 51,-26 74,-8 53,43 133,86 202,86 12,0 62,1 62,-18 0,-1 0,-1 0,-1 -8,-13 -88,-42 -104,-48l-124 -53c-142,-56 -237,-173 -237,-329 0,-14 1,-27 3,-40 -10,13 -26,21 -43,21l-214 0 0 732c0,29 -23,53 -53,53l-266 0c-29,0 -53,-24 -53,-53l0 -732 -214 0c-29,0 -53,-23 -53,-53l0 -223c0,-29 24,-53 53,-53l800 0c29,0 53,24 53,53l0 203zm-1792 765l300 -983c7,-23 27,-38 50,-38l323 0c23,0 43,15 50,38l307 1007c5,17 2,33 -8,47 -10,14 -25,22 -42,22l-283 0c-24,0 -45,-17 -51,-41l-40 -173 -198 0 -40 173c-6,24 -27,41 -52,41l-273 0c-17,0 -32,-8 -42,-22 -2,-3 -4,-6 -6,-9 -8,18 -26,31 -48,31l-273 0c-20,0 -38,-11 -47,-30l-193 -390c1,25 2,50 2,75l0 292c0,29 -24,53 -53,53l-254 0c-29,0 -53,-24 -53,-53l0 -1008c0,-29 24,-53 53,-53l273 0c20,0 38,11 47,30l193 389c-1,-25 -2,-50 -2,-74l0 -292c0,-29 24,-53 53,-53l254 0c29,0 53,24 53,53l0 968zm5661 -102l268 -881c7,-23 27,-38 51,-38l322 0c24,0 44,15 51,38l307 1007c5,17 2,33 -8,47 -11,14 -26,22 -43,22l-282 0c-25,0 -46,-17 -51,-41l-41 -173 -198 0 -40 173c-5,24 -26,41 -51,41l-564 0c-21,0 -38,-11 -47,-29l-159 -309 -17 0 0 285c0,29 -24,53 -53,53l-267 0c-29,0 -53,-24 -53,-53l0 -1008c0,-29 24,-53 53,-53l381 0c251,0 456,99 456,379 0,127 -46,237 -145,309l130 231zm1122 -590l-214 0c-29,0 -53,-23 -53,-53l0 -223c0,-29 24,-53 53,-53l800 0c29,0 53,24 53,53l0 223c0,30 -24,53 -53,53l-214 0 0 732c0,29 -24,53 -53,53l-267 0c-29,0 -52,-24 -52,-53l0 -732zm-6302 259l51 0 0 -4c-9,-34 -17,-68 -25,-102 -8,34 -16,68 -25,101l-1 5zm2561 0l51 0 -1 -4c-9,-34 -17,-68 -25,-102 -7,34 -15,68 -24,101l-1 5zm2117 -271l0 142 43 0c59,0 108,-13 108,-80 0,-13 -1,-30 -10,-40 -18,-21 -74,-22 -98,-22l-43 0zm952 271l51 0 -1 -4c-9,-34 -17,-68 -25,-102 -7,34 -15,68 -24,101l-1 5z"/>
  </g>
  <path class="fil7" d="M53 8415l254 0 0 -292c0,-124 -22,-269 -34,-384l6 0 96 225 223 451 273 0 0 -1008 -254 0 0 292c0,124 22,276 34,384l-6 0 -96 -226 -223 -450 -273 0 0 1008z"/>
  <path id="1" class="fil7" d="M1338 7995l17 -70c25,-96 49,-217 71,-319l6 0c25,100 50,223 75,319l17 70 -186 0zm283 420l283 0 -307 -1008 -323 0 -307 1008 273 0 50 -214 282 0 49 214z"/>
  <polygon id="2" class="fil7" points="2130,8415 2396,8415 2396,7630 2663,7630 2663,7407 1863,7407 1863,7630 2130,7630 "/>
  <path id="3" class="fil7" d="M2719 8289c108,98 254,144 381,144 251,0 394,-152 394,-322 0,-140 -71,-226 -197,-276l-122 -48c-92,-36 -149,-53 -149,-101 0,-45 40,-68 105,-68 75,0 133,25 202,73l133 -167c-93,-92 -220,-135 -335,-135 -220,0 -375,141 -375,313 0,145 95,237 203,280l126 53c85,34 136,50 136,98 0,45 -34,71 -115,71 -74,0 -164,-40 -235,-98l-152 183z"/>
  <path id="4" class="fil7" d="M3898 7995l17 -70c25,-96 50,-217 72,-319l6 0c25,100 50,223 74,319l17 70 -186 0zm284 420l282 0 -307 -1008 -322 0 -307 1008 273 0 49 -214 282 0 50 214z"/>
  <path id="5" class="fil7" d="M4560 8415l245 0 0 -298c0,-102 -22,-259 -34,-359l6 0 81 235 139 340 100 0 139 -340 84 -235 6 0c-12,100 -34,257 -34,359l0 298 248 0 0 -1008 -276 0 -152 419 -56 164 -6 0 -56 -164 -158 -419 -276 0 0 1008z"/>
  <path id="6" class="fil7" d="M6030 7618l96 0c105,0 161,28 161,115 0,87 -56,133 -161,133l-96 0 0 -248zm573 797l-218 -391c97,-53 162,-147 162,-291 0,-251 -186,-326 -403,-326l-381 0 0 1008 267 0 0 -338 102 0 174 338 297 0z"/>
  <path id="7" class="fil7" d="M6967 7995l17 -70c25,-96 50,-217 72,-319l6 0c25,100 50,223 74,319l17 70 -186 0zm284 420l282 0 -307 -1008 -322 0 -307 1008 273 0 49 -214 282 0 50 214z"/>
  <polygon id="8" class="fil7" points="7759,8415 8026,8415 8026,7630 8293,7630 8293,7407 7493,7407 7493,7630 7759,7630 "/>
  <g>
   <path class="fil6" d="M4621 8212l0 -944c0,-31 26,-56 57,-56l276 0c24,0 44,14 53,36l158 419c0,0 0,1 0,1l6 17 5 -17c0,0 0,0 1,-1l152 -418c8,-23 28,-37 53,-37l275 0c32,0 57,25 57,56l0 1008c0,31 -25,56 -57,56l-248 0c-31,0 -56,-25 -56,-56l0 -272 -87 211c-9,22 -28,35 -52,35l-99 0c-23,0 -43,-13 -52,-35l-84 -203 0 264c0,31 -25,56 -56,56l-245 0c-20,0 -38,-11 -48,-27 -1,2 -2,3 -3,4 -11,15 -27,23 -45,23l-282 0c-27,0 -49,-18 -55,-44l-40 -170 -192 0 -40 170c-6,26 -28,44 -55,44l-272 0c-19,0 -35,-8 -46,-23 -11,-15 -14,-32 -8,-50l39 -129c-75,152 -245,221 -413,221 -151,0 -307,-58 -419,-159 -23,-20 -25,-55 -6,-78l152 -183c20,-24 55,-27 79,-8 52,42 132,85 200,85 10,0 50,-1 58,-10 0,-1 0,-2 0,-4 -12,-13 -85,-40 -101,-46 0,0 0,0 -1,0l-124 -52c-143,-58 -239,-176 -239,-333 0,-10 1,-20 2,-30 -11,9 -24,15 -38,15l-211 0 0 728c0,31 -25,56 -56,56l-267 0c-31,0 -56,-25 -56,-56l0 -728 -210 0c-31,0 -57,-26 -57,-57l0 -223c0,-31 26,-56 57,-56l800 0c31,0 56,25 56,56l0 181c1,-4 3,-7 4,-11 66,-164 239,-245 408,-245 137,0 276,54 374,151 21,20 23,53 5,75l-134 168c-18,23 -52,28 -76,11 -54,-38 -103,-63 -169,-63 -10,0 -42,2 -49,10 0,0 0,0 0,0 14,14 96,44 113,50l122 48c148,59 233,167 233,329 0,16 -1,31 -3,47l233 -767c8,-24 29,-40 54,-40l323 0c25,0 46,16 54,40l292 960zm-3576 0l293 -960c7,-24 29,-40 54,-40l322 0c25,0 47,16 54,40l307 1007c6,18 2,35 -9,50 -11,15 -26,23 -45,23l-282 0c-27,0 -49,-18 -55,-44l-39 -170 -193 0 -39 170c-6,26 -29,44 -55,44l-273 0c-19,0 -34,-8 -45,-23 -1,-1 -2,-2 -3,-4 -10,16 -28,27 -48,27l-273 0c-22,0 -41,-12 -51,-31l-185 -376c1,20 1,40 1,59l0 292c0,31 -25,56 -56,56l-255 0c-31,0 -56,-25 -56,-56l0 -1008c0,-31 25,-56 56,-56l273 0c22,0 41,11 51,31l185 374c0,-19 -1,-38 -1,-58l0 -291c0,-31 26,-56 57,-56l254 0c31,0 56,25 56,56l0 944zm5656 -87l266 -873c8,-24 29,-40 54,-40l323 0c25,0 46,16 54,40l307 1007c5,18 2,35 -9,50 -11,15 -27,23 -45,23l-282 0c-27,0 -49,-18 -55,-44l-40 -170 -192 0 -40 170c-6,26 -28,44 -55,44l-564 0c-22,0 -40,-11 -50,-31l-158 -307 -11 0 0 282c0,31 -26,56 -57,56l-266 0c-31,0 -57,-25 -57,-56l0 -1008c0,-31 26,-56 57,-56l381 0c252,0 459,100 459,382 0,127 -46,237 -144,310l124 221zm1120 -577l-211 0c-31,0 -56,-26 -56,-57l0 -223c0,-31 25,-56 56,-56l800 0c31,0 57,25 57,56l0 223c0,31 -26,57 -57,57l-210 0 0 728c0,31 -25,56 -56,56l-267 0c-31,0 -56,-25 -56,-56l0 -728zm-6294 251l43 0c-8,-29 -15,-58 -22,-87 -6,30 -13,58 -21,87zm2561 0l42 0c-7,-29 -14,-58 -21,-87 -7,30 -14,58 -21,87zm2116 -264l0 135 39 0c58,0 105,-11 105,-76 0,-12 -1,-29 -9,-38 -17,-19 -73,-21 -96,-21l-39 0zm953 264l42 0c-7,-29 -14,-58 -21,-87 -7,30 -14,58 -21,87z"/>
  </g>
  <path class="fil8" d="M170 8276l255 0 0 -292c0,-124 -22,-270 -34,-384l6 0 96 225 223 451 273 0 0 -1008 -254 0 0 291c0,124 21,276 34,385l-6 0 -97 -226 -223 -450 -273 0 0 1008z"/>
  <path id="1" class="fil8" d="M1455 7856l17 -70c25,-96 50,-217 72,-319l6 0c25,100 50,223 74,319l17 70 -186 0zm284 420l282 0 -307 -1008 -322 0 -307 1008 273 0 49 -214 282 0 50 214z"/>
  <polygon id="2" class="fil8" points="2247,8276 2514,8276 2514,7491 2781,7491 2781,7268 1981,7268 1981,7491 2247,7491 "/>
  <path id="3" class="fil8" d="M2836 8150c109,98 255,144 382,144 251,0 393,-152 393,-322 0,-140 -71,-227 -196,-276l-123 -48c-91,-36 -149,-53 -149,-101 0,-45 41,-68 106,-68 74,0 133,25 201,73l134 -168c-93,-91 -221,-134 -335,-134 -220,0 -375,141 -375,313 0,145 94,237 203,280l125 53c85,34 137,49 137,97 0,45 -34,72 -115,72 -74,0 -164,-41 -236,-98l-152 183z"/>
  <path id="4" class="fil8" d="M4016 7856l17 -70c25,-96 50,-217 71,-319l7 0c24,100 49,223 74,319l17 70 -186 0zm284 420l282 0 -307 -1008 -323 0 -306 1008 272 0 50 -214 282 0 50 214z"/>
  <path id="5" class="fil8" d="M4678 8276l245 0 0 -298c0,-102 -22,-259 -34,-360l6 0 80 236 140 339 99 0 140 -339 83 -236 6 0c-12,101 -34,258 -34,360l0 298 248 0 0 -1008 -276 0 -151 419 -56 164 -6 0 -56 -164 -158 -419 -276 0 0 1008z"/>
  <path id="6" class="fil8" d="M6147 7479l96 0c106,0 161,28 161,115 0,86 -55,133 -161,133l-96 0 0 -248zm574 797l-219 -391c98,-53 163,-147 163,-291 0,-251 -186,-326 -403,-326l-381 0 0 1008 266 0 0 -338 102 0 174 338 298 0z"/>
  <path id="7" class="fil8" d="M7085 7856l17 -70c25,-96 50,-217 71,-319l6 0c25,100 50,223 75,319l17 70 -186 0zm284 420l282 0 -307 -1008 -323 0 -307 1008 273 0 50 -214 282 0 50 214z"/>
  <polygon id="8" class="fil8" points="7877,8276 8144,8276 8144,7491 8410,7491 8410,7268 7610,7268 7610,7491 7877,7491 "/>
 </g>
</svg>
