<?xml version="1.0" encoding="UTF-8"?>
<!DOCTYPE svg PUBLIC "-//W3C//DTD SVG 1.1//EN" "http://www.w3.org/Graphics/SVG/1.1/DTD/svg11.dtd">
<!-- Creator: CorelDRAW X7 -->
<svg xmlns="http://www.w3.org/2000/svg" xml:space="preserve" width="84.6666mm" height="84.6666mm" version="1.1" style="shape-rendering:geometricPrecision; text-rendering:geometricPrecision; image-rendering:optimizeQuality; fill-rule:evenodd; clip-rule:evenodd"
viewBox="0 0 8467 8467"
 xmlns:xlink="http://www.w3.org/1999/xlink">
 <defs>
  <style type="text/css">
   <![CDATA[
    .fil4 {fill:none}
    .fil7 {fill:#2B2A29}
    .fil9 {fill:black}
    .fil3 {fill:black}
    .fil2 {fill:#0C98A9}
    .fil8 {fill:#1641C4}
    .fil1 {fill:#79D1BF}
    .fil0 {fill:#90F5E1}
    .fil6 {fill:#E00380}
    .fil5 {fill:white}
    .fil10 {fill:#E00380;fill-rule:nonzero}
    .fil11 {fill:#FEFEFE;fill-rule:nonzero}
   ]]>
  </style>
   <clipPath id="id0">
    <path d="M754 0l7332 0c209,0 381,171 381,381l0 7331c0,210 -172,381 -381,381l-7332 0c-209,0 -380,-171 -380,-381l0 -7331c0,-210 171,-381 380,-381z"/>
   </clipPath>
    <clipPath id="id1">
     <path d="M754 0l7332 0c209,0 381,171 381,381l0 7331c0,209 -171,380 -380,381l-7333 0c-209,-1 -380,-171 -380,-380l0 -7333c0,-209 171,-380 380,-380z"/>
    </clipPath>
     <clipPath id="id2">
      <path d="M4992 292c27,-113 454,-317 898,-213 443,104 735,476 708,589 -75,321 -304,1019 -436,1462l-1428 -335 256 -1488c0,-5 -24,98 2,-15z"/>
     </clipPath>
     <clipPath id="id3">
      <path d="M754 0l7332 0c209,0 381,171 381,381l0 7331c0,209 -171,380 -380,381l-7333 0c-209,-1 -380,-171 -380,-380l0 -7333c0,-209 171,-380 380,-380z"/>
     </clipPath>
    <clipPath id="id4">
     <path d="M754 0l7332 0c209,0 381,171 381,381l0 7331c0,210 -172,381 -381,381l-7332 0c-209,0 -380,-171 -380,-381l0 -7331c0,-210 171,-381 380,-381z"/>
    </clipPath>
 </defs>
 <g id="Layer_x0020_1">
  <metadata id="CorelCorpID_0Corel-Layer"/>
  <rect class="fil0" width="8467" height="8467"/>
  <rect class="fil1" y="381" width="8086" height="8086" rx="374" ry="374"/>
  <path class="fil2" d="M754 0l7332 0c209,0 381,171 381,381l0 7331c0,210 -172,381 -381,381l-7332 0c-209,0 -380,-171 -380,-381l0 -7331c0,-210 171,-381 380,-381z"/>
  <g style="clip-path:url(#id0)">
   <g id="_2312674523072">
    <polygon id="1" class="fil3" points="374,0 8467,0 8467,8093 374,8093 "/>
   </g>
   <g style="clip-path:url(#id1)">
    <g>
     <polygon id="2" class="fil4" points="7303,1570 3644,3066 4992,7429 8650,5934 "/>
     <polygon class="fil5" points="870,1830 3644,3066 4992,7429 2218,6193 "/>
     <polygon class="fil3" points="926,1765 3699,3002 5047,7365 2274,6129 "/>
     <polygon class="fil3" points="7358,1506 3699,3002 5047,7365 8706,5869 "/>
     <polygon class="fil6" points="926,1765 870,1830 2218,6193 2274,6129 "/>
     <polygon class="fil6" points="5047,7365 4992,7429 2218,6193 2274,6129 "/>
     <polygon class="fil6" points="5047,7365 4992,7429 8650,5934 8706,5869 "/>
     <path class="fil6" d="M3699 3002l105 339 1243 4024c-740,-746 -892,-732 -1165,-880 -273,-149 -947,-356 -1365,-251l-1192 -3857 0 0 -156 -506c418,-106 1093,102 1365,250 273,149 425,135 1165,881z"/>
     <path class="fil6" d="M7123 1441l-9 4 0 0c-1407,469 -3342,540 -3415,1557l1348 4363c73,-1016 1931,-1557 3415,-1557l0 0 9 -3 -1348 -4364z"/>
     <path class="fil5" d="M6856 1263l-9 4 0 0c-1408,469 -3075,718 -3148,1735 -673,-678 -1300,-1591 -2417,-1309l157 506 0 0 1191 3857c1120,-283 1752,639 2417,1309 73,-1016 1664,-1735 3148,-1735l0 0 9 -4 -1348 -4363z"/>
     <g>
      <path class="fil7" d="M4857 2704c-286,-23 -764,444 -776,797 -25,736 -185,-190 -857,-117 -264,29 -286,289 -310,509 -34,316 9,548 258,642 52,-242 86,-466 142,-468 535,-24 186,574 27,575 -42,0 -81,-4 -117,-11 -77,280 -186,559 -346,572 -132,11 -332,-123 -377,-251 -3,-18 9,-36 27,-39 19,-3 36,9 39,28 10,23 29,45 46,63 322,334 457,-25 541,-391 -277,-98 -339,-428 -307,-727 42,-388 136,-640 574,-561 367,67 424,281 586,384 13,-51 7,-206 7,-206 13,-393 513,-894 859,-864 18,5 29,23 25,41 -5,18 -23,29 -41,24zm-1614 1853c31,7 64,13 99,17 54,-24 422,-395 -2,-438 -23,93 -54,253 -97,421z"/>
     </g>
     <path class="fil4" d="M4865 2672c-200,-50 -828,403 -818,830 14,515 -78,91 -451,-86 -213,-102 -574,-122 -651,151 -108,387 -181,1016 397,1041 79,3 488,-507 -28,-507 -98,283 -132,734 -290,953 -102,143 -178,151 -356,42 -39,-24 -127,-109 -134,-150"/>
     <path class="fil8" d="M4992 292c27,-113 454,-317 898,-213 443,104 735,476 708,589 -75,321 -304,1019 -436,1462l-1428 -335 256 -1488c0,-5 -24,98 2,-15z"/>
    </g>
    <g style="clip-path:url(#id2)">
     <g>
      <rect class="fil6" transform="matrix(0.0600554 -0.256284 0.256284 0.0600554 4310.8 2786.33)" width="15416" height="2328"/>
      <rect class="fil3" transform="matrix(0.0600554 -0.256284 0.256284 0.0600554 4907.51 2926.16)" width="15416" height="2328"/>
      <rect class="fil6" transform="matrix(0.0600554 -0.256284 0.256284 0.0600554 5504.23 3065.99)" width="15416" height="2328"/>
     </g>
    </g>
    <g style="clip-path:url(#id3)">
     <path class="fil4" d="M4992 292c27,-113 454,-317 898,-213 443,104 735,476 708,589 -75,321 -304,1019 -436,1462l-1428 -335 256 -1488c0,-5 -24,98 2,-15z"/>
     <path class="fil3" d="M4734 1795c46,-197 403,-282 798,-189 394,92 676,327 630,524l-48 205 -130 -30c-151,61 -378,71 -620,14 -241,-56 -440,-166 -548,-288l-130 -30 48 -206 0 0z"/>
     <g>
      <path class="fil3" d="M5012 3970c-194,450 -75,978 422,1177 207,82 798,187 989,-1 181,-177 228,-377 195,-545 -172,-31 -253,0 -494,32 -359,47 -362,-229 -137,-384 294,-203 605,-7 687,295 50,11 108,27 177,49 15,5 31,10 48,15 47,-249 99,-514 73,-704 -5,-38 -124,-556 -167,-605 -19,-23 -53,-42 -96,-58 47,704 -743,690 -809,450 -130,-472 397,-602 731,-539 -1,-6 -2,-12 -3,-18 -54,-304 -255,-319 -519,-403 -259,-81 -230,-60 -506,-60 -19,0 -34,-15 -34,-33 0,-19 15,-34 34,-34 273,0 266,-18 525,63 291,91 506,118 566,456 3,15 5,30 8,45 68,21 122,50 154,87 56,65 175,583 183,641 34,253 -22,501 -74,734 222,78 512,215 515,450 4,368 -310,442 -584,198 -96,-85 -61,-329 -10,-603 -20,-7 -38,-13 -55,-18 -54,-17 -101,-30 -142,-40 26,183 -31,394 -218,577 -218,213 -827,109 -1061,15 -539,-215 -668,-784 -457,-1272 10,-16 30,-22 46,-13 16,10 22,30 13,46zm1587 560c-92,-264 -385,-414 -619,-189 -153,147 -81,254 135,225 233,-31 326,-60 484,-36zm41 -1308c-286,-62 -793,26 -675,452 43,154 735,203 675,-452zm311 1475c-30,137 -54,269 -53,393 4,279 519,426 515,-9 -2,-192 -267,-315 -462,-384z"/>
     </g>
     <path class="fil4" d="M4983 3954c-134,233 -101,716 40,921 260,379 827,441 1266,385 276,-35 640,-818 61,-1032 -411,-152 -784,522 -117,348 343,-89 894,107 1156,339 149,132 12,746 -472,337 -200,-169 255,-1033 35,-1565 -89,-215 29,-518 -453,-514 -321,4 -666,106 -566,510 43,177 741,241 741,-375 0,-550 -289,-505 -705,-659 -46,-16 -299,-11 -366,-11"/>
     <path class="fil6" d="M4701 2133l225 2058 1116 -1743c37,-32 62,-70 72,-113l0 0c46,-197 -236,-432 -630,-524 -395,-92 -752,-8 -798,190 -10,43 -4,88 15,132z"/>
     <path class="fil3" d="M4861 3597l65 594 322 -503c11,-10 18,-20 21,-33l0 0c13,-57 -68,-125 -182,-151 -114,-27 -217,-2 -230,54 -3,13 -2,26 4,39z"/>
    </g>
   </g>
   <g style="clip-path:url(#id4)">
    <polygon class="fil4" points="374,0 8467,0 8467,8093 374,8093 "/>
   </g>
  </g>
  <path class="fil4" d="M754 0l7332 0c209,0 381,171 381,381l0 7331c0,210 -172,381 -381,381l-7332 0c-209,0 -380,-171 -380,-381l0 -7331c0,-210 171,-381 380,-381z"/>
  <g id="_2312674523712">
   <path class="fil9" d="M534 8488c-349,0 -534,-263 -534,-595 0,-334 186,-584 534,-584 347,0 534,251 534,584 0,332 -185,595 -534,595zm990 -893l165 -243c11,-16 27,-24 46,-24l298 0c21,0 40,11 49,30 10,19 8,41 -4,58l-286 389 349 580c10,17 11,38 0,56 -10,17 -27,28 -48,28l-298 0c-20,0 -38,-10 -48,-28l-185 -321 -38 54 0 239c0,31 -25,56 -55,56l-273 0c-30,0 -55,-25 -55,-56l0 -1030c0,-30 25,-55 55,-55l273 0c30,0 55,25 55,55l0 212zm944 818l0 -1030c0,-30 25,-55 56,-55l304 0c366,0 585,189 585,565 0,364 -208,576 -569,576l-320 0c-31,0 -56,-25 -56,-56zm1507 75c-348,0 -534,-263 -534,-595 0,-334 187,-584 534,-584 348,0 535,251 535,584 0,332 -186,595 -535,595zm1097 0c-349,0 -534,-263 -534,-595 0,-334 186,-584 534,-584 347,0 534,251 534,584 0,332 -185,595 -534,595zm607 -75l0 -1030c0,-30 25,-55 55,-55l305 0c365,0 584,189 584,565 0,364 -207,576 -569,576l-320 0c-30,0 -55,-25 -55,-56zm1401 -284l334 0c30,0 55,25 55,56l0 228c0,31 -25,56 -55,56l-662 0c-31,0 -56,-25 -56,-56l0 -1030c0,-30 25,-55 56,-55l272 0c31,0 56,25 56,55l0 746zm839 -462l0 50 281 0c30,0 55,25 55,56l0 228c0,31 -25,56 -55,56l-281 0 0 72 354 0c30,0 55,25 55,56l0 228c0,31 -25,56 -55,56l-682 0c-30,0 -55,-25 -55,-56l0 -1030c0,-30 25,-55 55,-55l666 0c30,0 55,25 55,55l0 228c0,31 -25,56 -55,56l-338 0zm-7385 475c120,0 144,-158 144,-249 0,-94 -23,-239 -144,-239 -121,0 -144,145 -144,239 0,91 23,249 144,249zm2318 -5c133,-14 171,-100 171,-244 0,-148 -39,-222 -171,-234l0 478zm1123 5c121,0 144,-158 144,-249 0,-94 -22,-239 -144,-239 -121,0 -144,145 -144,239 0,91 24,249 144,249zm1097 0c120,0 144,-158 144,-249 0,-94 -23,-239 -144,-239 -121,0 -144,145 -144,239 0,91 23,249 144,249zm990 -5c133,-14 171,-100 171,-244 0,-148 -39,-222 -171,-234l0 478z"/>
  </g>
  <path class="fil10" d="M534 8432c285,0 478,-199 478,-539 0,-337 -193,-529 -478,-529 -285,0 -479,190 -479,529 0,340 194,539 479,539zm0 -234c-124,0 -200,-118 -200,-305 0,-187 76,-294 200,-294 123,0 200,107 200,294 0,187 -77,305 -200,305z"/>
  <polygon id="1" class="fil10" points="1196,8413 1469,8413 1469,8156 1567,8017 1795,8413 2093,8413 1725,7802 2033,7383 1735,7383 1475,7767 1469,7767 1469,7383 1196,7383 "/>
  <path id="2" class="fil10" d="M2524 8413l320 0c298,0 513,-155 513,-520 0,-364 -215,-510 -529,-510l-304 0 0 1030zm273 -218l0 -593 15 0c149,0 267,51 267,291 0,241 -118,302 -267,302l-15 0z"/>
  <path id="3" class="fil10" d="M3975 8432c286,0 479,-199 479,-539 0,-337 -193,-529 -479,-529 -285,0 -478,190 -478,529 0,340 193,539 478,539zm0 -234c-123,0 -199,-118 -199,-305 0,-187 76,-294 199,-294 124,0 200,107 200,294 0,187 -76,305 -200,305z"/>
  <path id="4" class="fil10" d="M5072 8432c285,0 478,-199 478,-539 0,-337 -193,-529 -478,-529 -285,0 -479,190 -479,529 0,340 194,539 479,539zm0 -234c-124,0 -200,-118 -200,-305 0,-187 76,-294 200,-294 124,0 200,107 200,294 0,187 -76,305 -200,305z"/>
  <path id="5" class="fil10" d="M5734 8413l320 0c298,0 514,-155 514,-520 0,-364 -216,-510 -529,-510l-305 0 0 1030zm273 -218l0 -593 16 0c149,0 266,51 266,291 0,241 -117,302 -266,302l-16 0z"/>
  <polygon id="6" class="fil10" points="6752,8413 7414,8413 7414,8185 7024,8185 7024,7383 6752,7383 "/>
  <polygon id="7" class="fil10" points="7591,8413 8273,8413 8273,8185 7864,8185 7864,8001 8200,8001 8200,7773 7864,7773 7864,7611 8257,7611 8257,7383 7591,7383 "/>
  <g id="_2312674522080">
   <path class="fil9" d="M670 8349c-351,0 -538,-264 -538,-598 0,-336 188,-588 538,-588 349,0 538,253 538,588 0,334 -187,598 -538,598zm994 -909l158 -232c11,-17 29,-26 49,-26l298 0c23,0 43,12 53,32 10,21 8,44 -5,62l-284 387 347 577c11,19 12,41 1,60 -11,19 -30,30 -52,30l-298 0c-21,0 -40,-11 -51,-29l-182 -316 -34 48 0 238c0,33 -26,59 -59,59l-273 0c-32,0 -59,-26 -59,-59l0 -1030c0,-33 27,-59 59,-59l273 0c33,0 59,26 59,59l0 199zm937 831l0 -1030c0,-33 27,-59 59,-59l305 0c367,0 588,191 588,569 0,366 -209,579 -573,579l-320 0c-32,0 -59,-26 -59,-59zm1511 78c-351,0 -538,-264 -538,-598 0,-336 188,-588 538,-588 349,0 538,253 538,588 0,334 -187,598 -538,598zm1096 0c-351,0 -538,-264 -538,-598 0,-336 188,-588 538,-588 349,0 538,253 538,588 0,334 -187,598 -538,598zm603 -78l0 -1030c0,-33 27,-59 60,-59l304 0c368,0 588,191 588,569 0,366 -209,579 -572,579l-320 0c-33,0 -60,-26 -60,-59zm1409 -288l330 0c33,0 59,27 59,60l0 228c0,33 -26,59 -59,59l-662 0c-33,0 -60,-26 -60,-59l0 -1030c0,-33 27,-59 60,-59l272 0c33,0 60,26 60,59l0 742zm839 -455l0 43 277 0c33,0 59,27 59,60l0 228c0,33 -26,59 -59,59l-277 0 0 65 350 0c33,0 59,27 59,60l0 228c0,33 -26,59 -59,59l-681 0c-33,0 -60,-26 -60,-59l0 -1030c0,-33 27,-59 60,-59l665 0c33,0 59,26 59,59l0 228c0,33 -26,59 -59,59l-334 0zm-7389 468c118,0 140,-156 140,-245 0,-91 -21,-235 -140,-235 -119,0 -140,144 -140,235 0,89 22,245 140,245zm2322 -5c128,-15 164,-99 164,-240 0,-145 -38,-217 -164,-230l0 470zm1120 5c117,0 140,-156 140,-245 0,-91 -22,-235 -140,-235 -119,0 -141,144 -141,235 0,89 23,245 141,245zm1096 0c118,0 141,-156 141,-245 0,-91 -22,-235 -141,-235 -119,0 -140,144 -140,235 0,89 22,245 140,245zm994 -5c128,-15 164,-99 164,-240 0,-145 -38,-217 -164,-230l0 470z"/>
  </g>
  <path class="fil11" d="M670 8290c285,0 479,-200 479,-539 0,-337 -194,-529 -479,-529 -285,0 -478,190 -478,529 0,339 193,539 478,539zm0 -235c-123,0 -200,-117 -200,-304 0,-187 77,-295 200,-295 124,0 200,108 200,295 0,187 -76,304 -200,304z"/>
  <polygon id="1" class="fil11" points="1332,8271 1605,8271 1605,8014 1703,7875 1931,8271 2229,8271 1862,7659 2169,7241 1871,7241 1611,7624 1605,7624 1605,7241 1332,7241 "/>
  <path id="2" class="fil11" d="M2660 8271l320 0c298,0 514,-155 514,-520 0,-364 -216,-510 -529,-510l-305 0 0 1030zm273 -219l0 -592 16 0c149,0 266,50 266,291 0,241 -117,301 -266,301l-16 0z"/>
  <path id="3" class="fil11" d="M4112 8290c285,0 478,-200 478,-539 0,-337 -193,-529 -478,-529 -286,0 -479,190 -479,529 0,339 193,539 479,539zm0 -235c-124,0 -200,-117 -200,-304 0,-187 76,-295 200,-295 123,0 199,108 199,295 0,187 -76,304 -199,304z"/>
  <path id="4" class="fil11" d="M5208 8290c285,0 479,-200 479,-539 0,-337 -194,-529 -479,-529 -285,0 -478,190 -478,529 0,339 193,539 478,539zm0 -235c-123,0 -199,-117 -199,-304 0,-187 76,-295 199,-295 124,0 200,108 200,295 0,187 -76,304 -200,304z"/>
  <path id="5" class="fil11" d="M5871 8271l320 0c297,0 513,-155 513,-520 0,-364 -216,-510 -529,-510l-304 0 0 1030zm272 -219l0 -592 16 0c149,0 266,50 266,291 0,241 -117,301 -266,301l-16 0z"/>
  <polygon id="6" class="fil11" points="6888,8271 7550,8271 7550,8043 7160,8043 7160,7241 6888,7241 "/>
  <polygon id="7" class="fil11" points="7728,8271 8409,8271 8409,8043 8000,8043 8000,7859 8336,7859 8336,7631 8000,7631 8000,7469 8393,7469 8393,7241 7728,7241 "/>
 </g>
</svg>
