<?xml version="1.0" encoding="UTF-8"?>
<!DOCTYPE svg PUBLIC "-//W3C//DTD SVG 1.1//EN" "http://www.w3.org/Graphics/SVG/1.1/DTD/svg11.dtd">
<!-- Creator: CorelDRAW X7 -->
<svg xmlns="http://www.w3.org/2000/svg" xml:space="preserve" width="84.6666mm" height="84.6666mm" version="1.1" style="shape-rendering:geometricPrecision; text-rendering:geometricPrecision; image-rendering:optimizeQuality; fill-rule:evenodd; clip-rule:evenodd"
viewBox="0 0 8467 8467"
 xmlns:xlink="http://www.w3.org/1999/xlink">
 <defs>
  <style type="text/css">
   <![CDATA[
    .str0 {stroke:#E31E24;stroke-width:17.64}
    .fil5 {fill:none}
    .fil6 {fill:black}
    .fil1 {fill:#79D1BF}
    .fil0 {fill:#90F5E1}
    .fil2 {fill:#DB3B7E}
    .fil3 {fill:#FBFF00}
    .fil4 {fill:white}
    .fil8 {fill:#FEFEFE;fill-rule:nonzero}
    .fil7 {fill:#DB3B7E;fill-rule:nonzero}
   ]]>
  </style>
    <clipPath id="id0">
     <path d="M754 0l7332 0c209,0 381,171 381,381l0 7331c0,210 -172,381 -381,381l-7332 0c-209,0 -380,-171 -380,-381l0 -7331c0,-210 171,-381 380,-381z"/>
    </clipPath>
      <clipPath id="id1">
       <path d="M771 280l2390 0c66,0 119,54 119,119l0 2952c0,65 -53,119 -119,119l-2390 0c-65,0 -119,-54 -119,-119l0 -2952c0,-65 54,-119 119,-119z"/>
      </clipPath>
      <clipPath id="id2">
       <path d="M754 0l7332 0c209,0 381,171 381,381l0 7331c0,210 -172,381 -381,381l-7332 0c-209,0 -380,-171 -380,-381l0 -7331c0,-210 171,-381 380,-381z"/>
      </clipPath>
      <clipPath id="id3">
       <path d="M3661 280l4410 0c64,0 117,53 117,118l0 2954c0,65 -53,118 -117,118l-4410 0c-65,0 -117,-53 -117,-118l0 -2954c0,-65 52,-118 117,-118z"/>
      </clipPath>
      <clipPath id="id4">
       <path d="M754 0l7332 0c209,0 381,171 381,381l0 7331c0,210 -172,381 -381,381l-7332 0c-209,0 -380,-171 -380,-381l0 -7331c0,-210 171,-381 380,-381z"/>
      </clipPath>
      <clipPath id="id5">
       <path d="M786 3734l4252 0c74,0 134,60 134,134l0 3811c0,74 -60,134 -134,134l-4252 0c-74,0 -134,-60 -134,-134l0 -3811c0,-74 60,-134 134,-134z"/>
      </clipPath>
      <clipPath id="id6">
       <path d="M754 0l7332 0c209,0 381,171 381,381l0 7331c0,210 -172,381 -381,381l-7332 0c-209,0 -380,-171 -380,-381l0 -7331c0,-210 171,-381 380,-381z"/>
      </clipPath>
      <clipPath id="id7">
       <path d="M5555 3734l2498 0c74,0 135,61 135,136l0 3807c0,75 -61,136 -135,136l-2498 0c-74,0 -135,-61 -135,-136l0 -3807c0,-75 61,-136 135,-136z"/>
      </clipPath>
      <clipPath id="id8">
       <path d="M754 0l7332 0c209,0 381,171 381,381l0 7331c0,210 -172,381 -381,381l-7332 0c-209,0 -380,-171 -380,-381l0 -7331c0,-210 171,-381 380,-381z"/>
      </clipPath>
 </defs>
 <g id="Layer_x0020_1">
  <metadata id="CorelCorpID_0Corel-Layer"/>
  <g id="_2276649918304">
   <rect class="fil0" width="8467" height="8467"/>
   <rect class="fil1" y="381" width="8086" height="8086" rx="374" ry="374"/>
   <g>
   </g>
   <g style="clip-path:url(#id0)">
    <g id="_2276649923200">
     <g>
      <rect class="fil2 str0" x="374" width="8093" height="8093"/>
      <path class="fil3" d="M771 280l2390 0c66,0 119,54 119,119l0 2952c0,65 -53,119 -119,119l-2390 0c-65,0 -119,-54 -119,-119l0 -2952c0,-65 54,-119 119,-119z"/>
     </g>
     <g style="clip-path:url(#id1)">
      <g>
       <polygon id="1" class="fil4" points="3388,53 608,53 608,1551 1027,1551 1027,2198 1712,1551 3388,1551 "/>
      </g>
     </g>
     <g style="clip-path:url(#id2)">
      <path class="fil5" d="M771 280l2390 0c66,0 119,54 119,119l0 2952c0,65 -53,119 -119,119l-2390 0c-65,0 -119,-54 -119,-119l0 -2952c0,-65 54,-119 119,-119z"/>
      <path class="fil3" d="M3661 280l4410 0c64,0 117,53 117,118l0 2954c0,65 -53,118 -117,118l-4410 0c-65,0 -117,-53 -117,-118l0 -2954c0,-65 52,-118 117,-118z"/>
     </g>
     <g style="clip-path:url(#id3)">
      <g>
       <polygon id="1" class="fil2" points="3224,2716 3833,2107 3833,2107 3977,1963 4121,2107 4586,2571 5050,2107 5194,1963 5338,2107 5338,2107 5802,2571 6267,2107 6267,2107 6411,1963 6555,2107 7019,2571 7483,2107 7628,1963 7772,2107 7772,2107 8380,2716 8236,2860 7628,2251 7164,2716 7164,2716 7019,2860 6875,2716 6875,2716 6411,2251 5947,2716 5947,2716 5802,2860 5658,2716 5658,2716 5194,2251 4730,2716 4730,2716 4586,2860 4441,2716 4441,2716 3977,2251 3369,2860 "/>
       <polygon class="fil3" points="3224,3004 3833,2396 3833,2396 3977,2251 4121,2396 4586,2860 5050,2396 5194,2251 5338,2396 5338,2396 5802,2860 6267,2396 6267,2396 6411,2251 6555,2396 7019,2860 7483,2396 7628,2251 7772,2396 7772,2396 8380,3004 8236,3148 7628,2540 7164,3004 7164,3004 7019,3148 6875,3004 6875,3004 6411,2540 5947,3004 5947,3004 5802,3148 5658,3004 5658,3004 5194,2540 4730,3004 4730,3004 4586,3148 4441,3004 4441,3004 3977,2540 3369,3148 "/>
       <polygon class="fil2" points="3224,3293 3833,2684 3833,2684 3977,2540 4121,2684 4586,3148 5050,2684 5194,2540 5338,2684 5338,2684 5802,3148 6267,2684 6267,2684 6411,2540 6555,2684 7019,3148 7483,2684 7628,2540 7772,2684 7772,2684 8380,3293 8236,3437 7628,2829 7164,3293 7164,3293 7019,3437 6875,3293 6875,3293 6411,2829 5947,3293 5947,3293 5802,3437 5658,3293 5658,3293 5194,2829 4730,3293 4730,3293 4586,3437 4441,3293 4441,3293 3977,2829 3369,3437 "/>
       <polygon class="fil3" points="3224,3581 3833,2973 3833,2973 3977,2829 4121,2973 4586,3437 5050,2973 5194,2829 5338,2973 5338,2973 5802,3437 6267,2973 6267,2973 6411,2829 6555,2973 7019,3437 7483,2973 7628,2829 7772,2973 7772,2973 8380,3581 8236,3725 7628,3117 7164,3581 7164,3581 7019,3725 6875,3581 6875,3581 6411,3117 5947,3581 5947,3581 5802,3725 5658,3581 5658,3581 5194,3117 4730,3581 4730,3581 4586,3725 4441,3581 4441,3581 3977,3117 3369,3725 "/>
       <polygon class="fil2" points="3224,3870 3833,3261 3833,3261 3977,3117 4121,3261 4586,3725 5050,3261 5194,3117 5338,3261 5338,3261 5802,3725 6267,3261 6267,3261 6411,3117 6555,3261 7019,3725 7483,3261 7628,3117 7772,3261 7772,3261 8380,3870 8236,4014 7628,3406 7164,3870 7164,3870 7019,4014 6875,3870 6875,3870 6411,3406 5947,3870 5947,3870 5802,4014 5658,3870 5658,3870 5194,3406 4730,3870 4730,3870 4586,4014 4441,3870 4441,3870 3977,3406 3369,4014 "/>
       <polygon class="fil3" points="3224,4158 3833,3550 3833,3550 3977,3406 4121,3550 4586,4014 5050,3550 5194,3406 5338,3550 5338,3550 5802,4014 6267,3550 6267,3550 6411,3406 6555,3550 7019,4014 7483,3550 7628,3406 7772,3550 7772,3550 8380,4158 8236,4302 7628,3694 7164,4158 7164,4158 7019,4302 6875,4158 6875,4158 6411,3694 5947,4158 5947,4158 5802,4302 5658,4158 5658,4158 5194,3694 4730,4158 4730,4158 4586,4302 4441,4158 4441,4158 3977,3694 3369,4302 "/>
       <polygon class="fil2" points="3224,4447 3833,3838 3833,3838 3977,3694 4121,3838 4586,4302 5050,3838 5194,3694 5338,3838 5338,3838 5802,4302 6267,3838 6267,3838 6411,3694 6555,3838 7019,4302 7483,3838 7628,3694 7772,3838 7772,3838 8380,4447 8236,4591 7628,3983 7164,4447 7164,4447 7019,4591 6875,4447 6875,4447 6411,3983 5947,4447 5947,4447 5802,4591 5658,4447 5658,4447 5194,3983 4730,4447 4730,4447 4586,4591 4441,4447 4441,4447 3977,3983 3369,4591 "/>
       <polygon class="fil3" points="3224,4735 3833,4127 3833,4127 3977,3983 4121,4127 4586,4591 5050,4127 5194,3983 5338,4127 5338,4127 5802,4591 6267,4127 6267,4127 6411,3983 6555,4127 7019,4591 7483,4127 7628,3983 7772,4127 7772,4127 8380,4735 8236,4880 7628,4271 7164,4735 7164,4735 7019,4880 6875,4735 6875,4735 6411,4271 5947,4735 5947,4735 5802,4880 5658,4735 5658,4735 5194,4271 4730,4735 4730,4735 4586,4880 4441,4735 4441,4735 3977,4271 3369,4880 "/>
       <polygon class="fil2" points="3224,407 3833,-201 3833,-201 3977,-345 4121,-201 4586,263 5050,-201 5194,-345 5338,-201 5338,-201 5802,263 6267,-201 6267,-201 6411,-345 6555,-201 7019,263 7483,-201 7628,-345 7772,-201 7772,-201 8380,407 8236,552 7628,-57 7164,407 7164,407 7019,552 6875,407 6875,407 6411,-57 5947,407 5947,407 5802,552 5658,407 5658,407 5194,-57 4730,407 4730,407 4586,552 4441,407 4441,407 3977,-57 3369,552 "/>
       <polygon class="fil3" points="3224,696 3833,88 3833,88 3977,-57 4121,88 4586,552 5050,88 5194,-57 5338,88 5338,88 5802,552 6267,88 6267,88 6411,-57 6555,88 7019,552 7483,88 7628,-57 7772,88 7772,88 8380,696 8236,840 7628,232 7164,696 7164,696 7019,840 6875,696 6875,696 6411,232 5947,696 5947,696 5802,840 5658,696 5658,696 5194,232 4730,696 4730,696 4586,840 4441,696 4441,696 3977,232 3369,840 "/>
       <polygon class="fil2" points="3224,985 3833,376 3833,376 3977,232 4121,376 4586,840 5050,376 5194,232 5338,376 5338,376 5802,840 6267,376 6267,376 6411,232 6555,376 7019,840 7483,376 7628,232 7772,376 7772,376 8380,985 8236,1129 7628,520 7164,985 7164,985 7019,1129 6875,985 6875,985 6411,520 5947,985 5947,985 5802,1129 5658,985 5658,985 5194,520 4730,985 4730,985 4586,1129 4441,985 4441,985 3977,520 3369,1129 "/>
       <polygon class="fil3" points="3224,1273 3833,665 3833,665 3977,520 4121,665 4586,1129 5050,665 5194,520 5338,665 5338,665 5802,1129 6267,665 6267,665 6411,520 6555,665 7019,1129 7483,665 7628,520 7772,665 7772,665 8380,1273 8236,1417 7628,809 7164,1273 7164,1273 7019,1417 6875,1273 6875,1273 6411,809 5947,1273 5947,1273 5802,1417 5658,1273 5658,1273 5194,809 4730,1273 4730,1273 4586,1417 4441,1273 4441,1273 3977,809 3369,1417 "/>
       <polygon class="fil2" points="3224,1562 3833,953 3833,953 3977,809 4121,953 4586,1417 5050,953 5194,809 5338,953 5338,953 5802,1417 6267,953 6267,953 6411,809 6555,953 7019,1417 7483,953 7628,809 7772,953 7772,953 8380,1562 8236,1706 7628,1097 7164,1562 7164,1562 7019,1706 6875,1562 6875,1562 6411,1097 5947,1562 5947,1562 5802,1706 5658,1562 5658,1562 5194,1097 4730,1562 4730,1562 4586,1706 4441,1562 4441,1562 3977,1097 3369,1706 "/>
       <polygon class="fil3" points="3224,1850 3833,1242 3833,1242 3977,1097 4121,1242 4586,1706 5050,1242 5194,1097 5338,1242 5338,1242 5802,1706 6267,1242 6267,1242 6411,1097 6555,1242 7019,1706 7483,1242 7628,1097 7772,1242 7772,1242 8380,1850 8236,1994 7628,1386 7164,1850 7164,1850 7019,1994 6875,1850 6875,1850 6411,1386 5947,1850 5947,1850 5802,1994 5658,1850 5658,1850 5194,1386 4730,1850 4730,1850 4586,1994 4441,1850 4441,1850 3977,1386 3369,1994 "/>
       <polygon class="fil2" points="3224,2139 3833,1530 3833,1530 3977,1386 4121,1530 4586,1994 5050,1530 5194,1386 5338,1530 5338,1530 5802,1994 6267,1530 6267,1530 6411,1386 6555,1530 7019,1994 7483,1530 7628,1386 7772,1530 7772,1530 8380,2139 8236,2283 7628,1674 7164,2139 7164,2139 7019,2283 6875,2139 6875,2139 6411,1674 5947,2139 5947,2139 5802,2283 5658,2139 5658,2139 5194,1674 4730,2139 4730,2139 4586,2283 4441,2139 4441,2139 3977,1674 3369,2283 "/>
       <polygon class="fil3" points="3224,2427 3833,1819 3833,1819 3977,1674 4121,1819 4586,2283 5050,1819 5194,1674 5338,1819 5338,1819 5802,2283 6267,1819 6267,1819 6411,1674 6555,1819 7019,2283 7483,1819 7628,1674 7772,1819 7772,1819 8380,2427 8236,2571 7628,1963 7164,2427 7164,2427 7019,2571 6875,2427 6875,2427 6411,1963 5947,2427 5947,2427 5802,2571 5658,2427 5658,2427 5194,1963 4730,2427 4730,2427 4586,2571 4441,2427 4441,2427 3977,1963 3369,2571 "/>
       <polygon class="fil4" points="4705,53 8278,53 8278,1978 7740,1978 7740,2810 6859,1978 4705,1978 "/>
      </g>
     </g>
     <g style="clip-path:url(#id4)">
      <path class="fil5" d="M3661 280l4410 0c64,0 117,53 117,118l0 2954c0,65 -53,118 -117,118l-4410 0c-65,0 -117,-53 -117,-118l0 -2954c0,-65 52,-118 117,-118z"/>
      <path class="fil3" d="M786 3734l4252 0c74,0 134,60 134,134l0 3811c0,74 -60,134 -134,134l-4252 0c-74,0 -134,-60 -134,-134l0 -3811c0,-74 60,-134 134,-134z"/>
     </g>
     <g style="clip-path:url(#id5)">
      <g>
       <g>
        <rect class="fil2" transform="matrix(2.44788E-014 -0.949207 0.920353 2.52463E-014 652.182 4899.54)" width="614" height="614"/>
        <rect class="fil3" transform="matrix(2.44788E-014 -0.949207 0.920353 2.52463E-014 1217.12 4899.54)" width="614" height="614"/>
        <rect class="fil3" transform="matrix(2.44788E-014 -0.949207 0.920353 2.52463E-014 652.182 4316.89)" width="614" height="614"/>
        <rect class="fil2" transform="matrix(2.44788E-014 -0.949207 0.920353 2.52463E-014 1217.12 4316.89)" width="614" height="614"/>
        <rect class="fil2" transform="matrix(2.44788E-014 -0.949207 0.920353 2.52463E-014 1782.06 4899.54)" width="614" height="614"/>
        <rect class="fil3" transform="matrix(2.44788E-014 -0.949207 0.920353 2.52463E-014 2347 4899.54)" width="614" height="614"/>
        <rect class="fil3" transform="matrix(2.44788E-014 -0.949207 0.920353 2.52463E-014 1782.06 4316.89)" width="614" height="614"/>
        <rect class="fil2" transform="matrix(2.44788E-014 -0.949207 0.920353 2.52463E-014 2347 4316.89)" width="614" height="614"/>
        <rect class="fil2" transform="matrix(2.44788E-014 -0.949207 0.920353 2.52463E-014 2911.94 4899.54)" width="614" height="614"/>
        <rect class="fil3" transform="matrix(2.44788E-014 -0.949207 0.920353 2.52463E-014 3476.88 4899.54)" width="614" height="614"/>
        <rect class="fil3" transform="matrix(2.44788E-014 -0.949207 0.920353 2.52463E-014 2911.94 4316.89)" width="614" height="614"/>
        <rect class="fil2" transform="matrix(2.44788E-014 -0.949207 0.920353 2.52463E-014 3476.88 4316.89)" width="614" height="614"/>
        <rect class="fil2" transform="matrix(2.44788E-014 -0.949207 0.920353 2.52463E-014 4041.82 4899.54)" width="614" height="614"/>
        <rect class="fil3" transform="matrix(2.44788E-014 -0.949207 0.920353 2.52463E-014 4606.76 4899.54)" width="614" height="614"/>
        <rect class="fil3" transform="matrix(2.44788E-014 -0.949207 0.920353 2.52463E-014 4041.82 4316.89)" width="614" height="614"/>
        <rect class="fil2" transform="matrix(2.44788E-014 -0.949207 0.920353 2.52463E-014 4606.76 4316.89)" width="614" height="614"/>
        <rect class="fil2" transform="matrix(2.44788E-014 -0.949207 0.920353 2.52463E-014 652.182 6064.85)" width="614" height="614"/>
        <rect class="fil3" transform="matrix(2.44788E-014 -0.949207 0.920353 2.52463E-014 1217.12 6064.85)" width="614" height="614"/>
        <rect class="fil3" transform="matrix(2.44788E-014 -0.949207 0.920353 2.52463E-014 652.182 5482.19)" width="614" height="614"/>
        <rect class="fil2" transform="matrix(2.44788E-014 -0.949207 0.920353 2.52463E-014 1217.12 5482.19)" width="614" height="614"/>
        <rect class="fil2" transform="matrix(2.44788E-014 -0.949207 0.920353 2.52463E-014 1782.06 6064.85)" width="614" height="614"/>
        <rect class="fil3" transform="matrix(2.44788E-014 -0.949207 0.920353 2.52463E-014 2347 6064.85)" width="614" height="614"/>
        <rect class="fil3" transform="matrix(2.44788E-014 -0.949207 0.920353 2.52463E-014 1782.06 5482.19)" width="614" height="614"/>
        <rect class="fil2" transform="matrix(2.44788E-014 -0.949207 0.920353 2.52463E-014 2347 5482.19)" width="614" height="614"/>
        <rect class="fil2" transform="matrix(2.44788E-014 -0.949207 0.920353 2.52463E-014 2911.94 6064.85)" width="614" height="614"/>
        <rect class="fil3" transform="matrix(2.44788E-014 -0.949207 0.920353 2.52463E-014 3476.88 6064.85)" width="614" height="614"/>
        <rect class="fil3" transform="matrix(2.44788E-014 -0.949207 0.920353 2.52463E-014 2911.94 5482.19)" width="614" height="614"/>
        <rect class="fil2" transform="matrix(2.44788E-014 -0.949207 0.920353 2.52463E-014 3476.88 5482.19)" width="614" height="614"/>
        <rect class="fil2" transform="matrix(2.44788E-014 -0.949207 0.920353 2.52463E-014 4041.82 6064.85)" width="614" height="614"/>
        <rect class="fil3" transform="matrix(2.44788E-014 -0.949207 0.920353 2.52463E-014 4606.76 6064.85)" width="614" height="614"/>
        <rect class="fil3" transform="matrix(2.44788E-014 -0.949207 0.920353 2.52463E-014 4041.82 5482.19)" width="614" height="614"/>
        <rect class="fil2" transform="matrix(2.44788E-014 -0.949207 0.920353 2.52463E-014 4606.76 5482.19)" width="614" height="614"/>
        <rect class="fil2" transform="matrix(2.44788E-014 -0.949207 0.920353 2.52463E-014 652.182 7230.15)" width="614" height="614"/>
        <rect class="fil3" transform="matrix(2.44788E-014 -0.949207 0.920353 2.52463E-014 1217.12 7230.15)" width="614" height="614"/>
        <rect class="fil3" transform="matrix(2.44788E-014 -0.949207 0.920353 2.52463E-014 652.182 6647.5)" width="614" height="614"/>
        <rect class="fil2" transform="matrix(2.44788E-014 -0.949207 0.920353 2.52463E-014 1217.12 6647.5)" width="614" height="614"/>
        <rect class="fil2" transform="matrix(2.44788E-014 -0.949207 0.920353 2.52463E-014 1782.06 7230.15)" width="614" height="614"/>
        <rect class="fil3" transform="matrix(2.44788E-014 -0.949207 0.920353 2.52463E-014 2347 7230.15)" width="614" height="614"/>
        <rect class="fil3" transform="matrix(2.44788E-014 -0.949207 0.920353 2.52463E-014 1782.06 6647.5)" width="614" height="614"/>
        <rect class="fil2" transform="matrix(2.44788E-014 -0.949207 0.920353 2.52463E-014 2347 6647.5)" width="614" height="614"/>
        <rect class="fil2" transform="matrix(2.44788E-014 -0.949207 0.920353 2.52463E-014 2911.94 7230.15)" width="614" height="614"/>
        <rect class="fil3" transform="matrix(2.44788E-014 -0.949207 0.920353 2.52463E-014 3476.88 7230.15)" width="614" height="614"/>
        <rect class="fil3" transform="matrix(2.44788E-014 -0.949207 0.920353 2.52463E-014 2911.94 6647.5)" width="614" height="614"/>
        <rect class="fil2" transform="matrix(2.44788E-014 -0.949207 0.920353 2.52463E-014 3476.88 6647.5)" width="614" height="614"/>
        <rect class="fil2" transform="matrix(2.44788E-014 -0.949207 0.920353 2.52463E-014 4041.82 7230.15)" width="614" height="614"/>
        <rect class="fil3" transform="matrix(2.44788E-014 -0.949207 0.920353 2.52463E-014 4606.76 7230.15)" width="614" height="614"/>
        <rect class="fil3" transform="matrix(2.44788E-014 -0.949207 0.920353 2.52463E-014 4041.82 6647.5)" width="614" height="614"/>
        <rect class="fil2" transform="matrix(2.44788E-014 -0.949207 0.920353 2.52463E-014 4606.76 6647.5)" width="614" height="614"/>
        <rect class="fil3" transform="matrix(2.44788E-014 -0.949207 0.920353 2.52463E-014 652.182 7812.8)" width="614" height="614"/>
        <rect class="fil2" transform="matrix(2.44788E-014 -0.949207 0.920353 2.52463E-014 1217.12 7812.8)" width="614" height="614"/>
        <rect class="fil3" transform="matrix(2.44788E-014 -0.949207 0.920353 2.52463E-014 1782.06 7812.8)" width="614" height="614"/>
        <rect class="fil2" transform="matrix(2.44788E-014 -0.949207 0.920353 2.52463E-014 2347 7812.8)" width="614" height="614"/>
        <rect class="fil3" transform="matrix(2.44788E-014 -0.949207 0.920353 2.52463E-014 2911.94 7812.8)" width="614" height="614"/>
        <rect class="fil2" transform="matrix(2.44788E-014 -0.949207 0.920353 2.52463E-014 3476.88 7812.8)" width="614" height="614"/>
        <rect class="fil3" transform="matrix(2.44788E-014 -0.949207 0.920353 2.52463E-014 4041.82 7812.8)" width="614" height="614"/>
        <rect class="fil2" transform="matrix(2.44788E-014 -0.949207 0.920353 2.52463E-014 4606.76 7812.8)" width="614" height="614"/>
       </g>
      </g>
     </g>
     <g style="clip-path:url(#id6)">
      <path class="fil5" d="M786 3734l4252 0c74,0 134,60 134,134l0 3811c0,74 -60,134 -134,134l-4252 0c-74,0 -134,-60 -134,-134l0 -3811c0,-74 60,-134 134,-134z"/>
      <path class="fil3" d="M5555 3734l2498 0c74,0 135,61 135,136l0 3807c0,75 -61,136 -135,136l-2498 0c-74,0 -135,-61 -135,-136l0 -3807c0,-75 61,-136 135,-136z"/>
     </g>
     <g style="clip-path:url(#id7)">
      <g>
       <g>
        <g>
         <rect class="fil3" transform="matrix(-1.31439E-014 -0.354204 0.403269 -6.90865E-014 5079.7 4244.05)" width="720" height="8551"/>
         <rect class="fil2" transform="matrix(-1.31439E-014 -0.354204 0.403269 -6.90865E-014 5079.7 3989.14)" width="720" height="8551"/>
        </g>
        <g>
         <rect class="fil3" transform="matrix(-1.31439E-014 -0.354204 0.403269 -6.90865E-014 5079.7 4753.87)" width="720" height="8551"/>
         <rect class="fil2" transform="matrix(-1.31439E-014 -0.354204 0.403269 -6.90865E-014 5079.7 4498.96)" width="720" height="8551"/>
        </g>
        <g>
         <rect class="fil3" transform="matrix(-1.31439E-014 -0.354204 0.403269 -6.90865E-014 5079.7 5263.69)" width="720" height="8551"/>
         <rect class="fil2" transform="matrix(-1.31439E-014 -0.354204 0.403269 -6.90865E-014 5079.7 5008.78)" width="720" height="8551"/>
        </g>
        <g>
         <rect class="fil3" transform="matrix(-1.31439E-014 -0.354204 0.403269 -6.90865E-014 5079.7 5773.51)" width="720" height="8551"/>
         <rect class="fil2" transform="matrix(-1.31439E-014 -0.354204 0.403269 -6.90865E-014 5079.7 5518.6)" width="720" height="8551"/>
        </g>
        <g>
         <rect class="fil3" transform="matrix(-1.31439E-014 -0.354204 0.403269 -6.90865E-014 5079.7 6283.34)" width="720" height="8551"/>
         <rect class="fil2" transform="matrix(-1.31439E-014 -0.354204 0.403269 -6.90865E-014 5079.7 6028.43)" width="720" height="8551"/>
        </g>
        <g>
         <rect class="fil3" transform="matrix(-1.31439E-014 -0.354204 0.403269 -6.90865E-014 5079.7 6793.16)" width="720" height="8551"/>
         <rect class="fil2" transform="matrix(-1.31439E-014 -0.354204 0.403269 -6.90865E-014 5079.7 6538.25)" width="720" height="8551"/>
        </g>
        <g>
         <rect class="fil3" transform="matrix(-1.31439E-014 -0.354204 0.403269 -6.90865E-014 5079.7 7302.98)" width="720" height="8551"/>
         <rect class="fil2" transform="matrix(-1.31439E-014 -0.354204 0.403269 -6.90865E-014 5079.7 7048.07)" width="720" height="8551"/>
        </g>
        <g>
         <rect class="fil3" transform="matrix(-1.31439E-014 -0.354204 0.403269 -6.90865E-014 5079.7 7812.8)" width="720" height="8551"/>
         <rect class="fil2" transform="matrix(-1.31439E-014 -0.354204 0.403269 -6.90865E-014 5079.7 7557.89)" width="720" height="8551"/>
        </g>
       </g>
       <polygon class="fil4" points="7531,3613 5359,3613 5359,4784 5686,4784 5686,5290 6222,4784 7531,4784 "/>
      </g>
     </g>
     <g style="clip-path:url(#id8)">
      <path class="fil5" d="M5555 3734l2498 0c74,0 135,61 135,136l0 3807c0,75 -61,136 -135,136l-2498 0c-74,0 -135,-61 -135,-136l0 -3807c0,-75 61,-136 135,-136z"/>
     </g>
    </g>
   </g>
   <path class="fil5" d="M754 0l7332 0c209,0 381,171 381,381l0 7331c0,210 -172,381 -381,381l-7332 0c-209,0 -380,-171 -380,-381l0 -7331c0,-210 171,-381 380,-381z"/>
   <g id="_2276649921280">
    <path class="fil6" d="M3782 8350l315 -1034c7,-24 28,-40 53,-40l339 0c25,0 46,16 54,40l322 1059c6,18 3,35 -8,50 -11,14 -27,22 -45,22l-297 0c-26,0 -48,-17 -54,-43l-42 -182 -208 0 -42 182c-6,26 -28,43 -55,43l-286 0c-19,0 -34,-8 -45,-22 -2,-4 -4,-7 -6,-10 -9,19 -28,32 -51,32l-280 0c-31,0 -56,-25 -56,-56l0 -1059c0,-31 25,-56 56,-56l280 0c31,0 56,25 56,56l0 1018zm-1487 0l0 -1018c0,-31 25,-56 56,-56l287 0c21,0 40,12 49,31l203 409c-1,-26 -2,-52 -2,-78l0 -306c0,-31 25,-56 56,-56l267 0c31,0 56,25 56,56l0 1059c0,31 -25,56 -56,56l-287 0c-21,0 -40,-11 -49,-31l-204 -410c2,26 3,53 3,79l0 306c0,31 -25,56 -56,56l-267 0c-23,0 -42,-13 -51,-32 -1,3 -3,6 -6,10 -11,14 -26,22 -44,22l-297 0c-26,0 -48,-17 -54,-43l-42 -182 -209 0 -42 182c-6,26 -28,43 -54,43l-287 0c-18,0 -34,-8 -45,-22 -2,-4 -4,-7 -5,-10 -9,19 -29,32 -51,32l-261 0c-30,0 -55,-25 -55,-56l0 -304 -99 239c-8,22 -28,35 -51,35l-104 0c-24,0 -43,-13 -52,-35l-95 -231 0 296c0,31 -25,56 -56,56l-257 0c-31,0 -56,-25 -56,-56l0 -1059c0,-31 25,-56 56,-56l290 0c24,0 44,14 52,36l166 440c1,1 1,2 1,2l9 28 9 -28c1,0 1,-1 1,-1l160 -440c8,-22 28,-37 52,-37l290 0c31,0 56,25 56,56l0 1018 315 -1034c7,-24 28,-40 53,-40l339 0c25,0 46,16 53,40l315 1034zm-339 -1457l0 -1018c0,-30 25,-55 56,-55l287 0c21,0 40,11 49,31l203 409c-1,-26 -2,-52 -2,-78l0 -307c0,-30 25,-55 56,-55l267 0c31,0 56,25 56,55l0 1060c0,30 -25,55 -56,55l-287 0c-21,0 -40,-11 -49,-31l-204 -410c2,26 3,53 3,79l0 307c0,30 -25,55 -56,55l-267 0c-23,0 -42,-13 -51,-32 -1,4 -3,7 -6,10 -11,15 -26,22 -44,22l-297 0c-26,0 -48,-17 -54,-43l-42 -182 -209 0 -42 182c-6,26 -28,43 -54,43l-287 0c-18,0 -34,-7 -45,-22 -10,-15 -13,-32 -8,-49l323 -1060c7,-24 28,-39 53,-39l339 0c25,0 46,15 53,39l315 1034zm-1486 -238l0 280c0,30 -25,55 -56,55l-280 0c-31,0 -56,-25 -56,-55l0 -1060c0,-30 25,-55 56,-55l411 0c266,0 479,113 479,407 0,283 -216,428 -479,428l-75 0zm2973 -489l0 55 290 0c31,0 56,25 56,55l0 235c0,31 -25,56 -56,56l-290 0 0 77 365 0c31,0 56,25 56,56l0 235c0,30 -25,55 -56,55l-701 0c-31,0 -56,-25 -56,-55l0 -1060c0,-30 25,-55 56,-55l685 0c30,0 55,25 55,55l0 235c0,31 -25,56 -55,56l-349 0zm906 478l346 0c30,0 55,25 55,56l0 235c0,30 -25,55 -55,55l-682 0c-30,0 -55,-25 -55,-55l0 -1060c0,-30 25,-55 55,-55l281 0c30,0 55,25 55,55l0 769zm-3879 -322l62 0c69,0 107,-22 107,-95 0,-68 -47,-74 -107,-74l-62 0 0 169zm916 115l54 0 -1 -3c-9,-36 -17,-72 -26,-108 -8,36 -16,72 -25,107l-2 4zm340 1457l53 0 0 -4c-10,-35 -18,-71 -27,-107 -8,36 -16,71 -25,107l-1 4zm2562 0l54 0 -1 -4c-9,-35 -18,-71 -26,-107 -8,36 -17,71 -26,107l-1 4z"/>
   </g>
   <path class="fil7" d="M134 6935l280 0 0 -336 131 0c221,0 423,-112 423,-372 0,-267 -195,-352 -423,-352l-411 0 0 1060zm280 -558l0 -280 118 0c104,0 163,36 163,130 0,95 -53,150 -163,150l-118 0z"/>
   <path id="1" class="fil7" d="M1316 6493l18 -73c26,-101 52,-228 75,-336l6 0c26,106 52,235 78,336l18 73 -195 0zm298 442l297 0 -323 -1060 -339 0 -323 1060 287 0 52 -225 297 0 52 225z"/>
   <path id="2" class="fil7" d="M2012 6935l267 0 0 -307c0,-130 -23,-283 -36,-404l7 0 101 236 234 475 287 0 0 -1060 -267 0 0 307c0,130 23,290 36,404l-7 0 -101 -238 -234 -473 -287 0 0 1060z"/>
   <polygon id="3" class="fil7" points="3107,6935 3808,6935 3808,6700 3387,6700 3387,6511 3733,6511 3733,6276 3387,6276 3387,6110 3792,6110 3792,5875 3107,5875 "/>
   <polygon id="4" class="fil7" points="4013,6935 4695,6935 4695,6700 4294,6700 4294,5875 4013,5875 "/>
   <path id="5" class="fil7" d="M134 8391l257 0 0 -312c0,-108 -22,-273 -35,-379l6 0 85 248 147 357 104 0 147 -357 88 -248 6 0c-13,106 -36,271 -36,379l0 312 261 0 0 -1059 -290 0 -160 440 -59 173 -6 0 -59 -173 -166 -440 -290 0 0 1059z"/>
   <path id="6" class="fil7" d="M1655 7950l18 -74c26,-101 52,-228 75,-335l6 0c26,106 52,234 78,335l18 74 -195 0zm298 441l297 0 -323 -1059 -339 0 -323 1059 287 0 52 -224 297 0 52 224z"/>
   <path id="7" class="fil7" d="M2351 8391l267 0 0 -306c0,-130 -23,-284 -36,-404l7 0 101 236 234 474 287 0 0 -1059 -267 0 0 306c0,131 23,291 36,405l-7 0 -101 -238 -234 -473 -287 0 0 1059z"/>
   <polygon id="8" class="fil7" points="3446,8391 3726,8391 3726,7332 3446,7332 "/>
   <path id="9" class="fil7" d="M4217 7950l18 -74c26,-101 52,-228 75,-335l7 0c26,106 52,234 78,335l18 74 -196 0zm298 441l297 0 -323 -1059 -339 0 -322 1059 286 0 53 -224 296 0 52 224z"/>
   <g id="_2276649919840">
    <path class="fil6" d="M3906 8165l308 -1010c8,-26 30,-42 57,-42l339 0c26,0 49,16 56,42l323 1059c6,19 3,37 -9,53 -11,15 -28,24 -48,24l-296 0c-28,0 -52,-19 -58,-46l-42 -179 -202 0 -41 179c-7,27 -30,46 -58,46l-287 0c-20,0 -36,-9 -48,-24 -1,-2 -2,-3 -3,-4 -10,16 -29,28 -50,28l-281 0c-32,0 -59,-27 -59,-60l0 -1059c0,-33 27,-59 59,-59l281 0c32,0 59,26 59,59l0 993zm-1494 0l0 -993c0,-33 26,-59 59,-59l287 0c23,0 43,12 53,33l195 393c-1,-20 -1,-41 -1,-61l0 -306c0,-33 27,-59 59,-59l268 0c32,0 59,26 59,59l0 1059c0,33 -27,60 -59,60l-287 0c-23,0 -43,-12 -53,-33l-196 -395c1,21 2,41 2,62l0 306c0,33 -27,60 -60,60l-267 0c-21,0 -40,-12 -50,-28 -1,1 -2,2 -3,4 -12,15 -29,24 -48,24l-297 0c-28,0 -51,-19 -57,-46l-42 -179 -202 0 -42 179c-6,27 -30,46 -58,46l-287 0c-19,0 -36,-9 -47,-24 -1,-2 -2,-3 -3,-4 -11,16 -29,28 -51,28l-260 0c-33,0 -60,-27 -60,-60l0 -285 -91 222c-9,22 -30,36 -55,36l-104 0c-25,0 -46,-14 -55,-36l-88 -214 0 277c0,33 -27,60 -59,60l-258 0c-32,0 -59,-27 -59,-60l0 -1059c0,-33 27,-59 59,-59l290 0c26,0 47,14 56,38l166 440c0,1 1,1 1,2l6 17 5 -17c0,0 1,-1 1,-1l159 -440c9,-24 31,-39 56,-39l290 0c33,0 60,26 60,59l0 993 307 -1010c8,-26 31,-42 57,-42l339 0c27,0 49,16 57,42l308 1010zm-339 -1473l0 -993c0,-32 26,-59 59,-59l287 0c23,0 43,12 53,33l195 393c-1,-20 -1,-40 -1,-60l0 -307c0,-32 27,-59 59,-59l268 0c32,0 59,27 59,59l0 1060c0,32 -27,59 -59,59l-287 0c-23,0 -43,-12 -53,-33l-196 -395c1,21 2,42 2,62l0 307c0,32 -27,59 -60,59l-267 0c-21,0 -40,-11 -51,-28 0,1 -1,3 -2,4 -12,16 -29,24 -48,24l-297 0c-28,0 -51,-19 -58,-46l-41 -179 -202 0 -42 179c-6,27 -30,46 -58,46l-287 0c-19,0 -36,-8 -47,-24 -12,-16 -15,-34 -9,-53l322 -1059c8,-25 31,-42 57,-42l339 0c27,0 49,17 57,42l308 1010zm-1479 -210l0 277c0,32 -27,59 -59,59l-281 0c-32,0 -59,-27 -59,-59l0 -1060c0,-32 27,-59 59,-59l411 0c269,0 483,115 483,411 0,285 -218,431 -483,431l-71 0zm2973 -489l0 48 286 0c33,0 60,27 60,59l0 235c0,33 -27,59 -60,59l-286 0 0 71 361 0c33,0 60,26 60,59l0 235c0,32 -27,59 -60,59l-701 0c-32,0 -59,-27 -59,-59l0 -1060c0,-32 27,-59 59,-59l685 0c33,0 59,27 59,59l0 235c0,33 -26,59 -59,59l-345 0zm906 472l342 0c33,0 59,26 59,59l0 235c0,32 -26,59 -59,59l-681 0c-33,0 -60,-27 -60,-59l0 -1060c0,-32 27,-59 60,-59l280 0c33,0 59,27 59,59l0 766zm-3879 -323l58 0c67,0 104,-20 104,-91 0,-66 -46,-71 -104,-71l-58 0 0 162zm918 116l44 0c-8,-31 -15,-61 -22,-91 -7,30 -15,60 -22,91zm339 1472l44 0c-8,-30 -15,-60 -22,-91 -7,31 -15,61 -22,91zm2562 0l44 0c-7,-30 -15,-60 -22,-91 -7,31 -14,61 -22,91z"/>
   </g>
   <path class="fil8" d="M254 6759l281 0 0 -336 130 0c222,0 424,-113 424,-372 0,-267 -196,-352 -424,-352l-411 0 0 1060zm281 -558l0 -280 117 0c104,0 163,36 163,130 0,95 -52,150 -163,150l-117 0z"/>
   <path id="1" class="fil8" d="M1436 6317l18 -73c26,-101 52,-229 75,-336l6 0c26,106 53,235 79,336l18 73 -196 0zm298 442l297 0 -323 -1060 -339 0 -323 1060 287 0 52 -225 297 0 52 225z"/>
   <path id="2" class="fil8" d="M2132 6759l267 0 0 -307c0,-130 -23,-283 -36,-404l7 0 101 236 235 475 287 0 0 -1060 -268 0 0 307c0,130 23,290 36,404l-6 0 -101 -238 -235 -473 -287 0 0 1060z"/>
   <polygon id="3" class="fil8" points="3227,6759 3928,6759 3928,6524 3508,6524 3508,6335 3853,6335 3853,6100 3508,6100 3508,5934 3912,5934 3912,5699 3227,5699 "/>
   <polygon id="4" class="fil8" points="4134,6759 4815,6759 4815,6524 4414,6524 4414,5699 4134,5699 "/>
   <path id="5" class="fil8" d="M254 8231l258 0 0 -312c0,-108 -23,-273 -36,-379l6 0 85 248 147 357 104 0 147 -357 88 -248 6 0c-13,106 -35,271 -35,379l0 312 260 0 0 -1059 -290 0 -160 440 -58 173 -7 0 -58 -173 -167 -440 -290 0 0 1059z"/>
   <path id="6" class="fil8" d="M1775 7790l18 -74c26,-101 52,-228 75,-335l6 0c27,106 53,234 79,335l18 74 -196 0zm298 441l297 0 -323 -1059 -339 0 -323 1059 287 0 52 -224 297 0 52 224z"/>
   <path id="7" class="fil8" d="M2471 8231l267 0 0 -306c0,-130 -22,-284 -35,-404l6 0 101 236 235 474 287 0 0 -1059 -268 0 0 306c0,131 23,291 36,405l-6 0 -101 -238 -235 -473 -287 0 0 1059z"/>
   <polygon id="8" class="fil8" points="3566,8231 3847,8231 3847,7172 3566,7172 "/>
   <path id="9" class="fil8" d="M4337 7790l18 -74c26,-101 53,-228 75,-335l7 0c26,106 52,234 78,335l18 74 -196 0zm299 441l296 0 -322 -1059 -339 0 -323 1059 287 0 52 -224 297 0 52 224z"/>
  </g>
 </g>
</svg>
