<?xml version="1.0" encoding="UTF-8"?>
<!DOCTYPE svg PUBLIC "-//W3C//DTD SVG 1.1//EN" "http://www.w3.org/Graphics/SVG/1.1/DTD/svg11.dtd">
<!-- Creator: CorelDRAW X7 -->
<svg xmlns="http://www.w3.org/2000/svg" xml:space="preserve" width="84.6666mm" height="84.6666mm" version="1.1" style="shape-rendering:geometricPrecision; text-rendering:geometricPrecision; image-rendering:optimizeQuality; fill-rule:evenodd; clip-rule:evenodd"
viewBox="0 0 8467 8467"
 xmlns:xlink="http://www.w3.org/1999/xlink">
 <defs>
  <style type="text/css">
   <![CDATA[
    .fil5 {fill:none}
    .fil6 {fill:black}
    .fil2 {fill:#008F8F}
    .fil1 {fill:#79D1BF}
    .fil0 {fill:#90F5E1}
    .fil4 {fill:#FF9900}
    .fil3 {fill:white}
    .fil8 {fill:#FEFEFE;fill-rule:nonzero}
    .fil7 {fill:#FF9900;fill-rule:nonzero}
   ]]>
  </style>
   <clipPath id="id0">
    <path d="M754 0l7332 0c209,0 381,171 381,381l0 7331c0,210 -172,381 -381,381l-7332 0c-209,0 -380,-171 -380,-381l0 -7331c0,-210 171,-381 380,-381z"/>
   </clipPath>
     <clipPath id="id1">
      <path d="M1958 2603l4717 -839 0 2725 -4717 970 0 -2856z"/>
     </clipPath>
     <clipPath id="id2">
      <path d="M754 0l7332 0c209,0 381,171 381,381l0 7331c0,210 -172,381 -381,381l-7332 0c-209,0 -380,-171 -380,-381l0 -7331c0,-210 171,-381 380,-381z"/>
     </clipPath>
     <clipPath id="id3">
      <path d="M7576 4330c552,419 530,1378 -50,2143 -580,764 -1498,1045 -2050,626 -552,-418 -529,-1378 50,-2143 580,-764 1498,-1045 2050,-626z"/>
     </clipPath>
      <clipPath id="id4">
       <path d="M7354 4376c497,377 477,1241 -46,1930 -522,688 -1348,941 -1845,564 -307,-233 -417,-651 -333,-1099 68,-275 200,-556 396,-815 203,-267 448,-475 703,-615 402,-191 824,-193 1125,35z"/>
      </clipPath>
      <clipPath id="id5">
       <path d="M7576 4330c552,419 530,1378 -50,2143 -580,764 -1498,1045 -2050,626 -552,-418 -529,-1378 50,-2143 580,-764 1498,-1045 2050,-626z"/>
      </clipPath>
     <clipPath id="id6">
      <path d="M754 0l7332 0c209,0 381,171 381,381l0 7331c0,210 -172,381 -381,381l-7332 0c-209,0 -380,-171 -380,-381l0 -7331c0,-210 171,-381 380,-381z"/>
     </clipPath>
     <clipPath id="id7">
      <path d="M1290 2006l0 2857 668 596 0 -2856 -668 -597z"/>
     </clipPath>
     <clipPath id="id8">
      <path d="M754 0l7332 0c209,0 381,171 381,381l0 7331c0,210 -172,381 -381,381l-7332 0c-209,0 -380,-171 -380,-381l0 -7331c0,-210 171,-381 380,-381z"/>
     </clipPath>
     <clipPath id="id9">
      <path d="M2083 1912c138,0 249,75 249,168 0,93 -111,169 -249,169 -138,0 -250,-76 -250,-169 0,-93 112,-168 250,-168z"/>
     </clipPath>
     <clipPath id="id10">
      <path d="M754 0l7332 0c209,0 381,171 381,381l0 7331c0,210 -172,381 -381,381l-7332 0c-209,0 -380,-171 -380,-381l0 -7331c0,-210 171,-381 380,-381z"/>
     </clipPath>
     <clipPath id="id11">
      <path d="M3377 1466l1607 -279 0 878 -1607 285 0 -884z"/>
     </clipPath>
     <clipPath id="id12">
      <path d="M754 0l7332 0c209,0 381,171 381,381l0 7331c0,210 -172,381 -381,381l-7332 0c-209,0 -380,-171 -380,-381l0 -7331c0,-210 171,-381 380,-381z"/>
     </clipPath>
     <clipPath id="id13">
      <path d="M3042 1168l1608 -279 334 298 -1607 279 -335 -298z"/>
     </clipPath>
     <clipPath id="id14">
      <path d="M754 0l7332 0c209,0 381,171 381,381l0 7331c0,210 -172,381 -381,381l-7332 0c-209,0 -380,-171 -380,-381l0 -7331c0,-210 171,-381 380,-381z"/>
     </clipPath>
 </defs>
 <g id="Layer_x0020_1">
  <metadata id="CorelCorpID_0Corel-Layer"/>
  <rect class="fil0" width="8467" height="8467"/>
  <rect class="fil1" y="381" width="8086" height="8086" rx="374" ry="374"/>
  <g>
  </g>
  <g style="clip-path:url(#id0)">
   <g>
    <g id="_2313172800000">
     <rect class="fil2" x="374" width="8093" height="8093"/>
     <polygon class="fil3" points="1290,2006 6007,1168 6007,3893 1290,4863 "/>
     <polygon class="fil4" points="1958,2603 6675,1764 6675,4489 1958,5459 "/>
    </g>
    <g style="clip-path:url(#id1)">
     <g>
      <g>
       <g>
        <polygon id="1" class="fil2" points="173,1550 1151,572 1151,572 1383,340 1615,572 2361,1318 3107,572 3339,340 3571,572 3571,572 4317,1318 5063,572 5063,572 5295,340 5527,572 6273,1318 7019,572 7250,340 7482,572 7482,572 8460,1550 8228,1782 7250,804 6504,1550 6504,1550 6273,1782 6041,1550 6041,1550 5295,804 4549,1550 4549,1550 4317,1782 4085,1550 4085,1550 3339,804 2593,1550 2593,1550 2361,1782 2129,1550 2129,1550 1383,804 405,1782 "/>
        <polygon class="fil4" points="173,2014 1151,1036 1151,1036 1383,804 1615,1036 2361,1782 3107,1036 3339,804 3571,1036 3571,1036 4317,1782 5063,1036 5063,1036 5295,804 5527,1036 6273,1782 7019,1036 7250,804 7482,1036 7482,1036 8460,2014 8228,2246 7250,1268 6504,2014 6504,2014 6273,2246 6041,2014 6041,2014 5295,1268 4549,2014 4549,2014 4317,2246 4085,2014 4085,2014 3339,1268 2593,2014 2593,2014 2361,2246 2129,2014 2129,2014 1383,1268 405,2246 "/>
        <polygon class="fil2" points="173,2477 1151,1500 1151,1500 1383,1268 1615,1500 2361,2246 3107,1500 3339,1268 3571,1500 3571,1500 4317,2246 5063,1500 5063,1500 5295,1268 5527,1500 6273,2246 7019,1500 7250,1268 7482,1500 7482,1500 8460,2477 8228,2709 7250,1731 6504,2477 6504,2477 6273,2709 6041,2477 6041,2477 5295,1731 4549,2477 4549,2477 4317,2709 4085,2477 4085,2477 3339,1731 2593,2477 2593,2477 2361,2709 2129,2477 2129,2477 1383,1731 405,2709 "/>
        <polygon class="fil4" points="173,2941 1151,1963 1151,1963 1383,1731 1615,1963 2361,2709 3107,1963 3339,1731 3571,1963 3571,1963 4317,2709 5063,1963 5063,1963 5295,1731 5527,1963 6273,2709 7019,1963 7250,1731 7482,1963 7482,1963 8460,2941 8228,3173 7250,2195 6504,2941 6504,2941 6273,3173 6041,2941 6041,2941 5295,2195 4549,2941 4549,2941 4317,3173 4085,2941 4085,2941 3339,2195 2593,2941 2593,2941 2361,3173 2129,2941 2129,2941 1383,2195 405,3173 "/>
        <polygon class="fil2" points="173,3405 1151,2427 1151,2427 1383,2195 1615,2427 2361,3173 3107,2427 3339,2195 3571,2427 3571,2427 4317,3173 5063,2427 5063,2427 5295,2195 5527,2427 6273,3173 7019,2427 7250,2195 7482,2427 7482,2427 8460,3405 8228,3637 7250,2659 6504,3405 6504,3405 6273,3637 6041,3405 6041,3405 5295,2659 4549,3405 4549,3405 4317,3637 4085,3405 4085,3405 3339,2659 2593,3405 2593,3405 2361,3637 2129,3405 2129,3405 1383,2659 405,3637 "/>
        <polygon class="fil4" points="173,3869 1151,2891 1151,2891 1383,2659 1615,2891 2361,3637 3107,2891 3339,2659 3571,2891 3571,2891 4317,3637 5063,2891 5063,2891 5295,2659 5527,2891 6273,3637 7019,2891 7250,2659 7482,2891 7482,2891 8460,3869 8228,4100 7250,3123 6504,3869 6504,3869 6273,4100 6041,3869 6041,3869 5295,3123 4549,3869 4549,3869 4317,4100 4085,3869 4085,3869 3339,3123 2593,3869 2593,3869 2361,4100 2129,3869 2129,3869 1383,3123 405,4100 "/>
       </g>
       <g>
        <polygon class="fil2" points="173,4332 1151,3354 1151,3354 1383,3123 1615,3354 2361,4100 3107,3354 3339,3123 3571,3354 3571,3354 4317,4100 5063,3354 5063,3354 5295,3123 5527,3354 6273,4100 7019,3354 7250,3123 7482,3354 7482,3354 8460,4332 8228,4564 7250,3586 6504,4332 6504,4332 6273,4564 6041,4332 6041,4332 5295,3586 4549,4332 4549,4332 4317,4564 4085,4332 4085,4332 3339,3586 2593,4332 2593,4332 2361,4564 2129,4332 2129,4332 1383,3586 405,4564 "/>
        <polygon class="fil4" points="173,4796 1151,3818 1151,3818 1383,3586 1615,3818 2361,4564 3107,3818 3339,3586 3571,3818 3571,3818 4317,4564 5063,3818 5063,3818 5295,3586 5527,3818 6273,4564 7019,3818 7250,3586 7482,3818 7482,3818 8460,4796 8228,5028 7250,4050 6504,4796 6504,4796 6273,5028 6041,4796 6041,4796 5295,4050 4549,4796 4549,4796 4317,5028 4085,4796 4085,4796 3339,4050 2593,4796 2593,4796 2361,5028 2129,4796 2129,4796 1383,4050 405,5028 "/>
        <polygon class="fil2" points="173,5260 1151,4282 1151,4282 1383,4050 1615,4282 2361,5028 3107,4282 3339,4050 3571,4282 3571,4282 4317,5028 5063,4282 5063,4282 5295,4050 5527,4282 6273,5028 7019,4282 7250,4050 7482,4282 7482,4282 8460,5260 8228,5492 7250,4514 6504,5260 6504,5260 6273,5492 6041,5260 6041,5260 5295,4514 4549,5260 4549,5260 4317,5492 4085,5260 4085,5260 3339,4514 2593,5260 2593,5260 2361,5492 2129,5260 2129,5260 1383,4514 405,5492 "/>
        <polygon class="fil4" points="173,5723 1151,4746 1151,4746 1383,4514 1615,4746 2361,5492 3107,4746 3339,4514 3571,4746 3571,4746 4317,5492 5063,4746 5063,4746 5295,4514 5527,4746 6273,5492 7019,4746 7250,4514 7482,4746 7482,4746 8460,5723 8228,5955 7250,4977 6504,5723 6504,5723 6273,5955 6041,5723 6041,5723 5295,4977 4549,5723 4549,5723 4317,5955 4085,5723 4085,5723 3339,4977 2593,5723 2593,5723 2361,5955 2129,5723 2129,5723 1383,4977 405,5955 "/>
        <polygon class="fil2" points="173,6187 1151,5209 1151,5209 1383,4977 1615,5209 2361,5955 3107,5209 3339,4977 3571,5209 3571,5209 4317,5955 5063,5209 5063,5209 5295,4977 5527,5209 6273,5955 7019,5209 7250,4977 7482,5209 7482,5209 8460,6187 8228,6419 7250,5441 6504,6187 6504,6187 6273,6419 6041,6187 6041,6187 5295,5441 4549,6187 4549,6187 4317,6419 4085,6187 4085,6187 3339,5441 2593,6187 2593,6187 2361,6419 2129,6187 2129,6187 1383,5441 405,6419 "/>
        <polygon class="fil4" points="173,6651 1151,5673 1151,5673 1383,5441 1615,5673 2361,6419 3107,5673 3339,5441 3571,5673 3571,5673 4317,6419 5063,5673 5063,5673 5295,5441 5527,5673 6273,6419 7019,5673 7250,5441 7482,5673 7482,5673 8460,6651 8228,6883 7250,5905 6504,6651 6504,6651 6273,6883 6041,6651 6041,6651 5295,5905 4549,6651 4549,6651 4317,6883 4085,6651 4085,6651 3339,5905 2593,6651 2593,6651 2361,6883 2129,6651 2129,6651 1383,5905 405,6883 "/>
       </g>
      </g>
     </g>
    </g>
    <g style="clip-path:url(#id2)">
     <polygon class="fil5" points="1958,2603 6675,1764 6675,4489 1958,5459 "/>
     <path class="fil4" d="M5194 2788c20,15 38,30 56,47l495 419 -258 341c-28,263 -138,546 -331,799 -192,254 -434,437 -680,534l-305 403 -552 -467c-414,-314 -397,-1033 38,-1607 435,-573 1123,-783 1537,-469z"/>
     <ellipse class="fil2" transform="matrix(0.28792 0.218357 -0.154355 0.203529 4957.91 4292.46)" rx="2604" ry="5101"/>
     <path class="fil4" d="M6033 3521c19,15 38,31 56,48l495 419 -259 341c-27,263 -138,545 -330,799 -193,254 -435,436 -681,534l-305 402 -551 -466c-414,-314 -397,-1034 38,-1607 434,-573 1123,-784 1537,-470z"/>
     <ellipse class="fil3" transform="matrix(0.28792 0.218357 -0.154355 0.203529 5796.53 5026.25)" rx="2604" ry="5101"/>
     <path class="fil2" d="M6841 3708c26,20 51,41 75,63l660 559 -345 455c-36,351 -184,727 -440,1065 -257,339 -580,582 -908,712l-407 537 -735 -622c-552,-419 -530,-1378 50,-2143 580,-765 1498,-1045 2050,-626z"/>
     <path class="fil4" d="M7576 4330c552,419 530,1378 -50,2143 -580,764 -1498,1045 -2050,626 -552,-418 -529,-1378 50,-2143 580,-764 1498,-1045 2050,-626z"/>
    </g>
    <g style="clip-path:url(#id3)">
     <g>
      <path id="1" class="fil2" d="M7354 4376c497,377 477,1241 -46,1930 -522,688 -1348,941 -1845,564 -497,-377 -477,-1241 45,-1930 522,-688 1349,-941 1846,-564z"/>
     </g>
     <g style="clip-path:url(#id4)">
      <g>
       <g>
        <g>
         <g>
          <circle class="fil4" cx="6575" cy="4345" r="113"/>
          <circle class="fil4" cx="7240" cy="4345" r="113"/>
          <circle class="fil4" cx="6908" cy="4345" r="113"/>
          <circle class="fil4" cx="7573" cy="4345" r="113"/>
          <circle class="fil4" cx="7905" cy="4345" r="113"/>
          <circle class="fil4" cx="8237" cy="4345" r="113"/>
          <circle class="fil4" cx="8570" cy="4345" r="113"/>
         </g>
         <g>
          <circle class="fil4" cx="6575" cy="6581" r="113"/>
          <circle class="fil4" cx="7240" cy="6581" r="113"/>
          <circle class="fil4" cx="6908" cy="6581" r="113"/>
          <circle class="fil4" cx="7573" cy="6581" r="113"/>
          <circle class="fil4" cx="7905" cy="6581" r="113"/>
          <circle class="fil4" cx="8237" cy="6581" r="113"/>
          <circle class="fil4" cx="8570" cy="6581" r="113"/>
         </g>
         <g>
          <circle class="fil4" cx="6575" cy="6262" r="113"/>
          <circle class="fil4" cx="7240" cy="6262" r="113"/>
          <circle class="fil4" cx="6908" cy="6262" r="113"/>
          <circle class="fil4" cx="7573" cy="6262" r="113"/>
          <circle class="fil4" cx="7905" cy="6262" r="113"/>
          <circle class="fil4" cx="8237" cy="6262" r="113"/>
          <circle class="fil4" cx="8570" cy="6262" r="113"/>
         </g>
         <g>
          <circle class="fil4" cx="6575" cy="5942" r="113"/>
          <circle class="fil4" cx="7240" cy="5942" r="113"/>
          <circle class="fil4" cx="6908" cy="5942" r="113"/>
          <circle class="fil4" cx="7573" cy="5942" r="113"/>
          <circle class="fil4" cx="7905" cy="5942" r="113"/>
          <circle class="fil4" cx="8237" cy="5942" r="113"/>
          <circle class="fil4" cx="8570" cy="5942" r="113"/>
         </g>
         <g>
          <circle class="fil4" cx="6575" cy="5623" r="113"/>
          <circle class="fil4" cx="7240" cy="5623" r="113"/>
          <circle class="fil4" cx="6908" cy="5623" r="113"/>
          <circle class="fil4" cx="7573" cy="5623" r="113"/>
          <circle class="fil4" cx="7905" cy="5623" r="113"/>
          <circle class="fil4" cx="8237" cy="5623" r="113"/>
          <circle class="fil4" cx="8570" cy="5623" r="113"/>
         </g>
         <g>
          <circle class="fil4" cx="6575" cy="5304" r="113"/>
          <circle class="fil4" cx="7240" cy="5304" r="113"/>
          <circle class="fil4" cx="6908" cy="5304" r="113"/>
          <circle class="fil4" cx="7573" cy="5304" r="113"/>
          <circle class="fil4" cx="7905" cy="5304" r="113"/>
          <circle class="fil4" cx="8237" cy="5304" r="113"/>
          <circle class="fil4" cx="8570" cy="5304" r="113"/>
         </g>
         <g>
          <circle class="fil4" cx="6575" cy="4984" r="113"/>
          <circle class="fil4" cx="7240" cy="4984" r="113"/>
          <circle class="fil4" cx="6908" cy="4984" r="113"/>
          <circle class="fil4" cx="7573" cy="4984" r="113"/>
          <circle class="fil4" cx="7905" cy="4984" r="113"/>
          <circle class="fil4" cx="8237" cy="4984" r="113"/>
          <circle class="fil4" cx="8570" cy="4984" r="113"/>
         </g>
         <g>
          <circle class="fil4" cx="6575" cy="4665" r="113"/>
          <circle class="fil4" cx="7240" cy="4665" r="113"/>
          <circle class="fil4" cx="6908" cy="4665" r="113"/>
          <circle class="fil4" cx="7573" cy="4665" r="113"/>
          <circle class="fil4" cx="7905" cy="4665" r="113"/>
          <circle class="fil4" cx="8237" cy="4665" r="113"/>
          <circle class="fil4" cx="8570" cy="4665" r="113"/>
         </g>
         <g>
          <circle class="fil4" cx="6575" cy="6900" r="113"/>
          <circle class="fil4" cx="7240" cy="6900" r="113"/>
          <circle class="fil4" cx="6908" cy="6900" r="113"/>
          <circle class="fil4" cx="7573" cy="6900" r="113"/>
          <circle class="fil4" cx="7905" cy="6900" r="113"/>
          <circle class="fil4" cx="8237" cy="6900" r="113"/>
          <circle class="fil4" cx="8570" cy="6900" r="113"/>
         </g>
        </g>
        <g>
         <g>
          <circle class="fil4" cx="4247" cy="4345" r="113"/>
          <circle class="fil4" cx="4911" cy="4345" r="113"/>
          <circle class="fil4" cx="4579" cy="4345" r="113"/>
          <circle class="fil4" cx="5244" cy="4345" r="113"/>
          <circle class="fil4" cx="5576" cy="4345" r="113"/>
          <circle class="fil4" cx="5909" cy="4345" r="113"/>
          <circle class="fil4" cx="6241" cy="4345" r="113"/>
         </g>
         <g>
          <circle class="fil4" cx="4247" cy="6581" r="113"/>
          <circle class="fil4" cx="4911" cy="6581" r="113"/>
          <circle class="fil4" cx="4579" cy="6581" r="113"/>
          <circle class="fil4" cx="5244" cy="6581" r="113"/>
          <circle class="fil4" cx="5576" cy="6581" r="113"/>
          <circle class="fil4" cx="5909" cy="6581" r="113"/>
          <circle class="fil4" cx="6241" cy="6581" r="113"/>
         </g>
         <g>
          <circle class="fil4" cx="4247" cy="6262" r="113"/>
          <circle class="fil4" cx="4911" cy="6262" r="113"/>
          <circle class="fil4" cx="4579" cy="6262" r="113"/>
          <circle class="fil4" cx="5244" cy="6262" r="113"/>
          <circle class="fil4" cx="5576" cy="6262" r="113"/>
          <circle class="fil4" cx="5909" cy="6262" r="113"/>
          <circle class="fil4" cx="6241" cy="6262" r="113"/>
         </g>
         <g>
          <circle class="fil4" cx="4247" cy="5942" r="113"/>
          <circle class="fil4" cx="4911" cy="5942" r="113"/>
          <circle class="fil4" cx="4579" cy="5942" r="113"/>
          <circle class="fil4" cx="5244" cy="5942" r="113"/>
          <circle class="fil4" cx="5576" cy="5942" r="113"/>
          <circle class="fil4" cx="5909" cy="5942" r="113"/>
          <circle class="fil4" cx="6241" cy="5942" r="113"/>
         </g>
         <g>
          <circle class="fil4" cx="4247" cy="5623" r="113"/>
          <circle class="fil4" cx="4911" cy="5623" r="113"/>
          <circle class="fil4" cx="4579" cy="5623" r="113"/>
          <circle class="fil4" cx="5244" cy="5623" r="113"/>
          <circle class="fil4" cx="5576" cy="5623" r="113"/>
          <circle class="fil4" cx="5909" cy="5623" r="113"/>
          <circle class="fil4" cx="6241" cy="5623" r="113"/>
         </g>
         <g>
          <circle class="fil4" cx="4247" cy="5304" r="113"/>
          <circle class="fil4" cx="4911" cy="5304" r="113"/>
          <circle class="fil4" cx="4579" cy="5304" r="113"/>
          <circle class="fil4" cx="5244" cy="5304" r="113"/>
          <circle class="fil4" cx="5576" cy="5304" r="113"/>
          <circle class="fil4" cx="5909" cy="5304" r="113"/>
          <circle class="fil4" cx="6241" cy="5304" r="113"/>
         </g>
         <g>
          <circle class="fil4" cx="4247" cy="4984" r="113"/>
          <circle class="fil4" cx="4911" cy="4984" r="113"/>
          <circle class="fil4" cx="4579" cy="4984" r="113"/>
          <circle class="fil4" cx="5244" cy="4984" r="113"/>
          <circle class="fil4" cx="5576" cy="4984" r="113"/>
          <circle class="fil4" cx="5909" cy="4984" r="113"/>
          <circle class="fil4" cx="6241" cy="4984" r="113"/>
         </g>
         <g>
          <circle class="fil4" cx="4247" cy="4665" r="113"/>
          <circle class="fil4" cx="4911" cy="4665" r="113"/>
          <circle class="fil4" cx="4579" cy="4665" r="113"/>
          <circle class="fil4" cx="5244" cy="4665" r="113"/>
          <circle class="fil4" cx="5576" cy="4665" r="113"/>
          <circle class="fil4" cx="5909" cy="4665" r="113"/>
          <circle class="fil4" cx="6241" cy="4665" r="113"/>
         </g>
         <g>
          <circle class="fil4" cx="4247" cy="6900" r="113"/>
          <circle class="fil4" cx="4911" cy="6900" r="113"/>
          <circle class="fil4" cx="4579" cy="6900" r="113"/>
          <circle class="fil4" cx="5244" cy="6900" r="113"/>
          <circle class="fil4" cx="5576" cy="6900" r="113"/>
          <circle class="fil4" cx="5909" cy="6900" r="113"/>
          <circle class="fil4" cx="6241" cy="6900" r="113"/>
         </g>
        </g>
       </g>
      </g>
     </g>
     <g style="clip-path:url(#id5)">
      <path class="fil5" d="M7354 4376c497,377 477,1241 -46,1930 -522,688 -1348,941 -1845,564 -497,-377 -477,-1241 45,-1930 522,-688 1349,-941 1846,-564z"/>
     </g>
    </g>
    <g style="clip-path:url(#id6)">
     <path class="fil5" d="M7576 4330c552,419 530,1378 -50,2143 -580,764 -1498,1045 -2050,626 -552,-418 -529,-1378 50,-2143 580,-764 1498,-1045 2050,-626z"/>
     <polygon class="fil4" points="1290,2006 6007,1168 6675,1764 1958,2603 "/>
     <path class="fil2" d="M2332 2249c0,93 -111,168 -249,168 -138,0 -250,-75 -250,-168l0 -169 250 0 249 0 0 169z"/>
     <polygon class="fil2" points="1290,2006 1290,4863 1958,5459 1958,2603 "/>
    </g>
    <g style="clip-path:url(#id7)">
     <g>
      <g>
       <g>
        <circle class="fil4" cx="1085" cy="3887" r="76"/>
        <circle class="fil4" cx="1530" cy="3887" r="76"/>
        <circle class="fil4" cx="1308" cy="3887" r="76"/>
        <circle class="fil4" cx="1752" cy="3887" r="76"/>
        <circle class="fil4" cx="1975" cy="3887" r="76"/>
        <circle class="fil4" cx="2197" cy="3887" r="76"/>
        <circle class="fil4" cx="2419" cy="3887" r="76"/>
       </g>
       <g>
        <circle class="fil4" cx="1085" cy="5382" r="76"/>
        <circle class="fil4" cx="1530" cy="5382" r="76"/>
        <circle class="fil4" cx="1308" cy="5382" r="76"/>
        <circle class="fil4" cx="1752" cy="5382" r="76"/>
        <circle class="fil4" cx="1975" cy="5382" r="76"/>
        <circle class="fil4" cx="2197" cy="5382" r="76"/>
        <circle class="fil4" cx="2419" cy="5382" r="76"/>
       </g>
       <g>
        <circle class="fil4" cx="1085" cy="5168" r="76"/>
        <circle class="fil4" cx="1530" cy="5168" r="76"/>
        <circle class="fil4" cx="1308" cy="5168" r="76"/>
        <circle class="fil4" cx="1752" cy="5168" r="76"/>
        <circle class="fil4" cx="1975" cy="5168" r="76"/>
        <circle class="fil4" cx="2197" cy="5168" r="76"/>
        <circle class="fil4" cx="2419" cy="5168" r="76"/>
       </g>
       <g>
        <circle class="fil4" cx="1085" cy="4955" r="76"/>
        <circle class="fil4" cx="1530" cy="4955" r="76"/>
        <circle class="fil4" cx="1308" cy="4955" r="76"/>
        <circle class="fil4" cx="1752" cy="4955" r="76"/>
        <circle class="fil4" cx="1975" cy="4955" r="76"/>
        <circle class="fil4" cx="2197" cy="4955" r="76"/>
        <circle class="fil4" cx="2419" cy="4955" r="76"/>
       </g>
       <g>
        <circle class="fil4" cx="1085" cy="4741" r="76"/>
        <circle class="fil4" cx="1530" cy="4741" r="76"/>
        <circle class="fil4" cx="1308" cy="4741" r="76"/>
        <circle class="fil4" cx="1752" cy="4741" r="76"/>
        <circle class="fil4" cx="1975" cy="4741" r="76"/>
        <circle class="fil4" cx="2197" cy="4741" r="76"/>
        <circle class="fil4" cx="2419" cy="4741" r="76"/>
       </g>
       <g>
        <circle class="fil4" cx="1085" cy="4528" r="76"/>
        <circle class="fil4" cx="1530" cy="4528" r="76"/>
        <circle class="fil4" cx="1308" cy="4528" r="76"/>
        <circle class="fil4" cx="1752" cy="4528" r="76"/>
        <circle class="fil4" cx="1975" cy="4528" r="76"/>
        <circle class="fil4" cx="2197" cy="4528" r="76"/>
        <circle class="fil4" cx="2419" cy="4528" r="76"/>
       </g>
       <g>
        <circle class="fil4" cx="1085" cy="4314" r="76"/>
        <circle class="fil4" cx="1530" cy="4314" r="76"/>
        <circle class="fil4" cx="1308" cy="4314" r="76"/>
        <circle class="fil4" cx="1752" cy="4314" r="76"/>
        <circle class="fil4" cx="1975" cy="4314" r="76"/>
        <circle class="fil4" cx="2197" cy="4314" r="76"/>
        <circle class="fil4" cx="2419" cy="4314" r="76"/>
       </g>
       <g>
        <circle class="fil4" cx="1085" cy="4101" r="76"/>
        <circle class="fil4" cx="1530" cy="4101" r="76"/>
        <circle class="fil4" cx="1308" cy="4101" r="76"/>
        <circle class="fil4" cx="1752" cy="4101" r="76"/>
        <circle class="fil4" cx="1975" cy="4101" r="76"/>
        <circle class="fil4" cx="2197" cy="4101" r="76"/>
        <circle class="fil4" cx="2419" cy="4101" r="76"/>
       </g>
       <g>
        <circle class="fil4" cx="1085" cy="5595" r="76"/>
        <circle class="fil4" cx="1530" cy="5595" r="76"/>
        <circle class="fil4" cx="1308" cy="5595" r="76"/>
        <circle class="fil4" cx="1752" cy="5595" r="76"/>
        <circle class="fil4" cx="1975" cy="5595" r="76"/>
        <circle class="fil4" cx="2197" cy="5595" r="76"/>
        <circle class="fil4" cx="2419" cy="5595" r="76"/>
       </g>
      </g>
      <g>
       <g>
        <circle class="fil4" cx="1085" cy="1970" r="76"/>
        <circle class="fil4" cx="1530" cy="1970" r="76"/>
        <circle class="fil4" cx="1308" cy="1970" r="76"/>
        <circle class="fil4" cx="1752" cy="1970" r="76"/>
        <circle class="fil4" cx="1975" cy="1970" r="76"/>
        <circle class="fil4" cx="2197" cy="1970" r="76"/>
        <circle class="fil4" cx="2419" cy="1970" r="76"/>
       </g>
       <g>
        <circle class="fil4" cx="1085" cy="3465" r="76"/>
        <circle class="fil4" cx="1530" cy="3465" r="76"/>
        <circle class="fil4" cx="1308" cy="3465" r="76"/>
        <circle class="fil4" cx="1752" cy="3465" r="76"/>
        <circle class="fil4" cx="1975" cy="3465" r="76"/>
        <circle class="fil4" cx="2197" cy="3465" r="76"/>
        <circle class="fil4" cx="2419" cy="3465" r="76"/>
       </g>
       <g>
        <circle class="fil4" cx="1085" cy="3252" r="76"/>
        <circle class="fil4" cx="1530" cy="3252" r="76"/>
        <circle class="fil4" cx="1308" cy="3252" r="76"/>
        <circle class="fil4" cx="1752" cy="3252" r="76"/>
        <circle class="fil4" cx="1975" cy="3252" r="76"/>
        <circle class="fil4" cx="2197" cy="3252" r="76"/>
        <circle class="fil4" cx="2419" cy="3252" r="76"/>
       </g>
       <g>
        <circle class="fil4" cx="1085" cy="3038" r="76"/>
        <circle class="fil4" cx="1530" cy="3038" r="76"/>
        <circle class="fil4" cx="1308" cy="3038" r="76"/>
        <circle class="fil4" cx="1752" cy="3038" r="76"/>
        <circle class="fil4" cx="1975" cy="3038" r="76"/>
        <circle class="fil4" cx="2197" cy="3038" r="76"/>
        <circle class="fil4" cx="2419" cy="3038" r="76"/>
       </g>
       <g>
        <circle class="fil4" cx="1085" cy="2825" r="76"/>
        <circle class="fil4" cx="1530" cy="2825" r="76"/>
        <circle class="fil4" cx="1308" cy="2825" r="76"/>
        <circle class="fil4" cx="1752" cy="2825" r="76"/>
        <circle class="fil4" cx="1975" cy="2825" r="76"/>
        <circle class="fil4" cx="2197" cy="2825" r="76"/>
        <circle class="fil4" cx="2419" cy="2825" r="76"/>
       </g>
       <g>
        <circle class="fil4" cx="1085" cy="2611" r="76"/>
        <circle class="fil4" cx="1530" cy="2611" r="76"/>
        <circle class="fil4" cx="1308" cy="2611" r="76"/>
        <circle class="fil4" cx="1752" cy="2611" r="76"/>
        <circle class="fil4" cx="1975" cy="2611" r="76"/>
        <circle class="fil4" cx="2197" cy="2611" r="76"/>
        <circle class="fil4" cx="2419" cy="2611" r="76"/>
       </g>
       <g>
        <circle class="fil4" cx="1085" cy="2398" r="76"/>
        <circle class="fil4" cx="1530" cy="2398" r="76"/>
        <circle class="fil4" cx="1308" cy="2398" r="76"/>
        <circle class="fil4" cx="1752" cy="2398" r="76"/>
        <circle class="fil4" cx="1975" cy="2398" r="76"/>
        <circle class="fil4" cx="2197" cy="2398" r="76"/>
        <circle class="fil4" cx="2419" cy="2398" r="76"/>
       </g>
       <g>
        <circle class="fil4" cx="1085" cy="2184" r="76"/>
        <circle class="fil4" cx="1530" cy="2184" r="76"/>
        <circle class="fil4" cx="1308" cy="2184" r="76"/>
        <circle class="fil4" cx="1752" cy="2184" r="76"/>
        <circle class="fil4" cx="1975" cy="2184" r="76"/>
        <circle class="fil4" cx="2197" cy="2184" r="76"/>
        <circle class="fil4" cx="2419" cy="2184" r="76"/>
       </g>
       <g>
        <circle class="fil4" cx="1085" cy="3679" r="76"/>
        <circle class="fil4" cx="1530" cy="3679" r="76"/>
        <circle class="fil4" cx="1308" cy="3679" r="76"/>
        <circle class="fil4" cx="1752" cy="3679" r="76"/>
        <circle class="fil4" cx="1975" cy="3679" r="76"/>
        <circle class="fil4" cx="2197" cy="3679" r="76"/>
        <circle class="fil4" cx="2419" cy="3679" r="76"/>
       </g>
      </g>
     </g>
    </g>
    <g style="clip-path:url(#id8)">
     <polygon class="fil5" points="1290,2006 1290,4863 1958,5459 1958,2603 "/>
     <path class="fil4" d="M2083 1912c138,0 249,75 249,168 0,93 -111,169 -249,169 -138,0 -250,-76 -250,-169 0,-93 112,-168 250,-168z"/>
    </g>
    <g style="clip-path:url(#id9)">
     <g>
      <g>
       <g>
        <rect class="fil2" transform="matrix(-1.81926E-014 -0.228403 0.228403 -1.81926E-014 1521.82 1799.8)" width="614" height="614"/>
        <rect class="fil4" transform="matrix(-1.81926E-014 -0.228403 0.228403 -1.81926E-014 1662.02 1799.8)" width="614" height="614"/>
        <rect class="fil4" transform="matrix(-1.81926E-014 -0.228403 0.228403 -1.81926E-014 1521.82 1659.6)" width="614" height="614"/>
        <rect class="fil2" transform="matrix(-1.81926E-014 -0.228403 0.228403 -1.81926E-014 1662.02 1659.6)" width="614" height="614"/>
        <rect class="fil2" transform="matrix(-1.81926E-014 -0.228403 0.228403 -1.81926E-014 1802.23 1799.8)" width="614" height="614"/>
        <rect class="fil4" transform="matrix(-1.81926E-014 -0.228403 0.228403 -1.81926E-014 1942.43 1799.8)" width="614" height="614"/>
        <rect class="fil4" transform="matrix(-1.81926E-014 -0.228403 0.228403 -1.81926E-014 1802.23 1659.6)" width="614" height="614"/>
        <rect class="fil2" transform="matrix(-1.81926E-014 -0.228403 0.228403 -1.81926E-014 1942.43 1659.6)" width="614" height="614"/>
        <rect class="fil2" transform="matrix(-1.81926E-014 -0.228403 0.228403 -1.81926E-014 2082.63 1799.8)" width="614" height="614"/>
        <rect class="fil4" transform="matrix(-1.81926E-014 -0.228403 0.228403 -1.81926E-014 2222.83 1799.8)" width="614" height="614"/>
        <rect class="fil4" transform="matrix(-1.81926E-014 -0.228403 0.228403 -1.81926E-014 2082.63 1659.6)" width="614" height="614"/>
        <rect class="fil2" transform="matrix(-1.81926E-014 -0.228403 0.228403 -1.81926E-014 2222.83 1659.6)" width="614" height="614"/>
        <rect class="fil2" transform="matrix(-1.81926E-014 -0.228403 0.228403 -1.81926E-014 2363.03 1799.8)" width="614" height="614"/>
        <rect class="fil4" transform="matrix(-1.81926E-014 -0.228403 0.228403 -1.81926E-014 2503.23 1799.8)" width="614" height="614"/>
        <rect class="fil4" transform="matrix(-1.81926E-014 -0.228403 0.228403 -1.81926E-014 2363.03 1659.6)" width="614" height="614"/>
        <rect class="fil2" transform="matrix(-1.81926E-014 -0.228403 0.228403 -1.81926E-014 2503.23 1659.6)" width="614" height="614"/>
       </g>
       <g>
        <rect class="fil2" transform="matrix(-1.81926E-014 -0.228403 0.228403 -1.81926E-014 1521.82 2080.2)" width="614" height="614"/>
        <rect class="fil4" transform="matrix(-1.81926E-014 -0.228403 0.228403 -1.81926E-014 1662.02 2080.2)" width="614" height="614"/>
        <rect class="fil4" transform="matrix(-1.81926E-014 -0.228403 0.228403 -1.81926E-014 1521.82 1940)" width="614" height="614"/>
        <rect class="fil2" transform="matrix(-1.81926E-014 -0.228403 0.228403 -1.81926E-014 1662.02 1940)" width="614" height="614"/>
        <rect class="fil2" transform="matrix(-1.81926E-014 -0.228403 0.228403 -1.81926E-014 1802.23 2080.2)" width="614" height="614"/>
        <rect class="fil4" transform="matrix(-1.81926E-014 -0.228403 0.228403 -1.81926E-014 1942.43 2080.2)" width="614" height="614"/>
        <rect class="fil4" transform="matrix(-1.81926E-014 -0.228403 0.228403 -1.81926E-014 1802.23 1940)" width="614" height="614"/>
        <rect class="fil2" transform="matrix(-1.81926E-014 -0.228403 0.228403 -1.81926E-014 1942.43 1940)" width="614" height="614"/>
        <rect class="fil2" transform="matrix(-1.81926E-014 -0.228403 0.228403 -1.81926E-014 2082.63 2080.2)" width="614" height="614"/>
        <rect class="fil4" transform="matrix(-1.81926E-014 -0.228403 0.228403 -1.81926E-014 2222.83 2080.2)" width="614" height="614"/>
        <rect class="fil4" transform="matrix(-1.81926E-014 -0.228403 0.228403 -1.81926E-014 2082.63 1940)" width="614" height="614"/>
        <rect class="fil2" transform="matrix(-1.81926E-014 -0.228403 0.228403 -1.81926E-014 2222.83 1940)" width="614" height="614"/>
        <rect class="fil2" transform="matrix(-1.81926E-014 -0.228403 0.228403 -1.81926E-014 2363.03 2080.2)" width="614" height="614"/>
        <rect class="fil4" transform="matrix(-1.81926E-014 -0.228403 0.228403 -1.81926E-014 2503.23 2080.2)" width="614" height="614"/>
        <rect class="fil4" transform="matrix(-1.81926E-014 -0.228403 0.228403 -1.81926E-014 2363.03 1940)" width="614" height="614"/>
        <rect class="fil2" transform="matrix(-1.81926E-014 -0.228403 0.228403 -1.81926E-014 2503.23 1940)" width="614" height="614"/>
       </g>
       <g>
        <rect class="fil2" transform="matrix(-1.81926E-014 -0.228403 0.228403 -1.81926E-014 1521.82 2360.6)" width="614" height="614"/>
        <rect class="fil4" transform="matrix(-1.81926E-014 -0.228403 0.228403 -1.81926E-014 1662.02 2360.6)" width="614" height="614"/>
        <rect class="fil4" transform="matrix(-1.81926E-014 -0.228403 0.228403 -1.81926E-014 1521.82 2220.4)" width="614" height="614"/>
        <rect class="fil2" transform="matrix(-1.81926E-014 -0.228403 0.228403 -1.81926E-014 1662.02 2220.4)" width="614" height="614"/>
        <rect class="fil2" transform="matrix(-1.81926E-014 -0.228403 0.228403 -1.81926E-014 1802.23 2360.6)" width="614" height="614"/>
        <rect class="fil4" transform="matrix(-1.81926E-014 -0.228403 0.228403 -1.81926E-014 1942.43 2360.6)" width="614" height="614"/>
        <rect class="fil4" transform="matrix(-1.81926E-014 -0.228403 0.228403 -1.81926E-014 1802.23 2220.4)" width="614" height="614"/>
        <rect class="fil2" transform="matrix(-1.81926E-014 -0.228403 0.228403 -1.81926E-014 1942.43 2220.4)" width="614" height="614"/>
        <rect class="fil2" transform="matrix(-1.81926E-014 -0.228403 0.228403 -1.81926E-014 2082.63 2360.6)" width="614" height="614"/>
        <rect class="fil4" transform="matrix(-1.81926E-014 -0.228403 0.228403 -1.81926E-014 2222.83 2360.6)" width="614" height="614"/>
        <rect class="fil4" transform="matrix(-1.81926E-014 -0.228403 0.228403 -1.81926E-014 2082.63 2220.4)" width="614" height="614"/>
        <rect class="fil2" transform="matrix(-1.81926E-014 -0.228403 0.228403 -1.81926E-014 2222.83 2220.4)" width="614" height="614"/>
        <rect class="fil2" transform="matrix(-1.81926E-014 -0.228403 0.228403 -1.81926E-014 2363.03 2360.6)" width="614" height="614"/>
        <rect class="fil4" transform="matrix(-1.81926E-014 -0.228403 0.228403 -1.81926E-014 2503.23 2360.6)" width="614" height="614"/>
        <rect class="fil4" transform="matrix(-1.81926E-014 -0.228403 0.228403 -1.81926E-014 2363.03 2220.4)" width="614" height="614"/>
        <rect class="fil2" transform="matrix(-1.81926E-014 -0.228403 0.228403 -1.81926E-014 2503.23 2220.4)" width="614" height="614"/>
       </g>
       <g>
        <rect class="fil2" transform="matrix(-1.81926E-014 -0.228403 0.228403 -1.81926E-014 1521.82 2641)" width="614" height="614"/>
        <rect class="fil4" transform="matrix(-1.81926E-014 -0.228403 0.228403 -1.81926E-014 1662.02 2641)" width="614" height="614"/>
        <rect class="fil4" transform="matrix(-1.81926E-014 -0.228403 0.228403 -1.81926E-014 1521.82 2500.8)" width="614" height="614"/>
        <rect class="fil2" transform="matrix(-1.81926E-014 -0.228403 0.228403 -1.81926E-014 1662.02 2500.8)" width="614" height="614"/>
        <rect class="fil2" transform="matrix(-1.81926E-014 -0.228403 0.228403 -1.81926E-014 1802.23 2641)" width="614" height="614"/>
        <rect class="fil4" transform="matrix(-1.81926E-014 -0.228403 0.228403 -1.81926E-014 1942.43 2641)" width="614" height="614"/>
        <rect class="fil4" transform="matrix(-1.81926E-014 -0.228403 0.228403 -1.81926E-014 1802.23 2500.8)" width="614" height="614"/>
        <rect class="fil2" transform="matrix(-1.81926E-014 -0.228403 0.228403 -1.81926E-014 1942.43 2500.8)" width="614" height="614"/>
        <rect class="fil2" transform="matrix(-1.81926E-014 -0.228403 0.228403 -1.81926E-014 2082.63 2641)" width="614" height="614"/>
        <rect class="fil4" transform="matrix(-1.81926E-014 -0.228403 0.228403 -1.81926E-014 2222.83 2641)" width="614" height="614"/>
        <rect class="fil4" transform="matrix(-1.81926E-014 -0.228403 0.228403 -1.81926E-014 2082.63 2500.8)" width="614" height="614"/>
        <rect class="fil2" transform="matrix(-1.81926E-014 -0.228403 0.228403 -1.81926E-014 2222.83 2500.8)" width="614" height="614"/>
        <rect class="fil2" transform="matrix(-1.81926E-014 -0.228403 0.228403 -1.81926E-014 2363.03 2641)" width="614" height="614"/>
        <rect class="fil4" transform="matrix(-1.81926E-014 -0.228403 0.228403 -1.81926E-014 2503.23 2641)" width="614" height="614"/>
        <rect class="fil4" transform="matrix(-1.81926E-014 -0.228403 0.228403 -1.81926E-014 2363.03 2500.8)" width="614" height="614"/>
        <rect class="fil2" transform="matrix(-1.81926E-014 -0.228403 0.228403 -1.81926E-014 2503.23 2500.8)" width="614" height="614"/>
       </g>
      </g>
     </g>
    </g>
    <g style="clip-path:url(#id10)">
     <path class="fil5" d="M2083 1912c138,0 249,75 249,168 0,93 -111,169 -249,169 -138,0 -250,-76 -250,-169 0,-93 112,-168 250,-168z"/>
     <polygon class="fil2" points="3377,1466 4984,1187 4984,2065 3377,2350 "/>
    </g>
    <g style="clip-path:url(#id11)">
     <g>
      <polygon id="1" class="fil3" points="3193,1328 4801,1049 4801,1927 3193,2213 "/>
     </g>
    </g>
    <g style="clip-path:url(#id12)">
     <polygon class="fil5" points="3377,1466 4984,1187 4984,2065 3377,2350 "/>
     <polygon class="fil4" points="3042,1168 4650,889 4984,1187 3377,1466 "/>
    </g>
    <g style="clip-path:url(#id13)">
     <g>
      <g>
       <rect class="fil2" transform="matrix(0.22692 -0.250814 0.613865 0.555385 82.0613 246.662)" width="720" height="8551"/>
       <rect class="fil4" transform="matrix(0.22692 -0.250814 0.613865 0.555385 245.367 66.1614)" width="720" height="8551"/>
       <rect class="fil2" transform="matrix(0.22692 -0.250814 0.613865 0.555385 408.672 -114.339)" width="720" height="8551"/>
       <rect class="fil4" transform="matrix(0.22692 -0.250814 0.613865 0.555385 571.977 -294.84)" width="720" height="8551"/>
       <rect class="fil2" transform="matrix(0.22692 -0.250814 0.613865 0.555385 735.283 -475.341)" width="720" height="8551"/>
       <rect class="fil4" transform="matrix(0.22692 -0.250814 0.613865 0.555385 898.588 -655.842)" width="720" height="8551"/>
       <rect class="fil2" transform="matrix(0.22692 -0.250814 0.613865 0.555385 1061.89 -836.343)" width="720" height="8551"/>
       <rect class="fil4" transform="matrix(0.22692 -0.250814 0.613865 0.555385 1225.2 -1016.84)" width="720" height="8551"/>
       <rect class="fil2" transform="matrix(0.22692 -0.250814 0.613865 0.555385 1388.5 -1197.34)" width="720" height="8551"/>
       <rect class="fil4" transform="matrix(0.22692 -0.250814 0.613865 0.555385 1551.81 -1377.85)" width="720" height="8551"/>
       <rect class="fil2" transform="matrix(0.22692 -0.250814 0.613865 0.555385 1715.11 -1558.35)" width="720" height="8551"/>
       <rect class="fil4" transform="matrix(0.22692 -0.250814 0.613865 0.555385 1878.42 -1738.85)" width="720" height="8551"/>
       <rect class="fil2" transform="matrix(0.22692 -0.250814 0.613865 0.555385 2041.73 -1919.35)" width="720" height="8551"/>
       <rect class="fil4" transform="matrix(0.22692 -0.250814 0.613865 0.555385 2205.03 -2099.85)" width="720" height="8551"/>
       <rect class="fil2" transform="matrix(0.22692 -0.250814 0.613865 0.555385 2368.34 -2280.35)" width="720" height="8551"/>
       <rect class="fil5" transform="matrix(0.22692 -0.250814 0.613865 0.555385 2531.64 -2460.85)" width="720" height="8551"/>
      </g>
     </g>
    </g>
    <g style="clip-path:url(#id14)">
     <polygon class="fil5" points="3042,1168 4650,889 4984,1187 3377,1466 "/>
     <polygon class="fil2" points="3042,1168 3042,2052 3377,2350 3377,1466 "/>
    </g>
   </g>
  </g>
  <path class="fil5" d="M754 0l7332 0c209,0 381,171 381,381l0 7331c0,210 -172,381 -381,381l-7332 0c-209,0 -380,-171 -380,-381l0 -7331c0,-210 171,-381 380,-381z"/>
  <g>
   <path class="fil6" d="M2461 5929l0 -54c0,-30 25,-55 56,-55l841 0c31,0 56,25 56,55l0 235c0,31 -25,56 -56,56l-225 0 0 769c0,30 -25,55 -55,55l-281 0c-30,0 -55,-25 -55,-55l0 -769 -225 0c-31,0 -56,-25 -56,-56l0 -41 -121 137c-20,22 -55,25 -78,5 -40,-36 -75,-58 -130,-58 -129,0 -179,141 -179,250 0,114 35,255 173,255 60,0 105,-25 145,-68 11,-11 25,-17 41,-17 16,0 30,6 41,18l153 170c19,21 19,52 1,73 -98,114 -235,176 -385,176 -351,0 -567,-250 -567,-597 0,-229 99,-442 308,-550 83,-42 174,-63 266,-63 123,0 240,49 332,129zm-1991 726l0 280c0,30 -25,55 -56,55l-280 0c-31,0 -56,-25 -56,-55l0 -1060c0,-30 25,-55 56,-55l411 0c266,0 479,113 479,407 0,283 -216,428 -479,428l-75 0zm616 280l0 -1060c0,-30 25,-55 55,-55l281 0c30,0 55,25 55,55l0 1060c0,30 -25,55 -55,55l-281 0c-30,0 -55,-25 -55,-55zm2366 -512l0 -548c0,-30 25,-55 56,-55l280 0c31,0 56,25 56,55l0 581c0,47 2,158 48,188 15,11 37,14 56,14 19,0 41,-3 58,-14 47,-31 50,-140 50,-188l0 -581c0,-30 25,-55 55,-55l271 0c30,0 55,25 55,55l0 548c0,339 -118,587 -489,587 -370,0 -496,-246 -496,-587zm1512 212l-18 0 0 300c0,30 -25,55 -56,55l-280 0c-31,0 -56,-25 -56,-55l0 -1060c0,-30 25,-55 56,-55l401 0c263,0 479,103 479,398 0,134 -49,249 -152,325l204 365c10,17 10,37 -1,55 -10,17 -27,27 -48,27l-313 0c-21,0 -39,-11 -49,-30l-167 -325zm1009 -469l0 55 290 0c30,0 55,25 55,55l0 235c0,31 -25,56 -55,56l-290 0 0 77 365 0c30,0 55,25 55,56l0 235c0,30 -25,55 -55,55l-701 0c-31,0 -56,-25 -56,-55l0 -1060c0,-30 25,-55 56,-55l684 0c31,0 56,25 56,55l0 235c0,31 -25,56 -56,56l-348 0zm-5693 1456l-224 0c-31,0 -56,-25 -56,-55l0 -235c0,-31 25,-56 56,-56l841 0c30,0 55,25 55,56l0 235c0,30 -25,55 -55,55l-225 0 0 769c0,31 -25,56 -56,56l-280 0c-31,0 -56,-25 -56,-56l0 -769zm1109 49l205 0 0 -339c0,-31 25,-56 56,-56l280 0c31,0 56,25 56,56l0 1059c0,31 -25,56 -56,56l-280 0c-31,0 -56,-25 -56,-56l0 -364 -205 0 0 364c0,31 -25,56 -55,56l-281 0c-30,0 -55,-25 -55,-56l0 -1059c0,-31 25,-56 55,-56l281 0c30,0 55,25 55,56l0 339zm720 720l0 -1059c0,-31 25,-56 56,-56l280 0c31,0 56,25 56,56l0 1059c0,31 -25,56 -56,56l-280 0c-31,0 -56,-25 -56,-56zm884 -766c13,15 104,48 121,55l129 50c155,61 242,173 242,342 0,37 -5,74 -16,109 -61,198 -259,286 -453,286 -158,0 -321,-61 -438,-166 -23,-20 -25,-54 -6,-77l160 -192c19,-24 54,-27 77,-8 56,44 141,90 213,90 12,0 65,2 65,-19 0,-1 0,-1 0,-1 -8,-13 -92,-44 -109,-51l-131 -55c-149,-59 -249,-182 -249,-346 0,-45 9,-89 25,-130 68,-171 249,-255 425,-255 144,0 289,57 391,158 21,20 23,52 5,74l-140 176c-19,23 -52,28 -76,11 -57,-40 -109,-67 -180,-67 -8,0 -53,1 -55,16zm-2523 -1303l62 0c69,0 107,-22 107,-95 0,-68 -47,-74 -107,-74l-62 0 0 169zm4476 -169l0 149 45 0c63,0 114,-13 114,-84 0,-14 -1,-32 -11,-42 -19,-22 -77,-23 -103,-23l-45 0z"/>
  </g>
  <path class="fil7" d="M134 6935l280 0 0 -336 131 0c221,0 423,-112 423,-372 0,-267 -195,-352 -423,-352l-411 0 0 1060zm280 -558l0 -280 118 0c104,0 163,36 163,130 0,95 -53,150 -163,150l-118 0z"/>
  <polygon id="1" class="fil7" points="1141,6935 1422,6935 1422,5875 1141,5875 "/>
  <path id="2" class="fil7" d="M1611 6413c0,362 234,541 511,541 131,0 253,-52 343,-156l-153 -170c-46,49 -105,85 -186,85 -137,0 -228,-111 -228,-310 0,-192 107,-306 234,-306 69,0 114,26 167,72l153 -173c-75,-75 -189,-140 -323,-140 -274,0 -518,202 -518,557z"/>
  <polygon id="3" class="fil7" points="2797,6935 3078,6935 3078,6110 3358,6110 3358,5875 2517,5875 2517,6110 2797,6110 "/>
  <path id="4" class="fil7" d="M3508 6423c0,362 143,531 440,531 297,0 434,-169 434,-531l0 -548 -271 0 0 581c0,189 -52,257 -163,257 -111,0 -160,-68 -160,-257l0 -581 -280 0 0 548z"/>
  <path id="5" class="fil7" d="M4890 6097l101 0c111,0 170,29 170,121 0,91 -59,140 -170,140l-101 0 0 -261zm603 838l-229 -411c102,-55 171,-155 171,-306 0,-264 -196,-343 -424,-343l-401 0 0 1060 280 0 0 -356 108 0 182 356 313 0z"/>
  <polygon id="6" class="fil7" points="5637,6935 6338,6935 6338,6700 5917,6700 5917,6511 6263,6511 6263,6276 5917,6276 5917,6110 6321,6110 6321,5875 5637,5875 "/>
  <polygon id="7" class="fil7" points="336,8391 616,8391 616,7567 897,7567 897,7332 56,7332 56,7567 336,7567 "/>
  <polygon id="8" class="fil7" points="1053,8391 1334,8391 1334,7971 1650,7971 1650,8391 1930,8391 1930,7332 1650,7332 1650,7726 1334,7726 1334,7332 1053,7332 "/>
  <polygon id="9" class="fil7" points="2165,8391 2445,8391 2445,7332 2165,7332 "/>
  <path id="10" class="fil7" d="M2615 8259c114,103 267,152 401,152 264,0 414,-160 414,-339 0,-147 -75,-238 -207,-290l-129 -51c-96,-37 -156,-55 -156,-106 0,-47 42,-71 110,-71 79,0 141,26 212,76l140 -176c-97,-96 -231,-142 -352,-142 -231,0 -394,149 -394,330 0,153 99,249 213,295l132 55c90,36 144,52 144,103 0,47 -36,75 -121,75 -78,0 -172,-43 -247,-103l-160 192z"/>
  <g>
   <path class="fil6" d="M2578 5745l0 -46c0,-32 27,-59 59,-59l841 0c33,0 60,27 60,59l0 235c0,33 -27,59 -60,59l-221 0 0 766c0,32 -26,59 -59,59l-280 0c-33,0 -60,-27 -60,-59l0 -766 -221 0c-32,0 -59,-26 -59,-59l0 -31 -115 129c-21,24 -59,27 -83,5 -40,-34 -73,-57 -127,-57 -128,0 -176,140 -176,247 0,111 34,251 169,251 59,0 103,-24 143,-66 11,-13 26,-19 43,-19 18,0 32,7 44,19l153 170c20,22 21,56 1,78 -99,115 -236,178 -387,178 -354,0 -571,-252 -571,-601 0,-230 99,-445 310,-553 83,-43 175,-64 267,-64 121,0 237,48 329,125zm-1984 737l0 277c0,32 -27,59 -59,59l-281 0c-32,0 -59,-27 -59,-59l0 -1060c0,-32 27,-59 59,-59l411 0c269,0 483,115 483,411 0,285 -218,431 -483,431l-71 0zm608 277l0 -1060c0,-32 27,-59 60,-59l280 0c33,0 59,27 59,59l0 1060c0,32 -26,59 -59,59l-280 0c-33,0 -60,-27 -60,-59zm2367 -512l0 -548c0,-32 27,-59 59,-59l281 0c32,0 59,27 59,59l0 580c0,46 2,156 46,186 15,11 37,13 54,13 19,0 40,-3 56,-13 46,-30 48,-139 48,-186l0 -580c0,-32 27,-59 59,-59l271 0c33,0 59,27 59,59l0 548c0,341 -120,591 -493,591 -371,0 -499,-248 -499,-591zm1513 216l-12 0 0 296c0,32 -27,59 -59,59l-281 0c-32,0 -59,-27 -59,-59l0 -1060c0,-32 27,-59 59,-59l401 0c265,0 483,105 483,402 0,134 -48,249 -151,326l203 362c10,19 10,40 -1,59 -11,18 -30,29 -51,29l-313 0c-23,0 -43,-12 -53,-32l-166 -323zm1015 -470l0 48 286 0c33,0 59,27 59,59l0 235c0,33 -26,59 -59,59l-286 0 0 71 361 0c33,0 59,26 59,59l0 235c0,32 -26,59 -59,59l-701 0c-32,0 -59,-27 -59,-59l0 -1060c0,-32 27,-59 59,-59l685 0c32,0 59,27 59,59l0 235c0,33 -27,59 -59,59l-345 0zm-5700 1473l-221 0c-33,0 -59,-27 -59,-59l0 -235c0,-33 26,-59 59,-59l841 0c33,0 59,26 59,59l0 235c0,32 -26,59 -59,59l-221 0 0 765c0,33 -27,60 -59,60l-281 0c-32,0 -59,-27 -59,-60l0 -765zm1116 41l198 0 0 -335c0,-33 26,-59 59,-59l280 0c33,0 60,26 60,59l0 1059c0,33 -27,60 -60,60l-280 0c-33,0 -59,-27 -59,-60l0 -361 -198 0 0 361c0,33 -26,60 -59,60l-280 0c-33,0 -60,-27 -60,-60l0 -1059c0,-33 27,-59 60,-59l280 0c33,0 59,26 59,59l0 335zm713 724l0 -1059c0,-33 27,-59 59,-59l281 0c32,0 59,26 59,59l0 1059c0,33 -27,60 -59,60l-281 0c-32,0 -59,-27 -59,-60zm978 -296c-13,-13 -90,-41 -106,-48 -1,0 -1,0 -1,0l-131 -55c-150,-60 -251,-185 -251,-350 0,-45 8,-90 25,-131 69,-173 251,-258 429,-258 144,0 290,57 393,159 22,21 24,55 5,79l-140 176c-20,25 -55,30 -81,12 -56,-40 -108,-66 -177,-66 -10,0 -45,2 -52,10 0,0 0,0 0,0 15,15 101,46 119,53l129 51c156,61 244,175 244,345 0,37 -5,74 -16,110 -62,200 -261,288 -457,288 -158,0 -323,-60 -441,-166 -23,-22 -26,-58 -6,-82l160 -193c21,-25 58,-28 83,-8 55,44 139,89 211,89 11,0 52,-1 60,-11 1,0 1,-2 1,-4zm-2610 -1793l58 0c67,0 104,-20 104,-91 0,-66 -46,-71 -104,-71l-58 0 0 162zm4476 -162l0 142 42 0c60,0 110,-12 110,-80 0,-13 -1,-30 -10,-40 -18,-20 -76,-22 -100,-22l-42 0z"/>
  </g>
  <path class="fil8" d="M254 6759l281 0 0 -336 130 0c222,0 424,-113 424,-372 0,-267 -196,-352 -424,-352l-411 0 0 1060zm281 -558l0 -280 117 0c104,0 163,36 163,130 0,95 -52,150 -163,150l-117 0z"/>
  <polygon id="1" class="fil8" points="1262,6759 1542,6759 1542,5699 1262,5699 "/>
  <path id="2" class="fil8" d="M1731 6237c0,362 235,541 512,541 130,0 252,-52 342,-156l-153 -170c-46,49 -104,85 -186,85 -137,0 -228,-111 -228,-310 0,-192 107,-306 235,-306 68,0 114,26 166,72l153 -173c-75,-75 -189,-140 -323,-140 -273,0 -518,202 -518,557z"/>
  <polygon id="3" class="fil8" points="2918,6759 3198,6759 3198,5934 3478,5934 3478,5699 2637,5699 2637,5934 2918,5934 "/>
  <path id="4" class="fil8" d="M3628 6247c0,362 144,531 440,531 297,0 434,-169 434,-531l0 -548 -271 0 0 580c0,190 -52,258 -163,258 -110,0 -159,-68 -159,-258l0 -580 -281 0 0 548z"/>
  <path id="5" class="fil8" d="M5011 5921l101 0c111,0 169,29 169,121 0,91 -58,140 -169,140l-101 0 0 -261zm603 838l-230 -411c103,-55 171,-155 171,-306 0,-265 -196,-343 -424,-343l-401 0 0 1060 281 0 0 -356 107 0 183 356 313 0z"/>
  <polygon id="6" class="fil8" points="5757,6759 6458,6759 6458,6524 6038,6524 6038,6335 6383,6335 6383,6100 6038,6100 6038,5934 6442,5934 6442,5699 5757,5699 "/>
  <polygon id="7" class="fil8" points="456,8231 737,8231 737,7407 1017,7407 1017,7172 176,7172 176,7407 456,7407 "/>
  <polygon id="8" class="fil8" points="1174,8231 1454,8231 1454,7811 1770,7811 1770,8231 2050,8231 2050,7172 1770,7172 1770,7566 1454,7566 1454,7172 1174,7172 "/>
  <polygon id="9" class="fil8" points="2285,8231 2566,8231 2566,7172 2285,7172 "/>
  <path id="10" class="fil8" d="M2735 8099c114,103 267,152 401,152 264,0 414,-160 414,-339 0,-147 -75,-238 -207,-290l-129 -51c-96,-37 -156,-55 -156,-106 0,-47 42,-71 111,-71 78,0 140,26 212,76l140 -176c-98,-96 -232,-142 -352,-142 -232,0 -395,149 -395,330 0,153 100,249 214,295l132 55c89,36 143,52 143,103 0,47 -36,75 -120,75 -79,0 -173,-43 -248,-103l-160 192z"/>
 </g>
</svg>
