<?xml version="1.0" encoding="UTF-8"?>
<!DOCTYPE svg PUBLIC "-//W3C//DTD SVG 1.1//EN" "http://www.w3.org/Graphics/SVG/1.1/DTD/svg11.dtd">
<!-- Creator: CorelDRAW X7 -->
<svg xmlns="http://www.w3.org/2000/svg" xml:space="preserve" width="84.6666mm" height="84.6666mm" version="1.1" style="shape-rendering:geometricPrecision; text-rendering:geometricPrecision; image-rendering:optimizeQuality; fill-rule:evenodd; clip-rule:evenodd"
viewBox="0 0 8467 8467"
 xmlns:xlink="http://www.w3.org/1999/xlink">
 <defs>
  <style type="text/css">
   <![CDATA[
    .fil6 {fill:none}
    .fil7 {fill:black}
    .fil5 {fill:#0095A6}
    .fil2 {fill:#2863C9}
    .fil1 {fill:#79D1BF}
    .fil0 {fill:#90F5E1}
    .fil4 {fill:#FFE51E}
    .fil3 {fill:white}
    .fil9 {fill:#FEFEFE;fill-rule:nonzero}
    .fil8 {fill:#FDE715;fill-rule:nonzero}
   ]]>
  </style>
   <clipPath id="id0">
    <path d="M754 0l7332 0c209,0 381,171 381,381l0 7331c0,210 -172,381 -381,381l-7332 0c-209,0 -380,-171 -380,-381l0 -7331c0,-210 171,-381 380,-381z"/>
   </clipPath>
    <clipPath id="id1">
     <path d="M754 0l7332 0c209,0 381,171 381,381l0 7331c0,185 -134,340 -309,374l-7475 0c-152,-29 -273,-150 -302,-302l0 -7475c33,-175 188,-309 373,-309z"/>
    </clipPath>
     <clipPath id="id2">
      <path d="M3854 364c492,0 891,698 891,1559 0,861 -399,1559 -891,1559 -493,0 -892,-698 -892,-1559 0,-861 399,-1559 892,-1559z"/>
     </clipPath>
     <clipPath id="id3">
      <path d="M754 0l7332 0c209,0 381,171 381,381l0 7331c0,185 -134,340 -309,374l-7475 0c-152,-29 -273,-150 -302,-302l0 -7475c33,-175 188,-309 373,-309z"/>
     </clipPath>
     <clipPath id="id4">
      <path d="M6078 4759l85 0c87,0 159,72 159,159l0 1438c0,87 -72,159 -159,159l-85 0c-88,0 -159,-72 -159,-159l0 -1438c0,-87 71,-159 159,-159z"/>
     </clipPath>
     <clipPath id="id5">
      <path d="M754 0l7332 0c209,0 381,171 381,381l0 7331c0,185 -134,340 -309,374l-7475 0c-152,-29 -273,-150 -302,-302l0 -7475c33,-175 188,-309 373,-309z"/>
     </clipPath>
     <clipPath id="id6">
      <path d="M3774 3619l330 0 0 784 -330 0 0 -784z"/>
     </clipPath>
     <clipPath id="id7">
      <path d="M754 0l7332 0c209,0 381,171 381,381l0 7331c0,185 -134,340 -309,374l-7475 0c-152,-29 -273,-150 -302,-302l0 -7475c33,-175 188,-309 373,-309z"/>
     </clipPath>
     <clipPath id="id8">
      <path d="M5546 2729l1148 0 0 2420 -1148 0 0 -2420z"/>
     </clipPath>
     <clipPath id="id9">
      <path d="M754 0l7332 0c209,0 381,171 381,381l0 7331c0,185 -134,340 -309,374l-7475 0c-152,-29 -273,-150 -302,-302l0 -7475c33,-175 188,-309 373,-309z"/>
     </clipPath>
     <clipPath id="id10">
      <path d="M5517 2729l1207 0c17,0 31,-14 31,-31l0 -239c0,-17 -14,-31 -31,-31l-1207 0c-18,0 -32,14 -32,31l0 239c0,17 14,31 32,31z"/>
     </clipPath>
     <clipPath id="id11">
      <path d="M754 0l7332 0c209,0 381,171 381,381l0 7331c0,185 -134,340 -309,374l-7475 0c-152,-29 -273,-150 -302,-302l0 -7475c33,-175 188,-309 373,-309z"/>
     </clipPath>
     <clipPath id="id12">
      <path d="M5552 2428l1142 0 -57 -1082c0,-67 -44,-121 -101,-126l0 0 -7 0 -812 0c-60,0 -108,56 -108,126l-57 1082z"/>
     </clipPath>
     <clipPath id="id13">
      <path d="M754 0l7332 0c209,0 381,171 381,381l0 7331c0,185 -134,340 -309,374l-7475 0c-152,-29 -273,-150 -302,-302l0 -7475c33,-175 188,-309 373,-309z"/>
     </clipPath>
     <clipPath id="id14">
      <path d="M5677 5149l886 0c32,0 57,25 57,57l0 318c0,31 -25,57 -57,57l-886 0c-31,0 -57,-26 -57,-57l0 -318c0,-32 26,-57 57,-57z"/>
     </clipPath>
     <clipPath id="id15">
      <path d="M754 0l7332 0c209,0 381,171 381,381l0 7331c0,185 -134,340 -309,374l-7475 0c-152,-29 -273,-150 -302,-302l0 -7475c33,-175 188,-309 373,-309z"/>
     </clipPath>
    <clipPath id="id16">
     <path d="M754 0l7332 0c209,0 381,171 381,381l0 7331c0,210 -172,381 -381,381l-7332 0c-209,0 -380,-171 -380,-381l0 -7331c0,-210 171,-381 380,-381z"/>
    </clipPath>
 </defs>
 <g id="Layer_x0020_1">
  <metadata id="CorelCorpID_0Corel-Layer"/>
  <rect class="fil0" width="8467" height="8467"/>
  <rect class="fil1" y="381" width="8086" height="8086" rx="374" ry="374"/>
  <g>
  </g>
  <g style="clip-path:url(#id0)">
   <g>
    <path class="fil2" d="M394 0l8060 0c7,0 13,6 13,13l0 8060c0,7 -6,13 -13,13l-8060 0c-8,0 -13,-6 -13,-13l0 -8060c0,-7 5,-13 13,-13z"/>
   </g>
   <g style="clip-path:url(#id1)">
    <g id="_2312674523680">
     <rect class="fil3" transform="matrix(-0.257061 -0.29166 0.151039 -0.133122 8588.31 7019.62)" width="8848" height="212"/>
     <path class="fil4" d="M4126 281c537,0 971,735 971,1642 0,907 -434,1642 -971,1642l-241 0 0 -51c-420,-181 -730,-825 -730,-1591 0,-766 310,-1409 730,-1591l0 -51 241 0z"/>
     <ellipse class="fil2" cx="3885" cy="1923" rx="971" ry="1642"/>
     <path class="fil4" d="M3854 364c492,0 891,698 891,1559 0,861 -399,1559 -891,1559 -493,0 -892,-698 -892,-1559 0,-861 399,-1559 892,-1559z"/>
    </g>
    <g style="clip-path:url(#id2)">
     <g>
      <polygon id="1" class="fil2" points="1137,2396 1778,1754 1778,1754 1930,1602 2082,1754 2571,2244 3060,1754 3213,1602 3365,1754 3365,1754 3854,2244 4343,1754 4343,1754 4495,1602 4647,1754 5136,2244 5626,1754 5778,1602 5930,1754 5930,1754 6571,2396 6419,2548 5778,1907 5288,2396 5288,2396 5136,2548 4984,2396 4984,2396 4495,1907 4006,2396 4006,2396 3854,2548 3702,2396 3702,2396 3213,1907 2723,2396 2723,2396 2571,2548 2419,2396 2419,2396 1930,1907 1289,2548 "/>
      <polygon class="fil4" points="1137,2700 1778,2059 1778,2059 1930,1907 2082,2059 2571,2548 3060,2059 3213,1907 3365,2059 3365,2059 3854,2548 4343,2059 4343,2059 4495,1907 4647,2059 5136,2548 5626,2059 5778,1907 5930,2059 5930,2059 6571,2700 6419,2852 5778,2211 5288,2700 5288,2700 5136,2852 4984,2700 4984,2700 4495,2211 4006,2700 4006,2700 3854,2852 3702,2700 3702,2700 3213,2211 2723,2700 2723,2700 2571,2852 2419,2700 2419,2700 1930,2211 1289,2852 "/>
      <polygon class="fil2" points="1137,3004 1778,2363 1778,2363 1930,2211 2082,2363 2571,2852 3060,2363 3213,2211 3365,2363 3365,2363 3854,2852 4343,2363 4343,2363 4495,2211 4647,2363 5136,2852 5626,2363 5778,2211 5930,2363 5930,2363 6571,3004 6419,3156 5778,2515 5288,3004 5288,3004 5136,3156 4984,3004 4984,3004 4495,2515 4006,3004 4006,3004 3854,3156 3702,3004 3702,3004 3213,2515 2723,3004 2723,3004 2571,3156 2419,3004 2419,3004 1930,2515 1289,3156 "/>
      <polygon class="fil4" points="1137,3308 1778,2667 1778,2667 1930,2515 2082,2667 2571,3156 3060,2667 3213,2515 3365,2667 3365,2667 3854,3156 4343,2667 4343,2667 4495,2515 4647,2667 5136,3156 5626,2667 5778,2515 5930,2667 5930,2667 6571,3308 6419,3460 5778,2819 5288,3308 5288,3308 5136,3460 4984,3308 4984,3308 4495,2819 4006,3308 4006,3308 3854,3460 3702,3308 3702,3308 3213,2819 2723,3308 2723,3308 2571,3460 2419,3308 2419,3308 1930,2819 1289,3460 "/>
      <polygon class="fil2" points="1137,3612 1778,2971 1778,2971 1930,2819 2082,2971 2571,3460 3060,2971 3213,2819 3365,2971 3365,2971 3854,3460 4343,2971 4343,2971 4495,2819 4647,2971 5136,3460 5626,2971 5778,2819 5930,2971 5930,2971 6571,3612 6419,3764 5778,3123 5288,3612 5288,3612 5136,3764 4984,3612 4984,3612 4495,3123 4006,3612 4006,3612 3854,3764 3702,3612 3702,3612 3213,3123 2723,3612 2723,3612 2571,3764 2419,3612 2419,3612 1930,3123 1289,3764 "/>
      <polygon class="fil4" points="1137,3916 1778,3275 1778,3275 1930,3123 2082,3275 2571,3764 3060,3275 3213,3123 3365,3275 3365,3275 3854,3764 4343,3275 4343,3275 4495,3123 4647,3275 5136,3764 5626,3275 5778,3123 5930,3275 5930,3275 6571,3916 6419,4068 5778,3427 5288,3916 5288,3916 5136,4068 4984,3916 4984,3916 4495,3427 4006,3916 4006,3916 3854,4068 3702,3916 3702,3916 3213,3427 2723,3916 2723,3916 2571,4068 2419,3916 2419,3916 1930,3427 1289,4068 "/>
      <polygon class="fil5" points="1137,4220 1778,3579 1778,3579 1930,3427 2082,3579 2571,4068 3060,3579 3213,3427 3365,3579 3365,3579 3854,4068 4343,3579 4343,3579 4495,3427 4647,3579 5136,4068 5626,3579 5778,3427 5930,3579 5930,3579 6571,4220 6419,4372 5778,3731 5288,4220 5288,4220 5136,4372 4984,4220 4984,4220 4495,3731 4006,4220 4006,4220 3854,4372 3702,4220 3702,4220 3213,3731 2723,4220 2723,4220 2571,4372 2419,4220 2419,4220 1930,3731 1289,4372 "/>
      <polygon class="fil4" points="1137,4525 1778,3883 1778,3883 1930,3731 2082,3883 2571,4372 3060,3883 3213,3731 3365,3883 3365,3883 3854,4372 4343,3883 4343,3883 4495,3731 4647,3883 5136,4372 5626,3883 5778,3731 5930,3883 5930,3883 6571,4525 6419,4677 5778,4035 5288,4525 5288,4525 5136,4677 4984,4525 4984,4525 4495,4035 4006,4525 4006,4525 3854,4677 3702,4525 3702,4525 3213,4035 2723,4525 2723,4525 2571,4677 2419,4525 2419,4525 1930,4035 1289,4677 "/>
      <polygon class="fil5" points="1137,-37 1778,-678 1778,-678 1930,-830 2082,-678 2571,-189 3060,-678 3213,-830 3365,-678 3365,-678 3854,-189 4343,-678 4343,-678 4495,-830 4647,-678 5136,-189 5626,-678 5778,-830 5930,-678 5930,-678 6571,-37 6419,115 5778,-526 5288,-37 5288,-37 5136,115 4984,-37 4984,-37 4495,-526 4006,-37 4006,-37 3854,115 3702,-37 3702,-37 3213,-526 2723,-37 2723,-37 2571,115 2419,-37 2419,-37 1930,-526 1289,115 "/>
      <polygon class="fil4" points="1137,267 1778,-374 1778,-374 1930,-526 2082,-374 2571,115 3060,-374 3213,-526 3365,-374 3365,-374 3854,115 4343,-374 4343,-374 4495,-526 4647,-374 5136,115 5626,-374 5778,-526 5930,-374 5930,-374 6571,267 6419,419 5778,-222 5288,267 5288,267 5136,419 4984,267 4984,267 4495,-222 4006,267 4006,267 3854,419 3702,267 3702,267 3213,-222 2723,267 2723,267 2571,419 2419,267 2419,267 1930,-222 1289,419 "/>
      <polygon class="fil2" points="1137,571 1778,-70 1778,-70 1930,-222 2082,-70 2571,419 3060,-70 3213,-222 3365,-70 3365,-70 3854,419 4343,-70 4343,-70 4495,-222 4647,-70 5136,419 5626,-70 5778,-222 5930,-70 5930,-70 6571,571 6419,723 5778,82 5288,571 5288,571 5136,723 4984,571 4984,571 4495,82 4006,571 4006,571 3854,723 3702,571 3702,571 3213,82 2723,571 2723,571 2571,723 2419,571 2419,571 1930,82 1289,723 "/>
      <polygon class="fil4" points="1137,875 1778,234 1778,234 1930,82 2082,234 2571,723 3060,234 3213,82 3365,234 3365,234 3854,723 4343,234 4343,234 4495,82 4647,234 5136,723 5626,234 5778,82 5930,234 5930,234 6571,875 6419,1027 5778,386 5288,875 5288,875 5136,1027 4984,875 4984,875 4495,386 4006,875 4006,875 3854,1027 3702,875 3702,875 3213,386 2723,875 2723,875 2571,1027 2419,875 2419,875 1930,386 1289,1027 "/>
      <polygon class="fil2" points="1137,1179 1778,538 1778,538 1930,386 2082,538 2571,1027 3060,538 3213,386 3365,538 3365,538 3854,1027 4343,538 4343,538 4495,386 4647,538 5136,1027 5626,538 5778,386 5930,538 5930,538 6571,1179 6419,1331 5778,690 5288,1179 5288,1179 5136,1331 4984,1179 4984,1179 4495,690 4006,1179 4006,1179 3854,1331 3702,1179 3702,1179 3213,690 2723,1179 2723,1179 2571,1331 2419,1179 2419,1179 1930,690 1289,1331 "/>
      <polygon class="fil4" points="1137,1483 1778,842 1778,842 1930,690 2082,842 2571,1331 3060,842 3213,690 3365,842 3365,842 3854,1331 4343,842 4343,842 4495,690 4647,842 5136,1331 5626,842 5778,690 5930,842 5930,842 6571,1483 6419,1636 5778,994 5288,1483 5288,1483 5136,1636 4984,1483 4984,1483 4495,994 4006,1483 4006,1483 3854,1636 3702,1483 3702,1483 3213,994 2723,1483 2723,1483 2571,1636 2419,1483 2419,1483 1930,994 1289,1636 "/>
      <polygon class="fil2" points="1137,1788 1778,1146 1778,1146 1930,994 2082,1146 2571,1636 3060,1146 3213,994 3365,1146 3365,1146 3854,1636 4343,1146 4343,1146 4495,994 4647,1146 5136,1636 5626,1146 5778,994 5930,1146 5930,1146 6571,1788 6419,1940 5778,1298 5288,1788 5288,1788 5136,1940 4984,1788 4984,1788 4495,1298 4006,1788 4006,1788 3854,1940 3702,1788 3702,1788 3213,1298 2723,1788 2723,1788 2571,1940 2419,1788 2419,1788 1930,1298 1289,1940 "/>
      <polygon class="fil4" points="1137,2092 1778,1450 1778,1450 1930,1298 2082,1450 2571,1940 3060,1450 3213,1298 3365,1450 3365,1450 3854,1940 4343,1450 4343,1450 4495,1298 4647,1450 5136,1940 5626,1450 5778,1298 5930,1450 5930,1450 6571,2092 6419,2244 5778,1602 5288,2092 5288,2092 5136,2244 4984,2092 4984,2092 4495,1602 4006,2092 4006,2092 3854,2244 3702,2092 3702,2092 3213,1602 2723,2092 2723,2092 2571,2244 2419,2092 2419,2092 1930,1602 1289,2244 "/>
     </g>
    </g>
    <g style="clip-path:url(#id3)">
     <path class="fil6" d="M3854 364c492,0 891,698 891,1559 0,861 -399,1559 -891,1559 -493,0 -892,-698 -892,-1559 0,-861 399,-1559 892,-1559z"/>
     <path class="fil5" d="M6078 4759l85 0c87,0 159,72 159,159l0 1438c0,87 -72,159 -159,159l-85 0c-88,0 -159,-72 -159,-159l0 -1438c0,-87 71,-159 159,-159z"/>
    </g>
    <g style="clip-path:url(#id4)">
     <g>
      <polygon id="1" class="fil2" points="4777,5871 5094,5554 5094,5554 5169,5479 5244,5554 5486,5796 5728,5554 5803,5479 5878,5554 5878,5554 6120,5796 6362,5554 6362,5554 6437,5479 6512,5554 6754,5796 6996,5554 7071,5479 7146,5554 7146,5554 7463,5871 7388,5946 7071,5629 6829,5871 6829,5871 6754,5946 6679,5871 6679,5871 6437,5629 6195,5871 6195,5871 6120,5946 6045,5871 6045,5871 5803,5629 5561,5871 5561,5871 5486,5946 5411,5871 5411,5871 5169,5629 4852,5946 "/>
      <polygon class="fil4" points="4777,6021 5094,5704 5094,5704 5169,5629 5244,5704 5486,5946 5728,5704 5803,5629 5878,5704 5878,5704 6120,5946 6362,5704 6362,5704 6437,5629 6512,5704 6754,5946 6996,5704 7071,5629 7146,5704 7146,5704 7463,6021 7388,6096 7071,5779 6829,6021 6829,6021 6754,6096 6679,6021 6679,6021 6437,5779 6195,6021 6195,6021 6120,6096 6045,6021 6045,6021 5803,5779 5561,6021 5561,6021 5486,6096 5411,6021 5411,6021 5169,5779 4852,6096 "/>
      <polygon class="fil2" points="4777,6171 5094,5854 5094,5854 5169,5779 5244,5854 5486,6096 5728,5854 5803,5779 5878,5854 5878,5854 6120,6096 6362,5854 6362,5854 6437,5779 6512,5854 6754,6096 6996,5854 7071,5779 7146,5854 7146,5854 7463,6171 7388,6247 7071,5930 6829,6171 6829,6171 6754,6247 6679,6171 6679,6171 6437,5930 6195,6171 6195,6171 6120,6247 6045,6171 6045,6171 5803,5930 5561,6171 5561,6171 5486,6247 5411,6171 5411,6171 5169,5930 4852,6247 "/>
      <polygon class="fil4" points="4777,6322 5094,6005 5094,6005 5169,5930 5244,6005 5486,6247 5728,6005 5803,5930 5878,6005 5878,6005 6120,6247 6362,6005 6362,6005 6437,5930 6512,6005 6754,6247 6996,6005 7071,5930 7146,6005 7146,6005 7463,6322 7388,6397 7071,6080 6829,6322 6829,6322 6754,6397 6679,6322 6679,6322 6437,6080 6195,6322 6195,6322 6120,6397 6045,6322 6045,6322 5803,6080 5561,6322 5561,6322 5486,6397 5411,6322 5411,6322 5169,6080 4852,6397 "/>
      <polygon class="fil2" points="4777,6472 5094,6155 5094,6155 5169,6080 5244,6155 5486,6397 5728,6155 5803,6080 5878,6155 5878,6155 6120,6397 6362,6155 6362,6155 6437,6080 6512,6155 6754,6397 6996,6155 7071,6080 7146,6155 7146,6155 7463,6472 7388,6547 7071,6230 6829,6472 6829,6472 6754,6547 6679,6472 6679,6472 6437,6230 6195,6472 6195,6472 6120,6547 6045,6472 6045,6472 5803,6230 5561,6472 5561,6472 5486,6547 5411,6472 5411,6472 5169,6230 4852,6547 "/>
      <polygon class="fil4" points="4777,6622 5094,6305 5094,6305 5169,6230 5244,6305 5486,6547 5728,6305 5803,6230 5878,6305 5878,6305 6120,6547 6362,6305 6362,6305 6437,6230 6512,6305 6754,6547 6996,6305 7071,6230 7146,6305 7146,6305 7463,6622 7388,6698 7071,6381 6829,6622 6829,6622 6754,6698 6679,6622 6679,6622 6437,6381 6195,6622 6195,6622 6120,6698 6045,6622 6045,6622 5803,6381 5561,6622 5561,6622 5486,6698 5411,6622 5411,6622 5169,6381 4852,6698 "/>
      <polygon class="fil5" points="4777,6773 5094,6456 5094,6456 5169,6381 5244,6456 5486,6698 5728,6456 5803,6381 5878,6456 5878,6456 6120,6698 6362,6456 6362,6456 6437,6381 6512,6456 6754,6698 6996,6456 7071,6381 7146,6456 7146,6456 7463,6773 7388,6848 7071,6531 6829,6773 6829,6773 6754,6848 6679,6773 6679,6773 6437,6531 6195,6773 6195,6773 6120,6848 6045,6773 6045,6773 5803,6531 5561,6773 5561,6773 5486,6848 5411,6773 5411,6773 5169,6531 4852,6848 "/>
      <polygon class="fil4" points="4777,6923 5094,6606 5094,6606 5169,6531 5244,6606 5486,6848 5728,6606 5803,6531 5878,6606 5878,6606 6120,6848 6362,6606 6362,6606 6437,6531 6512,6606 6754,6848 6996,6606 7071,6531 7146,6606 7146,6606 7463,6923 7388,6998 7071,6681 6829,6923 6829,6923 6754,6998 6679,6923 6679,6923 6437,6681 6195,6923 6195,6923 6120,6998 6045,6923 6045,6923 5803,6681 5561,6923 5561,6923 5486,6998 5411,6923 5411,6923 5169,6681 4852,6998 "/>
      <polygon class="fil5" points="4777,4668 5094,4351 5094,4351 5169,4276 5244,4351 5486,4593 5728,4351 5803,4276 5878,4351 5878,4351 6120,4593 6362,4351 6362,4351 6437,4276 6512,4351 6754,4593 6996,4351 7071,4276 7146,4351 7146,4351 7463,4668 7388,4743 7071,4426 6829,4668 6829,4668 6754,4743 6679,4668 6679,4668 6437,4426 6195,4668 6195,4668 6120,4743 6045,4668 6045,4668 5803,4426 5561,4668 5561,4668 5486,4743 5411,4668 5411,4668 5169,4426 4852,4743 "/>
      <polygon class="fil4" points="4777,4818 5094,4501 5094,4501 5169,4426 5244,4501 5486,4743 5728,4501 5803,4426 5878,4501 5878,4501 6120,4743 6362,4501 6362,4501 6437,4426 6512,4501 6754,4743 6996,4501 7071,4426 7146,4501 7146,4501 7463,4818 7388,4894 7071,4577 6829,4818 6829,4818 6754,4894 6679,4818 6679,4818 6437,4577 6195,4818 6195,4818 6120,4894 6045,4818 6045,4818 5803,4577 5561,4818 5561,4818 5486,4894 5411,4818 5411,4818 5169,4577 4852,4894 "/>
      <polygon class="fil2" points="4777,4969 5094,4652 5094,4652 5169,4577 5244,4652 5486,4894 5728,4652 5803,4577 5878,4652 5878,4652 6120,4894 6362,4652 6362,4652 6437,4577 6512,4652 6754,4894 6996,4652 7071,4577 7146,4652 7146,4652 7463,4969 7388,5044 7071,4727 6829,4969 6829,4969 6754,5044 6679,4969 6679,4969 6437,4727 6195,4969 6195,4969 6120,5044 6045,4969 6045,4969 5803,4727 5561,4969 5561,4969 5486,5044 5411,4969 5411,4969 5169,4727 4852,5044 "/>
      <polygon class="fil4" points="4777,5119 5094,4802 5094,4802 5169,4727 5244,4802 5486,5044 5728,4802 5803,4727 5878,4802 5878,4802 6120,5044 6362,4802 6362,4802 6437,4727 6512,4802 6754,5044 6996,4802 7071,4727 7146,4802 7146,4802 7463,5119 7388,5194 7071,4877 6829,5119 6829,5119 6754,5194 6679,5119 6679,5119 6437,4877 6195,5119 6195,5119 6120,5194 6045,5119 6045,5119 5803,4877 5561,5119 5561,5119 5486,5194 5411,5119 5411,5119 5169,4877 4852,5194 "/>
      <polygon class="fil2" points="4777,5269 5094,4952 5094,4952 5169,4877 5244,4952 5486,5194 5728,4952 5803,4877 5878,4952 5878,4952 6120,5194 6362,4952 6362,4952 6437,4877 6512,4952 6754,5194 6996,4952 7071,4877 7146,4952 7146,4952 7463,5269 7388,5345 7071,5028 6829,5269 6829,5269 6754,5345 6679,5269 6679,5269 6437,5028 6195,5269 6195,5269 6120,5345 6045,5269 6045,5269 5803,5028 5561,5269 5561,5269 5486,5345 5411,5269 5411,5269 5169,5028 4852,5345 "/>
      <polygon class="fil4" points="4777,5420 5094,5103 5094,5103 5169,5028 5244,5103 5486,5345 5728,5103 5803,5028 5878,5103 5878,5103 6120,5345 6362,5103 6362,5103 6437,5028 6512,5103 6754,5345 6996,5103 7071,5028 7146,5103 7146,5103 7463,5420 7388,5495 7071,5178 6829,5420 6829,5420 6754,5495 6679,5420 6679,5420 6437,5178 6195,5420 6195,5420 6120,5495 6045,5420 6045,5420 5803,5178 5561,5420 5561,5420 5486,5495 5411,5420 5411,5420 5169,5178 4852,5495 "/>
      <polygon class="fil2" points="4777,5570 5094,5253 5094,5253 5169,5178 5244,5253 5486,5495 5728,5253 5803,5178 5878,5253 5878,5253 6120,5495 6362,5253 6362,5253 6437,5178 6512,5253 6754,5495 6996,5253 7071,5178 7146,5253 7146,5253 7463,5570 7388,5645 7071,5328 6829,5570 6829,5570 6754,5645 6679,5570 6679,5570 6437,5328 6195,5570 6195,5570 6120,5645 6045,5570 6045,5570 5803,5328 5561,5570 5561,5570 5486,5645 5411,5570 5411,5570 5169,5328 4852,5645 "/>
      <polygon class="fil4" points="4777,5720 5094,5403 5094,5403 5169,5328 5244,5403 5486,5645 5728,5403 5803,5328 5878,5403 5878,5403 6120,5645 6362,5403 6362,5403 6437,5328 6512,5403 6754,5645 6996,5403 7071,5328 7146,5403 7146,5403 7463,5720 7388,5796 7071,5479 6829,5720 6829,5720 6754,5796 6679,5720 6679,5720 6437,5479 6195,5720 6195,5720 6120,5796 6045,5720 6045,5720 5803,5479 5561,5720 5561,5720 5486,5796 5411,5720 5411,5720 5169,5479 4852,5796 "/>
     </g>
    </g>
    <g style="clip-path:url(#id5)">
     <path class="fil6" d="M6078 4759l85 0c87,0 159,72 159,159l0 1438c0,87 -72,159 -159,159l-85 0c-88,0 -159,-72 -159,-159l0 -1438c0,-87 71,-159 159,-159z"/>
     <rect class="fil4" x="3903" y="3619" width="329" height="784"/>
     <polygon class="fil2" points="3774,3619 4104,3619 4104,4403 3774,4403 "/>
    </g>
    <g style="clip-path:url(#id6)">
     <g>
      <g>
       <g>
        <circle class="fil4" cx="3542" cy="3503" r="45"/>
        <circle class="fil4" cx="3807" cy="3503" r="45"/>
        <circle class="fil4" cx="3674" cy="3503" r="45"/>
        <circle class="fil4" cx="3939" cy="3503" r="45"/>
        <circle class="fil4" cx="4071" cy="3503" r="45"/>
        <circle class="fil4" cx="4203" cy="3503" r="45"/>
        <circle class="fil4" cx="4336" cy="3503" r="45"/>
       </g>
       <g>
        <circle class="fil4" cx="3542" cy="4392" r="45"/>
        <circle class="fil4" cx="3807" cy="4392" r="45"/>
        <circle class="fil4" cx="3674" cy="4392" r="45"/>
        <circle class="fil4" cx="3939" cy="4392" r="45"/>
        <circle class="fil4" cx="4071" cy="4392" r="45"/>
        <circle class="fil4" cx="4203" cy="4392" r="45"/>
        <circle class="fil4" cx="4336" cy="4392" r="45"/>
       </g>
       <g>
        <circle class="fil4" cx="3542" cy="4265" r="45"/>
        <circle class="fil4" cx="3807" cy="4265" r="45"/>
        <circle class="fil4" cx="3674" cy="4265" r="45"/>
        <circle class="fil4" cx="3939" cy="4265" r="45"/>
        <circle class="fil4" cx="4071" cy="4265" r="45"/>
        <circle class="fil4" cx="4203" cy="4265" r="45"/>
        <circle class="fil4" cx="4336" cy="4265" r="45"/>
       </g>
       <g>
        <circle class="fil4" cx="3542" cy="4138" r="45"/>
        <circle class="fil4" cx="3807" cy="4138" r="45"/>
        <circle class="fil4" cx="3674" cy="4138" r="45"/>
        <circle class="fil4" cx="3939" cy="4138" r="45"/>
        <circle class="fil4" cx="4071" cy="4138" r="45"/>
        <circle class="fil4" cx="4203" cy="4138" r="45"/>
        <circle class="fil4" cx="4336" cy="4138" r="45"/>
       </g>
       <g>
        <circle class="fil4" cx="3542" cy="4011" r="45"/>
        <circle class="fil4" cx="3807" cy="4011" r="45"/>
        <circle class="fil4" cx="3674" cy="4011" r="45"/>
        <circle class="fil4" cx="3939" cy="4011" r="45"/>
        <circle class="fil4" cx="4071" cy="4011" r="45"/>
        <circle class="fil4" cx="4203" cy="4011" r="45"/>
        <circle class="fil4" cx="4336" cy="4011" r="45"/>
       </g>
       <g>
        <circle class="fil4" cx="3542" cy="3884" r="45"/>
        <circle class="fil4" cx="3807" cy="3884" r="45"/>
        <circle class="fil4" cx="3674" cy="3884" r="45"/>
        <circle class="fil4" cx="3939" cy="3884" r="45"/>
        <circle class="fil4" cx="4071" cy="3884" r="45"/>
        <circle class="fil4" cx="4203" cy="3884" r="45"/>
        <circle class="fil4" cx="4336" cy="3884" r="45"/>
       </g>
       <g>
        <circle class="fil4" cx="3542" cy="3757" r="45"/>
        <circle class="fil4" cx="3807" cy="3757" r="45"/>
        <circle class="fil4" cx="3674" cy="3757" r="45"/>
        <circle class="fil4" cx="3939" cy="3757" r="45"/>
        <circle class="fil4" cx="4071" cy="3757" r="45"/>
        <circle class="fil4" cx="4203" cy="3757" r="45"/>
        <circle class="fil4" cx="4336" cy="3757" r="45"/>
       </g>
       <g>
        <circle class="fil4" cx="3542" cy="3630" r="45"/>
        <circle class="fil4" cx="3807" cy="3630" r="45"/>
        <circle class="fil4" cx="3674" cy="3630" r="45"/>
        <circle class="fil4" cx="3939" cy="3630" r="45"/>
        <circle class="fil4" cx="4071" cy="3630" r="45"/>
        <circle class="fil4" cx="4203" cy="3630" r="45"/>
        <circle class="fil4" cx="4336" cy="3630" r="45"/>
       </g>
       <g>
        <circle class="fil4" cx="3542" cy="4519" r="45"/>
        <circle class="fil4" cx="3807" cy="4519" r="45"/>
        <circle class="fil4" cx="3674" cy="4519" r="45"/>
        <circle class="fil4" cx="3939" cy="4519" r="45"/>
        <circle class="fil4" cx="4071" cy="4519" r="45"/>
        <circle class="fil4" cx="4203" cy="4519" r="45"/>
        <circle class="fil4" cx="4336" cy="4519" r="45"/>
       </g>
      </g>
     </g>
    </g>
    <g style="clip-path:url(#id7)">
     <polygon class="fil6" points="3774,3619 4104,3619 4104,4403 3774,4403 "/>
     <polygon class="fil3" points="5546,2729 6694,2729 6694,5149 5546,5149 "/>
    </g>
    <g style="clip-path:url(#id8)">
     <g>
      <rect class="fil5" x="4014" y="-175" width="282" height="8197"/>
      <rect class="fil4" x="4296" y="-175" width="282" height="8197"/>
      <rect class="fil5" x="4578" y="-175" width="282" height="8197"/>
      <rect class="fil4" x="4860" y="-175" width="282" height="8197"/>
      <rect class="fil5" x="5141" y="-175" width="282" height="8197"/>
      <rect class="fil4" x="5423" y="-175" width="282" height="8197"/>
      <rect class="fil2" x="5705" y="-175" width="282" height="8197"/>
      <rect class="fil4" x="5987" y="-175" width="282" height="8197"/>
      <rect class="fil2" x="6269" y="-175" width="282" height="8197"/>
      <rect class="fil4" x="6551" y="-175" width="282" height="8197"/>
      <rect class="fil5" x="6833" y="-175" width="282" height="8197"/>
      <rect class="fil4" x="7114" y="-175" width="282" height="8197"/>
      <rect class="fil5" x="7396" y="-175" width="282" height="8197"/>
      <rect class="fil4" x="7678" y="-175" width="282" height="8197"/>
      <rect class="fil5" x="7960" y="-175" width="282" height="8197"/>
      <rect class="fil6" x="8242" y="-175" width="282" height="8197"/>
     </g>
    </g>
    <g style="clip-path:url(#id9)">
     <polygon class="fil6" points="5546,2729 6694,2729 6694,5149 5546,5149 "/>
     <path class="fil5" d="M5517 2729l1207 0c17,0 31,-14 31,-31l0 -239c0,-17 -14,-31 -31,-31l-1207 0c-18,0 -32,14 -32,31l0 239c0,17 14,31 32,31z"/>
    </g>
    <g style="clip-path:url(#id10)">
     <g>
      <rect class="fil5" transform="matrix(-8.12216E-015 -0.11377 0.249196 -2.21905E-014 5054.77 3233.3)" width="720" height="8551"/>
      <rect class="fil4" transform="matrix(-8.12216E-015 -0.11377 0.249196 -2.21905E-014 5054.77 3151.42)" width="720" height="8551"/>
      <rect class="fil5" transform="matrix(-8.12216E-015 -0.11377 0.249196 -2.21905E-014 5054.77 3069.55)" width="720" height="8551"/>
      <rect class="fil4" transform="matrix(-8.12216E-015 -0.11377 0.249196 -2.21905E-014 5054.77 2987.67)" width="720" height="8551"/>
      <rect class="fil5" transform="matrix(-8.12216E-015 -0.11377 0.249196 -2.21905E-014 5054.77 2905.8)" width="720" height="8551"/>
      <rect class="fil4" transform="matrix(-8.12216E-015 -0.11377 0.249196 -2.21905E-014 5054.77 2823.92)" width="720" height="8551"/>
      <rect class="fil2" transform="matrix(-8.12216E-015 -0.11377 0.249196 -2.21905E-014 5054.77 2742.04)" width="720" height="8551"/>
      <rect class="fil4" transform="matrix(-8.12216E-015 -0.11377 0.249196 -2.21905E-014 5054.77 2660.17)" width="720" height="8551"/>
      <rect class="fil2" transform="matrix(-8.12216E-015 -0.11377 0.249196 -2.21905E-014 5054.77 2578.29)" width="720" height="8551"/>
      <rect class="fil4" transform="matrix(-8.12216E-015 -0.11377 0.249196 -2.21905E-014 5054.77 2496.42)" width="720" height="8551"/>
      <rect class="fil5" transform="matrix(-8.12216E-015 -0.11377 0.249196 -2.21905E-014 5054.77 2414.54)" width="720" height="8551"/>
      <rect class="fil4" transform="matrix(-8.12216E-015 -0.11377 0.249196 -2.21905E-014 5054.77 2332.67)" width="720" height="8551"/>
      <rect class="fil5" transform="matrix(-8.12216E-015 -0.11377 0.249196 -2.21905E-014 5054.77 2250.79)" width="720" height="8551"/>
      <rect class="fil4" transform="matrix(-8.12216E-015 -0.11377 0.249196 -2.21905E-014 5054.77 2168.91)" width="720" height="8551"/>
      <rect class="fil5" transform="matrix(-8.12216E-015 -0.11377 0.249196 -2.21905E-014 5054.77 2087.04)" width="720" height="8551"/>
      <rect class="fil6" transform="matrix(-8.12216E-015 -0.11377 0.249196 -2.21905E-014 5054.77 2005.16)" width="720" height="8551"/>
     </g>
    </g>
    <g style="clip-path:url(#id11)">
     <path class="fil6" d="M5517 2729l1207 0c17,0 31,-14 31,-31l0 -239c0,-17 -14,-31 -31,-31l-1207 0c-18,0 -32,14 -32,31l0 239c0,17 14,31 32,31z"/>
     <path class="fil3" d="M5552 2428l1142 0 -57 -1082c0,-67 -44,-121 -101,-126l0 0 -7 0 -812 0c-60,0 -108,56 -108,126l-57 1082z"/>
    </g>
    <g style="clip-path:url(#id12)">
     <g>
      <rect class="fil4" transform="matrix(0.359566 -0.359566 0.359566 0.359566 4358.14 1986.32)" width="614" height="614"/>
      <rect class="fil5" transform="matrix(0.359566 -0.359566 0.359566 0.359566 4578.85 2207.03)" width="614" height="614"/>
      <rect class="fil5" transform="matrix(0.359566 -0.359566 0.359566 0.359566 4578.85 1765.61)" width="614" height="614"/>
      <rect class="fil4" transform="matrix(0.359566 -0.359566 0.359566 0.359566 4799.56 1986.32)" width="614" height="614"/>
      <rect class="fil4" transform="matrix(0.359566 -0.359566 0.359566 0.359566 4799.56 1544.89)" width="614" height="614"/>
      <rect class="fil5" transform="matrix(0.359566 -0.359566 0.359566 0.359566 5020.27 1765.61)" width="614" height="614"/>
      <rect class="fil5" transform="matrix(0.359566 -0.359566 0.359566 0.359566 5020.27 1324.18)" width="614" height="614"/>
      <rect class="fil4" transform="matrix(0.359566 -0.359566 0.359566 0.359566 5240.99 1544.89)" width="614" height="614"/>
      <rect class="fil4" transform="matrix(0.359566 -0.359566 0.359566 0.359566 5240.99 1103.47)" width="614" height="614"/>
      <rect class="fil2" transform="matrix(0.359566 -0.359566 0.359566 0.359566 5461.7 1324.18)" width="614" height="614"/>
      <rect class="fil5" transform="matrix(0.359566 -0.359566 0.359566 0.359566 5461.7 882.757)" width="614" height="614"/>
      <rect class="fil4" transform="matrix(0.359566 -0.359566 0.359566 0.359566 5682.41 1103.47)" width="614" height="614"/>
      <rect class="fil4" transform="matrix(0.359566 -0.359566 0.359566 0.359566 5682.41 662.044)" width="614" height="614"/>
      <rect class="fil5" transform="matrix(0.359566 -0.359566 0.359566 0.359566 5903.13 882.757)" width="614" height="614"/>
      <rect class="fil5" transform="matrix(0.359566 -0.359566 0.359566 0.359566 5903.13 441.332)" width="614" height="614"/>
      <rect class="fil4" transform="matrix(0.359566 -0.359566 0.359566 0.359566 6123.84 662.044)" width="614" height="614"/>
      <rect class="fil4" transform="matrix(0.359566 -0.359566 0.359566 0.359566 4799.56 2427.75)" width="614" height="614"/>
      <rect class="fil5" transform="matrix(0.359566 -0.359566 0.359566 0.359566 5020.27 2648.46)" width="614" height="614"/>
      <rect class="fil5" transform="matrix(0.359566 -0.359566 0.359566 0.359566 5020.27 2207.03)" width="614" height="614"/>
      <rect class="fil4" transform="matrix(0.359566 -0.359566 0.359566 0.359566 5240.99 2427.75)" width="614" height="614"/>
      <rect class="fil4" transform="matrix(0.359566 -0.359566 0.359566 0.359566 5240.99 1986.32)" width="614" height="614"/>
      <rect class="fil2" transform="matrix(0.359566 -0.359566 0.359566 0.359566 5461.7 2207.03)" width="614" height="614"/>
      <rect class="fil2" transform="matrix(0.359566 -0.359566 0.359566 0.359566 5461.7 1765.61)" width="614" height="614"/>
      <rect class="fil4" transform="matrix(0.359566 -0.359566 0.359566 0.359566 5682.41 1986.32)" width="614" height="614"/>
      <rect class="fil4" transform="matrix(0.359566 -0.359566 0.359566 0.359566 5682.41 1544.89)" width="614" height="614"/>
      <rect class="fil2" transform="matrix(0.359566 -0.359566 0.359566 0.359566 5903.13 1765.61)" width="614" height="614"/>
      <rect class="fil2" transform="matrix(0.359566 -0.359566 0.359566 0.359566 5903.13 1324.18)" width="614" height="614"/>
      <rect class="fil4" transform="matrix(0.359566 -0.359566 0.359566 0.359566 6123.84 1544.89)" width="614" height="614"/>
      <rect class="fil4" transform="matrix(0.359566 -0.359566 0.359566 0.359566 6123.84 1103.47)" width="614" height="614"/>
      <rect class="fil2" transform="matrix(0.359566 -0.359566 0.359566 0.359566 6344.55 1324.18)" width="614" height="614"/>
      <rect class="fil5" transform="matrix(0.359566 -0.359566 0.359566 0.359566 6344.55 882.757)" width="614" height="614"/>
      <rect class="fil4" transform="matrix(0.359566 -0.359566 0.359566 0.359566 6565.26 1103.47)" width="614" height="614"/>
      <rect class="fil4" transform="matrix(0.359566 -0.359566 0.359566 0.359566 5240.99 2869.17)" width="614" height="614"/>
      <rect class="fil5" transform="matrix(0.359566 -0.359566 0.359566 0.359566 5461.7 3089.88)" width="614" height="614"/>
      <rect class="fil5" transform="matrix(0.359566 -0.359566 0.359566 0.359566 5461.7 2648.46)" width="614" height="614"/>
      <rect class="fil4" transform="matrix(0.359566 -0.359566 0.359566 0.359566 5682.41 2869.17)" width="614" height="614"/>
      <rect class="fil4" transform="matrix(0.359566 -0.359566 0.359566 0.359566 5682.41 2427.75)" width="614" height="614"/>
      <rect class="fil5" transform="matrix(0.359566 -0.359566 0.359566 0.359566 5903.13 2648.46)" width="614" height="614"/>
      <rect class="fil2" transform="matrix(0.359566 -0.359566 0.359566 0.359566 5903.13 2207.03)" width="614" height="614"/>
      <rect class="fil4" transform="matrix(0.359566 -0.359566 0.359566 0.359566 6123.84 2427.75)" width="614" height="614"/>
      <rect class="fil4" transform="matrix(0.359566 -0.359566 0.359566 0.359566 6123.84 1986.32)" width="614" height="614"/>
      <rect class="fil2" transform="matrix(0.359566 -0.359566 0.359566 0.359566 6344.55 2207.03)" width="614" height="614"/>
      <rect class="fil2" transform="matrix(0.359566 -0.359566 0.359566 0.359566 6344.55 1765.61)" width="614" height="614"/>
      <rect class="fil4" transform="matrix(0.359566 -0.359566 0.359566 0.359566 6565.26 1986.32)" width="614" height="614"/>
      <rect class="fil4" transform="matrix(0.359566 -0.359566 0.359566 0.359566 6565.26 1544.89)" width="614" height="614"/>
      <rect class="fil5" transform="matrix(0.359566 -0.359566 0.359566 0.359566 6785.98 1765.61)" width="614" height="614"/>
      <rect class="fil5" transform="matrix(0.359566 -0.359566 0.359566 0.359566 6785.98 1324.18)" width="614" height="614"/>
      <rect class="fil4" transform="matrix(0.359566 -0.359566 0.359566 0.359566 7006.69 1544.89)" width="614" height="614"/>
      <rect class="fil4" transform="matrix(0.359566 -0.359566 0.359566 0.359566 5682.41 3310.6)" width="614" height="614"/>
      <rect class="fil5" transform="matrix(0.359566 -0.359566 0.359566 0.359566 5903.13 3531.31)" width="614" height="614"/>
      <rect class="fil5" transform="matrix(0.359566 -0.359566 0.359566 0.359566 5903.13 3089.88)" width="614" height="614"/>
      <rect class="fil4" transform="matrix(0.359566 -0.359566 0.359566 0.359566 6123.84 3310.6)" width="614" height="614"/>
      <rect class="fil4" transform="matrix(0.359566 -0.359566 0.359566 0.359566 6123.84 2869.17)" width="614" height="614"/>
      <rect class="fil5" transform="matrix(0.359566 -0.359566 0.359566 0.359566 6344.55 3089.88)" width="614" height="614"/>
      <rect class="fil5" transform="matrix(0.359566 -0.359566 0.359566 0.359566 6344.55 2648.46)" width="614" height="614"/>
      <rect class="fil4" transform="matrix(0.359566 -0.359566 0.359566 0.359566 6565.26 2869.17)" width="614" height="614"/>
      <rect class="fil4" transform="matrix(0.359566 -0.359566 0.359566 0.359566 6565.26 2427.75)" width="614" height="614"/>
      <rect class="fil5" transform="matrix(0.359566 -0.359566 0.359566 0.359566 6785.98 2648.46)" width="614" height="614"/>
      <rect class="fil5" transform="matrix(0.359566 -0.359566 0.359566 0.359566 6785.98 2207.03)" width="614" height="614"/>
      <rect class="fil4" transform="matrix(0.359566 -0.359566 0.359566 0.359566 7006.69 2427.75)" width="614" height="614"/>
      <rect class="fil4" transform="matrix(0.359566 -0.359566 0.359566 0.359566 7006.69 1986.32)" width="614" height="614"/>
      <rect class="fil5" transform="matrix(0.359566 -0.359566 0.359566 0.359566 7227.4 2207.03)" width="614" height="614"/>
      <rect class="fil5" transform="matrix(0.359566 -0.359566 0.359566 0.359566 7227.4 1765.61)" width="614" height="614"/>
      <rect class="fil4" transform="matrix(0.359566 -0.359566 0.359566 0.359566 7448.11 1986.32)" width="614" height="614"/>
     </g>
    </g>
    <g style="clip-path:url(#id13)">
     <path class="fil6" d="M5552 2428l1142 0 -57 -1082c0,-67 -44,-121 -101,-126l0 0 -7 0 -812 0c-60,0 -108,56 -108,126l-57 1082z"/>
     <polygon class="fil3" points="4062,6383 3988,6326 3989,4402 4026,4403 4035,6342 5749,5484 5759,5520 "/>
     <path class="fil5" d="M5677 5149l886 0c32,0 57,25 57,57l0 318c0,31 -25,57 -57,57l-886 0c-31,0 -57,-26 -57,-57l0 -318c0,-32 26,-57 57,-57z"/>
    </g>
    <g style="clip-path:url(#id14)">
     <g>
      <rect class="fil5" transform="matrix(-8.91889E-015 -0.111852 0.273758 -2.18066E-014 4949.75 6008.75)" width="720" height="8551"/>
      <rect class="fil4" transform="matrix(-8.91889E-015 -0.111852 0.273758 -2.18066E-014 4949.75 5928.25)" width="720" height="8551"/>
      <rect class="fil5" transform="matrix(-8.91889E-015 -0.111852 0.273758 -2.18066E-014 4949.75 5847.75)" width="720" height="8551"/>
      <rect class="fil4" transform="matrix(-8.91889E-015 -0.111852 0.273758 -2.18066E-014 4949.75 5767.26)" width="720" height="8551"/>
      <rect class="fil5" transform="matrix(-8.91889E-015 -0.111852 0.273758 -2.18066E-014 4949.75 5686.76)" width="720" height="8551"/>
      <rect class="fil4" transform="matrix(-8.91889E-015 -0.111852 0.273758 -2.18066E-014 4949.75 5606.27)" width="720" height="8551"/>
      <rect class="fil2" transform="matrix(-8.91889E-015 -0.111852 0.273758 -2.18066E-014 4949.75 5525.77)" width="720" height="8551"/>
      <rect class="fil4" transform="matrix(-8.91889E-015 -0.111852 0.273758 -2.18066E-014 4949.75 5445.28)" width="720" height="8551"/>
      <rect class="fil2" transform="matrix(-8.91889E-015 -0.111852 0.273758 -2.18066E-014 4949.75 5364.78)" width="720" height="8551"/>
      <rect class="fil4" transform="matrix(-8.91889E-015 -0.111852 0.273758 -2.18066E-014 4949.75 5284.28)" width="720" height="8551"/>
      <rect class="fil2" transform="matrix(-8.91889E-015 -0.111852 0.273758 -2.18066E-014 4949.75 5203.79)" width="720" height="8551"/>
      <rect class="fil4" transform="matrix(-8.91889E-015 -0.111852 0.273758 -2.18066E-014 4949.75 5123.29)" width="720" height="8551"/>
      <rect class="fil5" transform="matrix(-8.91889E-015 -0.111852 0.273758 -2.18066E-014 4949.75 5042.8)" width="720" height="8551"/>
      <rect class="fil4" transform="matrix(-8.91889E-015 -0.111852 0.273758 -2.18066E-014 4949.75 4962.3)" width="720" height="8551"/>
      <rect class="fil5" transform="matrix(-8.91889E-015 -0.111852 0.273758 -2.18066E-014 4949.75 4881.8)" width="720" height="8551"/>
      <rect class="fil6" transform="matrix(-8.91889E-015 -0.111852 0.273758 -2.18066E-014 4949.75 4801.31)" width="720" height="8551"/>
     </g>
    </g>
    <g style="clip-path:url(#id15)">
     <path class="fil6" d="M5677 5149l886 0c32,0 57,25 57,57l0 318c0,31 -25,57 -57,57l-886 0c-31,0 -57,-26 -57,-57l0 -318c0,-32 26,-57 57,-57z"/>
     <path class="fil3" d="M7917 8379c-1029,0 -1864,-834 -1864,-1864l119 0c0,963 782,1745 1745,1745l0 119z"/>
    </g>
   </g>
   <g style="clip-path:url(#id16)">
    <path class="fil6" d="M394 0l8060 0c7,0 13,6 13,13l0 8060c0,7 -6,13 -13,13l-8060 0c-8,0 -13,-6 -13,-13l0 -8060c0,-7 5,-13 13,-13z"/>
   </g>
  </g>
  <path class="fil6" d="M754 0l7332 0c209,0 381,171 381,381l0 7331c0,210 -172,381 -381,381l-7332 0c-209,0 -380,-171 -380,-381l0 -7331c0,-210 171,-381 380,-381z"/>
  <g>
   <path class="fil7" d="M7317 5853c1,-2 3,-5 4,-7 11,-17 27,-26 47,-26l300 0c24,0 44,15 52,37l78 222c0,0 0,1 1,1 10,31 20,62 31,93 11,-31 22,-63 33,-94l79 -222c7,-22 28,-37 52,-37l293 0c20,0 36,9 47,26 10,16 11,35 3,53l-314 683 0 353c0,31 -25,55 -55,55l-281 0c-30,0 -55,-24 -55,-55l0 -353 -310 -673 0 1026c0,31 -25,55 -55,55l-287 0c-22,0 -40,-11 -50,-30l-204 -412c2,27 3,54 3,81l0 306c0,31 -25,55 -56,55l-267 0c-30,0 -55,-24 -55,-55l0 -1059c0,-31 25,-56 55,-56l287 0c21,0 40,12 49,31l204 410c-1,-26 -2,-53 -2,-79l0 -306c0,-31 25,-56 55,-56l268 0c22,0 42,14 50,33zm-5473 0c8,-19 28,-33 50,-33l290 0c24,0 44,14 52,36l166 440c0,1 1,1 1,2l9 28 10 -28c0,0 0,-1 0,-1l160 -440c8,-23 28,-37 52,-37l290 0c31,0 56,25 56,56l0 1059c0,31 -25,55 -56,55l-261 0c-30,0 -55,-24 -55,-55l0 -306 -99 241c-9,21 -28,34 -51,34l-104 0c-23,0 -43,-13 -51,-34l-96 -233 0 298c0,31 -25,55 -55,55l-258 0c-30,0 -55,-24 -55,-55l0 -1026 -310 673 0 353c0,31 -25,55 -56,55l-280 0c-30,0 -55,-24 -55,-55l0 -353 -253 -550c0,0 -1,0 -1,0l-140 176c-18,23 -51,28 -75,11 -57,-40 -110,-66 -180,-66 -9,0 -54,1 -56,16 13,15 104,47 122,54l129 51c154,61 242,173 242,342 0,36 -6,73 -17,108 -61,198 -258,286 -453,286 -157,0 -320,-60 -438,-166 -22,-20 -24,-53 -5,-76l160 -193c19,-23 53,-26 77,-7 55,44 140,90 213,90 12,0 65,2 65,-20 0,0 0,0 0,0 -8,-14 -93,-45 -109,-51l-132 -55c-148,-60 -248,-183 -248,-347 0,-44 8,-88 25,-129 68,-172 249,-255 425,-255 122,0 245,41 343,115l-9 -17c-8,-18 -6,-37 4,-53 11,-17 27,-26 47,-26l300 0c23,0 44,15 52,37l78 222c0,0 0,1 0,1 11,31 21,62 32,93 11,-31 22,-63 33,-94l78 -222c8,-22 29,-37 53,-37l293 0c19,0 36,9 47,26 1,2 2,5 4,7zm1651 802l0 280c0,31 -25,55 -56,55l-280 0c-31,0 -55,-24 -55,-55l0 -1059c0,-31 24,-56 55,-56l411 0c266,0 479,113 479,408 0,282 -216,427 -479,427l-75 0zm1007 -440l206 0 0 -339c0,-31 24,-56 55,-56l280 0c31,0 56,25 56,56l0 1059c0,31 -25,55 -56,55l-280 0c-31,0 -55,-24 -55,-55l0 -365 -206 0 0 365c0,31 -25,55 -55,55l-281 0c-30,0 -55,-24 -55,-55l0 -1059c0,-31 25,-56 55,-56l281 0c30,0 55,25 55,56l0 339zm1223 795c-358,0 -548,-269 -548,-610 0,-342 191,-599 548,-599 356,0 547,258 547,599 0,341 -189,610 -547,610zm-5660 1382l0 -1060c0,-30 25,-55 56,-55l280 0c30,0 55,25 55,55l0 1060c0,30 -25,55 -55,55l-280 0c-31,0 -56,-25 -56,-55zm515 0l0 -1060c0,-30 25,-55 56,-55l313 0c375,0 599,194 599,580 0,373 -212,590 -583,590l-329 0c-31,0 -56,-25 -56,-55zm1549 75c-358,0 -548,-269 -548,-610 0,-342 191,-600 548,-600 356,0 547,258 547,600 0,341 -189,610 -547,610zm1017 -365l345 0c31,0 56,25 56,55l0 235c0,30 -25,55 -56,55l-681 0c-30,0 -55,-25 -55,-55l0 -1060c0,-30 25,-55 55,-55l280 0c31,0 56,25 56,55l0 770zm349 -1780l62 0c69,0 107,-22 107,-94 0,-69 -47,-75 -107,-75l-62 0 0 169zm2230 336c125,0 150,-163 150,-258 0,-98 -24,-247 -150,-247 -126,0 -150,149 -150,247 0,95 25,258 150,258zm-4754 1452c140,-14 180,-103 180,-253 0,-155 -42,-231 -180,-243l0 496zm1158 5c125,0 150,-163 150,-258 0,-98 -24,-248 -150,-248 -126,0 -150,150 -150,248 0,95 25,258 150,258z"/>
  </g>
  <path class="fil8" d="M55 6803c114,103 268,152 401,152 264,0 414,-160 414,-339 0,-147 -75,-238 -207,-291l-128 -50c-97,-38 -157,-55 -157,-106 0,-47 42,-72 111,-72 78,0 140,26 212,77l140 -176c-98,-96 -231,-142 -352,-142 -232,0 -395,148 -395,329 0,154 100,250 214,295l132 56c90,36 143,52 143,102 0,48 -35,75 -120,75 -78,0 -173,-42 -248,-102l-160 192z"/>
  <path id="1" class="fil8" d="M1193 6935l280 0 0 -365 320 -694 -293 0 -79 221c-27,80 -55,153 -83,237l-6 0c-28,-84 -54,-157 -80,-237l-78 -221 -300 0 319 694 0 365z"/>
  <path id="2" class="fil8" d="M1894 6935l258 0 0 -313c0,-107 -23,-272 -36,-378l6 0 85 248 147 357 104 0 147 -357 88 -248 6 0c-13,106 -36,271 -36,378l0 313 261 0 0 -1059 -290 0 -160 440 -58 172 -7 0 -59 -172 -166 -440 -290 0 0 1059z"/>
  <path id="3" class="fil8" d="M3159 6935l280 0 0 -336 131 0c221,0 423,-112 423,-371 0,-268 -195,-352 -423,-352l-411 0 0 1059zm280 -557l0 -281 118 0c104,0 163,36 163,131 0,94 -53,150 -163,150l-118 0z"/>
  <polygon id="4" class="fil8" points="4166,6935 4447,6935 4447,6515 4763,6515 4763,6935 5043,6935 5043,5876 4763,5876 4763,6270 4447,6270 4447,5876 4166,5876 "/>
  <path id="5" class="fil8" d="M5725 6955c293,0 492,-206 492,-555 0,-347 -199,-544 -492,-544 -294,0 -493,196 -493,544 0,349 199,555 493,555zm0 -242c-128,0 -206,-120 -206,-313 0,-192 78,-303 206,-303 127,0 205,111 205,303 0,193 -78,313 -205,313z"/>
  <path id="6" class="fil8" d="M6406 6935l267 0 0 -306c0,-131 -23,-284 -36,-405l7 0 101 237 235 474 287 0 0 -1059 -268 0 0 306c0,130 23,290 36,404l-6 0 -101 -238 -235 -472 -287 0 0 1059z"/>
  <path id="7" class="fil8" d="M7687 6935l281 0 0 -365 319 -694 -293 0 -79 221c-27,80 -55,153 -83,237l-6 0c-28,-84 -54,-157 -80,-237l-78 -221 -300 0 319 694 0 365z"/>
  <polygon id="8" class="fil8" points="121,8392 401,8392 401,7332 121,7332 "/>
  <path id="9" class="fil8" d="M636 8392l329 0c306,0 528,-160 528,-535 0,-375 -222,-525 -544,-525l-313 0 0 1060zm280 -225l0 -610 16 0c154,0 274,52 274,300 0,248 -120,310 -274,310l-16 0z"/>
  <path id="10" class="fil8" d="M2129 8411c293,0 492,-205 492,-554 0,-347 -199,-544 -492,-544 -294,0 -493,195 -493,544 0,349 199,554 493,554zm0 -241c-127,0 -206,-121 -206,-313 0,-192 79,-303 206,-303 127,0 205,111 205,303 0,192 -78,313 -205,313z"/>
  <polygon id="11" class="fil8" points="2810,8392 3491,8392 3491,8157 3090,8157 3090,7332 2810,7332 "/>
  <g>
   <path class="fil7" d="M7438 5669c0,0 0,-1 0,-1 12,-18 29,-28 50,-28l300 0c25,0 47,16 56,40l78 222c0,0 0,0 0,1 9,28 19,55 28,83 10,-28 20,-56 30,-84l78 -222c9,-24 31,-40 56,-40l293 0c21,0 39,10 50,28 11,17 13,37 4,56l-314 683 0 352c0,33 -27,59 -59,59l-280 0c-33,0 -59,-26 -59,-59l0 -352 -303 -658 0 1010c0,33 -26,59 -59,59l-287 0c-23,0 -43,-12 -53,-33l-196 -396c1,21 2,42 2,64l0 306c0,33 -27,59 -59,59l-268 0c-32,0 -59,-26 -59,-59l0 -1060c0,-32 27,-59 59,-59l287 0c23,0 43,13 53,33l196 395c-1,-21 -1,-42 -1,-62l0 -307c0,-32 26,-59 59,-59l267 0c21,0 40,12 51,29zm-5474 0c10,-17 29,-29 50,-29l291 0c25,0 46,15 55,39l166 440c0,0 0,1 1,2l6 17 6 -17c0,-1 0,-1 0,-2l160 -440c9,-23 30,-39 55,-39l291 0c32,0 59,27 59,59l0 1060c0,33 -27,59 -59,59l-261 0c-33,0 -59,-26 -59,-59l0 -287 -92 223c-9,23 -30,37 -55,37l-104 0c-24,0 -45,-14 -55,-37l-88 -215 0 279c0,33 -27,59 -59,59l-258 0c-32,0 -59,-26 -59,-59l0 -1010 -302 658 0 352c0,33 -27,59 -59,59l-281 0c-32,0 -59,-26 -59,-59l0 -352 -250 -544 -137 172c-19,24 -54,29 -80,11 -56,-40 -108,-66 -178,-66 -10,0 -44,2 -51,11 -1,0 -1,0 -1,0 15,15 102,46 119,53l129 50c156,62 245,175 245,346 0,37 -6,74 -17,109 -61,200 -260,289 -456,289 -159,0 -323,-61 -441,-167 -23,-21 -26,-57 -6,-82l160 -192c21,-25 57,-29 82,-8 55,44 139,89 211,89 11,0 53,-1 61,-11 1,-1 1,-3 1,-4 -13,-14 -91,-42 -107,-49l-132 -55c-150,-60 -250,-184 -250,-350 0,-45 8,-89 25,-131 69,-173 250,-257 428,-257 118,0 237,38 333,108l-2 -5c-8,-19 -7,-39 4,-56 11,-18 29,-28 50,-28l300 0c25,0 47,16 56,40l78 222c0,0 0,0 0,1 9,28 19,55 28,83 10,-28 20,-56 30,-84l78 -222c9,-24 30,-40 56,-40l293 0c21,0 39,10 50,28 0,0 1,1 1,1zm1655 813l0 277c0,33 -27,59 -59,59l-281 0c-32,0 -59,-26 -59,-59l0 -1060c0,-32 27,-59 59,-59l411 0c269,0 483,115 483,412 0,284 -218,430 -483,430l-71 0zm1007 -447l198 0 0 -336c0,-32 27,-59 59,-59l281 0c32,0 59,27 59,59l0 1060c0,33 -27,59 -59,59l-281 0c-32,0 -59,-26 -59,-59l0 -362 -198 0 0 362c0,33 -26,59 -59,59l-280 0c-33,0 -59,-26 -59,-59l0 -1060c0,-32 26,-59 59,-59l280 0c33,0 59,27 59,59l0 336zm1219 803c-360,0 -551,-271 -551,-614 0,-344 192,-603 551,-603 358,0 551,259 551,603 0,343 -191,614 -551,614zm-5663 1394l0 -1060c0,-32 26,-59 59,-59l280 0c33,0 59,27 59,59l0 1060c0,32 -26,59 -59,59l-280 0c-33,0 -59,-27 -59,-59zm515 0l0 -1060c0,-32 26,-59 59,-59l313 0c377,0 603,196 603,584 0,375 -214,594 -587,594l-329 0c-33,0 -59,-27 -59,-59zm1552 78c-360,0 -551,-270 -551,-613 0,-345 192,-603 551,-603 358,0 551,259 551,603 0,343 -191,613 -551,613zm1021 -372l342 0c32,0 59,27 59,59l0 235c0,32 -27,59 -59,59l-682 0c-32,0 -59,-27 -59,-59l0 -1060c0,-32 27,-59 59,-59l281 0c32,0 59,27 59,59l0 766zm349 -1796l58 0c68,0 104,-20 104,-90 0,-67 -46,-72 -104,-72l-58 0 0 162zm2226 336c123,0 146,-161 146,-254 0,-95 -22,-244 -146,-244 -124,0 -146,149 -146,244 0,93 23,254 146,254zm-4750 1468c135,-15 172,-103 172,-249 0,-151 -39,-226 -172,-239l0 488zm1154 5c123,0 146,-162 146,-254 0,-95 -22,-244 -146,-244 -123,0 -146,149 -146,244 0,92 24,254 146,254z"/>
  </g>
  <path class="fil9" d="M176 6627c114,103 267,152 401,152 264,0 414,-160 414,-339 0,-147 -75,-238 -207,-291l-129 -50c-96,-38 -157,-56 -157,-106 0,-47 43,-72 111,-72 78,0 140,26 212,77l140 -176c-97,-96 -231,-142 -352,-142 -231,0 -394,148 -394,329 0,153 99,250 213,295l132 56c90,36 144,52 144,102 0,48 -36,75 -121,75 -78,0 -173,-42 -248,-102l-159 192z"/>
  <path id="1" class="fil9" d="M1313 6759l281 0 0 -365 319 -695 -293 0 -78 222c-28,80 -56,153 -84,237l-6 0c-28,-84 -54,-157 -80,-237l-78 -222 -300 0 319 695 0 365z"/>
  <path id="2" class="fil9" d="M2014 6759l258 0 0 -313c0,-108 -23,-272 -36,-378l7 0 84 248 147 357 104 0 147 -357 88 -248 7 0c-13,106 -36,270 -36,378l0 313 261 0 0 -1060 -291 0 -159 441 -59 172 -7 0 -58 -172 -167 -441 -290 0 0 1060z"/>
  <path id="3" class="fil9" d="M3279 6759l281 0 0 -336 130 0c222,0 424,-112 424,-371 0,-268 -196,-353 -424,-353l-411 0 0 1060zm281 -557l0 -281 117 0c104,0 163,36 163,131 0,94 -52,150 -163,150l-117 0z"/>
  <polygon id="4" class="fil9" points="4287,6759 4567,6759 4567,6338 4883,6338 4883,6759 5164,6759 5164,5699 4883,5699 4883,6094 4567,6094 4567,5699 4287,5699 "/>
  <path id="5" class="fil9" d="M5845 6779c293,0 492,-206 492,-555 0,-347 -199,-544 -492,-544 -293,0 -492,196 -492,544 0,349 199,555 492,555zm0 -242c-127,0 -205,-120 -205,-313 0,-192 78,-303 205,-303 127,0 205,111 205,303 0,193 -78,313 -205,313z"/>
  <path id="6" class="fil9" d="M6526 6759l268 0 0 -306c0,-131 -23,-284 -36,-405l6 0 101 237 235 474 287 0 0 -1060 -267 0 0 307c0,130 22,290 35,404l-6 0 -101 -238 -235 -473 -287 0 0 1060z"/>
  <path id="7" class="fil9" d="M7808 6759l280 0 0 -365 319 -695 -293 0 -78 222c-28,80 -56,153 -83,237l-7 0c-28,-84 -54,-157 -80,-237l-78 -222 -300 0 320 695 0 365z"/>
  <polygon id="8" class="fil9" points="241,8232 521,8232 521,7172 241,7172 "/>
  <path id="9" class="fil9" d="M756 8232l329 0c307,0 528,-160 528,-535 0,-375 -221,-525 -544,-525l-313 0 0 1060zm280 -225l0 -610 17 0c153,0 273,52 273,300 0,248 -120,310 -273,310l-17 0z"/>
  <path id="10" class="fil9" d="M2249 8251c293,0 492,-205 492,-554 0,-347 -199,-544 -492,-544 -293,0 -492,195 -492,544 0,349 199,554 492,554zm0 -241c-127,0 -205,-121 -205,-313 0,-192 78,-303 205,-303 127,0 205,111 205,303 0,192 -78,313 -205,313z"/>
  <polygon id="11" class="fil9" points="2930,8232 3612,8232 3612,7997 3211,7997 3211,7172 2930,7172 "/>
 </g>
</svg>
