<?xml version="1.0" encoding="UTF-8"?>
<!DOCTYPE svg PUBLIC "-//W3C//DTD SVG 1.1//EN" "http://www.w3.org/Graphics/SVG/1.1/DTD/svg11.dtd">
<!-- Creator: CorelDRAW X7 -->
<svg xmlns="http://www.w3.org/2000/svg" xml:space="preserve" width="84.6666mm" height="84.6666mm" version="1.1" style="shape-rendering:geometricPrecision; text-rendering:geometricPrecision; image-rendering:optimizeQuality; fill-rule:evenodd; clip-rule:evenodd"
viewBox="0 0 8467 8467"
 xmlns:xlink="http://www.w3.org/1999/xlink">
 <defs>
  <style type="text/css">
   <![CDATA[
    .fil4 {fill:none}
    .fil6 {fill:black}
    .fil3 {fill:#0097A8}
    .fil1 {fill:#79D1BF}
    .fil0 {fill:#90F5E1}
    .fil2 {fill:#CFB90F}
    .fil5 {fill:white}
    .fil7 {fill:#0C98A9;fill-rule:nonzero}
    .fil8 {fill:#FEFEFE;fill-rule:nonzero}
   ]]>
  </style>
   <clipPath id="id0">
    <path d="M754 0l7332 0c209,0 381,171 381,381l0 7331c0,210 -172,381 -381,381l-7332 0c-209,0 -380,-171 -380,-381l0 -7331c0,-210 171,-381 380,-381z"/>
   </clipPath>
    <clipPath id="id1">
     <path d="M3347 438l2205 0 0 2893 -2205 0 0 -2893z"/>
    </clipPath>
    <clipPath id="id2">
     <path d="M754 0l7332 0c209,0 381,171 381,381l0 7331c0,210 -172,381 -381,381l-7332 0c-209,0 -380,-171 -380,-381l0 -7331c0,-210 171,-381 380,-381z"/>
    </clipPath>
    <clipPath id="id3">
     <path d="M8053 1677l-2205 0 0 3691c0,1270 988,2300 2205,2300l0 -1094c-668,0 -1235,-535 -1429,-1274 362,265 868,431 1429,431l0 -4054z"/>
    </clipPath>
    <clipPath id="id4">
     <path d="M754 0l7332 0c209,0 381,171 381,381l0 7331c0,210 -172,381 -381,381l-7332 0c-209,0 -380,-171 -380,-381l0 -7331c0,-210 171,-381 380,-381z"/>
    </clipPath>
    <clipPath id="id5">
     <path d="M6968 3439c-333,0 -614,-265 -711,-633 180,132 432,214 711,214 278,0 530,-82 710,-214 -97,368 -378,633 -710,633z"/>
    </clipPath>
    <clipPath id="id6">
     <path d="M754 0l7332 0c209,0 381,171 381,381l0 7331c0,210 -172,381 -381,381l-7332 0c-209,0 -380,-171 -380,-381l0 -7331c0,-210 171,-381 380,-381z"/>
    </clipPath>
 </defs>
 <g id="Layer_x0020_1">
  <metadata id="CorelCorpID_0Corel-Layer"/>
  <rect class="fil0" width="8467" height="8467"/>
  <rect class="fil1" y="381" width="8086" height="8086" rx="374" ry="374"/>
  <g>
  </g>
  <g style="clip-path:url(#id0)">
   <g>
    <rect class="fil2" x="374" y="14" width="8079" height="8079"/>
    <path class="fil3" d="M3347 438l2205 0 0 3692c0,1270 -988,2300 -2205,2300l0 -1525c561,0 1067,165 1429,431 -194,-739 -761,-1274 -1429,-1274l0 -3624z"/>
    <polygon class="fil2" points="3347,438 5552,438 5552,3331 3347,3331 "/>
   </g>
   <g style="clip-path:url(#id1)">
    <g id="_2312983221008">
     <g>
      <g>
       <polygon id="1" class="fil2" points="1805,2504 2429,1880 2429,1880 2577,1732 2725,1880 3201,2356 3677,1880 3825,1732 3973,1880 3973,1880 4449,2356 4925,1880 4925,1880 5073,1732 5221,1880 5697,2356 6173,1880 6321,1732 6469,1880 6469,1880 7093,2504 6945,2652 6321,2028 5845,2504 5845,2504 5697,2652 5549,2504 5549,2504 5073,2028 4597,2504 4597,2504 4449,2652 4301,2504 4301,2504 3825,2028 3349,2504 3349,2504 3201,2652 3053,2504 3053,2504 2577,2028 1953,2652 "/>
       <polygon class="fil2" points="1805,3096 2429,2472 2429,2472 2577,2324 2725,2472 3201,2948 3677,2472 3825,2324 3973,2472 3973,2472 4449,2948 4925,2472 4925,2472 5073,2324 5221,2472 5697,2948 6173,2472 6321,2324 6469,2472 6469,2472 7093,3096 6945,3244 6321,2620 5845,3096 5845,3096 5697,3244 5549,3096 5549,3096 5073,2620 4597,3096 4597,3096 4449,3244 4301,3096 4301,3096 3825,2620 3349,3096 3349,3096 3201,3244 3053,3096 3053,3096 2577,2620 1953,3244 "/>
       <polygon class="fil2" points="1805,3688 2429,3064 2429,3064 2577,2916 2725,3064 3201,3540 3677,3064 3825,2916 3973,3064 3973,3064 4449,3540 4925,3064 4925,3064 5073,2916 5221,3064 5697,3540 6173,3064 6321,2916 6469,3064 6469,3064 7093,3688 6945,3836 6321,3212 5845,3688 5845,3688 5697,3836 5549,3688 5549,3688 5073,3212 4597,3688 4597,3688 4449,3836 4301,3688 4301,3688 3825,3212 3349,3688 3349,3688 3201,3836 3053,3688 3053,3688 2577,3212 1953,3836 "/>
       <polygon class="fil2" points="1805,4280 2429,3656 2429,3656 2577,3508 2725,3656 3201,4132 3677,3656 3825,3508 3973,3656 3973,3656 4449,4132 4925,3656 4925,3656 5073,3508 5221,3656 5697,4132 6173,3656 6321,3508 6469,3656 6469,3656 7093,4280 6945,4428 6321,3804 5845,4280 5845,4280 5697,4428 5549,4280 5549,4280 5073,3804 4597,4280 4597,4280 4449,4428 4301,4280 4301,4280 3825,3804 3349,4280 3349,4280 3201,4428 3053,4280 3053,4280 2577,3804 1953,4428 "/>
      </g>
      <g>
       <polygon class="fil3" points="1805,2208 2429,1584 2429,1584 2577,1436 2725,1584 3201,2060 3677,1584 3825,1436 3973,1584 3973,1584 4449,2060 4925,1584 4925,1584 5073,1436 5221,1584 5697,2060 6173,1584 6321,1436 6469,1584 6469,1584 7093,2208 6945,2356 6321,1732 5845,2208 5845,2208 5697,2356 5549,2208 5549,2208 5073,1732 4597,2208 4597,2208 4449,2356 4301,2208 4301,2208 3825,1732 3349,2208 3349,2208 3201,2356 3053,2208 3053,2208 2577,1732 1953,2356 "/>
       <polygon class="fil3" points="1805,2800 2429,2176 2429,2176 2577,2028 2725,2176 3201,2652 3677,2176 3825,2028 3973,2176 3973,2176 4449,2652 4925,2176 4925,2176 5073,2028 5221,2176 5697,2652 6173,2176 6321,2028 6469,2176 6469,2176 7093,2800 6945,2948 6321,2324 5845,2800 5845,2800 5697,2948 5549,2800 5549,2800 5073,2324 4597,2800 4597,2800 4449,2948 4301,2800 4301,2800 3825,2324 3349,2800 3349,2800 3201,2948 3053,2800 3053,2800 2577,2324 1953,2948 "/>
       <polygon class="fil3" points="1805,3392 2429,2768 2429,2768 2577,2620 2725,2768 3201,3244 3677,2768 3825,2620 3973,2768 3973,2768 4449,3244 4925,2768 4925,2768 5073,2620 5221,2768 5697,3244 6173,2768 6321,2620 6469,2768 6469,2768 7093,3392 6945,3540 6321,2916 5845,3392 5845,3392 5697,3540 5549,3392 5549,3392 5073,2916 4597,3392 4597,3392 4449,3540 4301,3392 4301,3392 3825,2916 3349,3392 3349,3392 3201,3540 3053,3392 3053,3392 2577,2916 1953,3540 "/>
       <polygon class="fil3" points="1805,3984 2429,3360 2429,3360 2577,3212 2725,3360 3201,3836 3677,3360 3825,3212 3973,3360 3973,3360 4449,3836 4925,3360 4925,3360 5073,3212 5221,3360 5697,3836 6173,3360 6321,3212 6469,3360 6469,3360 7093,3984 6945,4132 6321,3508 5845,3984 5845,3984 5697,4132 5549,3984 5549,3984 5073,3508 4597,3984 4597,3984 4449,4132 4301,3984 4301,3984 3825,3508 3349,3984 3349,3984 3201,4132 3053,3984 3053,3984 2577,3508 1953,4132 "/>
      </g>
     </g>
     <g>
      <g>
       <polygon class="fil2" points="1805,137 2429,-487 2429,-487 2577,-635 2725,-487 3201,-11 3677,-487 3825,-635 3973,-487 3973,-487 4449,-11 4925,-487 4925,-487 5073,-635 5221,-487 5697,-11 6173,-487 6321,-635 6469,-487 6469,-487 7093,137 6945,285 6321,-339 5845,137 5845,137 5697,285 5549,137 5549,137 5073,-339 4597,137 4597,137 4449,285 4301,137 4301,137 3825,-339 3349,137 3349,137 3201,285 3053,137 3053,137 2577,-339 1953,285 "/>
       <polygon class="fil2" points="1805,729 2429,105 2429,105 2577,-43 2725,105 3201,581 3677,105 3825,-43 3973,105 3973,105 4449,581 4925,105 4925,105 5073,-43 5221,105 5697,581 6173,105 6321,-43 6469,105 6469,105 7093,729 6945,877 6321,253 5845,729 5845,729 5697,877 5549,729 5549,729 5073,253 4597,729 4597,729 4449,877 4301,729 4301,729 3825,253 3349,729 3349,729 3201,877 3053,729 3053,729 2577,253 1953,877 "/>
       <polygon class="fil2" points="1805,1321 2429,697 2429,697 2577,549 2725,697 3201,1173 3677,697 3825,549 3973,697 3973,697 4449,1173 4925,697 4925,697 5073,549 5221,697 5697,1173 6173,697 6321,549 6469,697 6469,697 7093,1321 6945,1469 6321,845 5845,1321 5845,1321 5697,1469 5549,1321 5549,1321 5073,845 4597,1321 4597,1321 4449,1469 4301,1321 4301,1321 3825,845 3349,1321 3349,1321 3201,1469 3053,1321 3053,1321 2577,845 1953,1469 "/>
       <polygon class="fil2" points="1805,1912 2429,1288 2429,1288 2577,1140 2725,1288 3201,1764 3677,1288 3825,1140 3973,1288 3973,1288 4449,1764 4925,1288 4925,1288 5073,1140 5221,1288 5697,1764 6173,1288 6321,1140 6469,1288 6469,1288 7093,1912 6945,2060 6321,1436 5845,1912 5845,1912 5697,2060 5549,1912 5549,1912 5073,1436 4597,1912 4597,1912 4449,2060 4301,1912 4301,1912 3825,1436 3349,1912 3349,1912 3201,2060 3053,1912 3053,1912 2577,1436 1953,2060 "/>
      </g>
      <g>
       <polygon class="fil3" points="1805,-159 2429,-783 2429,-783 2577,-931 2725,-783 3201,-307 3677,-783 3825,-931 3973,-783 3973,-783 4449,-307 4925,-783 4925,-783 5073,-931 5221,-783 5697,-307 6173,-783 6321,-931 6469,-783 6469,-783 7093,-159 6945,-11 6321,-635 5845,-159 5845,-159 5697,-11 5549,-159 5549,-159 5073,-635 4597,-159 4597,-159 4449,-11 4301,-159 4301,-159 3825,-635 3349,-159 3349,-159 3201,-11 3053,-159 3053,-159 2577,-635 1953,-11 "/>
       <polygon class="fil3" points="1805,433 2429,-191 2429,-191 2577,-339 2725,-191 3201,285 3677,-191 3825,-339 3973,-191 3973,-191 4449,285 4925,-191 4925,-191 5073,-339 5221,-191 5697,285 6173,-191 6321,-339 6469,-191 6469,-191 7093,433 6945,581 6321,-43 5845,433 5845,433 5697,581 5549,433 5549,433 5073,-43 4597,433 4597,433 4449,581 4301,433 4301,433 3825,-43 3349,433 3349,433 3201,581 3053,433 3053,433 2577,-43 1953,581 "/>
       <polygon class="fil3" points="1805,1025 2429,401 2429,401 2577,253 2725,401 3201,877 3677,401 3825,253 3973,401 3973,401 4449,877 4925,401 4925,401 5073,253 5221,401 5697,877 6173,401 6321,253 6469,401 6469,401 7093,1025 6945,1173 6321,549 5845,1025 5845,1025 5697,1173 5549,1025 5549,1025 5073,549 4597,1025 4597,1025 4449,1173 4301,1025 4301,1025 3825,549 3349,1025 3349,1025 3201,1173 3053,1025 3053,1025 2577,549 1953,1173 "/>
       <polygon class="fil3" points="1805,1616 2429,992 2429,992 2577,845 2725,992 3201,1469 3677,992 3825,845 3973,992 3973,992 4449,1469 4925,992 4925,992 5073,845 5221,992 5697,1469 6173,992 6321,845 6469,992 6469,992 7093,1616 6945,1764 6321,1140 5845,1616 5845,1616 5697,1764 5549,1616 5549,1616 5073,1140 4597,1616 4597,1616 4449,1764 4301,1616 4301,1616 3825,1140 3349,1616 3349,1616 3201,1764 3053,1616 3053,1616 2577,1140 1953,1764 "/>
      </g>
     </g>
    </g>
   </g>
   <g style="clip-path:url(#id2)">
    <polygon class="fil4" points="3347,438 5552,438 5552,3331 3347,3331 "/>
    <path class="fil2" d="M8053 1677l-2205 0 0 3691c0,1270 988,2300 2205,2300l0 -1094c-668,0 -1235,-535 -1429,-1274 362,265 868,431 1429,431l0 -4054z"/>
   </g>
   <g style="clip-path:url(#id3)">
    <g id="_2312983214544">
     <g>
      <rect class="fil3" x="4577" y="4188" width="369" height="3974"/>
      <rect class="fil3" x="5316" y="4188" width="369" height="3974"/>
      <rect class="fil3" x="6055" y="4188" width="369" height="3974"/>
      <rect class="fil3" x="6793" y="4188" width="369" height="3974"/>
      <rect class="fil3" x="7532" y="4188" width="369" height="3974"/>
      <rect class="fil3" x="8271" y="4188" width="369" height="3974"/>
      <rect class="fil3" x="9009" y="4188" width="369" height="3974"/>
     </g>
     <rect class="fil2" x="9379" y="4188" width="369" height="3974"/>
     <g>
      <rect class="fil5" x="4208" y="4188" width="369" height="3974"/>
      <rect class="fil5" x="4946" y="4188" width="369" height="3974"/>
      <rect class="fil5" x="5685" y="4188" width="369" height="3974"/>
      <rect class="fil5" x="6424" y="4188" width="369" height="3974"/>
      <rect class="fil5" x="7163" y="4188" width="369" height="3974"/>
      <rect class="fil5" x="7901" y="4188" width="369" height="3974"/>
      <rect class="fil5" x="8640" y="4188" width="369" height="3974"/>
      <rect class="fil5" x="9748" y="4188" width="369" height="3974"/>
     </g>
    </g>
   </g>
   <g style="clip-path:url(#id4)">
    <path class="fil4" d="M8053 1677l-2205 0 0 3691c0,1270 988,2300 2205,2300l0 -1094c-668,0 -1235,-535 -1429,-1274 362,265 868,431 1429,431l0 -4054z"/>
    <rect class="fil3" x="5848" y="1677" width="2205" height="2892"/>
    <path class="fil2" d="M6968 3439c-333,0 -614,-265 -711,-633 180,132 432,214 711,214 278,0 530,-82 710,-214 -97,368 -378,633 -710,633z"/>
   </g>
   <g style="clip-path:url(#id5)">
    <g id="_2312983191344">
     <g>
      <g>
       <circle class="fil3" cx="6424" cy="2426" r="62"/>
       <circle class="fil3" cx="6786" cy="2426" r="62"/>
       <circle class="fil3" cx="6605" cy="2426" r="62"/>
       <circle class="fil3" cx="6968" cy="2426" r="62"/>
       <circle class="fil3" cx="7149" cy="2426" r="62"/>
       <circle class="fil3" cx="7330" cy="2426" r="62"/>
       <circle class="fil3" cx="7511" cy="2426" r="62"/>
      </g>
      <g>
       <circle class="fil3" cx="6424" cy="3645" r="62"/>
       <circle class="fil3" cx="6786" cy="3645" r="62"/>
       <circle class="fil3" cx="6605" cy="3645" r="62"/>
       <circle class="fil3" cx="6968" cy="3645" r="62"/>
       <circle class="fil3" cx="7149" cy="3645" r="62"/>
       <circle class="fil3" cx="7330" cy="3645" r="62"/>
       <circle class="fil3" cx="7511" cy="3645" r="62"/>
      </g>
      <g>
       <circle class="fil3" cx="6424" cy="3471" r="62"/>
       <circle class="fil3" cx="6786" cy="3471" r="62"/>
       <circle class="fil3" cx="6605" cy="3471" r="62"/>
       <circle class="fil3" cx="6968" cy="3471" r="62"/>
       <circle class="fil3" cx="7149" cy="3471" r="62"/>
       <circle class="fil3" cx="7330" cy="3471" r="62"/>
       <circle class="fil3" cx="7511" cy="3471" r="62"/>
      </g>
      <g>
       <circle class="fil3" cx="6424" cy="3297" r="62"/>
       <circle class="fil3" cx="6786" cy="3297" r="62"/>
       <circle class="fil3" cx="6605" cy="3297" r="62"/>
       <circle class="fil3" cx="6968" cy="3297" r="62"/>
       <circle class="fil3" cx="7149" cy="3297" r="62"/>
       <circle class="fil3" cx="7330" cy="3297" r="62"/>
       <circle class="fil3" cx="7511" cy="3297" r="62"/>
      </g>
      <g>
       <circle class="fil3" cx="6424" cy="3123" r="62"/>
       <circle class="fil3" cx="6786" cy="3123" r="62"/>
       <circle class="fil3" cx="6605" cy="3123" r="62"/>
       <circle class="fil3" cx="6968" cy="3123" r="62"/>
       <circle class="fil3" cx="7149" cy="3123" r="62"/>
       <circle class="fil3" cx="7330" cy="3123" r="62"/>
       <circle class="fil3" cx="7511" cy="3123" r="62"/>
      </g>
      <g>
       <circle class="fil3" cx="6424" cy="2949" r="62"/>
       <circle class="fil3" cx="6786" cy="2949" r="62"/>
       <circle class="fil3" cx="6605" cy="2949" r="62"/>
       <circle class="fil3" cx="6968" cy="2949" r="62"/>
       <circle class="fil3" cx="7149" cy="2949" r="62"/>
       <circle class="fil3" cx="7330" cy="2949" r="62"/>
       <circle class="fil3" cx="7511" cy="2949" r="62"/>
      </g>
      <g>
       <circle class="fil3" cx="6424" cy="2775" r="62"/>
       <circle class="fil3" cx="6786" cy="2775" r="62"/>
       <circle class="fil3" cx="6605" cy="2775" r="62"/>
       <circle class="fil3" cx="6968" cy="2775" r="62"/>
       <circle class="fil3" cx="7149" cy="2775" r="62"/>
       <circle class="fil3" cx="7330" cy="2775" r="62"/>
       <circle class="fil3" cx="7511" cy="2775" r="62"/>
      </g>
      <g>
       <circle class="fil3" cx="6424" cy="2600" r="62"/>
       <circle class="fil3" cx="6786" cy="2600" r="62"/>
       <circle class="fil3" cx="6605" cy="2600" r="62"/>
       <circle class="fil3" cx="6968" cy="2600" r="62"/>
       <circle class="fil3" cx="7149" cy="2600" r="62"/>
       <circle class="fil3" cx="7330" cy="2600" r="62"/>
       <circle class="fil3" cx="7511" cy="2600" r="62"/>
      </g>
      <g>
       <circle class="fil3" cx="6424" cy="3819" r="62"/>
       <circle class="fil3" cx="6786" cy="3819" r="62"/>
       <circle class="fil3" cx="6605" cy="3819" r="62"/>
       <circle class="fil3" cx="6968" cy="3819" r="62"/>
       <circle class="fil3" cx="7149" cy="3819" r="62"/>
       <circle class="fil3" cx="7330" cy="3819" r="62"/>
       <circle class="fil3" cx="7511" cy="3819" r="62"/>
      </g>
     </g>
    </g>
   </g>
   <g style="clip-path:url(#id6)">
    <path class="fil4" d="M6968 3439c-333,0 -614,-265 -711,-633 180,132 432,214 711,214 278,0 530,-82 710,-214 -97,368 -378,633 -710,633z"/>
    <path class="fil5" d="M4432 1568c333,0 614,266 711,633 -180,-132 -432,-214 -711,-214 -278,0 -530,82 -710,214 97,-367 378,-633 710,-633z"/>
   </g>
  </g>
  <path class="fil4" d="M754 0l7332 0c209,0 381,171 381,381l0 7331c0,210 -172,381 -381,381l-7332 0c-209,0 -380,-171 -380,-381l0 -7331c0,-210 171,-381 380,-381z"/>
  <g>
   <g id="_2312983188560">
    <path class="fil6" d="M0 7899l0 -547c0,-31 25,-56 56,-56l280 0c31,0 56,25 56,56l0 580c0,47 2,158 47,189 16,10 38,13 57,13 19,0 41,-3 58,-14 47,-31 49,-140 49,-188l0 -580c0,-31 25,-56 56,-56l270 0c31,0 56,25 56,56l0 547c0,339 -119,587 -489,587 -370,0 -496,-246 -496,-587zm1102 512l0 -1059c0,-31 25,-56 56,-56l312 0c376,0 601,194 601,580 0,373 -213,591 -584,591l-329 0c-31,0 -56,-25 -56,-56zm1646 -280l0 -52 -101 0c-30,0 -55,-25 -55,-56l0 -228c0,-31 25,-56 55,-56l405 0c30,0 55,25 55,56l0 505c0,17 -7,32 -20,43 -107,89 -261,143 -400,143 -357,0 -584,-240 -584,-597 0,-351 235,-613 590,-613 144,0 277,55 378,157 21,21 22,54 3,76l-154 173c-20,23 -55,25 -78,5 -48,-42 -81,-58 -146,-58 -139,0 -195,127 -195,251 0,156 55,254 221,254 7,0 17,-1 26,-3zm845 -441l205 0 0 -338c0,-31 25,-56 56,-56l280 0c31,0 56,25 56,56l0 1059c0,31 -25,56 -56,56l-280 0c-31,0 -56,-25 -56,-56l0 -365 -205 0 0 365c0,31 -25,56 -56,56l-280 0c-31,0 -56,-25 -56,-56l0 -1059c0,-31 25,-56 56,-56l280 0c31,0 56,25 56,56l0 338zm1222 796c-358,0 -548,-269 -548,-610 0,-342 191,-600 548,-600 357,0 548,258 548,600 0,341 -190,610 -548,610zm995 -842c13,16 103,48 121,55l129 51c154,60 242,173 242,342 0,36 -5,73 -16,108 -61,198 -259,286 -454,286 -157,0 -320,-60 -438,-166 -22,-20 -24,-54 -5,-77l159 -192c20,-23 54,-27 78,-8 56,45 140,91 213,91 12,0 65,1 65,-20 0,0 0,0 0,0 -8,-14 -92,-44 -109,-51l-131 -55c-149,-60 -249,-182 -249,-347 0,-44 8,-88 25,-129 68,-172 249,-256 425,-256 144,0 289,57 391,158 21,20 22,52 5,74l-140 176c-19,24 -52,28 -76,11 -57,-40 -109,-66 -180,-66 -8,0 -53,1 -55,15zm942 46l205 0 0 -338c0,-31 25,-56 56,-56l280 0c31,0 56,25 56,56l0 1059c0,31 -25,56 -56,56l-280 0c-31,0 -56,-25 -56,-56l0 -365 -205 0 0 365c0,31 -25,56 -56,56l-280 0c-31,0 -56,-25 -56,-56l0 -1059c0,-31 25,-56 56,-56l280 0c31,0 56,25 56,56l0 338zm-5258 439c139,-14 178,-103 178,-253 0,-154 -41,-231 -178,-242l0 495zm3321 5c125,0 150,-163 150,-258 0,-97 -24,-247 -150,-247 -126,0 -149,150 -149,247 0,95 24,258 149,258z"/>
   </g>
   <path class="fil7" d="M56 7899c0,362 143,532 440,532 296,0 433,-170 433,-532l0 -547 -270 0 0 580c0,189 -52,257 -163,257 -111,0 -160,-68 -160,-257l0 -580 -280 0 0 547z"/>
   <path id="1" class="fil7" d="M1158 8411l329 0c306,0 528,-160 528,-535 0,-375 -222,-524 -545,-524l-312 0 0 1059zm280 -225l0 -610 16 0c153,0 274,53 274,300 0,248 -121,310 -274,310l-16 0z"/>
   <path id="2" class="fil7" d="M2158 7889c0,362 238,542 529,542 149,0 286,-66 365,-131l0 -505 -405 0 0 228 157 0 0 147c-20,13 -52,19 -82,19 -189,0 -277,-110 -277,-309 0,-193 108,-307 251,-307 85,0 131,26 183,72l153 -173c-75,-75 -189,-140 -339,-140 -290,0 -535,202 -535,557z"/>
   <polygon id="3" class="fil7" points="3257,8411 3537,8411 3537,7991 3854,7991 3854,8411 4134,8411 4134,7352 3854,7352 3854,7746 3537,7746 3537,7352 3257,7352 "/>
   <path id="4" class="fil7" d="M4815 8431c294,0 493,-206 493,-555 0,-347 -199,-544 -493,-544 -293,0 -492,196 -492,544 0,349 199,555 492,555zm0 -242c-127,0 -205,-120 -205,-313 0,-192 78,-303 205,-303 127,0 206,111 206,303 0,193 -79,313 -206,313z"/>
   <path id="5" class="fil7" d="M5432 8279c114,103 267,152 400,152 265,0 415,-160 415,-339 0,-147 -75,-238 -207,-291l-129 -50c-96,-38 -157,-56 -157,-106 0,-47 43,-72 111,-72 78,0 140,26 212,77l140 -176c-98,-96 -231,-142 -352,-142 -231,0 -394,148 -394,329 0,153 99,250 213,295l132 56c90,36 144,52 144,102 0,48 -36,75 -121,75 -78,0 -173,-42 -248,-102l-159 192z"/>
   <polygon id="6" class="fil7" points="6416,8411 6696,8411 6696,7991 7013,7991 7013,8411 7293,8411 7293,7352 7013,7352 7013,7746 6696,7746 6696,7352 6416,7352 "/>
   <g id="_2312983189104">
    <path class="fil6" d="M136 7753l0 -548c0,-32 27,-59 60,-59l280 0c33,0 59,27 59,59l0 580c0,46 2,156 46,186 16,11 37,13 55,13 18,0 40,-3 56,-13 45,-30 48,-139 48,-186l0 -580c0,-32 26,-59 59,-59l270 0c33,0 60,27 60,59l0 548c0,341 -121,591 -493,591 -372,0 -500,-248 -500,-591zm1102 512l0 -1060c0,-32 27,-59 60,-59l313 0c377,0 603,196 603,584 0,375 -214,594 -587,594l-329 0c-33,0 -60,-27 -60,-59zm1647 -283l0 -46 -97 0c-33,0 -60,-27 -60,-59l0 -228c0,-33 27,-60 60,-60l404 0c32,0 59,27 59,60l0 505c0,18 -7,34 -21,45 -108,91 -263,145 -403,145 -359,0 -588,-242 -588,-601 0,-353 237,-617 594,-617 145,0 279,56 381,158 22,22 24,58 3,81l-154 173c-21,24 -59,27 -83,5 -47,-41 -80,-57 -144,-57 -137,0 -191,126 -191,247 0,155 53,251 218,251 5,0 13,-1 22,-2zm852 -442l197 0 0 -335c0,-32 27,-59 60,-59l280 0c33,0 59,27 59,59l0 1060c0,32 -26,59 -59,59l-280 0c-33,0 -60,-27 -60,-59l0 -361 -197 0 0 361c0,32 -27,59 -59,59l-281 0c-32,0 -59,-27 -59,-59l0 -1060c0,-32 27,-59 59,-59l281 0c32,0 59,27 59,59l0 335zm1219 804c-361,0 -552,-271 -552,-614 0,-345 192,-604 552,-604 358,0 551,260 551,604 0,343 -191,614 -551,614zm1084 -375c-13,-14 -90,-42 -106,-49 0,0 0,0 -1,0l-131 -55c-150,-60 -251,-184 -251,-350 0,-45 9,-89 26,-131 68,-173 250,-258 428,-258 145,0 291,58 394,159 22,22 24,56 5,79l-140 176c-20,25 -55,30 -81,12 -56,-40 -108,-66 -178,-66 -10,0 -44,2 -51,11 0,0 0,0 0,0 15,15 101,45 119,52l128 51c156,61 245,175 245,345 0,37 -5,75 -16,110 -62,200 -261,289 -457,289 -159,0 -323,-61 -441,-167 -24,-22 -26,-58 -6,-82l160 -193c20,-24 57,-28 83,-8 54,44 139,90 210,90 11,0 53,-2 61,-11 0,-1 0,-3 0,-4zm856 -429l197 0 0 -335c0,-32 27,-59 60,-59l280 0c33,0 60,27 60,59l0 1060c0,32 -27,59 -60,59l-280 0c-33,0 -60,-27 -60,-59l0 -361 -197 0 0 361c0,32 -27,59 -59,59l-281 0c-32,0 -59,-27 -59,-59l0 -1060c0,-32 27,-59 59,-59l281 0c32,0 59,27 59,59l0 335zm-5259 438c134,-14 172,-102 172,-248 0,-151 -40,-226 -172,-239l0 487zm3319 6c122,0 146,-162 146,-254 0,-95 -23,-244 -146,-244 -124,0 -147,149 -147,244 0,92 24,254 147,254z"/>
   </g>
   <path class="fil8" d="M196 7753c0,362 143,531 440,531 297,0 433,-169 433,-531l0 -548 -270 0 0 580c0,190 -52,258 -163,258 -111,0 -160,-68 -160,-258l0 -580 -280 0 0 548z"/>
   <path id="1" class="fil8" d="M1298 8265l329 0c306,0 528,-160 528,-535 0,-375 -222,-525 -544,-525l-313 0 0 1060zm280 -225l0 -610 16 0c154,0 274,52 274,300 0,248 -120,310 -274,310l-16 0z"/>
   <path id="2" class="fil8" d="M2299 7743c0,362 238,541 528,541 150,0 287,-65 365,-130l0 -505 -404 0 0 228 156 0 0 146c-20,14 -52,20 -81,20 -190,0 -278,-111 -278,-310 0,-192 108,-306 251,-306 85,0 131,26 183,72l153 -173c-75,-75 -189,-140 -339,-140 -290,0 -534,202 -534,557z"/>
   <polygon id="3" class="fil8" points="3397,8265 3678,8265 3678,7844 3994,7844 3994,8265 4274,8265 4274,7205 3994,7205 3994,7600 3678,7600 3678,7205 3397,7205 "/>
   <path id="4" class="fil8" d="M4956 8284c293,0 492,-205 492,-554 0,-347 -199,-544 -492,-544 -294,0 -493,195 -493,544 0,349 199,554 493,554zm0 -241c-128,0 -206,-121 -206,-313 0,-192 78,-303 206,-303 127,0 205,111 205,303 0,192 -78,313 -205,313z"/>
   <path id="5" class="fil8" d="M5572 8133c114,102 267,151 401,151 264,0 414,-159 414,-339 0,-146 -75,-238 -207,-290l-129 -50c-96,-38 -157,-56 -157,-106 0,-48 43,-72 111,-72 79,0 140,26 212,76l140 -176c-97,-96 -231,-141 -352,-141 -231,0 -394,148 -394,329 0,153 99,249 213,295l132 55c90,36 144,53 144,103 0,47 -36,75 -121,75 -78,0 -173,-42 -248,-103l-159 193z"/>
   <polygon id="6" class="fil8" points="6556,8265 6837,8265 6837,7844 7153,7844 7153,8265 7433,8265 7433,7205 7153,7205 7153,7600 6837,7600 6837,7205 6556,7205 "/>
  </g>
 </g>
</svg>
