<?xml version="1.0" encoding="UTF-8"?>
<!DOCTYPE svg PUBLIC "-//W3C//DTD SVG 1.1//EN" "http://www.w3.org/Graphics/SVG/1.1/DTD/svg11.dtd">
<!-- Creator: CorelDRAW X7 -->
<svg xmlns="http://www.w3.org/2000/svg" xml:space="preserve" width="84.6666mm" height="84.6666mm" version="1.1" style="shape-rendering:geometricPrecision; text-rendering:geometricPrecision; image-rendering:optimizeQuality; fill-rule:evenodd; clip-rule:evenodd"
viewBox="0 0 8467 8467"
 xmlns:xlink="http://www.w3.org/1999/xlink">
 <defs>
  <style type="text/css">
   <![CDATA[
    .fil4 {fill:none}
    .fil3 {fill:black}
    .fil1 {fill:#79D1BF}
    .fil0 {fill:#90F5E1}
    .fil2 {fill:#FFCC00}
    .fil6 {fill:#FEFEFE;fill-rule:nonzero}
    .fil5 {fill:black;fill-rule:nonzero}
   ]]>
  </style>
   <clipPath id="id0">
    <path d="M754 0l7332 0c209,0 381,171 381,381l0 7331c0,210 -172,381 -381,381l-7332 0c-209,0 -380,-171 -380,-381l0 -7331c0,-210 171,-381 380,-381z"/>
   </clipPath>
 </defs>
 <g id="Layer_x0020_1">
  <metadata id="CorelCorpID_0Corel-Layer"/>
  <rect class="fil0" width="8467" height="8467"/>
  <rect class="fil1" y="381" width="8086" height="8086" rx="374" ry="374"/>
  <g>
  </g>
  <g style="clip-path:url(#id0)">
   <g>
    <g id="_2277436323056">
     <rect class="fil2" x="374" width="8093" height="8093"/>
     <rect class="fil3" x="4379" width="81.5724" height="986.79"/>
     <path class="fil3" d="M4421 987l0 354 0 532 0 532 0 533 0 532 0 532 0 532 0 532 0 533 0 532 0 532 0 443c197,0 390,-18 577,-54l0 -389 576 0 0 -324 468 0 0 303c143,-90 279,-191 405,-303l-405 0 0 -431 467 0 0 142 224 0c51,-58 100,-119 146,-181l0 -160 111 0c71,-109 135,-223 192,-341l-303 0 0 -342 370 0 0 -43 85 0c27,-83 51,-169 71,-256l-156 0 0 -42 -370 0 0 -342 370 0 0 128 202 0c12,-84 20,-169 25,-256l-227 0 0 -213 -370 0 0 -341 370 0 0 -214 173 0c-17,-87 -38,-172 -63,-256l-110 0 0 128 -370 0 0 -341 370 0 0 -43 24 0c-8,-20 -16,-40 -24,-59 -34,-82 -71,-162 -112,-240l-258 0 0 -341 51 0c-17,-24 -34,-48 -51,-71l0 71 -370 0 0 -266 -467 0 0 -431 214 0c-69,-52 -141,-101 -214,-147l0 147 -468 0 0 275 -576 0 0 -532 -577 0 -577 0 0 532 -577 0 0 -275 -467 0 0 431 467 0 0 376 577 0 0 -532 577 0 577 0 0 532 576 0 0 -376 468 0 0 431 467 0 0 176 370 0 0 342 -370 0 0 -87 -467 0 0 -431 -468 0 0 431 468 0 0 431 -468 0 0 -384 -576 0 0 -533 -577 0 -577 0 0 533 -577 0 0 384 -467 0 0 431 -467 0 0 -92 -370 0 0 341 370 0 0 182 467 0 0 -431 467 0 0 -283 577 0 0 -532 577 0 577 0 0 532 576 0 0 283 468 0 0 431 -468 0 0 -182 -576 0 0 -532 -577 0 -577 0 0 532 -577 0 0 182 -467 0 0 431 467 0 0 -81 577 0 0 -532 577 0 577 0 0 532 576 0 0 81 468 0 0 431 467 0 0 322 370 0 0 341 -370 0 0 -232 -467 0 0 -431 -468 0 0 20 -576 0 0 -532 -577 0 -577 0 0 532 -577 0 0 -20 -467 0 0 431 467 0 0 122 577 0 0 -533 577 0 577 0 0 533 576 0 0 -122 468 0 0 431 -468 0 0 223 -576 0 0 -532 -577 0 -577 0 0 532 -577 0 0 -223 -467 0 0 431 -405 0c-21,-18 -42,-37 -62,-56 -79,-74 -154,-151 -225,-233l225 0 0 -142 467 0 0 -431 -467 0 0 232 -370 0 0 160c-39,-52 -76,-105 -111,-160l111 0 0 -341 -303 0c-24,-50 -46,-100 -67,-151 -32,-76 -60,-154 -86,-234l86 0 0 43 370 0 0 -341 -370 0 0 42 -156 0c-19,-84 -34,-169 -47,-256l203 0 0 -128 370 0 0 -341 -370 0 0 213 -227 0c-3,-56 -5,-112 -5,-169 0,-29 0,-58 1,-87l231 0 0 -256 -213 0c10,-86 23,-172 40,-256l173 0 0 214 370 0 0 -342 -370 0 0 -128 -111 0c26,-87 55,-172 87,-256l24 0 0 43 370 0 0 -342 -258 0c61,-118 131,-232 207,-341l51 0 0 -71c70,-95 146,-185 226,-270l144 0 0 -144c80,-75 165,-146 253,-212l214 0 0 -147c148,-93 304,-173 467,-239l0 129 577 0 0 -300c187,-36 380,-54 577,-54zm2828 2716l0 256 230 0c-2,-86 -8,-171 -17,-256l-213 0zm-370 982l0 341 -370 0 0 -341 370 0zm0 -683l0 341 -370 0 0 272 -467 0 0 -431 467 0 0 -182 370 0zm0 -683l0 342 -370 0 0 92 -467 0 0 -431 467 0 0 -3 370 0zm-370 -1509l0 144 144 0c-47,-50 -95,-98 -144,-144zm-935 4960l0 111c83,-33 164,-70 242,-111l-242 0zm-576 -107l-577 0 -577 0 0 389c-200,-38 -393,-96 -577,-171l0 -111 -241 0c-78,-39 -153,-82 -226,-128l0 -303 467 0 0 324 577 0 0 -532 577 0 577 0 0 532zm0 -5622l0 300 576 0 0 -129c-184,-75 -376,-133 -576,-171zm-3035 4327l370 0 0 -322 467 0 0 -431 -467 0 0 -272 -370 0 0 342 370 0 0 341 -370 0 0 342zm0 -2049l370 0 0 3 467 0 0 -431 -467 0 0 87 -370 0 0 341zm0 -683l370 0 0 -176 467 0 0 -431 -467 0 0 266 -370 0 0 341zm837 255l467 0 0 -431 -467 0 0 431z"/>
    </g>
   </g>
  </g>
  <path class="fil4" d="M754 0l7332 0c209,0 381,171 381,381l0 7331c0,210 -172,381 -381,381l-7332 0c-209,0 -380,-171 -380,-381l0 -7331c0,-210 171,-381 380,-381z"/>
  <g>
   <g id="_2277436324112">
    <path class="fil3" d="M3904 7328c9,-19 28,-32 51,-32l684 0c31,0 56,25 56,56l0 234c0,31 -25,56 -56,56l-348 0 0 55 290 0c30,0 55,25 55,56l0 234c0,31 -25,56 -55,56l-290 0 0 78 365 0c30,0 55,25 55,55l0 235c0,31 -25,56 -55,56l-701 0c-31,0 -56,-25 -56,-56l0 -1017 -305 1033c-7,24 -28,40 -53,40l-339 0c-25,0 -47,-16 -54,-40l-313 -1060c-5,-17 -2,-34 9,-49 11,-14 27,-22 45,-22l296 0c26,0 48,17 55,43l110 461c10,39 19,78 28,118 9,-39 18,-78 27,-116l108 -463c6,-26 28,-43 54,-43l287 0c18,0 33,8 44,22 3,3 5,7 6,10zm-2833 0c9,-19 28,-32 51,-32l684 0c31,0 56,25 56,56l0 234c0,31 -25,56 -56,56l-348 0 0 55 290 0c30,0 55,25 55,56l0 234c0,31 -25,56 -55,56l-290 0 0 78 365 0c30,0 55,25 55,55l0 235c0,31 -25,56 -55,56l-701 0c-31,0 -56,-25 -56,-56l0 -1017 -305 1033c-7,24 -28,40 -53,40l-339 0c-25,0 -47,-16 -54,-40l-313 -1060c-5,-17 -2,-34 9,-49 11,-14 27,-22 45,-22l296 0c26,0 48,17 55,43l110 461c10,39 19,78 28,118 9,-39 18,-78 27,-116l108 -463c6,-26 28,-43 54,-43l287 0c18,0 33,8 44,22 3,3 5,7 6,10zm1311 783l-18 0 0 300c0,31 -25,56 -56,56l-280 0c-31,0 -56,-25 -56,-56l0 -1059c0,-31 25,-56 56,-56l401 0c263,0 480,104 480,398 0,134 -50,249 -153,325l204 365c10,18 10,38 0,55 -11,18 -28,28 -48,28l-313 0c-22,0 -40,-12 -50,-31l-167 -325zm-18 -482l0 149 46 0c62,0 113,-13 113,-84 0,-13 -1,-31 -10,-42 -19,-22 -78,-23 -103,-23l-46 0z"/>
   </g>
   <path class="fil5" d="M369 8411l339 0 313 -1059 -287 0 -108 462c-27,113 -49,222 -78,336l-6 0c-30,-114 -49,-223 -79,-336l-111 -462 -296 0 313 1059z"/>
   <polygon id="1" class="fil5" points="1122,8411 1823,8411 1823,8176 1402,8176 1402,7987 1748,7987 1748,7753 1402,7753 1402,7586 1806,7586 1806,7352 1122,7352 "/>
   <path id="2" class="fil5" d="M2308 7573l102 0c110,0 169,30 169,121 0,91 -59,140 -169,140l-102 0 0 -261zm604 838l-230 -411c102,-55 171,-155 171,-306 0,-264 -196,-342 -424,-342l-401 0 0 1059 280 0 0 -355 108 0 183 355 313 0z"/>
   <path id="3" class="fil5" d="M3202 8411l339 0 313 -1059 -287 0 -108 462c-27,113 -49,222 -78,336l-6 0c-30,-114 -49,-223 -79,-336l-111 -462 -296 0 313 1059z"/>
   <polygon id="4" class="fil5" points="3955,8411 4656,8411 4656,8176 4235,8176 4235,7987 4581,7987 4581,7753 4235,7753 4235,7586 4639,7586 4639,7352 3955,7352 "/>
   <g id="_2277436321840">
    <path class="fil3" d="M4044 7174c11,-17 30,-28 51,-28l685 0c32,0 59,27 59,59l0 235c0,33 -27,59 -59,59l-345 0 0 48 286 0c33,0 59,27 59,59l0 235c0,33 -26,59 -59,59l-286 0 0 71 361 0c33,0 59,26 59,59l0 235c0,32 -26,59 -59,59l-701 0c-33,0 -59,-27 -59,-59l0 -992 -298 1009c-8,25 -30,42 -57,42l-339 0c-27,0 -49,-17 -57,-42l-237 -801c3,21 4,43 4,67 0,134 -48,249 -151,326l203 362c10,19 10,40 -1,59 -11,18 -30,29 -51,29l-313 0c-23,0 -43,-12 -53,-32l-166 -323 -12 0 0 296c0,32 -27,59 -59,59l-281 0c-32,0 -59,-27 -59,-59l0 -1060c0,-32 27,-59 59,-59l401 0c196,0 366,57 441,206l-38 -130c-5,-19 -2,-37 9,-52 12,-16 29,-24 48,-24l297 0c27,0 51,18 57,45l111 462c9,34 17,67 24,101 8,-33 16,-66 24,-99l107 -463c7,-27 30,-46 58,-46l287 0c19,0 36,8 47,24 2,1 3,3 3,4zm-2833 0c11,-17 30,-28 51,-28l685 0c32,0 59,27 59,59l0 235c0,33 -27,59 -59,59l-345 0 0 48 286 0c33,0 59,27 59,59l0 235c0,33 -26,59 -59,59l-286 0 0 71 361 0c33,0 59,26 59,59l0 235c0,32 -26,59 -59,59l-701 0c-33,0 -59,-27 -59,-59l0 -992 -298 1009c-8,25 -30,42 -57,42l-339 0c-27,0 -49,-17 -57,-42l-313 -1060c-5,-19 -2,-37 9,-52 12,-16 29,-24 48,-24l297 0c27,0 51,18 57,45l111 462c9,34 17,67 24,101 8,-33 16,-66 24,-99l107 -463c7,-27 30,-46 58,-46l287 0c19,0 36,8 47,24 2,1 3,3 3,4zm1297 312l0 142 42 0c60,0 110,-12 110,-80 0,-13 -1,-30 -10,-40 -18,-20 -76,-22 -100,-22l-42 0z"/>
   </g>
   <path class="fil6" d="M509 8265l339 0 313 -1060 -287 0 -108 463c-27,113 -48,222 -78,336l-6 0c-30,-114 -49,-223 -79,-336l-110 -463 -297 0 313 1060z"/>
   <polygon id="1" class="fil6" points="1262,8265 1963,8265 1963,8030 1542,8030 1542,7841 1888,7841 1888,7606 1542,7606 1542,7440 1947,7440 1947,7205 1262,7205 "/>
   <path id="2" class="fil6" d="M2449 7427l101 0c111,0 169,29 169,121 0,91 -58,140 -169,140l-101 0 0 -261zm603 838l-230 -411c103,-55 171,-155 171,-306 0,-265 -196,-343 -424,-343l-401 0 0 1060 281 0 0 -356 107 0 183 356 313 0z"/>
   <path id="3" class="fil6" d="M3342 8265l339 0 313 -1060 -287 0 -108 463c-27,113 -48,222 -78,336l-6 0c-30,-114 -49,-223 -79,-336l-110 -463 -297 0 313 1060z"/>
   <polygon id="4" class="fil6" points="4095,8265 4796,8265 4796,8030 4375,8030 4375,7841 4721,7841 4721,7606 4375,7606 4375,7440 4780,7440 4780,7205 4095,7205 "/>
  </g>
 </g>
</svg>
