<?xml version="1.0" encoding="UTF-8"?>
<!DOCTYPE svg PUBLIC "-//W3C//DTD SVG 1.1//EN" "http://www.w3.org/Graphics/SVG/1.1/DTD/svg11.dtd">
<!-- Creator: CorelDRAW X7 -->
<svg xmlns="http://www.w3.org/2000/svg" xml:space="preserve" width="84.6666mm" height="84.6666mm" version="1.1" style="shape-rendering:geometricPrecision; text-rendering:geometricPrecision; image-rendering:optimizeQuality; fill-rule:evenodd; clip-rule:evenodd"
viewBox="0 0 8467 8467"
 xmlns:xlink="http://www.w3.org/1999/xlink">
 <defs>
  <style type="text/css">
   <![CDATA[
    .fil5 {fill:none}
    .fil6 {fill:black}
    .fil4 {fill:#1641C4}
    .fil1 {fill:#79D1BF}
    .fil0 {fill:#90F5E1}
    .fil2 {fill:#F0CCBD}
    .fil3 {fill:white}
    .fil7 {fill:#1641C4;fill-rule:nonzero}
    .fil8 {fill:#FEFEFE;fill-rule:nonzero}
   ]]>
  </style>
   <clipPath id="id0">
    <path d="M754 0l7332 0c209,0 381,171 381,381l0 7331c0,210 -172,381 -381,381l-7332 0c-209,0 -380,-171 -380,-381l0 -7331c0,-210 171,-381 380,-381z"/>
   </clipPath>
    <clipPath id="id1">
     <path d="M8467 381l0 7331c0,210 -172,381 -381,381l-7332 0c-209,0 -380,-171 -380,-381l0 -7331c0,-210 171,-381 380,-381l7332 0c209,0 381,171 381,381z"/>
    </clipPath>
     <clipPath id="id2">
      <path d="M8184 5556c166,168 58,1121 -596,1772 -655,651 -1609,754 -1776,586 -166,-167 -14,-14 -21,-22l-2024 -2298 2108 -2096 2286 2037c8,7 -144,-146 23,21z"/>
     </clipPath>
     <clipPath id="id3">
      <path d="M8467 381l0 7331c0,210 -172,381 -381,381l-7332 0c-209,0 -380,-171 -380,-381l0 -7331c0,-210 171,-381 380,-381l7332 0c209,0 381,171 381,381z"/>
     </clipPath>
     <clipPath id="id4">
      <path d="M5574 3195c289,291 52,996 -530,1575 -582,579 -1289,813 -1578,521 -290,-291 -52,-996 530,-1575 582,-579 1288,-812 1578,-521z"/>
     </clipPath>
     <clipPath id="id5">
      <path d="M8467 381l0 7331c0,210 -172,381 -381,381l-7332 0c-209,0 -380,-171 -380,-381l0 -7331c0,-210 171,-381 380,-381l7332 0c209,0 381,171 381,381z"/>
     </clipPath>
    <clipPath id="id6">
     <path d="M754 0l7332 0c209,0 381,171 381,381l0 7331c0,210 -172,381 -381,381l-7332 0c-209,0 -380,-171 -380,-381l0 -7331c0,-210 171,-381 380,-381z"/>
    </clipPath>
 </defs>
 <g id="Layer_x0020_1">
  <metadata id="CorelCorpID_0Corel-Layer"/>
  <rect class="fil0" width="8467" height="8467"/>
  <rect class="fil1" y="381" width="8086" height="8086" rx="374" ry="374"/>
  <g>
  </g>
  <g style="clip-path:url(#id0)">
   <g>
    <polygon class="fil2" points="362,0 8467,0 8467,8105 362,8105 "/>
   </g>
   <g style="clip-path:url(#id1)">
    <g id="_2313564138896">
     <path id="1" class="fil3" d="M8523 5897c325,328 58,1121 -597,1772 -654,651 -1449,914 -1775,586l-339 -341 216 -214c63,-366 318,-818 719,-1217 401,-398 855,-651 1221,-712l216 -215 339 341 0 0z"/>
     <path class="fil4" d="M8184 5556c166,168 58,1121 -596,1772 -655,651 -1609,754 -1776,586 -166,-167 -14,-14 -21,-22l-2024 -2298 2108 -2096 2286 2037c8,7 -144,-146 23,21z"/>
    </g>
    <g style="clip-path:url(#id2)">
     <g>
      <g>
       <polygon id="1" class="fil4" points="4123,8615 4123,7145 4123,7145 4123,6796 4471,6796 5593,6796 5593,5675 5593,5327 5941,5327 5941,5327 7063,5327 7063,4205 7063,4205 7063,3857 7411,3857 8532,3857 8532,2735 8532,2387 8881,2387 8881,2387 10351,2387 10351,2735 8881,2735 8881,3857 8881,3857 8881,4205 8532,4205 8532,4205 7411,4205 7411,5327 7411,5327 7411,5675 7063,5675 7063,5675 5941,5675 5941,6796 5941,6796 5941,7145 5593,7145 5593,7145 4471,7145 4471,8615 "/>
       <polygon class="fil2" points="4471,8963 4471,7493 4471,7493 4471,7145 4820,7145 5941,7145 5941,6024 5941,5675 6290,5675 6290,5675 7411,5675 7411,4554 7411,4554 7411,4205 7760,4205 8881,4205 8881,3084 8881,2735 9229,2735 9229,2735 10699,2735 10699,3084 9229,3084 9229,4205 9229,4205 9229,4554 8881,4554 8881,4554 7760,4554 7760,5675 7760,5675 7760,6024 7411,6024 7411,6024 6290,6024 6290,7145 6290,7145 6290,7493 5941,7493 5941,7493 4820,7493 4820,8963 "/>
       <polygon class="fil4" points="4820,9312 4820,7842 4820,7842 4820,7493 5168,7493 6290,7493 6290,6372 6290,6024 6638,6024 6638,6024 7760,6024 7760,4902 7760,4902 7760,4554 8108,4554 9229,4554 9229,3432 9229,3084 9578,3084 9578,3084 11048,3084 11048,3432 9578,3432 9578,4554 9578,4554 9578,4902 9229,4902 9229,4902 8108,4902 8108,6024 8108,6024 8108,6372 7760,6372 7760,6372 6638,6372 6638,7493 6638,7493 6638,7842 6290,7842 6290,7842 5168,7842 5168,9312 "/>
       <polygon class="fil2" points="5168,9660 5168,8190 5168,8190 5168,7842 5517,7842 6638,7842 6638,6721 6638,6372 6987,6372 6987,6372 8108,6372 8108,5251 8108,5251 8108,4902 8457,4902 9578,4902 9578,3781 9578,3432 9926,3432 9926,3432 11396,3432 11396,3781 9926,3781 9926,4902 9926,4902 9926,5251 9578,5251 9578,5251 8457,5251 8457,6372 8457,6372 8457,6721 8108,6721 8108,6721 6987,6721 6987,7842 6987,7842 6987,8190 6638,8190 6638,8190 5517,8190 5517,9660 "/>
       <polygon class="fil4" points="5517,10009 5517,8539 5517,8539 5517,8190 5865,8190 6987,8190 6987,7069 6987,6721 7335,6721 7335,6721 8457,6721 8457,5599 8457,5599 8457,5251 8805,5251 9926,5251 9926,4129 9926,3781 10275,3781 10275,3781 11745,3781 11745,4129 10275,4129 10275,5251 10275,5251 10275,5599 9926,5599 9926,5599 8805,5599 8805,6721 8805,6721 8805,7069 8457,7069 8457,7069 7335,7069 7335,8190 7335,8190 7335,8539 6987,8539 6987,8539 5865,8539 5865,10009 "/>
       <polygon class="fil2" points="5865,10357 5865,8888 5865,8888 5865,8539 6214,8539 7335,8539 7335,7418 7335,7069 7684,7069 7684,7069 8805,7069 8805,5948 8805,5948 8805,5599 9154,5599 10275,5599 10275,4478 10275,4129 10623,4129 10623,4129 12093,4129 12093,4478 10623,4478 10623,5599 10623,5599 10623,5948 10275,5948 10275,5948 9154,5948 9154,7069 9154,7069 9154,7418 8805,7418 8805,7418 7684,7418 7684,8539 7684,8539 7684,8888 7335,8888 7335,8888 6214,8888 6214,10357 "/>
       <polygon class="fil4" points="6214,10706 6214,9236 6214,9236 6214,8888 6562,8888 7684,8888 7684,7766 7684,7418 8032,7418 8032,7418 9154,7418 9154,6296 9154,6296 9154,5948 9502,5948 10623,5948 10623,4826 10623,4478 10972,4478 10972,4478 12442,4478 12442,4826 10972,4826 10972,5948 10972,5948 10972,6296 10623,6296 10623,6296 9502,6296 9502,7418 9502,7418 9502,7766 9154,7766 9154,7766 8032,7766 8032,8888 8032,8888 8032,9236 7684,9236 7684,9236 6562,9236 6562,10706 "/>
       <polygon class="fil2" points="6562,11054 6562,9585 6562,9585 6562,9236 6911,9236 8032,9236 8032,8115 8032,7766 8381,7766 8381,7766 9502,7766 9502,6645 9502,6645 9502,6296 9851,6296 10972,6296 10972,5175 10972,4826 11320,4826 11320,4826 12790,4826 12790,5175 11320,5175 11320,6296 11320,6296 11320,6645 10972,6645 10972,6645 9851,6645 9851,7766 9851,7766 9851,8115 9502,8115 9502,8115 8381,8115 8381,9236 8381,9236 8381,9585 8032,9585 8032,9585 6911,9585 6911,11054 "/>
       <polygon class="fil4" points="6911,11403 6911,9933 6911,9933 6911,9585 7259,9585 8381,9585 8381,8463 8381,8115 8729,8115 8729,8115 9851,8115 9851,6993 9851,6993 9851,6645 10199,6645 11320,6645 11320,5523 11320,5175 11669,5175 11669,5175 13139,5175 13139,5523 11669,5523 11669,6645 11669,6645 11669,6993 11320,6993 11320,6993 10199,6993 10199,8115 10199,8115 10199,8463 9851,8463 9851,8463 8729,8463 8729,9585 8729,9585 8729,9933 8381,9933 8381,9933 7259,9933 7259,11403 "/>
       <polygon class="fil2" points="7259,11751 7259,10282 7259,10282 7259,9933 7608,9933 8729,9933 8729,8812 8729,8463 9078,8463 9078,8463 10199,8463 10199,7342 10199,7342 10199,6993 10548,6993 11669,6993 11669,5872 11669,5523 12017,5523 12017,5523 13487,5523 13487,5872 12017,5872 12017,6993 12017,6993 12017,7342 11669,7342 11669,7342 10548,7342 10548,8463 10548,8463 10548,8812 10199,8812 10199,8812 9078,8812 9078,9933 9078,9933 9078,10282 8729,10282 8729,10282 7608,10282 7608,11751 "/>
       <polygon class="fil4" points="7608,12100 7608,10630 7608,10630 7608,10282 7956,10282 9078,10282 9078,9160 9078,8812 9426,8812 9426,8812 10548,8812 10548,7690 10548,7690 10548,7342 10896,7342 12017,7342 12017,6221 12017,5872 12366,5872 12366,5872 13836,5872 13836,6221 12366,6221 12366,7342 12366,7342 12366,7690 12017,7690 12017,7690 10896,7690 10896,8812 10896,8812 10896,9160 10548,9160 10548,9160 9426,9160 9426,10282 9426,10282 9426,10630 9078,10630 9078,10630 7956,10630 7956,12100 "/>
       <polygon class="fil2" points="7956,12448 7956,10979 7956,10979 7956,10630 8305,10630 9426,10630 9426,9509 9426,9160 9775,9160 9775,9160 10896,9160 10896,8039 10896,8039 10896,7690 11245,7690 12366,7690 12366,6569 12366,6221 12715,6220 12715,6221 14184,6221 14184,6569 12715,6569 12715,7690 12715,7690 12715,8039 12366,8039 12366,8039 11245,8039 11245,9160 11245,9160 11245,9509 10896,9509 10896,9509 9775,9509 9775,10630 9775,10630 9775,10979 9426,10979 9426,10979 8305,10979 8305,12448 "/>
      </g>
     </g>
    </g>
    <g style="clip-path:url(#id3)">
     <path class="fil5" d="M8184 5556c166,168 58,1121 -596,1772 -655,651 -1609,754 -1776,586 -166,-167 -14,-14 -21,-22l-2024 -2298 2108 -2096 2286 2037c8,7 -144,-146 23,21z"/>
     <path class="fil3" d="M5875 3498c290,291 52,996 -530,1575 -582,579 -1288,813 -1578,521l-301 -303 191 -190c56,-325 284,-727 640,-1082 357,-354 760,-579 1085,-633l192 -191 301 303 0 0z"/>
     <path class="fil2" d="M5574 3195c289,291 52,996 -530,1575 -582,579 -1289,813 -1578,521 -290,-291 -52,-996 530,-1575 582,-579 1288,-812 1578,-521z"/>
    </g>
    <g style="clip-path:url(#id4)">
     <g>
      <g>
       <g>
        <rect class="fil4" transform="matrix(2.18535E-014 -0.824143 0.824143 2.18535E-014 2496.25 3231.52)" width="614" height="614"/>
        <rect class="fil2" transform="matrix(2.18535E-014 -0.824143 0.824143 2.18535E-014 3002.14 3231.52)" width="614" height="614"/>
        <rect class="fil2" transform="matrix(2.18535E-014 -0.824143 0.824143 2.18535E-014 2496.25 2725.64)" width="614" height="614"/>
        <rect class="fil4" transform="matrix(2.18535E-014 -0.824143 0.824143 2.18535E-014 3002.14 2725.64)" width="614" height="614"/>
        <rect class="fil4" transform="matrix(2.18535E-014 -0.824143 0.824143 2.18535E-014 3508.02 3231.52)" width="614" height="614"/>
        <rect class="fil2" transform="matrix(2.18535E-014 -0.824143 0.824143 2.18535E-014 4013.9 3231.52)" width="614" height="614"/>
        <rect class="fil2" transform="matrix(2.18535E-014 -0.824143 0.824143 2.18535E-014 3508.02 2725.64)" width="614" height="614"/>
        <rect class="fil4" transform="matrix(2.18535E-014 -0.824143 0.824143 2.18535E-014 4013.9 2725.64)" width="614" height="614"/>
        <rect class="fil4" transform="matrix(2.18535E-014 -0.824143 0.824143 2.18535E-014 4519.79 3231.52)" width="614" height="614"/>
        <rect class="fil2" transform="matrix(2.18535E-014 -0.824143 0.824143 2.18535E-014 5025.67 3231.52)" width="614" height="614"/>
        <rect class="fil2" transform="matrix(2.18535E-014 -0.824143 0.824143 2.18535E-014 4519.79 2725.64)" width="614" height="614"/>
        <rect class="fil4" transform="matrix(2.18535E-014 -0.824143 0.824143 2.18535E-014 5025.67 2725.64)" width="614" height="614"/>
        <rect class="fil4" transform="matrix(2.18535E-014 -0.824143 0.824143 2.18535E-014 5531.56 3231.52)" width="614" height="614"/>
        <rect class="fil2" transform="matrix(2.18535E-014 -0.824143 0.824143 2.18535E-014 6037.44 3231.52)" width="614" height="614"/>
        <rect class="fil2" transform="matrix(2.18535E-014 -0.824143 0.824143 2.18535E-014 5531.56 2725.64)" width="614" height="614"/>
        <rect class="fil4" transform="matrix(2.18535E-014 -0.824143 0.824143 2.18535E-014 6037.44 2725.64)" width="614" height="614"/>
       </g>
       <g>
        <rect class="fil4" transform="matrix(2.18535E-014 -0.824143 0.824143 2.18535E-014 2496.25 4243.29)" width="614" height="614"/>
        <rect class="fil2" transform="matrix(2.18535E-014 -0.824143 0.824143 2.18535E-014 3002.14 4243.29)" width="614" height="614"/>
        <rect class="fil2" transform="matrix(2.18535E-014 -0.824143 0.824143 2.18535E-014 2496.25 3737.41)" width="614" height="614"/>
        <rect class="fil4" transform="matrix(2.18535E-014 -0.824143 0.824143 2.18535E-014 3002.14 3737.41)" width="614" height="614"/>
        <rect class="fil4" transform="matrix(2.18535E-014 -0.824143 0.824143 2.18535E-014 3508.02 4243.29)" width="614" height="614"/>
        <rect class="fil2" transform="matrix(2.18535E-014 -0.824143 0.824143 2.18535E-014 4013.9 4243.29)" width="614" height="614"/>
        <rect class="fil2" transform="matrix(2.18535E-014 -0.824143 0.824143 2.18535E-014 3508.02 3737.41)" width="614" height="614"/>
        <rect class="fil4" transform="matrix(2.18535E-014 -0.824143 0.824143 2.18535E-014 4013.9 3737.41)" width="614" height="614"/>
        <rect class="fil4" transform="matrix(2.18535E-014 -0.824143 0.824143 2.18535E-014 4519.79 4243.29)" width="614" height="614"/>
        <rect class="fil2" transform="matrix(2.18535E-014 -0.824143 0.824143 2.18535E-014 5025.67 4243.29)" width="614" height="614"/>
        <rect class="fil2" transform="matrix(2.18535E-014 -0.824143 0.824143 2.18535E-014 4519.79 3737.41)" width="614" height="614"/>
        <rect class="fil4" transform="matrix(2.18535E-014 -0.824143 0.824143 2.18535E-014 5025.67 3737.41)" width="614" height="614"/>
        <rect class="fil4" transform="matrix(2.18535E-014 -0.824143 0.824143 2.18535E-014 5531.56 4243.29)" width="614" height="614"/>
        <rect class="fil2" transform="matrix(2.18535E-014 -0.824143 0.824143 2.18535E-014 6037.44 4243.29)" width="614" height="614"/>
        <rect class="fil2" transform="matrix(2.18535E-014 -0.824143 0.824143 2.18535E-014 5531.56 3737.41)" width="614" height="614"/>
        <rect class="fil4" transform="matrix(2.18535E-014 -0.824143 0.824143 2.18535E-014 6037.44 3737.41)" width="614" height="614"/>
       </g>
       <g>
        <rect class="fil4" transform="matrix(2.18535E-014 -0.824143 0.824143 2.18535E-014 2496.25 5255.06)" width="614" height="614"/>
        <rect class="fil2" transform="matrix(2.18535E-014 -0.824143 0.824143 2.18535E-014 3002.14 5255.06)" width="614" height="614"/>
        <rect class="fil2" transform="matrix(2.18535E-014 -0.824143 0.824143 2.18535E-014 2496.25 4749.17)" width="614" height="614"/>
        <rect class="fil4" transform="matrix(2.18535E-014 -0.824143 0.824143 2.18535E-014 3002.14 4749.17)" width="614" height="614"/>
        <rect class="fil4" transform="matrix(2.18535E-014 -0.824143 0.824143 2.18535E-014 3508.02 5255.06)" width="614" height="614"/>
        <rect class="fil2" transform="matrix(2.18535E-014 -0.824143 0.824143 2.18535E-014 4013.9 5255.06)" width="614" height="614"/>
        <rect class="fil2" transform="matrix(2.18535E-014 -0.824143 0.824143 2.18535E-014 3508.02 4749.17)" width="614" height="614"/>
        <rect class="fil4" transform="matrix(2.18535E-014 -0.824143 0.824143 2.18535E-014 4013.9 4749.17)" width="614" height="614"/>
        <rect class="fil4" transform="matrix(2.18535E-014 -0.824143 0.824143 2.18535E-014 4519.79 5255.06)" width="614" height="614"/>
        <rect class="fil2" transform="matrix(2.18535E-014 -0.824143 0.824143 2.18535E-014 5025.67 5255.06)" width="614" height="614"/>
        <rect class="fil2" transform="matrix(2.18535E-014 -0.824143 0.824143 2.18535E-014 4519.79 4749.17)" width="614" height="614"/>
        <rect class="fil4" transform="matrix(2.18535E-014 -0.824143 0.824143 2.18535E-014 5025.67 4749.17)" width="614" height="614"/>
        <rect class="fil4" transform="matrix(2.18535E-014 -0.824143 0.824143 2.18535E-014 5531.56 5255.06)" width="614" height="614"/>
        <rect class="fil2" transform="matrix(2.18535E-014 -0.824143 0.824143 2.18535E-014 6037.44 5255.06)" width="614" height="614"/>
        <rect class="fil2" transform="matrix(2.18535E-014 -0.824143 0.824143 2.18535E-014 5531.56 4749.17)" width="614" height="614"/>
        <rect class="fil4" transform="matrix(2.18535E-014 -0.824143 0.824143 2.18535E-014 6037.44 4749.17)" width="614" height="614"/>
       </g>
       <g>
        <rect class="fil4" transform="matrix(2.18535E-014 -0.824143 0.824143 2.18535E-014 2496.25 6266.83)" width="614" height="614"/>
        <rect class="fil2" transform="matrix(2.18535E-014 -0.824143 0.824143 2.18535E-014 3002.14 6266.83)" width="614" height="614"/>
        <rect class="fil2" transform="matrix(2.18535E-014 -0.824143 0.824143 2.18535E-014 2496.25 5760.94)" width="614" height="614"/>
        <rect class="fil4" transform="matrix(2.18535E-014 -0.824143 0.824143 2.18535E-014 3002.14 5760.94)" width="614" height="614"/>
        <rect class="fil4" transform="matrix(2.18535E-014 -0.824143 0.824143 2.18535E-014 3508.02 6266.83)" width="614" height="614"/>
        <rect class="fil2" transform="matrix(2.18535E-014 -0.824143 0.824143 2.18535E-014 4013.9 6266.83)" width="614" height="614"/>
        <rect class="fil2" transform="matrix(2.18535E-014 -0.824143 0.824143 2.18535E-014 3508.02 5760.94)" width="614" height="614"/>
        <rect class="fil4" transform="matrix(2.18535E-014 -0.824143 0.824143 2.18535E-014 4013.9 5760.94)" width="614" height="614"/>
        <rect class="fil4" transform="matrix(2.18535E-014 -0.824143 0.824143 2.18535E-014 4519.79 6266.83)" width="614" height="614"/>
        <rect class="fil2" transform="matrix(2.18535E-014 -0.824143 0.824143 2.18535E-014 5025.67 6266.83)" width="614" height="614"/>
        <rect class="fil2" transform="matrix(2.18535E-014 -0.824143 0.824143 2.18535E-014 4519.79 5760.94)" width="614" height="614"/>
        <rect class="fil4" transform="matrix(2.18535E-014 -0.824143 0.824143 2.18535E-014 5025.67 5760.94)" width="614" height="614"/>
        <rect class="fil4" transform="matrix(2.18535E-014 -0.824143 0.824143 2.18535E-014 5531.56 6266.83)" width="614" height="614"/>
        <rect class="fil2" transform="matrix(2.18535E-014 -0.824143 0.824143 2.18535E-014 6037.44 6266.83)" width="614" height="614"/>
        <rect class="fil2" transform="matrix(2.18535E-014 -0.824143 0.824143 2.18535E-014 5531.56 5760.94)" width="614" height="614"/>
        <rect class="fil4" transform="matrix(2.18535E-014 -0.824143 0.824143 2.18535E-014 6037.44 5760.94)" width="614" height="614"/>
       </g>
      </g>
     </g>
    </g>
    <g style="clip-path:url(#id5)">
     <path class="fil5" d="M5574 3195c289,291 52,996 -530,1575 -582,579 -1289,813 -1578,521 -290,-291 -52,-996 530,-1575 582,-579 1288,-812 1578,-521z"/>
     <path class="fil4" d="M5178 3180c237,238 43,815 -434,1289 -476,474 -1054,665 -1291,427l-247 -248 157 -156c46,-266 232,-595 524,-885 291,-290 621,-474 888,-519l156 -156 247 248 0 0z"/>
     <ellipse class="fil2" transform="matrix(0.225106 0.22637 -0.254666 0.253245 4068.96 3789.93)" rx="1905" ry="3387"/>
     <path class="fil4" d="M4727 3136c180,182 32,622 -331,983 -363,361 -804,506 -985,325l0 0 -1251 -966 -871 -2207 276 -275 2202 883 960 1257z"/>
     <path class="fil2" d="M1380 980l1471 1480c106,-59 242,-44 331,46 108,108 107,283 -1,391 -108,107 -283,107 -391,-1 -89,-90 -104,-226 -44,-331l-1472 -1480 106 -105z"/>
     <circle class="fil4" transform="matrix(0.309493 0.311231 -0.311231 0.309493 1326.93 1032.51)" r="629"/>
    </g>
   </g>
   <g style="clip-path:url(#id6)">
    <polygon class="fil5" points="362,0 8467,0 8467,8105 362,8105 "/>
   </g>
  </g>
  <path class="fil5" d="M754 0l7332 0c209,0 381,171 381,381l0 7331c0,210 -172,381 -381,381l-7332 0c-209,0 -380,-171 -380,-381l0 -7331c0,-210 171,-381 380,-381z"/>
  <g>
   <path class="fil6" d="M415 7817l80 -366c5,-26 28,-44 54,-44l212 0c26,0 48,18 54,44l80 366 46 -361c3,-28 27,-49 55,-49l241 0c17,0 31,7 42,20 11,13 16,29 13,45l-159 956c-4,27 -27,46 -55,46l-320 0c-27,0 -50,-18 -55,-45l-57 -293 -54 293c-5,26 -28,45 -55,45l-314 0c-28,0 -50,-19 -55,-46l-168 -955c-3,-17 2,-33 12,-46 11,-13 26,-20 43,-20l259 0c28,0 51,21 55,49l46 361zm1345 675c-326,0 -499,-245 -499,-556 0,-312 174,-546 499,-546 325,0 500,235 500,546 0,311 -174,556 -500,556zm931 -338l-8 0 0 265c0,30 -25,55 -55,55l-253 0c-31,0 -56,-25 -56,-55l0 -956c0,-31 25,-56 56,-56l361 0c241,0 438,96 438,365 0,121 -44,225 -136,295l182 324c10,18 10,38 -1,56 -10,17 -27,27 -48,27l-282 0c-21,0 -39,-11 -49,-30l-149 -290zm554 265l0 -956c0,-31 25,-56 56,-56l282 0c342,0 547,178 547,529 0,340 -195,538 -532,538l-297 0c-31,0 -56,-25 -56,-55zm1361 -265c0,0 0,-1 0,-1 -13,-13 -80,-37 -95,-43l-118 -50c-136,-54 -228,-167 -228,-318 0,-40 8,-81 23,-119 63,-156 227,-233 389,-233 131,0 263,52 356,144 21,20 23,52 5,74l-127 159c-18,23 -51,28 -75,11 -50,-36 -97,-59 -159,-59 -8,0 -34,1 -43,7 17,14 89,39 104,45l116 46c142,56 222,159 222,313 0,34 -5,68 -15,100 -55,181 -236,262 -414,262 -143,0 -292,-55 -398,-151 -23,-20 -25,-54 -6,-77l144 -173c19,-24 54,-27 78,-8 49,39 124,80 188,80 10,0 45,-1 53,-9zm935 -302l3 -10c0,0 1,-1 1,-1l144 -397c8,-22 28,-37 52,-37l262 0c30,0 55,25 55,56l0 956c0,30 -25,55 -55,55l-235 0c-31,0 -56,-25 -56,-55l0 -247 -78 190c-9,21 -29,34 -52,34l-94 0c-23,0 -42,-13 -51,-34l-75 -183 0 240c0,30 -25,55 -56,55l-232 0c-31,0 -56,-25 -56,-55l0 -956c0,-31 25,-56 56,-56l261 0c24,0 44,14 52,36l150 397c1,1 1,1 1,2l3 10zm618 567l0 -956c0,-31 25,-56 55,-56l253 0c31,0 56,25 56,56l0 956c0,30 -25,55 -56,55l-253 0c-30,0 -55,-25 -55,-55zm647 -689l-198 0c-30,0 -55,-25 -55,-55l0 -212c0,-31 25,-56 55,-56l759 0c31,0 56,25 56,56l0 212c0,30 -25,55 -56,55l-197 0 0 689c0,30 -25,55 -56,55l-253 0c-30,0 -55,-25 -55,-55l0 -689zm1010 33l174 0 0 -300c0,-31 25,-56 56,-56l253 0c31,0 56,25 56,56l0 956c0,30 -25,55 -56,55l-253 0c-31,0 -56,-25 -56,-55l0 -324 -174 0 0 324c0,30 -24,55 -55,55l-253 0c-31,0 -56,-25 -56,-55l0 -956c0,-31 25,-56 56,-56l253 0c31,0 55,25 55,56l0 300zm-6056 400c109,0 130,-145 130,-227 0,-84 -20,-217 -130,-217 -110,0 -129,133 -129,217 0,82 20,227 129,227zm923 -444l0 124 36 0c53,0 97,-11 97,-71 0,-11 -1,-26 -8,-34 -16,-18 -68,-19 -89,-19l-36 0zm926 439c118,-14 151,-92 151,-222 0,-134 -35,-201 -151,-213l0 435z"/>
  </g>
  <path class="fil7" d="M223 8419l314 0 71 -380c14,-73 25,-153 35,-223l6 0c9,70 21,150 35,223l74 380 320 0 159 -956 -241 0 -53 418c-10,97 -22,198 -32,299l-6 0c-18,-101 -36,-204 -53,-299l-91 -418 -212 0 -91 418c-18,98 -35,200 -53,299l-6 0c-10,-99 -22,-199 -32,-299l-53 -418 -259 0 168 956z"/>
  <path id="1" class="fil7" d="M1760 8436c265,0 444,-185 444,-500 0,-313 -179,-491 -444,-491 -264,0 -444,177 -444,491 0,315 180,500 444,500zm0 -217c-114,0 -185,-109 -185,-283 0,-173 71,-273 185,-273 115,0 185,100 185,273 0,174 -70,283 -185,283z"/>
  <path id="2" class="fil7" d="M2628 7663l91 0c100,0 153,26 153,109 0,82 -53,126 -153,126l-91 0 0 -235zm543 756l-207 -371c93,-50 155,-139 155,-276 0,-238 -177,-309 -383,-309l-361 0 0 956 253 0 0 -321 97 0 164 321 282 0z"/>
  <path id="3" class="fil7" d="M3301 8419l297 0c276,0 476,-144 476,-483 0,-338 -200,-473 -491,-473l-282 0 0 956zm253 -203l0 -550 14 0c139,0 247,47 247,270 0,224 -108,280 -247,280l-14 0z"/>
  <path id="4" class="fil7" d="M4186 8300c103,92 241,136 361,136 239,0 374,-144 374,-306 0,-132 -68,-214 -187,-261l-116 -46c-87,-34 -141,-50 -141,-95 0,-43 38,-65 100,-65 70,0 126,24 191,69l126 -159c-88,-86 -208,-128 -317,-128 -209,0 -356,134 -356,297 0,139 90,225 193,266l119 50c81,33 129,47 129,93 0,43 -32,68 -109,68 -70,0 -156,-39 -223,-93l-144 174z"/>
  <path id="5" class="fil7" d="M5074 8419l232 0 0 -283c0,-97 -21,-245 -32,-341l5 0 77 224 132 322 94 0 133 -322 79 -224 6 0c-12,96 -32,244 -32,341l0 283 235 0 0 -956 -262 0 -144 397 -53 156 -6 0 -53 -156 -150 -397 -261 0 0 956z"/>
  <polygon id="6" class="fil7" points="6214,8419 6467,8419 6467,7463 6214,7463 "/>
  <polygon id="7" class="fil7" points="6861,8419 7114,8419 7114,7675 7367,7675 7367,7463 6608,7463 6608,7675 6861,7675 "/>
  <polygon id="8" class="fil7" points="7508,8419 7761,8419 7761,8039 8046,8039 8046,8419 8299,8419 8299,7463 8046,7463 8046,7819 7761,7819 7761,7463 7508,7463 "/>
  <g>
   <path class="fil6" d="M527 7663l75 -345c6,-27 30,-46 58,-46l212 0c28,0 52,19 58,46l75 345 43 -339c4,-30 29,-52 59,-52l241 0c18,0 34,7 46,21 11,14 16,30 13,48l-159 955c-5,29 -29,50 -58,50l-321 0c-29,0 -53,-20 -58,-48l-53 -274 -51 273c-5,29 -29,49 -58,49l-315 0c-29,0 -53,-20 -58,-49l-168 -956c-3,-17 1,-34 13,-48 12,-14 27,-21 46,-21l258 0c30,0 55,22 59,52l43 339zm1345 701c-328,0 -504,-247 -504,-560 0,-314 177,-550 504,-550 326,0 503,237 503,550 0,313 -175,560 -503,560zm928 -338l-2 0 0 261c0,32 -26,59 -59,59l-253 0c-32,0 -59,-27 -59,-59l0 -956c0,-33 27,-59 59,-59l362 0c242,0 441,97 441,368 0,121 -43,225 -134,296l180 322c10,19 10,40 -1,59 -11,18 -29,29 -51,29l-282 0c-23,0 -43,-12 -53,-32l-148 -288zm553 261l0 -956c0,-33 27,-59 59,-59l283 0c343,0 550,179 550,532 0,342 -196,542 -536,542l-297 0c-32,0 -59,-27 -59,-59zm1359 -266c-17,-12 -76,-34 -90,-39 0,-1 0,-1 -1,-1l-118 -49c-137,-55 -230,-170 -230,-322 0,-41 8,-82 23,-120 63,-158 229,-236 392,-236 132,0 265,52 359,145 22,21 24,55 5,79l-126 159c-20,25 -55,30 -81,12 -49,-35 -95,-59 -157,-59 -7,0 -24,1 -35,5 23,13 83,35 98,41l116 46c143,56 225,160 225,317 0,34 -5,68 -15,100 -57,183 -239,265 -418,265 -144,0 -294,-56 -401,-152 -24,-22 -27,-58 -6,-82l144 -174c20,-25 57,-28 83,-8 48,39 123,79 186,79 9,0 36,-1 47,-6zm941 -313c0,0 0,0 0,0l144 -397c8,-24 30,-39 56,-39l261 0c33,0 60,26 60,59l0 956c0,32 -27,59 -60,59l-235 0c-33,0 -59,-27 -59,-59l0 -228 -71 172c-10,23 -31,37 -55,37l-94 0c-25,0 -46,-14 -55,-37l-68 -165 0 221c0,32 -27,59 -60,59l-232 0c-33,0 -59,-27 -59,-59l0 -956c0,-33 26,-59 59,-59l262 0c25,0 46,15 55,38l150 397c0,0 1,1 1,1zm614 579l0 -956c0,-33 26,-59 59,-59l253 0c32,0 59,26 59,59l0 956c0,32 -27,59 -59,59l-253 0c-33,0 -59,-27 -59,-59zm646 -685l-193 0c-33,0 -59,-27 -59,-59l0 -212c0,-33 26,-59 59,-59l758 0c33,0 60,26 60,59l0 212c0,32 -27,59 -60,59l-193 0 0 685c0,32 -27,59 -59,59l-253 0c-33,0 -60,-27 -60,-59l0 -685zm1019 26l166 0 0 -297c0,-33 27,-59 60,-59l252 0c33,0 60,26 60,59l0 956c0,32 -27,59 -60,59l-252 0c-33,0 -60,-27 -60,-59l0 -320 -166 0 0 320c0,32 -27,59 -60,59l-252 0c-33,0 -60,-27 -60,-59l0 -956c0,-33 27,-59 60,-59l252 0c33,0 60,26 60,59l0 297zm-6060 399c106,0 126,-143 126,-223 0,-82 -19,-214 -126,-214 -107,0 -126,132 -126,214 0,80 20,223 126,223zm926 -437l0 117 32 0c51,0 94,-9 94,-67 0,-9 -1,-24 -8,-32 -14,-16 -66,-18 -86,-18l-32 0zm927 432c112,-15 142,-91 142,-218 0,-130 -32,-196 -142,-208l0 426z"/>
  </g>
  <path class="fil8" d="M334 8287l315 0 70 -380c15,-73 25,-153 36,-223l5 0c9,70 21,150 36,223l73 380 321 0 158 -956 -241 0 -53 418c-10,97 -22,198 -32,299l-6 0c-17,-101 -35,-204 -53,-299l-91 -418 -212 0 -91 418c-17,98 -35,200 -53,299l-5 0c-11,-99 -23,-199 -33,-299l-53 -418 -258 0 167 956z"/>
  <path id="1" class="fil8" d="M1872 8304c264,0 444,-185 444,-500 0,-313 -180,-491 -444,-491 -265,0 -444,177 -444,491 0,315 179,500 444,500zm0 -217c-115,0 -185,-109 -185,-283 0,-173 70,-273 185,-273 114,0 185,100 185,273 0,174 -71,283 -185,283z"/>
  <path id="2" class="fil8" d="M2739 7531l91 0c100,0 153,27 153,109 0,82 -53,126 -153,126l-91 0 0 -235zm544 756l-207 -371c92,-50 154,-139 154,-276 0,-238 -176,-309 -382,-309l-362 0 0 956 253 0 0 -321 97 0 165 321 282 0z"/>
  <path id="3" class="fil8" d="M3412 8287l297 0c277,0 477,-144 477,-483 0,-338 -200,-473 -491,-473l-283 0 0 956zm253 -203l0 -550 15 0c138,0 247,47 247,270 0,224 -109,280 -247,280l-15 0z"/>
  <path id="4" class="fil8" d="M4297 8168c103,92 241,136 362,136 238,0 373,-144 373,-305 0,-133 -67,-215 -186,-262l-117 -46c-86,-34 -141,-50 -141,-95 0,-43 39,-65 100,-65 71,0 127,24 191,69l127 -159c-88,-86 -209,-128 -318,-128 -208,0 -355,134 -355,297 0,139 89,225 192,266l119 50c81,33 130,48 130,93 0,43 -33,68 -109,68 -71,0 -156,-39 -224,-93l-144 174z"/>
  <path id="5" class="fil8" d="M5185 8287l232 0 0 -283c0,-97 -20,-245 -32,-341l6 0 76 224 133 322 94 0 132 -322 79 -224 6 0c-11,96 -32,244 -32,341l0 283 235 0 0 -956 -261 0 -145 397 -52 156 -6 0 -53 -156 -150 -397 -262 0 0 956z"/>
  <polygon id="6" class="fil8" points="6326,8287 6579,8287 6579,7331 6326,7331 "/>
  <polygon id="7" class="fil8" points="6973,8287 7226,8287 7226,7543 7478,7543 7478,7331 6720,7331 6720,7543 6973,7543 "/>
  <polygon id="8" class="fil8" points="7620,8287 7872,8287 7872,7907 8158,7907 8158,8287 8410,8287 8410,7331 8158,7331 8158,7687 7872,7687 7872,7331 7620,7331 "/>
 </g>
</svg>
