<?xml version="1.0" encoding="UTF-8"?>
<!DOCTYPE svg PUBLIC "-//W3C//DTD SVG 1.1//EN" "http://www.w3.org/Graphics/SVG/1.1/DTD/svg11.dtd">
<!-- Creator: CorelDRAW X7 -->
<svg xmlns="http://www.w3.org/2000/svg" xml:space="preserve" width="135.467mm" height="42.3332mm" version="1.1" style="shape-rendering:geometricPrecision; text-rendering:geometricPrecision; image-rendering:optimizeQuality; fill-rule:evenodd; clip-rule:evenodd"
viewBox="0 0 13547 4233"
 xmlns:xlink="http://www.w3.org/1999/xlink">
 <defs>
  <style type="text/css">
   <![CDATA[
    .fil1 {fill:none}
    .fil0 {fill:#F80C3A;fill-rule:nonzero}
   ]]>
  </style>
 </defs>
 <g id="Layer_x0020_1">
  <metadata id="CorelCorpID_0Corel-Layer"/>
  <path class="fil0" d="M897 2913l765 0c422,0 772,-175 772,-579 0,-260 -139,-404 -416,-459l0 -12c229,-60 326,-253 326,-422 0,-386 -332,-488 -742,-488l-705 0 0 1960zm518 -1188l0 -374 175 0c169,0 247,48 247,169 0,120 -78,205 -247,205l-175 0zm0 790l0 -428 211 0c205,0 302,60 302,205 0,144 -97,223 -302,223l-211 0z"/>
  <path id="1" class="fil0" d="M2699 2913l519 0 0 -839c72,-186 205,-253 314,-253 66,0 114,12 168,24l85 -446c-42,-18 -94,-30 -187,-30 -148,0 -317,90 -428,295l-12 0 -36 -259 -423 0 0 1508z"/>
  <path id="2" class="fil0" d="M3851 2159c0,500 362,790 748,790 386,0 748,-290 748,-790 0,-501 -362,-790 -748,-790 -386,0 -748,289 -748,790zm531 0c0,-229 60,-374 217,-374 157,0 217,145 217,374 0,229 -60,374 -217,374 -157,0 -217,-145 -217,-374z"/>
  <path id="3" class="fil0" d="M5540 2159c0,500 331,790 759,790 157,0 356,-54 507,-187l-205 -326c-67,48 -145,97 -241,97 -163,0 -290,-145 -290,-374 0,-229 115,-374 308,-374 54,0 108,18 175,72l235 -319c-103,-103 -260,-169 -440,-169 -429,0 -808,289 -808,790z"/>
  <path id="4" class="fil0" d="M7041 2913l519 0 0 -989c78,-73 132,-115 229,-115 102,0 150,48 150,241l0 863 519 0 0 -929c0,-374 -139,-615 -470,-615 -205,0 -350,102 -453,193l25 -259 0 -489 -519 0 0 2099z"/>
  <path id="5" class="fil0" d="M8784 2334c0,374 138,615 470,615 205,0 344,-91 464,-235l12 0 36 199 423 0 0 -1508 -519 0 0 971c-66,96 -121,133 -217,133 -103,0 -151,-49 -151,-242l0 -862 -518 0 0 929z"/>
  <path id="6" class="fil0" d="M10538 2913l519 0 0 -839c72,-186 205,-253 313,-253 67,0 115,12 169,24l85 -446c-43,-18 -94,-30 -187,-30 -148,0 -317,90 -428,295l-12 0 -37 -259 -422 0 0 1508z"/>
  <path id="7" class="fil0" d="M11690 2159c0,500 338,790 778,790 169,0 386,-61 549,-175l-169 -308c-109,61 -205,91 -308,91 -169,0 -301,-60 -350,-253l860 0c9,-37 21,-115 21,-205 0,-404 -211,-730 -657,-730 -368,0 -724,301 -724,790zm494 -169c31,-166 127,-229 242,-229 156,0 205,102 205,229l-447 0z"/>
  <rect class="fil1" width="13547" height="4233"/>
 </g>
</svg>
