<?xml version="1.0" encoding="UTF-8"?>
<!DOCTYPE svg PUBLIC "-//W3C//DTD SVG 1.1//EN" "http://www.w3.org/Graphics/SVG/1.1/DTD/svg11.dtd">
<!-- Creator: CorelDRAW X7 -->
<svg xmlns="http://www.w3.org/2000/svg" xml:space="preserve" width="42.3332mm" height="42.3332mm" version="1.1" style="shape-rendering:geometricPrecision; text-rendering:geometricPrecision; image-rendering:optimizeQuality; fill-rule:evenodd; clip-rule:evenodd"
viewBox="0 0 4233 4233"
 xmlns:xlink="http://www.w3.org/1999/xlink">
 <defs>
  <style type="text/css">
   <![CDATA[
    .str0 {stroke:#2B2A29;stroke-width:17.64}
    .fil0 {fill:none}
    .fil1 {fill:#F80C3A}
    .fil2 {fill:#F80C3A}
   ]]>
  </style>
 </defs>
 <g id="Layer_x0020_1">
  <metadata id="CorelCorpID_0Corel-Layer"/>
  <rect class="fil0" width="4233" height="4233"/>
  <path class="fil1" d="M2117 386c955,0 1730,775 1730,1731 0,955 -775,1730 -1730,1730 -956,0 -1731,-775 -1731,-1730 0,-956 775,-1731 1731,-1731zm-166 2543c-58,-29 -101,-83 -114,-149 -3,-13 -5,-27 -5,-41 0,-19 3,-37 7,-55 24,-90 107,-157 205,-157 55,0 104,20 141,53 0,-121 -51,-230 -132,-307 -44,-41 -96,-73 -154,-93 -43,-15 -90,-23 -138,-23 -351,0 -636,285 -636,636 0,117 32,226 87,321 25,38 52,74 81,109 194,231 485,378 811,378 384,0 721,-205 907,-511 8,-14 17,-29 25,-44 46,-88 72,-188 72,-294 0,-82 -15,-160 -44,-232l-27 -60c-73,-148 -179,-276 -308,-376l-3 -2c-63,-48 -131,-88 -203,-121 53,-29 103,-65 146,-108 -74,31 -156,48 -242,48 -43,0 -85,-4 -126,-12 0,0 0,0 0,0 -2,-1 -3,-1 -5,-1 -204,-42 -375,-186 -455,-374 -16,-37 -28,-75 -36,-115 -6,-24 -6,-28 -9,-51 0,0 1,1 1,1 0,-3 0,-5 0,-8 0,-117 95,-212 212,-212 51,0 98,18 135,49 14,11 26,25 37,39 25,35 40,78 40,124 0,51 -18,98 -48,134 201,-33 354,-207 355,-417 0,0 0,-1 0,-1 0,-3 0,-6 0,-9 -2,-92 -33,-177 -84,-245 -51,-67 -120,-119 -201,-147 -47,-16 -95,-24 -147,-23l0 0c-347,4 -628,287 -628,636 0,95 21,185 58,266 15,30 40,73 59,102 66,100 148,188 243,261 15,12 31,23 46,33 89,61 187,109 293,140 -85,22 -167,54 -245,95 108,-58 240,-65 355,-20 157,62 269,215 269,395 0,235 -191,424 -424,424 -48,0 -95,-8 -138,-23l-33 -13zm-160 -1635c-1,-37 0,-74 5,-111 -4,27 -5,54 -5,82 0,10 0,19 0,29zm5 -111c0,-4 1,-8 2,-12 -1,4 -2,8 -2,12zm153 -338c60,-68 135,-124 220,-162 -70,32 -134,75 -188,129 -11,10 -22,21 -32,33z"/>
  <circle class="fil2 str0" cx="1405" cy="-1169" r="485"/>
 </g>
</svg>
