<?xml version="1.0" encoding="UTF-8"?>
<!DOCTYPE svg PUBLIC "-//W3C//DTD SVG 1.1//EN" "http://www.w3.org/Graphics/SVG/1.1/DTD/svg11.dtd">
<!-- Creator: CorelDRAW X7 -->
<svg xmlns="http://www.w3.org/2000/svg" xml:space="preserve" width="135.467mm" height="42.3332mm" version="1.1" style="shape-rendering:geometricPrecision; text-rendering:geometricPrecision; image-rendering:optimizeQuality; fill-rule:evenodd; clip-rule:evenodd"
viewBox="0 0 13547 4233"
 xmlns:xlink="http://www.w3.org/1999/xlink">
 <defs>
  <style type="text/css">
   <![CDATA[
    .fil0 {fill:none}
    .fil1 {fill:#F80C3A;fill-rule:nonzero}
   ]]>
  </style>
 </defs>
 <g id="Layer_x0020_1">
  <metadata id="CorelCorpID_0Corel-Layer"/>
  <rect class="fil0" width="13547" height="4233"/>
  <path class="fil1" d="M1421 1363l187 0c205,0 313,54 313,223 0,169 -108,259 -313,259l-187 0 0 -482zm1115 1550l-425 -760c190,-103 317,-287 317,-567 0,-488 -362,-633 -784,-633l-742 0 0 1960 519 0 0 -658 199 0 338 658 578 0z"/>
  <path id="1" class="fil1" d="M2651 2159c0,500 338,790 778,790 169,0 386,-61 549,-175l-169 -308c-109,61 -205,91 -308,91 -169,0 -301,-60 -350,-253l860 0c9,-37 21,-115 21,-205 0,-404 -211,-730 -657,-730 -368,0 -724,301 -724,790zm494 -169c31,-166 127,-229 242,-229 156,0 205,102 205,229l-447 0z"/>
  <path id="2" class="fil1" d="M4623 3075c0,-42 18,-72 54,-108 42,12 97,18 217,18l118 0c129,0 202,12 202,90 0,85 -127,139 -296,139 -175,0 -295,-42 -295,-139zm-422 85c0,271 289,374 633,374 536,0 874,-223 874,-549 0,-277 -217,-392 -594,-392l-226 0c-151,0 -211,-24 -211,-90 0,-43 6,-61 36,-88 67,15 121,21 169,21 338,0 609,-144 609,-500 0,-61 -12,-121 -24,-157l217 0 0 -374 -561 0c-72,-24 -157,-36 -241,-36 -332,0 -645,175 -645,549 0,175 96,313 205,386l0 12c-103,72 -169,181 -169,283 0,127 60,205 139,259l0 12c-139,73 -211,166 -211,290zm681 -1031c-96,0 -163,-67 -163,-211 0,-139 67,-205 163,-205 97,0 163,66 163,205 0,144 -66,211 -163,211z"/>
  <path id="3" class="fil1" d="M6191 1218c168,0 289,-108 289,-259 0,-151 -121,-259 -289,-259 -169,0 -290,108 -290,259 0,151 121,259 290,259zm-260 1695l519 0 0 -1508 -519 0 0 1508z"/>
  <path id="4" class="fil1" d="M6679 2738c157,126 392,211 585,211 422,0 645,-217 645,-501 0,-271 -205,-386 -386,-452 -151,-54 -283,-84 -283,-163 0,-60 45,-84 132,-84 94,0 199,48 308,126l229 -307c-133,-100 -307,-199 -555,-199 -355,0 -597,193 -597,488 0,248 205,377 380,447 151,60 290,96 290,174 0,61 -43,91 -151,91 -106,0 -229,-48 -368,-151l-229 320z"/>
  <path id="5" class="fil1" d="M8229 2334c0,368 162,615 554,615 166,0 278,-30 356,-54l-78 -374c-36,12 -85,24 -133,24 -96,0 -181,-54 -181,-220l0 -516 344 0 0 -404 -344 0 0 -392 -428 0 -60 392 -229 18 0 386 199 0 0 525z"/>
  <path id="6" class="fil1" d="M9260 2159c0,500 337,790 778,790 168,0 385,-61 548,-175l-169 -308c-108,61 -205,91 -307,91 -169,0 -302,-60 -350,-253l859 0c9,-37 22,-115 22,-205 0,-404 -211,-730 -658,-730 -368,0 -723,301 -723,790zm494 -169c30,-166 127,-229 241,-229 157,0 205,102 205,229l-446 0z"/>
  <path id="7" class="fil1" d="M10924 2913l519 0 0 -839c72,-186 205,-253 313,-253 66,0 115,12 169,24l84 -446c-42,-18 -93,-30 -187,-30 -147,0 -316,90 -428,295l-12 0 -36 -259 -422 0 0 1508z"/>
 </g>
</svg>
