<?xml version="1.0" encoding="UTF-8"?>
<!DOCTYPE svg PUBLIC "-//W3C//DTD SVG 1.1//EN" "http://www.w3.org/Graphics/SVG/1.1/DTD/svg11.dtd">
<!-- Creator: CorelDRAW X7 -->
<svg xmlns="http://www.w3.org/2000/svg" xml:space="preserve" width="84.6666mm" height="88.7306mm" version="1.1" style="shape-rendering:geometricPrecision; text-rendering:geometricPrecision; image-rendering:optimizeQuality; fill-rule:evenodd; clip-rule:evenodd"
viewBox="0 0 8467 8873"
 xmlns:xlink="http://www.w3.org/1999/xlink">
 <defs>
  <style type="text/css">
   <![CDATA[
    .fil3 {fill:#FEFEFE}
    .fil17 {fill:#727271}
    .fil14 {fill:#2B2A29}
    .fil7 {fill:gainsboro}
    .fil12 {fill:black}
    .fil9 {fill:#1E92CC}
    .fil2 {fill:#292929}
    .fil8 {fill:#870B23}
    .fil10 {fill:#877B40}
    .fil6 {fill:#E81C3B}
    .fil15 {fill:#F7CD86}
    .fil5 {fill:#FFDA1E}
    .fil4 {fill:#FFF2B2}
    .fil11 {fill:#FFF58C}
    .fil18 {fill:#DEFBFF}
    .fil13 {fill:#98D6E0}
    .fil16 {fill:#287480}
    .fil1 {fill:black}
    .fil0 {fill:url(#id0)}
   ]]>
  </style>
  <linearGradient id="id0" gradientUnits="userSpaceOnUse" x1="6894.59" y1="7162.8" x2="3239.73" y2="1494.96">
   <stop offset="0" style="stop-opacity:1; stop-color:#FF00D0"/>
   <stop offset="0.631373" style="stop-opacity:1; stop-color:#E76D79"/>
   <stop offset="1" style="stop-opacity:1; stop-color:#CFDB21"/>
  </linearGradient>
 </defs>
 <g id="Layer_x0020_1">
  <metadata id="CorelCorpID_0Corel-Layer"/>
  <g id="_2183326753520">
   <path class="fil0" d="M2918 1422c-1474,999 -1340,2416 -1103,4116 237,1700 3489,2604 4963,1605 1473,-1000 2740,-5383 372,-5225 -2367,159 -2759,-1496 -4232,-496z"/>
   <g>
    <path class="fil1" d="M4065 4085l25 -36c4,2 8,3 12,4 28,11 120,76 134,14 6,-26 -3,-14 -1,-41 2,-42 20,-82 32,-119l54 -152c19,-51 44,-91 59,-142 17,-55 38,-97 58,-148 5,-12 10,-27 13,-37 7,-20 5,-21 3,-44 -5,-43 -5,-89 -26,-125 -8,-15 -2,0 -8,-18 -19,-51 -81,-24 -164,-62 -69,-31 -156,-52 -229,-77 -50,-18 -97,-41 -146,-55 -27,-8 -60,-10 -83,-18 -27,-11 -52,-16 -81,-3 -22,9 -82,57 -88,87 -9,37 -1,76 11,109 37,97 64,9 14,157 -10,30 -19,69 -26,101 -103,-51 -114,-28 -136,-39 -36,-18 -9,-10 -47,-9 -52,2 -117,-28 -160,-24 -25,2 -28,14 -43,17 -14,-97 -22,-188 -30,-283 -3,-35 0,-67 -2,-102 -5,-96 -39,-307 -37,-382 56,31 113,153 113,153 73,9 61,-33 55,-87 -15,-133 -28,-281 -74,-401 -7,-19 -13,-37 -19,-55 -8,-23 -16,-36 -24,-57 -30,-72 -90,-204 -143,-254 -11,-11 -32,-25 -37,-41 72,0 158,-35 201,-92 31,-40 61,-97 69,-151 5,-41 15,-83 10,-125 -20,-161 -66,-134 -164,-208 -42,-33 -83,-15 -129,-13l-16 -73c47,4 76,9 112,-16 53,-37 53,-111 -63,-145 -39,-11 -73,-3 -116,2 -19,-55 -51,-74 -79,-113 -15,-20 -12,-15 -37,-28 2,-18 55,-90 70,-112 55,-79 108,-130 137,-233 11,-39 18,-130 3,-163 -13,-30 -107,-55 -137,-43 -54,20 -104,95 -137,139 -21,28 -17,30 -33,64 -37,80 -99,67 -113,50 -21,-77 31,-118 58,-151 42,-51 90,-171 51,-245 -24,-47 -46,-89 -91,-120 -43,-28 -38,-18 -77,-28 -35,-8 -30,-26 -83,-24 -28,2 -56,15 -84,22 -72,20 -89,40 -136,75 -66,51 -82,144 -89,228 -3,25 -7,66 -28,81 -37,-23 -83,-171 -240,-199 -95,-17 -100,0 -154,48 -37,34 -80,111 -44,160 31,41 157,160 108,205 -24,21 -60,21 -82,0 -49,-48 -167,-134 -213,-42 -36,74 -47,62 3,117 -31,26 -25,-9 -60,56 -33,59 -37,126 3,186 6,11 21,26 26,35 6,11 12,33 15,46 15,62 -90,107 -107,188 -26,121 85,64 65,144 -9,37 -23,37 -27,94 -4,51 15,86 31,129 23,63 35,42 18,123 -18,82 -7,288 -5,391 0,33 -6,48 -7,81 -1,40 -1,34 -24,54 -14,13 -30,25 -42,39 -14,16 -20,32 -28,52l-22 63c-11,41 -49,238 -46,274 3,48 -28,231 -37,292 -8,49 -11,94 -17,145 -6,40 -17,106 -18,147 -1,27 1,51 -1,80 -1,27 -7,44 -9,70 -4,45 -3,115 -11,156 -25,-11 -34,-33 -55,-50 -66,-54 -111,-94 -204,-122 -166,-50 -300,-4 -408,98l-58 52c-37,35 -67,78 -96,126 -57,96 -93,199 -128,308 -39,121 -64,226 -75,363 -21,261 -3,557 37,816 5,31 15,55 18,88 3,25 11,63 16,95 5,26 21,55 26,83 6,32 10,67 18,95 50,25 49,10 47,-122 0,-61 -12,-117 -14,-172 -4,-96 -8,-273 7,-365 23,-154 52,-220 118,-350 26,-50 97,-136 141,-141 -13,31 -57,40 -77,88 6,15 18,24 28,37 16,22 61,121 65,144 -15,-6 -61,-39 -68,-51 -13,-20 -9,-73 -62,-51 -24,10 -31,60 -36,85 -7,31 -19,61 -28,94l-42 199c-29,151 20,513 36,679 7,74 24,133 32,211 1,9 18,62 22,97 3,29 9,26 13,47 1,4 -2,86 62,41 2,-17 -15,-71 -22,-90 -37,-92 4,-204 16,-298 9,-74 44,-174 86,-231 11,-16 2,-5 9,-21 12,-26 44,-30 60,-62 1,-8 -25,-49 -34,-77 -7,-22 -22,-58 -26,-83 48,20 6,99 149,60 -17,44 -50,38 -82,152 -8,29 -19,31 -22,59l3 301c3,20 4,8 8,27 3,10 3,25 4,37 2,24 5,48 12,69 9,28 10,36 14,68 4,23 15,22 22,55 13,54 16,50 32,90 11,27 23,133 60,141 58,-2 31,-52 32,-100 2,-53 25,-205 39,-255 17,-67 45,-46 66,-82 -5,-31 -14,-7 -15,-45 -1,-45 -16,-159 -10,-184 22,46 8,38 13,84 33,16 34,14 60,-5 7,-57 4,-61 32,-105 56,-92 153,-169 271,-107 32,17 23,66 25,110 5,88 2,185 9,273 5,76 -6,46 8,121 9,50 0,86 35,103 32,15 92,123 115,166 24,45 89,116 124,152 14,15 25,21 38,33 10,10 22,25 35,35 13,8 26,12 45,26 78,57 103,49 137,72 5,31 -2,68 -3,101 -4,115 11,148 -4,309 -14,1 -88,-34 -102,-47 -14,-13 -4,-2 -8,-13 -18,-49 -20,-20 -67,-44 -116,-57 -97,-28 -168,-47 -33,-9 -31,-7 -56,5 3,51 33,34 80,86 20,22 76,64 85,83 -23,60 18,47 82,122 37,43 60,88 85,146 31,73 70,312 73,390 1,34 36,123 51,179 7,26 1,51 4,78 15,10 35,27 61,6 10,-9 22,-47 25,-59 16,-54 12,-89 37,-141 34,-72 11,-57 9,-148 -1,-67 -15,-150 -15,-160 43,21 126,128 131,180 3,39 10,17 27,46 19,31 57,141 64,173 44,14 91,27 79,-40 -9,-51 29,-229 11,-282 -7,-21 -38,-37 -51,-59 -24,-41 -39,-88 -66,-125 -36,-49 -80,-94 -121,-140l-67 -90c-14,-18 -6,-1 -23,-16 -1,-30 6,-77 15,-104 9,-25 16,-80 17,-107 2,-36 2,-86 7,-120 8,-52 29,-41 31,-95 20,2 21,6 44,7 20,1 36,2 56,3 73,5 316,1 339,6 1,40 4,83 -3,123 -3,16 -7,19 -11,35 -8,38 -6,126 -6,169 -35,-10 -80,-59 -125,-66 26,-60 -24,-38 -68,-68 -33,-22 -65,-36 -96,-60 -12,-9 -16,-17 -30,-24 -31,-16 -60,8 -68,30 6,23 17,18 30,37 19,26 46,110 67,145 9,14 14,25 25,40 17,24 24,-3 99,112l43 57c22,33 17,59 32,74 18,18 21,13 26,44 18,129 -21,192 -15,258l25 19c1,25 9,41 9,58 -1,19 -12,38 -14,52 -1,17 8,30 7,53 -2,24 -5,33 5,53 61,14 71,-23 100,-63 18,-26 42,-80 56,-109 29,-58 25,-72 26,-142 0,-56 -10,-104 -12,-157 27,10 32,26 53,45 25,22 75,85 67,125 -3,13 -12,19 -4,38 10,23 14,11 30,20 -2,26 4,56 3,86 -2,35 -23,36 -26,65 15,19 27,28 62,22l55 -75c14,-26 83,-157 86,-175 4,-31 -126,-256 -209,-310 -24,-15 -53,-32 -77,-56 5,-48 3,-91 7,-140l19 -128c5,-39 20,-78 30,-115 20,-80 25,-51 41,-93 0,-2 1,-3 1,-4 9,-22 51,-19 74,-23l209 -57c21,-7 44,-19 63,-22 33,-5 53,4 67,-26 16,-34 -10,-35 -17,-66 -17,-82 -14,-165 -17,-250 -6,-168 12,-344 18,-509l22 -326c3,-51 14,-108 16,-161 0,-24 5,-58 10,-84 7,-39 14,-350 19,-411 6,-78 13,-161 -16,-236 -6,-16 -8,-14 -17,-29 -3,-6 -5,-6 -6,-15 -2,-26 3,-16 6,-19 14,30 22,74 67,56 39,-16 35,-54 59,-72 11,9 5,4 14,21 6,11 6,14 14,22 8,10 26,23 47,24 54,4 61,-32 76,-71 19,-52 57,-178 59,-234 33,5 36,10 58,26 27,20 34,9 64,21 21,9 33,19 56,25 40,11 80,32 120,45 21,7 44,10 68,17 48,14 82,50 118,4 3,-30 -14,-53 2,-93 9,-20 13,-16 12,-43 0,-7 -1,-17 -3,-26z"/>
    <path class="fil2" d="M2201 4842c-140,45 -355,-29 -471,-91 -35,-18 -43,-20 -72,-44 -57,-48 -121,-71 -201,-151 -22,-21 -38,-34 -58,-57 -16,-19 -35,-48 -50,-66 -34,-41 -74,-90 -82,-147l-15 -336c2,-37 -3,-77 -4,-115 -1,-39 3,-78 2,-116l39 -478c16,-50 15,-90 20,-149 3,-25 12,-81 17,-105 8,-33 9,-67 14,-101 10,-65 32,-139 30,-203 -2,-57 16,-150 27,-203 14,-68 45,-106 88,-144 16,7 110,94 143,119 18,13 30,23 49,36 92,65 128,79 209,133l233 114c107,41 98,35 192,64 21,6 51,10 70,15 -7,18 -9,18 -24,29 -30,22 -124,92 -149,103 -82,34 32,80 85,168l73 128c12,24 20,44 34,67 29,51 79,157 83,214l16 279c4,18 15,71 5,87l-176 -509c-54,-158 -101,-288 -205,-418l-32 -83c-7,-46 -27,-60 -63,-104 -17,-20 -35,-40 -60,-55 -95,-54 -138,-55 -254,3 -45,23 -94,69 -126,100 -48,48 -134,227 -156,297l-52 174c-9,70 -6,144 -12,216 -5,68 13,138 37,190 48,99 68,69 128,96 4,25 1,67 2,96 8,125 52,287 104,399 5,12 7,22 12,33 20,39 32,37 45,45 -4,38 -24,64 10,102 32,37 91,57 135,13 10,-11 16,-19 26,-35 20,-32 18,-63 35,-88 11,10 18,35 27,47 42,59 -13,58 18,178 13,49 92,115 149,-8 9,11 11,21 14,36 24,128 77,139 91,225z"/>
    <path class="fil3" d="M2626 2800c-23,-4 -17,-9 -40,-10 -18,-1 -23,4 -40,3 -18,-1 -19,-5 -36,-7 -14,-2 -31,-2 -45,-3 -129,-14 -311,-71 -411,-131 -28,-16 -38,-18 -66,-29 -61,-24 -112,-62 -174,-98 -109,-63 -119,-80 -210,-152 -23,-18 -31,-24 -51,-44 -24,-24 -34,-17 -26,-60 7,-46 -4,-283 -5,-350 -2,-122 8,-78 13,-121 6,-58 24,-131 41,-186 48,-159 54,-139 100,-260 4,-9 178,-266 208,-306 44,-55 23,-28 56,-55 122,-100 99,-114 296,-146 35,-6 71,-3 107,1 61,8 182,77 212,118 74,102 84,45 178,259 19,-2 14,-4 26,-10 22,-12 41,-3 60,-73 8,-30 -1,-92 -3,-122 51,16 85,92 101,138 19,52 61,73 50,180 -22,10 -49,16 -73,27 -78,38 -92,87 -134,157 -96,154 -26,194 27,263 -82,-16 -41,-31 -177,14 -20,6 -18,10 -36,19 -44,22 -23,19 -68,44 -18,10 -17,16 -22,33 -5,18 -28,48 -41,69 -40,64 -34,77 -47,118 -6,17 -11,22 -17,39 -67,192 -16,212 -14,278 0,23 -6,18 -3,46 14,105 15,127 67,211 23,39 9,37 51,60 31,15 34,29 75,36 43,7 50,12 97,13 -5,25 1,7 -26,37z"/>
    <path class="fil1" d="M2319 1197c27,-5 98,-6 128,6 10,4 16,10 25,15 29,16 52,23 89,24 26,0 42,-12 50,-27 24,-48 -54,-107 -88,-128 -33,-20 -52,-48 -108,-44 -104,7 -132,-4 -177,50 -33,40 -25,91 12,101 19,5 47,8 69,3z"/>
    <path class="fil3" d="M1882 4196c3,14 6,23 5,40 0,3 -3,18 -4,21l-22 84c-6,22 -9,52 -19,73 -17,38 -76,78 -106,29 -14,-22 -3,-50 -2,-78 13,-8 26,-11 36,-19 32,-22 49,-54 58,-94 7,-29 12,-58 16,-88 7,-53 21,-52 16,-81 -60,-39 -55,76 -60,123 -7,56 -34,117 -94,111 -68,-76 -122,-315 -132,-443 -4,-50 -1,-97 -2,-145 -3,-94 6,-182 10,-277 2,-34 19,-89 5,-119l-37 8c-4,29 1,70 -1,105 -2,33 -1,65 -3,97 -3,64 -4,134 -7,200 -44,3 -62,-11 -75,-43 -13,-33 -26,-53 -33,-89 -14,-70 -7,-245 11,-323l51 -184c18,-43 54,-120 80,-157 19,-26 22,-48 44,-76 61,-79 204,-193 305,-117 39,29 92,72 112,128 -40,-5 -89,-48 -178,-29 -20,4 -38,10 -40,31 23,11 102,-15 200,37 35,20 24,7 36,43 20,9 25,1 41,17 27,27 47,63 66,99 14,28 26,48 41,69 36,52 68,181 87,245l141 412c9,27 20,52 30,81 10,31 14,55 24,87 7,21 21,57 31,80 21,45 9,52 20,90 9,34 38,30 73,27 20,-58 73,-95 107,-134 67,-76 79,-68 124,-112l94 -87c11,-11 21,-19 33,-27 45,-29 65,-53 101,-81 11,-9 26,-14 34,-21 17,-14 23,-40 54,-67 61,-53 66,-53 107,-133 12,-23 33,-49 69,-47 37,2 59,19 91,32 33,13 26,49 30,89 4,37 14,136 0,171 -24,58 -2,25 -45,65 -23,22 -81,47 -111,46 -21,-41 1,-62 -3,-76 -10,-13 -18,-22 -42,-19 -36,31 5,51 -4,104 -7,38 -4,77 -3,121 1,52 11,64 1,119 -10,53 -9,115 -36,160 -18,30 -15,70 -33,99 -19,31 -8,5 -18,47 -8,35 -53,156 -93,163 -23,-31 -30,-152 -15,-196 23,-66 86,-138 40,-151 -33,4 -31,13 -41,45 -23,76 -45,113 -44,202 0,22 11,138 16,150 11,23 18,18 -1,66 -25,61 -69,60 -71,6 -1,-68 11,-132 18,-201 9,-96 31,-175 -3,-262 65,-68 77,-117 103,-200 12,-38 -31,-41 -45,-20 -11,15 -7,63 -14,87 -22,86 -111,179 -121,49 -41,-1 -38,36 -23,64 20,38 28,29 68,42 18,117 22,49 7,192 -8,68 -12,125 -24,188 -18,93 -60,275 -146,278 -28,-22 -46,-122 -37,-168 5,-25 12,-26 16,-41 8,-31 -4,-18 -2,-43 2,-31 35,-39 12,-71 -30,-12 -25,-5 -47,7 -5,24 -1,49 -10,76 -19,59 -52,124 -79,177 -20,39 -35,83 -57,114 -16,24 -66,65 -102,67 -90,-85 43,-155 -11,-186 -60,-26 -45,67 -105,86 -41,13 -82,-7 -95,-47 -10,-31 1,-22 8,-34 23,-43 -42,-25 1,-59 46,-37 110,-148 92,-193 -54,-21 -42,35 -48,66 -7,39 -44,85 -79,102 -16,-10 -19,-17 -28,-37 -9,-20 -14,-25 -25,-41 -11,-18 -28,-74 -31,-99 -3,-19 -5,-44 -6,-61 -4,-45 -7,-28 -14,-51 -14,-44 46,-65 18,-93 -10,-11 -40,-12 -48,6 -11,29 -6,111 -32,164 -35,73 -93,26 -72,-106 42,-14 59,-34 80,-72 9,-17 14,-34 24,-51 12,-20 29,-30 2,-51 -7,-2 8,-3 -14,-2 -33,2 -24,41 -32,64 -9,24 -25,55 -53,60 -60,-7 -79,-219 -83,-271 -2,-27 -5,-151 -11,-166 -9,-22 -53,-18 -53,8 0,4 18,39 23,59 12,50 5,110 13,161z"/>
    <path class="fil4" d="M3199 4449c31,36 25,125 20,180 -6,57 -4,125 -7,180 -3,61 -10,122 -11,187 -1,64 -13,121 -18,181 -5,63 -5,124 -13,187 -6,54 -9,131 -11,185 -2,35 -7,57 -8,90 -6,222 -19,459 -6,679 7,124 13,131 -210,189 -283,73 -424,81 -718,60 -140,-10 -272,-52 -388,-110 -44,-22 -144,-94 -167,-129 -33,-50 -35,-72 -79,-123l-85 -111c-136,-184 -53,-82 -86,-310l-10 -190c-1,-186 -25,-223 -35,-365l-30 -255c-4,-31 -9,-61 -13,-88 -9,-56 -17,-114 -27,-169 -9,-59 -11,-123 -21,-176 -3,-19 -16,-68 -15,-83 1,-20 9,-16 6,-29 -2,-18 -19,-13 -8,-34 14,11 8,14 22,26 27,23 39,31 63,73 30,53 133,144 188,179 39,25 61,51 105,75 194,106 41,51 250,117 108,34 201,39 317,22l-2 44c88,95 121,54 173,51 29,44 33,101 67,107 25,5 52,-4 69,-18 16,-13 33,-24 49,-36 62,-47 94,-178 123,-208 9,-9 -1,-4 12,-7 1,46 8,85 23,124 20,49 68,24 97,5 73,-46 85,-137 108,-184 1,0 2,1 3,2 13,9 21,24 56,18 16,-3 39,-25 48,-34 34,-34 30,-61 50,-105 16,-37 55,-75 95,-147 9,-16 14,-37 24,-50z"/>
    <path class="fil2" d="M2495 3392c-30,-45 -52,-112 -81,-164 -31,-56 -62,-99 -91,-156 -25,-47 -95,-75 -53,-111 45,-38 134,-80 170,-138l45 11c19,79 27,189 22,272 -3,48 -5,98 -6,145 -1,39 -1,106 -6,141z"/>
    <path class="fil1" d="M3506 4863c30,1 29,-24 32,-55 3,-22 0,-62 -3,-85 -46,-18 -51,0 -40,47 7,33 -2,74 11,93z"/>
    <path class="fil1" d="M771 5035l21 -23c-15,-28 -26,-26 -56,-16 -3,34 3,40 35,39z"/>
    <path class="fil5" d="M3282 2711c-20,-11 -23,-18 -34,-32 -84,-104 -193,-149 -331,-166 -36,-5 -62,-6 -98,-13 -65,-11 -148,0 -218,-4 -75,-4 -106,-39 -149,-76 -62,-55 -57,-124 -47,-209l70 -207c37,-95 38,-74 69,-102 37,-34 36,-48 99,-66 97,-27 83,-17 182,5 43,9 43,19 74,36 29,15 44,23 67,43 139,123 93,67 193,256 33,62 31,77 49,116 7,15 9,23 15,41 31,92 73,290 59,378z"/>
    <path class="fil1" d="M1666 2340c29,-12 9,-55 -29,-38 -27,12 -15,57 29,38z"/>
    <path class="fil6" d="M2286 654c53,-15 67,-78 14,-67 -43,9 -16,35 -100,-17 -12,-7 -18,-12 -26,-29 76,-81 17,-216 88,-313 17,-22 62,-54 89,-68 14,-8 22,-7 38,-12 70,-19 98,-28 169,-1 89,35 175,131 130,255 -6,17 -9,22 -15,39 -31,83 -115,57 -98,247 22,16 55,19 86,20 94,4 128,-146 173,-200 16,-20 63,-62 90,-65 80,-10 89,70 80,128 -10,59 -32,104 -59,154 -24,44 -61,75 -91,120 -35,53 -79,93 -83,129 -8,80 14,112 -21,178 -22,-11 -21,-27 -32,-49 -9,-18 -17,-32 -29,-46l-146 -156c-18,-18 -25,-18 -46,-29 -23,-13 -29,-25 -43,-33 -15,-8 -96,-32 -119,-33 -62,-5 -143,4 -200,19 -147,39 -192,71 -278,169 -111,124 -190,269 -260,419l-76 220c-39,-20 -45,-89 -31,-136 10,-29 21,-32 29,-66 7,-31 15,-38 -9,-60 -48,-44 -15,-6 -33,-63 -10,-31 -10,-39 8,-67 26,-39 62,-50 65,-121 2,-80 -24,-82 -54,-132 -26,-44 -35,-185 94,-145 79,25 47,-4 131,55 29,21 31,22 54,-5 -7,-22 -2,-24 -24,-39 -54,-36 -171,-55 -187,-70 -43,-40 -47,-63 -4,-116 140,-2 135,153 256,89 109,-57 18,-175 -32,-233 -48,-56 -69,-98 -5,-156 102,-92 264,33 299,128 14,39 36,56 52,74 26,32 20,37 62,58 27,14 53,37 94,26z"/>
    <path class="fil1" d="M1430 2981c8,-11 12,-14 14,-31l-15 -19c-60,-3 -64,61 1,50z"/>
    <path class="fil1" d="M837 3563c-17,-45 -73,-30 -69,14 30,23 50,15 69,-14z"/>
    <path class="fil1" d="M1683 959c8,-14 16,-14 14,-35 -13,-9 -50,-13 -71,-16 -22,-3 -65,-9 -66,21 -1,32 14,5 52,13 33,6 40,18 71,17z"/>
    <path class="fil1" d="M2428 5462l2 -24c-25,-22 -37,-7 -73,-18 -24,-7 -51,-29 -72,-12 5,21 45,37 65,45 33,14 38,35 78,9z"/>
    <path class="fil1" d="M1196 6286c-37,-3 -48,5 -47,42 35,21 31,16 52,53 9,15 35,57 59,44 35,-19 -23,-58 -45,-103 -11,-19 -4,-16 -19,-36z"/>
    <path class="fil1" d="M1429 150c37,-3 15,-27 64,-74 29,-28 68,-21 49,-73 -59,-10 -35,4 -80,48 -16,16 -61,68 -33,99z"/>
    <path class="fil1" d="M2490 2335c19,-45 -45,-72 29,-197 14,-23 29,-35 36,-49 -27,-11 -37,7 -55,36 -36,57 -61,88 -47,148 8,34 7,61 37,62z"/>
    <path class="fil1" d="M3008 6163l-37 -3c-16,27 -17,59 -40,86 -1,0 -91,74 -20,63 46,-7 117,-108 97,-146z"/>
    <path class="fil1" d="M1653 5666c2,-11 -8,-32 -10,-55 -3,-28 -2,-92 -18,-122 -26,-51 -65,-16 -40,35 36,72 11,165 68,142z"/>
    <path class="fil1" d="M1766 2094c-14,-36 10,-68 10,-104 -84,-47 -54,140 -26,152 52,22 80,-82 52,-96 -33,14 -3,39 -36,48z"/>
    <path class="fil1" d="M32 3522c19,-17 15,-36 25,-60 10,-25 60,-79 81,-100 16,-16 28,-52 -14,-45 -18,3 -47,51 -60,71 -16,24 -112,123 -32,134z"/>
    <path class="fil1" d="M1942 581c-9,-40 -37,-83 -33,-133 52,7 46,51 78,34 1,0 20,-3 4,-29 -22,-35 -60,-54 -105,-48 -23,40 -17,55 -2,105 4,14 13,29 20,45 9,18 11,30 38,26z"/>
    <path class="fil1" d="M2038 2341c-34,-16 -20,-80 -40,-97 -25,8 -18,25 -10,72 5,28 10,47 26,64 43,7 55,-10 67,-45 7,-20 23,-69 22,-89 -24,-20 -30,-18 -53,2 -5,43 13,48 -12,93z"/>
    <path class="fil1" d="M3203 2406c3,-24 -5,-54 -13,-75 -22,-63 -51,-110 -86,-167 -10,-16 -8,-20 -34,-12 -13,30 8,48 22,70 31,45 52,91 73,139 9,21 18,60 35,57l3 -12z"/>
    <path class="fil1" d="M3189 4995c-20,-11 -11,-13 -45,-8 -9,17 -10,41 -16,63 -13,50 -66,161 -58,195 21,4 21,1 28,-13 11,-25 16,-48 42,-99 51,-100 20,-45 39,-97 5,-13 11,-19 10,-41z"/>
    <path class="fil1" d="M1609 2282l18 1c21,-36 -1,-65 6,-165 3,-30 2,-58 2,-89 0,-34 0,-54 -46,-37 -7,21 13,57 7,148 -3,40 -4,110 13,142z"/>
    <path class="fil1" d="M1010 2390c14,12 36,-1 39,-44 2,-41 5,-48 14,-85 7,-30 15,-43 27,-68 22,-43 9,-15 21,-30 8,-10 12,-27 2,-37 -23,-21 -53,15 -57,27 -8,21 -42,131 -44,153 -1,19 1,28 -4,46 -11,43 -5,33 2,38z"/>
    <path class="fil1" d="M2003 3727c-20,-32 29,-36 5,-79 -21,-9 -37,5 -52,14 -1,22 2,36 0,58 -1,12 -8,49 -7,53 18,80 209,-156 104,-149 -26,39 -7,59 -50,103z"/>
    <path class="fil1" d="M1772 3822c-26,14 -23,36 -39,59 -12,19 -43,40 -49,2 -13,-72 45,-141 -32,-129 -5,15 -5,87 -4,111 1,40 -1,75 43,78 39,2 64,-23 79,-50 17,-28 45,-59 2,-71z"/>
    <path class="fil1" d="M2482 4691c-13,-22 -3,-39 -9,-65 -111,-23 1,252 80,50 14,-37 20,-60 8,-97 -82,3 -24,33 -52,88 -9,17 -10,18 -27,24z"/>
    <path class="fil1" d="M838 4212c24,11 65,3 94,5 108,5 136,40 151,46 27,9 59,-7 50,-35 -7,-23 -47,-23 -71,-31 -47,-15 -239,-64 -224,15z"/>
    <path class="fil1" d="M2144 4066c-47,-5 -47,12 -41,46 10,52 -14,152 -55,110 -19,-19 -14,-46 -16,-75 -83,-9 -16,177 61,120 57,-42 49,-115 58,-154 9,-39 12,-14 -7,-47z"/>
    <path class="fil1" d="M1637 1918c39,5 52,-16 66,-42 16,-30 27,-55 17,-96 -45,1 -6,79 -59,99 -34,-39 3,-237 25,-277 8,-15 15,-14 14,-34 -39,-16 -42,18 -54,50 -18,51 -23,145 -28,203 -3,46 -2,67 19,97z"/>
    <path class="fil1" d="M1534 2448c-57,-11 -42,27 -54,74 -12,47 -92,310 -43,328 36,13 26,-77 27,-102 4,-46 21,-117 34,-163 6,-22 23,-81 34,-96 19,-24 18,-13 2,-41z"/>
    <path class="fil1" d="M1169 4835l-167 -7c-75,-1 -123,28 -156,66 -14,17 -52,37 -50,62 3,42 51,13 66,-10 30,-50 65,-74 145,-76 30,-1 82,-4 108,3 63,17 64,-24 54,-38z"/>
    <path class="fil1" d="M2108 3841c-14,28 17,9 -9,94 -39,130 -94,94 -95,50 -2,-39 19,-59 14,-96 -25,-9 -34,-8 -42,25 -5,19 -15,50 -14,71 0,40 44,90 88,78 32,-8 64,-64 77,-94 9,-18 34,-103 30,-128 -3,-16 -32,-28 -49,0z"/>
    <path class="fil1" d="M1800 3643c-54,-60 -1,-93 -13,-137l-27 -2c-28,31 -35,96 -17,137 35,79 118,34 154,-27 25,-43 45,-188 -21,-159 -47,20 2,45 6,68 8,49 -22,120 -82,120z"/>
    <path class="fil1" d="M3008 5111c4,-9 4,-13 8,-21 17,-31 64,-93 87,-150 12,-28 27,-66 37,-94 8,-25 42,-94 -20,-76 -31,10 -12,26 -37,95 -21,56 -53,128 -92,174 -31,38 -43,86 17,72z"/>
    <path class="fil1" d="M2623 255c-9,-15 -36,-30 -52,-36 -26,-10 -45,-12 -76,-10 -107,7 -143,66 -175,177 -4,15 -28,133 -24,149 71,15 11,-95 97,-237 29,-48 123,-77 179,-29 23,19 40,20 51,-14z"/>
    <path class="fil1" d="M1490 5000c-16,4 -18,7 -29,15 1,36 12,42 33,58 22,17 103,148 112,168l87 195c7,15 29,49 52,42 25,-8 -2,-36 -11,-57l-63 -129c-29,-64 -59,-125 -100,-180 -36,-48 -52,-94 -81,-112z"/>
    <path class="fil1" d="M1513 342c39,-69 46,-156 172,-229 36,-21 110,-49 165,-32 44,13 25,42 57,45 63,3 15,-79 -61,-85 -138,-10 -248,70 -316,183 -13,21 -25,41 -38,63 -18,30 -33,56 21,55z"/>
    <path class="fil1" d="M2222 4176c-10,35 -30,117 -19,157 30,105 133,72 183,-70 78,-219 -20,-189 -27,-156 -3,18 15,38 11,79 -18,168 -143,225 -133,91 5,-59 77,-124 -15,-101z"/>
    <path class="fil1" d="M2400 5810c-53,0 -105,-13 -138,-37 -93,-70 -48,-82 -84,-93 -28,52 71,140 107,155 93,37 240,19 323,-67 11,-12 30,-23 23,-48 -5,-22 -32,-15 -46,-6 -24,15 -45,96 -185,96z"/>
    <path class="fil1" d="M1132 4523c-100,-63 -183,-69 -295,-54 -81,12 -122,35 -159,112 -39,84 2,101 30,29 57,-148 284,-113 351,-68 10,6 17,16 27,19 28,9 47,-10 46,-38z"/>
    <path class="fil1" d="M739 3590c-47,-14 -113,34 -140,62l-54 52c-71,69 -88,95 -135,192 -11,23 -73,136 -58,157 22,34 51,-16 56,-34 25,-94 83,-209 155,-278l56 -54c94,-80 121,-45 120,-97z"/>
    <path class="fil1" d="M2037 5152c-13,-18 -164,-104 -202,-124l-122 -74c-54,-36 -97,-71 -148,-114l-71 -60c-58,-56 -31,-26 -55,-74l-45 6c-5,45 32,61 59,80 66,45 117,107 228,179 56,35 108,71 167,104 30,18 56,30 88,47 20,11 73,49 101,30z"/>
    <path class="fil1" d="M1475 6486l34 -15c-4,-26 -22,-36 -39,-52 -39,-35 -100,-109 -133,-149 -21,-27 -56,-79 -70,-116 -2,-5 -32,-217 -33,-246 -69,-8 -39,77 -28,168 17,134 125,250 214,347 15,15 39,54 55,63z"/>
    <path class="fil1" d="M42 3984c13,28 35,9 39,-17 4,-26 6,-40 11,-63 6,-23 6,-41 10,-64 25,-116 60,-180 130,-263l69 -88c22,-32 114,-122 168,-144 25,-9 116,-22 89,-60 -17,-24 -84,20 -106,29 -86,36 -253,234 -304,320 -43,70 -70,143 -85,226 -4,24 -26,113 -21,124z"/>
    <path class="fil1" d="M1952 5596c1,-1 0,-3 2,-3l1 -8c0,-19 -56,-194 -77,-229 -78,-136 -95,-162 -207,-274 -62,-63 -131,-111 -197,-206 -12,-16 -20,-40 -34,-54 -80,7 -8,69 10,88 30,30 22,35 82,89 15,14 25,26 40,40l132 125c80,83 151,200 191,317 10,31 29,104 57,115z"/>
    <path class="fil1" d="M2762 4281c-3,37 4,62 -3,104 -8,46 -56,211 -126,152 -31,-26 -14,-39 -24,-77 -6,-23 -10,-1 -4,-38 2,-16 2,-32 5,-46 4,-16 13,-26 3,-40 -6,-10 -24,-14 -38,-4 -28,21 20,202 -105,202 -125,-1 -23,-147 -91,-103 -1,0 -65,88 40,123 97,34 119,-14 152,-31 23,27 44,67 95,66 45,-1 64,-42 82,-79 19,-38 33,-69 44,-118 4,-18 7,-52 13,-67 7,-19 11,-9 11,-27 -1,-20 -16,-43 -54,-17z"/>
    <path class="fil1" d="M2174 5041c0,0 -69,-31 -110,-56 -33,-20 -75,-43 -111,-60 -72,-35 -161,-66 -227,-110 -110,-71 -197,-119 -309,-199 -33,-24 -18,-29 -35,-51 -22,-29 -127,-8 20,92 16,11 33,20 51,34l261 161c35,19 68,33 111,55 40,20 75,31 119,52 53,26 180,107 216,94 22,-8 8,-2 14,-12z"/>
    <path class="fil1" d="M1009 2999c38,30 38,-99 42,-140 5,-45 10,-9 12,-56 0,-15 -2,2 3,-16 8,-30 9,-54 13,-88 50,-385 207,-441 258,-721 7,-41 32,-154 3,-171 -12,-6 -25,-7 -34,3 -15,14 -3,22 2,34 12,28 2,58 -2,87 -37,243 -69,209 -165,423 -44,98 -71,182 -91,301 -9,57 -15,119 -22,175 -3,31 -6,59 -11,89 -10,58 -26,67 -8,80z"/>
    <path class="fil3" d="M2274 1130c22,-14 44,-13 71,-20 35,-11 46,-2 85,2 55,4 37,-2 74,19 19,12 46,22 40,52l-8 0c-41,-4 -49,-43 -202,-40 -32,0 -49,16 -60,-13z"/>
    <path class="fil1" d="M2917 5673c-6,130 -62,178 -122,276 -60,96 -199,246 -306,288 -45,17 -118,31 -175,28 -78,-5 -109,-31 -163,-61l-16 -9c-29,-17 -61,-52 -88,-62 -2,51 69,89 110,116 95,64 263,72 365,21 27,-13 46,-23 69,-42 12,-11 20,-14 31,-24 15,-12 19,-19 31,-29 33,-27 9,0 61,-51 23,-22 37,-39 55,-60 53,-64 142,-202 170,-282 13,-36 78,-168 -22,-109z"/>
    <path class="fil1" d="M2319 1858c40,-4 83,-17 119,-32 19,-8 34,-13 52,-23l57 -53c49,-58 53,-120 57,-198 3,-70 20,-30 -16,-123 -26,-67 -72,-132 -154,-143 -39,-5 -94,-13 -135,-10 -69,5 -50,16 -123,27 -47,6 -73,29 -91,55 -20,30 -34,65 -49,101 -23,58 -26,46 -27,118 0,70 -9,74 22,128 17,29 38,65 64,81 53,33 161,77 224,72z"/>
    <path class="fil7" d="M2553 1539c-73,-16 -19,-16 -123,-16 -47,0 -74,-10 -121,-10 -38,-1 -83,3 -125,3 -22,0 -44,-1 -66,-2l-55 -7c72,-158 58,-111 126,-159 87,-60 234,-35 285,4 9,6 30,35 39,47 38,56 33,59 40,140z"/>
    <path class="fil3" d="M2548 1602c-16,68 -33,119 -81,153 -17,12 -18,18 -35,25 -36,15 -62,14 -97,18 -21,3 -25,6 -51,4 -39,-1 -137,-45 -163,-67 -62,-51 -65,-101 -67,-163 25,-2 37,-6 64,-7 21,0 36,-5 61,-6 143,-8 198,13 261,13 52,-1 78,-4 108,30z"/>
    <path class="fil6" d="M314 5441c-9,-22 -9,-60 -16,-87 -21,-93 -33,-166 -45,-261 -16,-125 -16,-252 -26,-381 -20,-234 18,-503 96,-718 32,-90 33,-104 73,-178 1,-1 1,-2 2,-3 37,-77 84,-159 150,-211 47,-38 60,-55 116,-86 103,-57 230,-43 334,-3 59,22 74,50 121,84 63,47 55,53 67,85 8,18 28,17 28,22l0 248c-36,-1 -66,-22 -97,-32l3 -28c-44,-33 -25,-30 -63,-91 -20,-32 -40,-64 -60,-92 -39,-55 -83,-161 -146,-147 3,30 12,14 33,39 44,50 152,237 182,293 -63,3 -78,-45 -106,-77 -13,-14 -71,-92 -106,-68 4,19 86,65 100,131l-85 -3c-21,-27 -57,-62 -97,-57 4,34 32,26 46,61 -42,14 -65,19 -101,40 -157,89 -103,70 -224,183 -39,36 -65,74 -85,121 -8,18 -14,26 -22,43 -30,63 -48,132 -74,198 -50,131 -56,337 -46,492 3,41 10,80 14,121 3,23 4,45 5,68 1,25 5,34 7,55 1,24 -2,46 1,71 2,21 33,144 21,168z"/>
    <path class="fil8" d="M309 4900c-10,-17 -7,-93 -8,-120 -1,-45 8,-78 11,-116 6,-88 15,-138 41,-212 10,-28 23,-75 32,-94 25,-53 86,-210 140,-233 3,5 3,3 5,11 18,48 -17,146 25,146 24,-27 8,-120 10,-161 2,-41 0,-43 22,-63 16,-15 27,-34 49,-36 17,32 21,77 22,119 1,25 1,51 2,76 0,26 -8,48 6,67 19,-3 17,-3 21,-27 6,-44 0,-189 -2,-242 -1,-29 -3,-5 -9,-29 73,-37 102,-65 206,-68 102,-3 224,23 299,79 32,24 34,6 35,64 2,90 26,236 -8,315 -61,-9 -118,-89 -311,-90 -127,0 -209,43 -302,102 -133,84 -192,201 -245,358l-41 154z"/>
    <path class="fil6" d="M448 5500c-2,-68 -21,-148 -24,-217 -10,-222 -11,-235 30,-445 8,-40 37,-154 61,-173 23,14 31,32 74,60 64,42 70,168 119,127 20,-16 8,-34 -1,-48 -7,-14 -13,-30 -18,-47 -48,-144 -126,-222 -53,-284 14,-12 29,-15 39,-26 18,-21 35,-110 213,-119 78,-4 211,80 269,126 110,87 70,83 85,177 6,38 15,79 18,116 -29,-3 -21,-5 -43,-15 -14,-7 -24,-6 -41,-10 -94,-22 -136,-44 -250,16 -48,26 -93,42 -132,75 -117,100 -228,167 -278,340 -31,109 -31,188 -54,307 -2,15 -5,29 -14,40z"/>
    <path class="fil8" d="M500 5674c-26,-42 8,-230 16,-280 7,-39 20,-224 54,-253l19 32c18,37 47,88 48,135 2,31 -2,15 -11,34 -6,11 -6,20 -14,32 -10,13 -14,9 -23,22l-89 278z"/>
    <path class="fil8" d="M1304 5062c-44,-8 -51,-23 -111,-20 -30,1 -85,7 -116,13 -69,12 -131,46 -186,71 -31,14 -44,10 -82,48 -37,38 -92,38 -127,1 -20,-21 -44,-40 -60,-70 -18,-34 -15,-13 -29,-34l57 -80c36,-43 167,-151 214,-179 61,-35 119,-65 194,-67 41,-2 120,20 158,38 27,12 22,2 53,0l35 279z"/>
    <path class="fil6" d="M832 6124c-20,-23 -15,-43 -35,-88 -14,-32 -17,-54 -27,-88 -26,-80 -12,-5 -21,-97 -13,-129 -33,-152 -24,-318 4,-82 21,-165 70,-222 23,-27 14,-29 37,-53l45 -41c21,-18 40,-38 60,-55 26,-22 118,-65 158,-73 19,-4 35,-7 53,-8 44,-2 85,-22 148,14 22,12 19,71 19,97 -1,0 -3,1 -4,1l-12 2c-32,-1 -23,-23 -119,-7 -122,21 -222,79 -298,175 -43,53 -85,141 -92,225 -7,77 10,141 20,213 2,13 0,27 2,40 3,18 1,15 15,18 23,-32 -8,-215 1,-274 18,-116 64,-178 131,-240 79,-73 52,-50 132,-89 144,-70 192,-6 232,-5l23 158c-31,-7 -24,-12 -62,-10 -26,1 -37,-4 -63,1 -59,11 -94,33 -135,66 -13,11 -21,22 -31,35 -10,12 -20,24 -28,37 -12,17 -11,29 -25,39 -18,-20 -15,-51 -25,-73 -18,-37 -43,-11 -62,-1 -1,62 -6,112 5,168 17,79 -4,97 -23,154 -36,105 -45,233 -60,287l-5 12z"/>
    <path class="fil5" d="M1692 6952c-14,-5 -44,-33 -57,-44 -27,-23 -27,-20 -42,-54 38,-4 93,22 117,42 -2,34 -4,35 -18,56z"/>
    <path class="fil5" d="M1983 7637c-7,-6 -24,-23 -28,-30l-27 -142c-15,-98 -36,-183 -65,-278 -8,-25 -8,-11 -22,-34 -9,-13 -9,-21 -19,-36 -14,-21 -27,-31 -49,-67 -29,-47 -18,-14 -50,-58 5,-24 37,-52 59,-60 3,2 102,68 109,75 1,34 -6,63 -3,95 4,39 40,44 50,15 5,-16 12,-219 17,-273 5,-50 -26,-272 9,-277 24,-4 -18,-2 8,-1 12,0 62,26 93,33l-16 77c-3,26 -4,53 -4,79 -1,59 -6,102 -21,152 -14,47 -15,99 -24,148 -7,40 0,137 43,112 9,-15 5,-38 4,-56 21,9 72,64 89,84 39,45 22,11 79,92 29,43 40,68 60,111 15,31 21,30 19,66 -1,37 2,41 -25,57 -43,-1 -45,-33 -64,-58 -55,-75 -98,-85 -127,-114 -31,-31 -19,-46 -70,-16 -3,20 1,28 7,44 11,28 9,95 17,129 27,122 -14,118 -49,131z"/>
    <path class="fil5" d="M1998 7801c-17,-6 -15,-33 -23,-62 -14,-48 -19,-28 -22,-57l72 -8c2,13 -20,110 -27,127z"/>
    <path class="fil5" d="M2299 6930c-9,-9 -51,-108 -53,-124 19,3 81,40 97,60l-44 64z"/>
    <path class="fil5" d="M2329 7734c-11,-15 -16,-40 -22,-62 -14,-47 -48,-83 -15,-110 10,-8 32,-29 45,-30 4,38 -1,62 -3,98 -2,42 5,90 -5,104z"/>
    <path class="fil5" d="M2629 7488c-146,30 -101,-54 -99,-94 2,-36 1,-74 0,-111 -3,-85 -6,-36 -24,-85 -11,-31 -13,-32 -32,-59l-11 -14c-82,-97 -72,-114 -89,-133 -35,-38 -12,-45 11,-72 61,9 140,68 151,97 5,29 -8,54 1,79 2,6 13,19 19,22 16,8 14,5 23,-2 19,-24 -5,-424 38,-500l122 -18c-2,23 -14,42 -21,69 -40,156 -53,194 -62,360 -4,78 -1,81 30,134 24,-4 20,-17 49,-2 39,21 73,63 97,95 13,18 89,142 89,158l-84 13 -94 -118c-14,-19 -37,-36 -50,-56 -53,-83 -88,-27 -86,0 8,85 26,141 22,237z"/>
    <path class="fil5" d="M3009 2581c-9,16 -70,53 -89,64 -85,49 -137,71 -259,64 -97,-6 -116,-8 -174,-68 -34,-37 -60,-108 -70,-167 6,3 78,54 110,62 131,31 263,-17 482,45z"/>
    <path class="fil5" d="M2531 7701c-4,-20 4,-145 10,-160 18,-17 62,4 64,6 27,23 -48,149 -74,154z"/>
    <path class="fil3" d="M2591 4106c-13,-9 -12,-10 -19,-26 -30,-70 -13,-44 -12,-110 0,-53 -6,-108 -10,-161 -8,-110 -14,-208 -11,-316 2,-59 3,-112 4,-171 2,-72 23,-261 13,-322 -8,-44 -20,-107 -17,-156 29,9 22,23 67,11l60 -20c47,48 38,169 35,235 -1,30 2,59 -1,90 -6,61 -54,222 -71,296 -22,99 -15,235 31,314 33,58 129,32 143,25 47,-27 78,-100 79,-102 14,19 10,57 11,81 1,46 6,45 -23,68l-98 83c-70,62 -38,29 -92,89 -16,17 -31,26 -48,43 -13,13 -28,37 -41,49z"/>
    <path class="fil6" d="M2750 2965c-6,-65 -20,-121 -24,-166 -3,-24 -10,-27 -11,-42 11,0 106,-12 111,-13l71 -31c15,-6 19,-10 31,-15 21,29 15,70 19,111 8,92 52,215 80,303 42,131 110,295 89,419 -4,26 -14,85 -24,106 -10,20 -1,5 -17,18 -5,5 -13,11 -16,15 -14,13 -14,20 -36,25 -18,3 -41,3 -54,-3 -23,-10 -26,-37 -43,-57 -20,-23 -26,-9 -16,-61l24 -232c1,-54 20,-215 -36,-215 -12,22 -1,27 1,54 1,20 -3,41 -2,65 4,93 -22,369 -62,440 -7,12 -17,28 -25,41 -30,49 -97,45 -116,-6 -74,-193 5,-342 40,-524 9,-43 21,-189 16,-232z"/>
    <path class="fil7" d="M2822 1507c8,-16 28,-45 38,-58 50,-63 245,-92 305,-54 40,25 77,51 96,100 18,47 19,120 0,162 -108,-22 -211,-46 -328,-58 -190,-20 -170,25 -111,-92z"/>
    <path class="fil5" d="M2862 7605c-6,-11 -2,-84 -1,-106 1,-24 18,-42 42,-44 45,-4 15,34 -6,80 -10,23 -18,55 -35,70z"/>
    <path class="fil1" d="M2982 3749c-11,12 -14,11 -24,20 -17,15 -2,11 -26,16l4 -61 46 25z"/>
    <path class="fil2" d="M2995 2852c-8,-38 -5,-88 -7,-131 19,10 67,77 78,101 13,28 0,50 -12,73 -10,20 -14,38 -26,60l-33 -103z"/>
    <path class="fil3" d="M3013 1213c-4,-4 -4,-4 -8,-10 0,-1 -1,-2 -2,-3l-23 -50c104,-45 202,68 33,63z"/>
    <path class="fil2" d="M3166 3536c-4,-48 1,-98 -8,-148 -7,-35 -25,-80 -36,-115 -11,-37 -67,-215 -66,-238 3,-56 26,-132 58,-171 15,-17 32,-20 24,-48 -5,-20 -24,-26 -40,-37 -28,-18 -29,-35 -73,-78 -23,-22 -20,-16 -25,-55 57,-14 56,-71 139,-18 -1,1 -2,2 -3,2 -1,1 -2,2 -3,3l-16 15c6,23 9,20 14,49l23 152c3,75 13,142 16,216 2,61 12,268 25,322 6,29 17,70 21,96 -9,13 -38,49 -50,53z"/>
    <path class="fil3" d="M3289 4383c-56,-18 -17,-171 -5,-213 17,-59 3,-176 1,-245 46,-26 172,-56 197,-89 9,-12 5,-11 12,-23 6,-10 9,-9 14,-22 8,-20 -4,-39 -7,-62 -5,-40 -7,-93 -8,-134 31,-1 71,17 88,33l-91 357c-12,29 -10,15 -29,36 4,25 5,40 29,50 18,8 38,18 54,26 -2,21 -13,38 -17,69 -6,51 -49,202 -71,215 -58,7 -66,-48 -75,-99 -5,-27 -8,-50 -8,-81 0,-38 15,-56 13,-80 -62,6 -25,100 -43,133 -8,16 -13,3 -18,28 -3,20 -2,82 -36,101z"/>
    <path class="fil9" d="M3607 3527c1,25 1,34 -11,52l-103 -39c-1,0 -2,-1 -4,-2l0 -47c86,21 62,39 118,36z"/>
    <path class="fil10" d="M3546 4039c-43,-57 111,-495 129,-573 33,-139 50,-130 64,-177l37 8c3,45 -4,61 -21,97l-34 88c-11,27 -20,61 -30,90 -18,50 -8,46 -30,96 -13,31 -14,105 -51,190 -28,63 -15,132 -64,181z"/>
    <path class="fil10" d="M3849 3263c-73,-12 -80,-23 -98,-27 -18,-5 -22,-1 -39,0 -25,-26 -44,-59 -37,-105 7,-41 99,-126 156,1 18,43 13,83 18,131z"/>
    <path class="fil10" d="M4046 4040l0 27c-43,15 -35,91 -47,135 -110,9 -237,-73 -342,-106l-44 -25c17,-45 12,-45 22,-87 7,-30 15,-56 24,-87 21,13 44,9 75,21 26,10 49,15 74,26 63,26 149,75 212,91 9,2 17,3 26,5z"/>
    <path class="fil11" d="M4174 4022c-34,-2 -86,-17 -122,-25 -28,-5 -177,-70 -208,-84l-101 -44c-32,-29 17,-121 34,-190 7,-25 21,-72 29,-92 45,-112 30,-98 61,-185 10,-31 23,-65 24,-100 1,-52 7,-127 -9,-175 -6,-19 -15,-33 -19,-46 28,6 49,19 75,29 24,9 52,18 77,29l311 112c33,10 48,12 57,48 7,27 15,60 13,93 -2,23 -11,67 -20,86 -8,19 -8,18 -14,37 -12,36 -27,54 -43,118 -4,14 -22,58 -30,75 -10,24 -24,44 -32,73 -5,19 -5,23 -12,39 -6,13 -13,23 -18,38 -7,20 -2,18 -12,38l-41 126z"/>
    <path class="fil1" d="M4432 2988c-55,-36 -113,-74 -178,-99 -51,-19 -172,-51 -230,-20 -4,20 -6,18 2,38 38,5 71,-12 122,-7 115,11 267,100 341,182 23,25 10,14 21,44 7,19 14,23 19,46 37,144 -17,223 52,209 19,-52 0,-194 -20,-246 -29,-77 -72,-109 -129,-147z"/>
    <path class="fil1" d="M3309 2068c-2,34 7,37 23,54 63,70 93,183 107,276 5,30 -1,51 1,74 3,33 36,25 42,3 15,-52 -54,-287 -96,-356 -4,-7 -9,-14 -11,-22 -2,-7 3,-9 -10,-22 -22,-23 -32,-18 -56,-7z"/>
    <path class="fil1" d="M4323 3328c-9,-20 -17,-22 -38,-32 -68,-32 -228,-85 -257,-105 -8,-5 -56,-43 -53,19l168 63c45,17 131,55 180,55z"/>
    <path class="fil1" d="M4061 3920c-4,-18 -10,-12 -55,-38 -34,-18 -96,-38 -135,-55 -20,-8 -56,-37 -75,-8 -7,9 -6,24 3,33 10,10 26,5 43,7 48,5 193,76 219,61z"/>
    <path class="fil1" d="M4224 3362c-6,-17 -8,-15 -26,-24l-115 -46c-81,-29 -125,-94 -127,-9 48,23 23,9 63,22 24,8 44,11 68,19 40,12 92,42 137,38z"/>
    <path class="fil1" d="M4127 3432c-4,-26 -71,-47 -96,-58 -23,-9 -115,-66 -91,11 17,9 78,15 138,42 16,8 30,15 49,5z"/>
    <path class="fil1" d="M4576 2979c16,-8 22,-21 18,-47 -7,-48 -34,-46 -69,-67 -17,-9 -20,-18 -48,-14l-9 27c22,15 43,17 66,39 27,25 21,51 42,62z"/>
    <path class="fil1" d="M4084 3498c-2,-15 8,-11 -31,-25 -42,-16 -101,-59 -118,-37 -9,11 -7,36 6,44 8,4 38,4 49,6 29,5 65,26 94,12z"/>
    <path class="fil1" d="M4041 3595c-4,-29 -32,-40 -54,-51 -19,-10 -55,-26 -78,-25 -29,49 -10,45 35,52 44,7 47,24 97,24z"/>
    <path class="fil1" d="M3554 2254c6,-46 -18,-113 -28,-120 -13,-10 -29,-7 -38,3 -23,25 8,36 22,64 14,27 11,54 44,53z"/>
    <path class="fil1" d="M3992 3664c-9,-19 -36,-25 -52,-43 -22,-27 -30,-21 -57,5 6,44 12,32 47,41 28,8 40,22 62,-3z"/>
    <path class="fil1" d="M3824 3754c20,8 60,4 70,-20 -15,-27 -48,-26 -71,-15l1 35z"/>
    <path class="fil1" d="M3366 5136c9,4 14,9 26,7 13,-18 5,-34 4,-61 0,-24 0,-52 2,-75l18 -282c2,-28 27,-118 -8,-125 -32,-8 -19,24 -17,44 5,59 -45,381 -25,492z"/>
    <path class="fil1" d="M2842 1886c-52,-31 -71,60 -22,80 53,20 69,-53 22,-80z"/>
    <path class="fil1" d="M2752 1977c53,-40 2,-96 -50,-87 -27,5 -31,32 -13,51 13,15 34,32 63,36z"/>
    <path class="fil12" d="M2385 1756c68,-14 92,-125 5,-115 -8,1 -37,15 -42,20 -34,33 -13,105 37,95z"/>
    <path class="fil3" d="M3249 1703c-1,41 -38,76 -61,104 -38,44 -148,75 -199,65 -21,-4 -17,-21 -68,-42 -82,-34 -78,-40 -121,-95 -17,-22 -20,-49 -18,-87 54,-7 63,-11 120,-5 81,9 288,38 347,60z"/>
    <path class="fil12" d="M3054 1812c14,35 42,41 76,22 72,-40 35,-129 -41,-91 -29,15 -41,54 -35,69z"/>
   </g>
   <path class="fil1" d="M3985 4820l31 0c11,-4 27,-2 52,-3 34,-1 67,-2 101,-3 19,-46 25,-122 122,-143 51,-11 118,5 154,40 10,10 10,17 22,25l6 3c1,0 2,1 2,1l1 38c18,-2 7,-3 25,-6l102 -14c48,-3 93,-7 144,-9 224,-11 497,-52 718,-24 38,5 95,26 131,5 -6,-49 -26,-105 -60,-141 -51,5 -60,38 -130,29 -17,-36 -14,-63 -28,-102 -13,-36 -20,-62 -32,-99 -12,-35 -38,-105 -66,-130 -15,-13 -20,-18 -20,-45 29,-46 52,-15 106,-19 -3,-60 -54,-128 -82,-176 -28,-50 -67,-113 -113,-147 -8,-78 58,-51 166,-118 23,-14 43,-18 70,-26 160,-45 331,-87 499,-75 52,3 147,-7 185,2 60,14 139,-26 153,27 7,27 13,51 25,70 12,21 29,40 34,68 52,-15 53,-11 106,-10 4,-38 -6,-103 -32,-130 -8,-8 -4,-2 -12,-13 -19,-25 -18,-20 -74,-29 -9,-1 -21,-2 -30,-4l-140 -36c-137,-29 -304,-73 -433,-129 -17,-8 -34,-11 -50,-20 -16,-10 -26,-18 -43,-27l-90 -52c-22,-13 -18,-20 -40,-30 -16,-8 -29,-10 -46,-24 -24,-19 -47,-53 -62,-79 -11,-18 -18,-21 -33,-38 -17,-22 -38,-67 -47,-94 -14,-40 -32,-134 -32,-178 -1,-35 9,-97 9,-131 0,-17 -7,-23 -14,-35 -6,-10 -2,-4 -7,-15 -9,-24 -13,-23 -33,-35 -61,-37 -150,-8 -81,-80 20,-21 51,-54 39,-89 -7,-20 -24,-14 -47,-19 -36,-60 -6,-56 35,-71 2,-1 3,-2 5,-2 2,-32 -7,-55 -16,-82 -10,-27 -11,-56 -17,-83 -6,-25 -24,-63 16,-67 54,-6 29,36 72,23 4,-27 -18,-68 -29,-96 -22,-57 -8,-58 -12,-119 -23,-9 -36,-16 -29,-52 23,-7 44,-8 59,7 15,15 29,25 57,18 8,-24 -4,-44 -6,-67 -3,-30 4,-46 3,-75 -1,-27 -5,-46 -14,-67 -9,-19 -22,-32 -22,-60 42,-20 31,-6 71,-5 22,-58 27,-125 53,-179 12,-25 31,-51 37,-77 12,-55 28,-38 65,-31 15,-33 38,-53 36,-94 -2,-33 -43,-83 11,-86 36,-2 29,35 82,54 35,12 77,18 117,25 -1,-56 11,-121 56,-136 61,-19 44,75 123,33 21,-11 34,-27 51,-44 42,-41 127,-108 185,-104 16,26 14,62 33,77 53,42 114,-34 131,-77 11,-27 21,-70 57,-40 17,12 3,17 22,43 111,145 69,112 183,58 27,-13 84,2 110,16 3,19 -2,29 -6,45 33,24 196,44 246,38 46,-6 97,-9 98,42 1,47 -42,56 -43,106l36 29c24,-13 130,-100 140,-38 2,13 -10,49 -11,69 -2,62 39,64 90,47 75,-27 44,-120 117,-62 1,51 -29,19 3,115 6,18 17,39 21,54 4,15 -8,63 14,71 25,9 -10,-2 8,3l66 9c24,6 56,9 67,30 19,44 -101,113 -112,171 74,26 260,38 267,80 -7,82 -160,62 -172,141 47,55 92,-22 111,138 5,41 0,76 -9,114 -10,44 0,72 -62,63 6,48 32,111 13,164 -36,41 -76,-15 -102,-22 -7,79 23,97 -7,144 -55,6 -71,-85 -147,7 20,28 54,45 73,86 20,44 -16,96 -41,114 13,33 4,65 21,112 20,55 40,59 41,92 -64,46 -62,-21 -111,28 -5,66 67,97 27,164 -24,41 -83,31 -123,13 -19,-8 -20,-14 -45,-11l-78 133c-30,42 -25,58 -67,94 -36,30 -58,40 -98,63 -58,31 -201,54 -269,58l19 84c25,-12 22,-32 34,-46 0,-1 46,-35 46,-35 25,-11 39,6 55,18 32,25 59,29 92,67 18,20 -5,13 47,35 36,15 77,34 109,52 70,41 180,109 236,166 28,29 50,58 85,76 34,18 20,12 37,48 15,31 51,66 69,93l88 152c10,19 15,35 25,56 18,37 38,74 55,111 17,37 33,74 47,113 31,83 75,123 38,167 -7,7 -47,44 -79,83 -16,20 -19,28 -50,36 19,110 -19,125 -29,158 9,5 21,10 32,17 43,28 77,58 111,95 29,29 55,51 72,89 8,19 29,56 31,75 3,28 -13,36 -3,87 13,73 31,503 37,596 8,133 6,273 18,404 6,63 3,139 5,204 9,236 42,531 79,764 9,59 80,386 99,429 16,38 26,44 6,78 -77,16 -8,-15 -111,35 -65,31 -123,81 -170,131 -105,110 -86,15 -71,358 1,32 -16,266 -25,275 -12,11 -44,5 -56,-2 -64,-39 -96,-54 -180,-38l-35 10c-17,8 -62,-1 -120,11l-24 6c-1,1 -2,1 -3,2 -31,14 -39,7 -70,5 -160,-12 -120,6 -262,-42 -38,-13 -38,-25 -66,-44 -8,-5 -19,-9 -27,-13 -18,-10 -28,-18 -45,-30 -23,-17 -28,-5 -51,-24 -14,-27 54,-82 50,-121 -39,-19 -159,-22 -202,-14 -41,8 -54,17 -99,20 -56,4 -62,-13 -106,-17 -14,27 11,18 -21,40 -48,31 -62,-17 -181,60l-116 65c-45,29 -126,51 -180,62 -28,5 -80,13 -110,11 -52,-2 -63,13 -91,-20 -8,13 -8,31 -24,40 -34,19 -81,-32 -155,-42 -22,-3 -34,-8 -54,-13 -49,-12 -150,-4 -197,6 -7,2 -17,5 -24,7 -9,2 -19,4 -29,5 -23,5 -37,11 -55,16l-115 20c-191,33 -119,-5 -221,-30 -26,29 -51,47 -86,65 -19,9 -27,20 -45,30 -60,36 -230,80 -301,76 -117,-6 -140,-31 -224,-78 -40,-23 -62,-25 -96,-55 -29,-26 -39,-61 -62,-89 -29,5 -47,16 -76,17 -210,4 -197,-44 -257,-71 -30,-13 -59,-35 -84,-57 -68,-57 -36,-69 -74,-118 -30,-1 -47,11 -69,22 -33,15 -95,29 -143,48 -23,9 -61,12 -92,10l-97 -20c-11,-3 -12,-2 -23,-4 -55,-8 -126,-39 -168,-76 -34,-29 -66,-41 -109,-82 -21,-19 -26,-30 -46,-50 -12,-12 -14,-17 -20,-30 -35,-68 -76,-83 -36,-184 33,-84 9,-77 -21,-141 -39,-81 -19,-35 -54,-86l-59 -88c-8,-13 -13,-14 -25,-25 -34,-29 -66,-28 -110,-37 -62,-14 -9,-67 0,-83 5,-9 12,-23 17,-33 55,-119 77,-251 113,-373l34 -162c6,-50 15,-127 28,-170 48,-163 42,-539 53,-725 4,-62 21,-325 18,-363 -8,-104 27,-249 30,-356 2,-55 18,-205 45,-245 91,-133 158,-142 295,-198 73,-29 144,-45 219,-67 64,-19 354,-81 408,-53 3,-87 38,-169 132,-187 83,-16 187,31 210,98 4,12 3,34 3,58z"/>
   <path class="fil13" d="M3646 6649c2,-18 17,-128 16,-134 -3,-26 -34,-25 -42,-7 -3,8 -5,54 -7,69 -6,41 -3,96 -6,139 -6,93 -16,181 -23,276 -7,92 -10,182 -21,274 -6,47 -15,86 -20,132l-30 265c-3,46 -5,93 -9,138 -7,86 -9,192 -20,276l-25 201c-9,65 18,49 -33,93 -22,19 -54,22 -82,29 -22,5 -22,9 -41,14 -77,22 -70,17 -136,28 -43,7 -96,-12 -135,-26 -72,-24 -61,-26 -113,-52 -47,-24 -35,-27 -65,-46 -23,-15 -33,-40 -54,-57 -22,-17 -38,-36 -51,-60 -18,-34 -69,-49 -58,-107 4,-25 11,-70 17,-93 34,-124 39,-267 41,-400 3,-135 27,-273 32,-412 6,-141 13,-282 18,-425 7,-171 40,-417 84,-580 8,-31 14,-59 21,-89 8,-30 28,-62 13,-88 -48,-21 -48,38 -52,75 -3,37 -16,65 -26,103 -58,222 -83,469 -93,702 -4,104 -6,288 -15,387 -12,120 -34,242 -32,367 0,28 -12,228 -18,242l-102 -150 -62 -63c-26,-18 -60,-30 -76,-49 4,-12 8,-17 14,-30 12,-28 17,-66 26,-95l66 -256c11,-39 20,-90 28,-132 5,-24 12,-43 16,-65 14,-71 17,-141 29,-212 34,-197 29,-404 44,-605 4,-51 2,-104 5,-156 4,-50 8,-102 9,-154 5,-149 15,-300 33,-447 5,-42 -11,-108 15,-145 33,50 42,64 90,101 38,29 70,52 114,76 72,39 188,87 271,112 97,29 200,70 298,83 27,4 53,14 77,16 35,4 50,6 83,15 57,16 107,16 164,27 28,5 53,11 79,17 25,6 56,6 84,13 123,32 205,29 328,53 40,8 41,9 86,9 90,0 161,29 251,37 54,5 111,20 166,23 81,5 94,10 168,23 32,5 53,2 85,10 88,23 358,14 461,14 34,1 57,-8 90,-8 62,1 116,-15 175,-3 28,6 237,-11 262,-15 45,-8 132,-10 181,-11 129,-3 213,-27 332,-46 31,-5 53,-5 82,-13 30,-9 47,-12 79,-16 48,-7 100,-33 151,-41 59,-10 188,-63 218,-68 31,-5 45,-17 65,-30 22,-14 181,-54 224,-62 33,-7 174,-64 207,-80 31,-16 90,-64 119,-66 6,35 5,114 8,159 4,55 4,108 7,162 5,106 11,206 18,313 15,206 17,418 32,625 10,151 31,448 57,591 8,48 13,98 21,145l58 274c34,141 55,134 -53,196 -28,17 -51,36 -81,54 -25,16 -57,38 -78,58 -12,10 -27,25 -35,35 -12,13 -14,25 -36,26 -11,-71 -21,-144 -30,-213 -8,-66 -23,-136 -31,-203 -17,-143 -35,-276 -60,-412 -29,-155 -54,-502 -36,-669 4,-38 5,-74 8,-111 3,-39 21,-73 20,-94 -30,-16 -34,-12 -59,9 -5,50 -4,101 -11,151 -13,98 -11,208 -9,307 1,51 7,103 6,151 -1,61 26,212 37,277l38 205c11,116 33,231 47,345l21 99c5,24 0,19 1,39 2,28 14,37 12,63 -1,16 -2,-10 0,16l2 43c4,35 12,33 5,71 -7,39 16,171 13,219 -2,23 -5,6 -2,32 5,57 0,199 -26,243 -33,4 -94,-16 -134,-17 -35,0 -90,16 -134,20 -100,9 -191,25 -298,13 0,-7 7,-53 9,-66l18 -210c-1,-51 -2,-99 -4,-151 -2,-43 -10,-83 -14,-129 -11,-113 18,-89 2,-122 -20,-41 -35,-51 -42,-110 -5,-44 -10,-91 -14,-136 -5,-40 -8,-94 -14,-133 -28,-176 -39,-365 -49,-548 -12,-197 3,-390 1,-586 0,-45 33,-126 -33,-95 -20,9 -16,32 -14,55 6,82 0,286 -5,366 -11,203 19,374 25,569 3,83 24,184 31,269 25,346 76,326 -22,647 -36,114 -43,109 -76,100 -35,-10 -64,-8 -101,-10 -56,-2 -78,-13 -134,-4 -97,15 -174,31 -271,16 -18,-27 -61,-259 -76,-316 -39,-154 -73,-752 -56,-921 6,-51 19,-133 8,-182 -55,-18 -32,14 -48,146 -20,176 14,798 52,951 15,63 65,287 64,339 -1,1 -3,2 -4,3l-13 8c-7,5 -8,5 -16,8 -107,45 -85,46 -153,84 -23,13 -43,22 -63,33 -65,36 -210,87 -301,72 -121,-20 -76,14 -94,-288 -4,-63 0,-128 0,-191 -1,-125 -11,-242 -16,-367 -3,-60 -4,-125 -5,-186 -2,-60 -10,-119 -12,-181 -1,-64 5,-127 4,-191 -5,-185 2,-371 18,-553 4,-36 4,-51 12,-85 4,-20 14,-50 11,-74 -14,-9 -14,-10 -33,-10 -28,38 -50,436 -48,511 6,179 -7,361 9,538 4,45 5,88 5,135l6 136c1,86 6,182 10,270 4,78 -13,202 0,272 6,35 1,232 -7,263 -23,-2 -25,-8 -48,-14 -59,-14 -201,-31 -258,-25 -25,3 -67,15 -96,19 -72,11 -126,37 -183,46 -25,4 -86,18 -104,17 -26,-2 -58,-25 -69,-43 33,-102 54,-113 34,-267 -12,-91 -24,-190 -29,-281 -4,-93 -8,-205 -18,-294 -5,-48 -8,-102 -7,-149 1,-53 -6,-101 -6,-151 0,-206 -4,-412 9,-613 6,-101 3,-202 11,-302 4,-45 7,-101 8,-146 1,-50 22,-94 1,-129 -31,-3 -36,20 -37,49l-29 578c-11,271 -10,413 -4,679 2,132 26,533 42,652 11,76 19,251 -12,317 -55,121 -338,225 -462,232 -35,2 -106,-21 -136,-39 -85,-53 -140,-61 -181,-166 -39,-100 0,-369 7,-481 8,-109 10,-225 13,-334 3,-113 12,-225 12,-337 0,-112 5,-225 11,-336 3,-54 3,-111 2,-167 0,-47 23,-115 14,-154 -47,-21 -42,24 -45,63 -8,109 -2,227 -13,339 -7,68 -5,165 -6,235 0,68 -3,157 -10,225 -7,73 -4,161 -7,237 -3,74 -8,152 -13,224 -6,75 -23,150 -26,219 -2,77 0,154 -3,232 -34,12 -14,14 -61,15 -67,3 -132,3 -193,-34 -18,-11 -26,-23 -38,-37 -37,-41 -78,-64 -101,-120 -13,-32 -23,-16 -25,-51l17 -205c25,-142 23,-381 46,-550 16,-120 43,-425 47,-547 4,-94 19,-184 23,-277 1,-45 3,-95 8,-142z"/>
   <path class="fil14" d="M3966 4982c-4,59 15,132 13,196 -1,66 13,91 15,175 0,22 12,73 -12,79 -93,21 -284,-14 -310,-84 -19,-52 -6,-223 2,-277 16,-108 25,-72 113,-68 107,3 158,-22 179,-21z"/>
   <path class="fil9" d="M3683 4925c15,-37 -3,-92 34,-160 43,-80 120,-52 175,-30 62,24 29,132 37,181 4,25 9,6 6,20 -5,21 -142,26 -161,23 -62,-7 -52,-10 -91,-34z"/>
   <path class="fil3" d="M4491 4931c19,32 63,525 53,581 -12,61 -74,59 -150,63 -18,1 -156,-28 -175,-35 -28,-10 -29,-41 -33,-73 -11,-91 -16,-394 13,-474l8 -15c-2,-1 1,-3 2,-4 70,5 84,12 156,-1 51,-8 92,-36 126,-42z"/>
   <path class="fil9" d="M4224 4891c-10,-16 -8,-77 2,-98 12,-23 23,-46 49,-57 54,-25 80,-18 127,7 34,18 34,93 33,128 -1,55 6,48 -44,61 -31,8 -72,8 -107,6 -64,-3 -52,-34 -60,-47z"/>
   <path class="fil1" d="M5259 2738c-15,-7 -26,-22 -42,-36 -25,-22 -31,-7 -56,-23 3,-41 78,-105 25,-151 14,-48 11,-59 -5,-108 -8,-24 -24,-83 -24,-110 30,14 57,21 80,-6 42,-48 -54,-120 -26,-242 58,1 112,38 78,-82 -9,-33 -2,-41 -2,-76 0,-19 -9,-59 -5,-73 3,-10 25,-34 31,-48 15,-34 22,-89 33,-129 10,-36 29,-77 49,-107 72,16 53,-9 82,-68 26,-53 32,-57 38,-123 12,3 37,11 51,16 19,6 32,7 52,13 51,14 145,52 118,-47 -16,-56 21,-92 55,-16 88,6 142,-84 203,-126 21,-14 52,-32 76,-31 18,34 0,32 6,58 47,28 146,19 194,-48 11,-16 17,-36 35,-46 32,25 56,71 86,101 12,11 16,24 29,32 49,27 89,-75 159,-48 -11,59 -48,40 86,64 63,11 128,26 193,25 46,-1 59,-9 77,28 -5,28 -54,72 -49,108l60 45c52,48 41,-34 115,-43 3,66 -25,115 46,129 69,13 92,-14 143,-30 1,1 2,3 2,4l32 94c4,14 6,43 5,60 -2,22 -9,27 -8,55 46,28 34,9 72,-1 24,-7 67,1 84,12 -17,52 -126,106 -112,177 61,36 201,21 257,59 -18,46 -118,33 -157,109 -8,17 -22,42 -4,62 31,33 87,12 105,71 12,37 14,107 -5,143 -46,-10 -54,-86 -96,-53 -9,18 -7,19 2,33l38 83c6,14 42,132 13,137 0,0 -2,1 -3,1 -30,2 19,4 -7,0 -7,-1 -8,-3 -13,-7 -39,-28 -19,-47 -74,-25 -1,20 -4,56 -3,72 3,21 10,42 3,63 -22,-1 -15,-3 -31,-10 -11,-79 8,-97 -59,-137 -70,-42 -83,-24 -149,-3 1,-50 7,-94 11,-143 18,-10 37,-17 51,-25 4,-63 -17,-53 -69,-55 30,-61 137,-141 116,-212 -36,-18 -52,4 -94,9 0,-22 -17,-138 -23,-148 -8,-13 -37,-32 -52,-34 -33,-4 -31,20 -48,32 -11,-19 -10,-55 -17,-82 -12,-42 -14,-38 -14,-87 -17,-20 -44,-44 -82,-28 -25,11 -31,44 -53,58 -1,-1 -135,-93 -153,-118 -18,-26 -53,-48 -97,-37 -41,9 -44,49 -82,52 -36,-21 -43,-69 -64,-114 -12,-24 -9,-127 -81,-54 -39,40 -51,71 -111,55 -48,-13 -102,-12 -144,-27 -5,-20 -8,-49 -16,-65 -9,-16 -30,-22 -51,-13 -21,27 -4,102 -46,128l-45 -48c-46,-45 -50,-33 -83,12 -47,66 -23,83 -158,47 -10,7 -5,8 -10,17 -53,-1 -157,15 -196,34 -2,23 3,40 1,60 -5,48 -33,99 -18,143 60,23 40,-17 90,-18l15 60c-61,-8 -69,-24 -116,34 -57,69 -10,56 4,98 -11,18 -16,16 -26,36 -10,18 -10,17 -22,33 -40,53 -48,206 -60,228 -3,5 -6,8 -12,17 -2,5 -5,11 -8,17 -25,47 -54,105 -75,157 -12,30 -13,60 -25,90 -11,26 -8,61 -20,90z"/>
   <path class="fil15" d="M7159 2960c5,69 -77,339 -124,419l-69 112c-39,60 -72,78 -137,104 -15,6 -25,14 -41,19 -15,5 -34,7 -48,13 -143,54 -390,5 -534,-25 -69,-14 -129,-33 -193,-47 -64,-15 -125,-41 -187,-55 -33,-8 -60,-20 -89,-32 -40,-17 -85,-34 -120,-60 -16,-12 -22,-12 -39,-22 -24,-15 -49,-29 -75,-46 -42,-27 -138,-138 -161,-201 -51,-134 -39,-181 -41,-320 0,-37 7,-71 10,-109 4,-40 58,-237 94,-265 12,16 5,22 13,41 13,29 40,56 61,79 23,25 108,64 118,74 -5,14 -56,76 -6,135 8,10 18,19 31,25 49,26 37,6 87,44 42,32 24,20 68,2 36,26 48,70 123,88 16,4 85,4 102,1 25,-6 44,-23 67,-34 20,8 39,30 70,30 34,0 52,-12 60,-11 30,13 22,23 54,37 22,10 42,2 66,8 64,16 87,-48 84,-77 -37,-18 -24,54 -100,28 -43,-16 -54,-23 -83,-56 -54,-59 -181,-90 -170,-21 2,10 2,5 5,15 1,3 3,4 4,13 -76,27 -124,48 -197,-5 -40,-30 -49,-65 -93,-103 -15,-13 -15,-19 -27,-31 -37,-22 -75,14 -47,39 12,11 17,5 23,20 -35,11 -81,-23 -95,-43 -26,-38 3,-54 25,-73 12,-8 6,-8 19,-18 47,6 137,-2 180,-15 84,-26 180,-88 220,-171 24,-49 34,-92 35,-154 1,-66 -9,-116 -41,-154 -67,-79 -107,-143 -221,-171 -102,-24 -74,-13 -168,-10 -1,-1 -1,-3 -1,-4l-5 -28c-1,-10 -3,-16 -5,-24 -6,-18 -12,-30 -15,-47 60,-5 115,4 171,10 110,13 92,52 112,66 21,12 38,-2 50,-15 4,-31 -4,-32 9,-61 8,-19 14,-23 20,-44l32 -102c-16,-34 -24,-31 -57,-20 -35,-28 -27,-30 -83,-36 6,-21 11,-24 21,-41 40,-67 68,46 104,55 37,8 56,-57 70,-82 28,8 35,25 79,27 40,2 64,3 100,13 54,14 82,10 118,-29 3,-4 13,-14 16,-15 10,-7 5,-6 18,-8 15,46 13,64 40,102 20,28 34,55 60,74 63,7 64,-64 118,-56 31,5 80,57 102,73 22,16 33,19 54,36 30,26 68,86 106,41 27,-34 37,-94 67,3 15,50 16,165 38,203 78,10 28,-67 73,-87 24,8 34,40 35,69 2,65 -21,75 -21,81 10,28 10,34 46,35 35,0 39,-16 64,-14 -5,33 -80,118 -99,135 -18,17 -61,38 -65,56 -10,49 52,20 79,16 -6,104 -45,226 -21,271 40,6 44,0 58,-27 42,-79 159,-15 147,41 -21,31 -30,37 -67,55 -30,15 -44,31 -38,74 20,13 143,63 79,128 -26,26 -42,43 -93,25 -29,-10 -21,-16 -34,-26 -20,-16 -25,-4 -39,10 -1,38 15,36 44,50z"/>
   <path class="fil15" d="M5490 4244c-4,14 -18,10 -12,40l63 119c41,65 77,88 -16,135 -30,16 -61,39 -83,-6 -13,-29 -97,-247 -96,-264 20,-6 46,-7 70,-14 24,-7 45,-17 74,-10z"/>
   <path class="fil1" d="M5563 1977l44 7c-7,16 -18,18 -31,31 -11,11 -18,18 -34,20 -5,-32 6,-39 21,-58z"/>
   <path class="fil3" d="M5459 2378c-7,-35 0,-83 8,-121 1,-5 9,-47 11,-53 6,-11 26,-19 37,-29 57,-48 141,-38 219,-22 22,4 32,12 51,21 16,7 34,9 50,15l88 43c24,12 61,36 79,51 12,10 50,67 52,80 1,10 -30,87 -37,98 -56,96 -160,122 -260,137 -83,14 -154,-12 -209,-47 -78,-51 -77,-112 -89,-173z"/>
   <path class="fil15" d="M6058 2291c-17,-17 -20,-36 -38,-51 -73,-62 -159,-84 -228,-114 -89,-38 -174,-25 -225,-31 11,-22 5,-15 23,-31 10,-8 17,-18 27,-23 66,-42 240,-34 326,54 13,13 17,15 30,26 9,9 12,15 22,28 31,43 65,66 63,142z"/>
   <path class="fil1" d="M5947 1873c-22,1 -59,-19 -81,-27 -21,-8 -164,-18 -194,-18 -31,-1 -76,1 -104,-1 -10,-116 44,-124 169,-129 49,-2 95,2 142,10 58,9 53,14 92,43l7 5c-1,0 2,2 3,3 -1,18 -8,49 -14,64 -5,14 -5,10 -11,24 -4,10 -6,19 -9,26z"/>
   <path class="fil3" d="M5491 4177c-32,3 -50,51 -85,-21 -36,-73 -54,-88 -79,-132 -10,-18 -15,-30 -25,-46 -8,-13 -17,-30 -26,-44 -13,-19 -23,-15 -26,-44 18,-20 94,-59 122,-73 50,-23 240,-69 308,-84 55,-11 125,-11 183,-11 77,0 292,-7 328,21 21,17 74,128 89,162 13,31 23,56 37,89 36,81 63,214 93,254l13 23c-23,10 -17,16 -50,23 -86,19 -92,24 -42,123 37,71 22,69 35,116 12,43 39,53 90,56 3,22 10,33 12,51 4,30 24,155 14,170 -29,19 -129,46 -172,50 -38,4 -72,3 -111,2 -33,0 -62,5 -95,9 -40,4 -275,11 -313,5 -35,-5 -68,0 -104,0 -4,-59 -10,-44 -22,-84 -7,-22 -2,-21 -10,-41l-37 -114c-9,-26 -10,-55 -16,-83 33,-24 73,-41 40,-86 -59,-79 -53,-78 -93,-143 -27,-42 -12,-35 -9,-49 1,-8 -16,-86 -49,-99z"/>
   <path class="fil3" d="M6360 3972c-5,-26 -31,-59 -35,-87 19,-13 57,-14 77,-7 43,15 103,13 147,-5 59,-34 62,-21 79,-52 13,-15 73,-65 84,-67 70,3 74,61 48,119 -15,34 -64,83 -93,99 -148,81 -227,-5 -307,0z"/>
   <path class="fil5" d="M6439 4220c-9,-69 -40,-136 -56,-197 70,-11 24,19 143,25 70,3 77,4 136,-22 40,-18 67,-40 96,-70 34,-37 42,-64 64,-101 47,6 82,18 120,37 83,43 288,181 315,233 22,45 -19,86 -37,113 -12,19 -6,19 -23,51 -43,82 -73,143 -73,235 0,130 -40,63 -4,130l75 193c-20,-6 -20,-14 -32,-30l-80 -91c-20,-24 -36,-37 -57,-58 -13,-14 -16,-21 -27,-34l-204 -198c-28,-18 -30,-37 -75,-35 -4,-30 -8,-45 -14,-73 -6,-28 5,-47 -4,-66 -23,-18 -34,-3 -62,-18 -59,-33 -131,-40 -201,-24z"/>
   <path class="fil15" d="M6456 3851c-9,-22 -7,-59 -12,-84 -5,-31 -16,-50 -22,-80l107 5c20,35 40,82 46,122 -33,20 -70,41 -119,37z"/>
   <path class="fil15" d="M7058 4927c-18,-10 -106,-160 -131,-191 -26,-32 -41,-37 -54,-52 -36,-40 -65,-52 -116,-99 -11,-10 -17,-19 -28,-28 -11,-9 -16,-11 -28,-22 -71,-72 -72,-7 -149,1 -123,13 -100,26 -142,-56 -45,-88 -46,-106 3,-139 74,-52 101,-115 222,-46 30,17 28,31 31,73 4,47 -23,71 31,72 37,0 25,9 68,36 26,17 91,76 112,99l259 279c41,44 142,102 161,158l-239 -85z"/>
   <path class="fil5" d="M6979 4907c-15,0 -136,-34 -161,-41 -42,-11 -41,-10 -86,-13 -47,-3 -104,-23 -128,-20 -17,2 -27,5 -41,-4 -28,-15 -24,-37 -30,-71 -21,-123 -10,-68 -19,-176 65,-10 138,-24 189,16l41 34c50,38 132,102 158,150l77 125z"/>
   <path class="fil16" d="M6945 8703c-55,-2 -156,-69 -202,-93 4,-17 31,-78 39,-89 25,0 69,34 98,-3 14,-20 -1,-36 26,-100 14,-33 24,-61 37,-94 26,-65 16,-73 30,-96 1,1 2,3 2,4 1,1 2,3 2,4 0,1 1,3 1,4l3 17c2,11 2,21 2,32 1,11 1,24 3,34 16,84 2,76 -2,147 -3,50 -7,76 -14,123 -12,78 -19,76 -25,110z"/>
   <path class="fil17" d="M7174 5177c18,-25 16,-30 26,-46l31 10c6,68 -66,129 -101,183 -14,22 -14,34 -34,57 -15,18 -31,28 -36,59 -11,62 51,91 27,127 -15,24 -24,37 -45,49 -4,-45 22,-62 -13,-91 -23,-20 -54,-21 -88,-14 -1,-17 12,-29 6,-50 -6,-21 -18,-16 -33,-27 11,-11 25,-25 46,-28l53 2c27,-3 70,-56 84,-82 21,-42 44,-106 77,-149z"/>
   <path class="fil1" d="M7286 3111c-28,18 -55,13 -75,46 -39,66 73,162 4,171 -15,2 -78,-18 -90,-26 1,-28 7,-22 15,-44 11,-31 14,-60 20,-91 5,-19 9,-19 15,-39l18 -98c8,-62 -7,-52 57,-56l2 8c1,1 1,3 1,4l13 58c7,27 19,47 20,67z"/>
   <path class="fil5" d="M7335 5000c-52,-104 -132,-206 -148,-318 -17,-112 -18,-169 12,-275 10,-34 58,-139 72,-163 6,-9 29,-38 36,-40 26,-7 64,60 76,76 7,10 11,14 18,23l43 73c30,52 158,332 166,380 17,95 17,62 -56,152 -35,43 -150,94 -219,92z"/>
   <path class="fil18" d="M4029 4858l-45 0c0,20 2,37 8,49 14,25 20,24 21,59 5,124 27,230 29,292 4,146 92,226 -135,222 -85,-1 -188,-14 -255,-62 -34,-24 -50,-58 -51,-105 -2,-97 19,-193 34,-287 6,-37 -7,-41 -10,-70 -4,-34 11,-37 11,-70 -35,9 -56,0 -90,4 -97,12 -419,81 -486,109 -140,64 -318,101 -294,279 3,22 20,49 34,67 13,17 35,33 53,47 55,43 119,84 184,113 107,48 347,117 461,138 55,10 100,28 156,40 107,22 411,85 505,93 51,5 126,24 166,28 63,7 119,12 181,20 87,12 274,46 346,52 58,4 125,22 176,22 30,0 64,2 93,6l284 2c60,2 125,6 187,-2 123,-15 259,-7 386,-14 61,-4 118,-13 181,-14 204,-4 491,-47 680,-114 31,-10 45,-15 80,-21 34,-6 41,-19 78,-21 -13,-19 -21,-7 -17,-45 17,-19 29,-13 26,-55 -2,-27 -5,-45 -22,-59 -44,-14 -39,114 -101,88 -20,-16 -16,-21 -25,-44 20,-19 47,-84 44,-115 -26,0 -49,29 -60,48 -24,40 10,59 -60,56 -28,-50 -20,-33 10,-81 20,-33 34,-35 50,-70 17,-36 15,-49 51,-70 56,-33 24,-17 96,-23 60,-5 79,-101 105,-138 7,-9 16,-23 23,-37 15,-27 -23,-43 32,-68 88,-40 183,8 114,114l-52 68c-138,207 -51,163 -60,261 -8,84 -84,94 -91,149 23,-3 121,-52 180,-68l329 -114c75,-37 61,-22 114,-77 100,-104 -196,-288 -270,-330 -79,-44 -179,-82 -270,-112 -13,-4 -36,-11 -51,-15 -26,-7 -38,0 -64,-2 -24,-29 -18,-22 -61,-34 -120,-33 -116,-29 -233,-52 -168,-32 -218,-7 -254,-14 -39,-6 -54,4 -85,15 -44,16 -124,11 -176,14 -57,4 -128,11 -185,11 -63,0 -127,-3 -190,2 -30,3 -57,2 -87,0 -24,-2 -73,-3 -95,-8 -14,-14 -27,-30 -34,-51 -27,-84 11,-70 -74,-92 -77,-19 -130,-14 -209,-13 -47,0 -99,8 -146,11 -205,12 -358,7 -579,33 -33,4 -117,23 -137,21l2 42c16,9 29,7 44,22 15,13 14,29 19,50 13,56 9,67 13,124 8,126 14,252 35,376 15,95 20,150 -78,184 -20,7 -111,5 -135,-1 -45,-10 -186,-35 -217,-53 -39,-22 -29,-66 -32,-104 -13,-128 -5,-259 3,-387 1,-22 4,-42 4,-66 1,-27 -9,-46 -6,-63 8,-42 37,-29 35,-110 -42,3 -86,17 -121,20l0 0c-7,1 -14,1 -20,0z"/>
   <path class="fil1" d="M5963 5613c90,-5 118,5 221,-13l130 -26c20,-3 45,-5 67,-8 18,-3 56,-5 67,-14 20,-16 -4,-9 18,-22 27,-17 208,-50 268,-79 61,-30 147,-68 176,-130 20,-42 19,-91 -4,-127 -13,-21 -60,-66 -76,-79 -16,-11 -37,-16 -54,-26 -78,-44 -52,-41 -156,-71 -34,-10 -81,-34 -119,-36 -53,-3 -85,-26 -131,-28 -102,-5 -45,1 -138,-15 -49,-8 -96,2 -146,-6 -37,-5 -32,-9 -68,-3 -56,9 -163,-1 -218,13 -57,16 -91,-1 -139,17 -36,14 -83,28 -125,32 -42,5 -32,-1 -66,14 -24,11 -36,8 -60,16 -146,48 -80,32 -163,72 -67,32 -44,22 -82,69 -44,54 -34,113 2,167 38,57 58,80 133,104 25,8 44,28 164,62 33,10 28,12 56,24l118 38c25,8 28,15 54,21 116,25 121,42 271,34z"/>
   <path class="fil3" d="M5187 5228c-5,-40 9,-59 52,-86 24,-14 26,-12 51,-20 19,-6 32,-14 47,-23l215 -67c77,-19 151,-40 235,-46 160,-10 164,-19 324,-6 19,2 34,-2 59,0 115,10 251,22 360,53 40,12 70,22 107,33 37,10 64,28 97,44 57,27 137,69 134,148 -2,51 -14,55 -37,74 -36,31 -89,65 -135,77 -45,11 -36,13 -77,27 -107,34 -244,51 -350,72 -51,9 -207,27 -255,26 -177,-2 -345,-21 -501,-68 -21,-7 -22,-12 -51,-18 -20,-4 -36,-9 -56,-15 -35,-12 -69,-23 -100,-41 -63,-38 -103,-52 -119,-164z"/>
   <path class="fil1" d="M6164 3279l129 55c28,14 106,24 147,35 33,8 169,6 205,-29 21,-21 41,-43 55,-65 24,-37 37,-175 12,-213 -83,-16 -8,62 -36,164 -6,21 -27,54 -42,69 -64,63 -317,11 -365,-22 -33,-23 -82,-30 -123,-48 -11,-5 -25,-13 -38,-18 -30,-11 -58,-17 -86,-29l-163 -63 -182 -44c-69,-8 -141,-6 -210,-15 -33,-5 -65,-7 -87,-25 -17,-16 -17,-69 -8,-94 6,-18 16,-16 26,-30 24,-33 -20,-52 -48,-27 -6,5 -89,146 7,199 72,40 159,12 184,42 55,67 24,89 178,159 28,13 51,21 84,31 63,21 124,26 198,29l141 -21c10,-3 12,-4 15,-14l7 -26z"/>
   <path class="fil3" d="M5789 3140c-3,37 -20,57 -57,57 -28,0 -59,-25 -74,-36 1,-9 11,-36 15,-44l116 23z"/>
   <path class="fil3" d="M5993 3217c-17,36 -61,29 -98,23 -55,-8 -50,-32 -27,-73 24,2 117,43 125,50z"/>
   <path class="fil1" d="M6844 2649c-13,-51 -22,-8 -3,-72 8,-23 14,-65 16,-90 5,-93 -35,-168 -98,-218 -22,-17 -36,-31 -61,-43 -97,-48 -64,-38 -159,-53 -86,-14 -186,12 -255,52 -28,16 -37,28 -55,51 -81,97 -133,248 -109,372 6,28 11,30 27,47 27,29 9,35 73,78 32,22 51,39 98,49 46,10 74,24 128,25 82,1 190,-15 242,-56 14,-10 25,-20 41,-30 25,-17 56,-54 70,-81 18,-36 28,-19 45,-31z"/>
   <path class="fil15" d="M6248 2324c15,-51 35,-14 75,-54 20,-20 56,-37 84,-47 50,-18 118,-5 168,10 70,21 68,27 130,60 8,5 61,61 65,67 24,38 67,145 23,192 -15,-17 -19,-40 -37,-58 -140,-133 -287,-213 -508,-170z"/>
   <path class="fil3" d="M6202 2400c86,-10 16,-50 214,-32 18,1 83,18 103,26 36,13 49,31 81,49 61,34 203,151 158,211 -10,14 -23,25 -31,35 -35,44 -41,58 -110,81 -77,26 -149,26 -232,19 -38,-3 -67,-23 -97,-33 -41,-13 -51,-24 -73,-52 -21,-26 -44,-46 -49,-81 -14,-89 14,-149 36,-223z"/>
   <path class="fil1" d="M4993 5724c46,-14 109,-68 120,-105 18,-63 1,-136 -27,-187 -35,-65 -36,-14 -34,-104 2,-99 23,-175 47,-256 17,-57 39,-129 -37,-149 -73,-20 -85,54 -104,104 -23,60 -27,60 -36,114 -3,18 -10,33 -14,61 -3,18 -8,47 -12,64 -11,42 -11,81 -32,114 -15,24 -46,57 -57,94 -16,54 27,192 75,217 21,12 83,41 111,33z"/>
   <path class="fil17" d="M4932 5384c1,-20 -3,-45 -2,-60 5,-48 51,-221 64,-267 7,-25 32,-76 54,-83 42,27 4,61 -11,137 -12,56 -29,195 -45,232 -19,42 23,96 46,126 108,144 -86,277 -158,163 -15,-23 -44,-110 -30,-141 28,-64 30,-59 82,-107z"/>
   <path class="fil1" d="M6564 1857c-117,-45 -95,-72 -131,-46 -10,8 -20,23 -24,38 9,35 18,5 3,57 -37,128 -60,95 -50,163 39,20 64,1 111,9 74,12 371,111 407,166 46,71 79,-4 99,-23 117,-109 19,-121 -7,-139 -42,-31 -118,-77 -149,-103 -85,-72 -157,-82 -259,-122z"/>
   <path class="fil1" d="M6968 2166c-44,70 -96,18 -124,3 -57,-30 -205,-94 -268,-109 -37,-8 -119,-26 -142,-45 0,-36 22,-105 31,-141 55,1 244,82 290,109 41,23 72,57 117,84 37,22 24,18 54,45 26,24 27,22 42,54z"/>
   <path class="fil1" d="M8016 6933c-4,-35 -39,-87 -50,-176 -8,-68 -13,-129 -14,-202 -1,-140 2,-291 7,-427 4,-107 50,-385 37,-507 -3,-28 -12,-56 -18,-85 -6,-28 -9,-69 -18,-93 -8,-26 -36,-48 -64,-26 -36,29 11,48 22,62 34,43 42,230 38,286 -5,66 -7,133 -15,200 -21,177 -45,669 1,823 11,39 36,130 74,145z"/>
   <path class="fil1" d="M6642 5228c-21,44 -148,68 -191,80 -63,18 -169,21 -236,21 -61,-1 -108,7 -166,10l-342 -8c-42,-3 -225,-39 -227,-39 -37,0 -29,29 -3,40 33,14 260,45 315,41 63,-5 105,-1 166,2l345 -14c27,-2 55,-4 82,-5l152 -27c21,-5 246,-94 117,-134l-47 -7c-13,2 -4,-1 -12,5 7,22 31,21 47,35z"/>
   <path class="fil1" d="M6509 5115c0,0 4,-1 3,-1 -1,0 2,-1 4,-2 -34,-27 -245,-51 -309,-61 -51,-8 -310,-12 -361,-7l-166 21c-53,17 -168,36 -216,66 -36,23 -91,51 -94,87 -4,39 24,37 45,34 54,-99 117,-97 208,-123 146,-41 297,-44 446,-48l440 34z"/>
   <path class="fil1" d="M4680 7911c7,-23 -5,-51 -6,-75 -5,-67 -2,-142 -11,-232 -4,-49 -2,-110 -4,-159 -8,-139 -44,-514 -16,-623 11,-42 42,-91 -2,-111 -33,11 -23,20 -27,53 -2,22 -8,46 -12,69 -25,181 39,723 22,934 -5,66 9,86 16,142 23,9 18,13 40,2z"/>
   <path class="fil1" d="M6811 7689c7,-29 -10,-91 -14,-123l-34 -388c-7,-91 5,-192 -2,-280 -3,-38 1,-118 11,-156 4,-16 2,-3 5,-18 9,-39 -26,-39 -40,-29 -18,13 -7,38 -10,61 -1,17 -6,41 -10,60 -11,47 -4,352 6,407 12,68 15,187 20,262 3,52 -1,223 68,204z"/>
   <path class="fil1" d="M6282 7930c4,-28 -4,-47 -6,-74 -18,-249 -5,-757 61,-982 4,-12 21,-55 21,-59 2,-26 -33,-19 -43,-2 -3,7 -26,110 -29,125 -22,133 -41,278 -47,416 -5,103 -22,517 16,579l27 -3z"/>
   <path class="fil1" d="M6174 6877c11,-17 4,-192 6,-232l19 -326c3,-38 0,-74 4,-111 4,-46 11,-60 1,-105 -5,-27 -15,-78 -48,-65 -26,10 4,61 4,94 -1,38 -4,77 -6,111l-22 443c-1,53 8,60 14,102 6,36 5,79 28,89z"/>
   <path class="fil1" d="M3193 5409c-15,-69 -211,-85 -231,-167 -10,-42 2,-56 12,-77 10,-20 -3,-5 13,-23 36,-41 129,-79 179,-87 39,-7 89,-5 123,-13 42,-10 31,-63 -30,-47 -30,8 -51,7 -110,22 -72,20 -228,57 -244,157 -3,17 -7,43 -7,59 -1,38 63,93 93,106 115,50 75,26 150,52 24,8 25,18 52,18z"/>
   <path class="fil1" d="M3384 7650c21,-33 19,-182 21,-235 6,-184 41,-286 56,-457l29 -162c-2,-19 -21,-27 -39,-15 -16,10 -23,181 -29,228 -6,37 -18,60 -23,104 -14,117 -40,221 -41,347 -1,32 0,89 -7,117 -6,22 -17,26 -6,48 8,16 20,25 39,25z"/>
   <path class="fil1" d="M5631 6368c10,-66 -15,-170 -43,-213 -42,-65 -89,-80 -151,-105 -181,-70 -230,-38 -335,-53 -23,-3 -40,-2 -46,18 -7,22 4,24 14,40 33,3 29,-2 50,-7 85,-20 394,26 447,170 29,81 5,168 64,150z"/>
   <path class="fil1" d="M3605 5811c-15,-24 -155,-56 -197,-69 -124,-35 -129,-31 -252,-78 -18,-7 -30,-15 -46,-21 -72,-28 -157,-67 -215,-116 -14,-12 -45,-17 -55,1 -26,42 64,63 102,87 87,54 45,29 136,65 106,43 72,34 193,74 41,13 70,13 111,24 37,9 198,52 223,33z"/>
   <path class="fil1" d="M4117 8578c40,-125 -10,-278 -18,-440l-2 -483 -34 6c-12,28 -1,414 2,477 3,71 14,149 22,217 21,173 0,175 2,221l28 2z"/>
   <path class="fil1" d="M7864 7908c15,-58 -23,-143 -35,-203 -13,-69 -25,-142 -34,-212 -10,-75 -21,-148 -24,-224 -1,-38 -6,-72 -8,-111 -2,-41 13,-85 -45,-64 -13,31 18,161 20,215 3,69 40,371 55,429 8,33 16,60 23,96 9,49 -8,78 48,74z"/>
   <path class="fil1" d="M4797 5967c-12,-20 -3,-3 -47,-14 -109,-27 -260,-14 -377,-34 -96,-16 -199,-31 -295,-58 -40,-11 -43,-22 -95,-21 -9,41 -3,56 55,62 76,6 111,30 145,35 18,2 35,5 53,8 91,16 352,25 456,26 24,0 91,4 105,-4z"/>
   <path class="fil1" d="M5441 7797c-1,75 11,106 -4,182 -9,44 -3,141 2,186 7,52 14,122 17,175 3,44 -2,145 41,149 34,3 17,-56 14,-75 -23,-166 -39,-362 -28,-531 2,-32 11,-51 9,-88 -22,-14 -27,-20 -51,2z"/>
   <path class="fil1" d="M2927 7016c7,-12 -6,-78 -9,-101 -5,-40 -7,-77 -8,-119 -1,-56 4,-186 13,-238 21,-123 13,-188 59,-320 15,-42 30,-84 -29,-74l-41 199c-12,72 -18,148 -26,221 -9,76 -26,411 41,432z"/>
   <path class="fil1" d="M7859 2020c-13,-15 -10,-14 -29,-22 -41,-18 -62,-58 -45,-81 21,-29 88,-82 34,-109 -47,-24 -90,-25 -136,-55 -49,-34 21,-85 20,-140 -13,-36 -80,-20 -83,35 10,11 28,12 24,13 -1,0 3,1 4,2 -87,138 104,136 146,176 -8,43 -55,60 -55,106 -2,66 121,69 37,149 -14,12 -41,42 -18,58 38,26 96,-111 101,-132z"/>
   <path class="fil1" d="M7687 4368c16,7 37,-10 42,-24 12,-27 -38,-57 -83,-136 -18,-33 -108,-140 -133,-169 -58,-66 -165,-161 -236,-216 -16,-12 -73,-48 -98,-50 -24,-2 -47,8 -44,31 4,26 32,19 54,22 70,9 128,72 182,120 35,31 119,111 150,151 10,13 23,32 33,42 27,29 7,0 34,42 15,23 22,14 34,40 22,48 30,54 56,97 18,29 -10,28 9,50z"/>
   <path class="fil1" d="M5019 1981c18,18 44,10 50,-8 7,-21 -2,-19 -7,-26 -27,-37 -49,-123 -16,-141 26,-13 34,9 60,-15 48,-42 14,-120 16,-180 34,3 91,39 119,-32l39 -92c6,-23 3,-42 -29,-35 -42,8 -6,30 -31,81 -9,17 -18,39 -24,51 -44,8 -56,-18 -97,-10 -36,42 0,108 -9,177 -39,29 -87,-10 -97,78 -5,36 -1,50 9,82 14,39 6,39 13,62l4 8z"/>
   <path class="fil1" d="M7514 8558c34,6 35,-30 35,-57 2,-102 -5,-370 -20,-457 -17,-102 -12,-130 -67,-121 -12,20 -16,4 -9,32 5,23 27,41 32,98 6,57 12,106 12,166l17 339z"/>
   <path class="fil1" d="M6020 7654c-67,-12 -21,127 -16,168 9,71 42,211 54,289l37 304c11,15 27,14 28,-9 6,-85 -60,-456 -76,-552 -5,-28 -13,-67 -17,-98 -4,-33 4,-76 -10,-102z"/>
   <path class="fil1" d="M7647 6152c17,7 11,6 33,6 32,-58 15,-194 10,-268l-9 -215c0,-29 10,-42 4,-63 -83,-23 -47,53 -46,73 1,24 0,47 1,71 4,120 18,220 17,337 -1,68 -12,21 -10,59z"/>
   <path class="fil1" d="M4499 4558c54,-17 158,-23 218,-23 76,1 111,9 150,9 86,1 110,14 125,-35 -31,-31 -43,1 -133,-7 -118,-11 -184,-9 -303,2 -36,3 -122,10 -118,45 4,28 41,15 61,9z"/>
   <path class="fil1" d="M5928 3985c22,-19 15,-61 13,-92 15,7 4,0 14,10 0,0 8,11 9,12l48 72c19,2 31,2 43,-11 12,-13 -4,-55 0,-121 1,-22 3,-76 -38,-47 -19,14 -7,61 -7,89 -17,-9 -5,1 -18,-16 -4,-5 -7,-11 -12,-18 -36,-52 -18,-85 -103,-43 -6,53 22,36 24,80 1,31 -1,77 27,85z"/>
   <path class="fil1" d="M5501 4017c16,-31 -2,-53 -2,-79 28,-1 25,23 47,25 32,2 30,-25 40,-44 17,21 9,32 12,56 3,21 15,32 33,37 40,-20 14,-52 7,-88 -15,-80 1,-138 -74,-106 -6,31 -4,62 -23,82 -30,-1 -33,-26 -50,-35 -21,-12 -53,-6 -46,29l41 111c7,10 2,8 15,12z"/>
   <path class="fil1" d="M5868 3976c-4,-13 -2,-13 -23,-17 -12,-3 -29,-4 -40,-5 -31,-5 -53,0 -68,-18 11,-29 39,-10 64,-25 0,-19 -5,-21 -27,-27 -15,-4 -33,-4 -47,-9 -3,-24 -6,-19 12,-28 34,-16 106,-3 118,-17 14,-29 -39,-25 -65,-25 -17,1 -33,4 -50,4 -32,1 -27,-7 -50,-9 -29,22 -35,26 -20,70 22,65 -21,126 100,124 23,0 26,-5 46,-7 28,-2 34,7 50,-11z"/>
   <path class="fil1" d="M5928 4734c14,-11 10,-15 35,-15 22,0 24,8 49,4 40,-7 21,-8 92,-14 32,-3 65,0 89,-5 37,-8 61,11 82,-19 -7,-45 -48,-22 -86,-15 -36,6 -75,7 -113,12 -63,7 -201,10 -289,17 -26,2 -37,-5 -54,-3 -42,6 -38,60 0,63 17,1 26,-8 45,-13 20,-5 37,-5 56,-9 16,-3 35,-5 52,-9 51,-13 34,-9 42,6z"/>
   <path class="fil1" d="M5601 4348c20,3 92,-15 122,-18 67,-5 374,-46 396,-38 15,12 16,22 48,13 24,-6 30,-19 28,-43 -31,-19 -105,-1 -144,4l-299 31c-58,6 -37,-6 -72,0 -28,5 -49,0 -80,4 -21,29 -15,22 1,47z"/>
   <path class="fil1" d="M4931 6991c8,-25 -3,-43 -3,-74l26 -356c4,-27 25,-101 21,-123 -35,-3 -34,16 -40,44 -16,68 -26,157 -27,229 -1,107 -55,298 23,280z"/>
   <path class="fil1" d="M6637 6208c31,-66 -30,-296 -186,-290 -72,2 -60,59 -25,58 51,-3 53,-23 103,18 26,22 43,44 56,84 18,52 4,93 15,127 9,27 29,20 37,3z"/>
   <path class="fil1" d="M5993 3428c0,-28 -10,-21 -38,-32 -84,-31 -150,-18 -295,-82 -25,-12 -79,-63 -100,-33 -25,39 48,57 70,67 115,54 164,44 238,64 24,6 106,24 125,16z"/>
   <path class="fil1" d="M7396 8197c-1,42 22,44 25,92l-2 221c-5,31 -31,64 17,65 37,-75 38,-366 20,-386 -19,-13 -46,0 -60,8z"/>
   <path class="fil1" d="M4476 5416c12,-7 19,-15 19,-33 0,-23 -9,-21 -23,-30 11,-33 5,-56 0,-91l-9 -165c1,-19 10,-43 10,-51 -1,-32 -54,-26 -60,12 -1,3 14,196 17,210 3,14 19,82 16,92 -5,14 -21,13 -6,39 8,12 23,20 36,17z"/>
   <path class="fil1" d="M7309 4358c10,27 64,26 147,276 8,25 -12,40 9,52 23,14 38,-12 39,-28 3,-24 -27,-79 -35,-103 -14,-45 -89,-217 -126,-225 -20,-4 -42,6 -34,28z"/>
   <path class="fil1" d="M6172 4344c-38,-22 -185,9 -229,11 -65,5 -123,9 -186,13l0 -7c0,-1 0,-2 0,-3 0,-10 9,7 0,-9 -42,32 -40,12 -57,28 -19,18 2,42 27,42 15,-1 53,-13 70,-17 64,-16 166,-15 236,-25 26,-4 43,-10 71,-12 29,-1 65,8 68,-21z"/>
   <path class="fil1" d="M5951 8001c-16,34 7,56 11,98l30 211c5,68 -6,92 17,95 55,6 -5,-199 -9,-302 -2,-43 10,-71 -7,-105 -21,-4 -21,-5 -42,3z"/>
   <path class="fil1" d="M3035 6678c25,-78 -23,-252 28,-389 7,-17 5,-36 1,-51 -50,-5 -46,42 -52,82 -7,54 -15,286 2,338 9,25 3,15 21,20z"/>
   <path class="fil1" d="M4048 6355c-14,34 -7,47 -11,89 -4,39 -41,232 -1,251 36,17 27,-49 27,-70l17 -174c9,-58 43,-101 -32,-96z"/>
   <path class="fil1" d="M6185 3821c-12,13 -7,6 -6,29 0,10 2,26 2,36 -2,27 -15,33 -41,28 -32,-48 0,-54 -4,-101 -106,-70 -55,131 -5,152 86,36 133,-144 67,-147 -17,-1 -7,-1 -13,3z"/>
   <path class="fil3" d="M5777 4135c1,16 -1,26 -6,35 -47,12 -23,-43 -23,-43 17,-7 18,2 29,8z"/>
   <path class="fil1" d="M3808 6117c22,0 28,-4 33,-26 16,-74 -9,-184 -72,-242 -11,-11 -23,-27 -38,-28 -25,-2 -29,14 -28,35 29,19 53,16 88,92 24,51 -2,120 17,169z"/>
   <path class="fil1" d="M5797 4815c65,-2 125,-24 191,-29l154 -13c25,-4 33,-3 38,-23 -90,-5 -186,1 -277,11 -14,2 -16,6 -35,8 -34,5 -52,-2 -85,7 -2,26 2,22 14,39z"/>
   <path class="fil1" d="M7094 2995c9,-81 -16,-65 -35,-64 -4,70 -2,143 -21,209 -10,36 -21,51 -36,80 -48,96 24,50 56,-29 36,-85 26,-102 36,-196z"/>
   <path class="fil1" d="M7602 5666c-16,-6 -6,-17 -33,-10 -37,10 -19,52 -14,107 3,27 14,138 21,156l28 -6c12,-83 -10,-160 -5,-197 2,-18 11,-31 3,-50z"/>
   <path class="fil1" d="M5908 5681c-6,-6 -1,-3 -9,-7l-25 -5c-13,-2 -26,-5 -37,-8l-219 -48c-123,-21 -149,-50 -242,-69 -23,-4 -8,-4 -27,-15 7,18 7,14 23,23l15 10c82,58 436,122 521,119z"/>
   <path class="fil1" d="M8117 6281c63,24 36,-93 36,-128 0,-23 -2,-68 4,-88 7,-20 32,-45 10,-60 -20,-13 -57,-4 -56,27 0,11 4,22 4,40l5 131c1,31 -11,50 -3,78z"/>
   <path class="fil1" d="M7116 4135c56,11 59,-38 25,-60 -25,-16 -43,-30 -72,-49 -37,-22 -113,-82 -165,-78 -8,10 -9,9 -14,23 14,16 43,18 69,29 29,11 69,38 95,56 87,60 44,27 62,79z"/>
   <path class="fil1" d="M3965 5662c20,-24 14,-51 -21,-50 -107,4 -204,-59 -232,-42 0,23 4,17 47,43 42,26 178,58 206,49z"/>
   <path class="fil1" d="M2920 5885c14,-38 -23,-155 -35,-183 -8,-16 -7,-12 -18,-22 -9,-8 -24,-31 -61,-10 -43,25 26,29 49,83 25,57 14,141 65,132z"/>
   <path class="fil1" d="M5930 8453c6,-68 1,-105 -6,-171 -2,-24 11,-169 -44,-116 -19,18 -4,52 1,75l21 160c3,27 3,51 28,52z"/>
   <path class="fil1" d="M4204 8566c13,-25 4,-115 4,-151 0,-26 22,-128 -36,-103 -25,12 -1,96 -2,133 0,26 -1,54 2,77 3,31 3,47 32,44z"/>
   <path class="fil1" d="M5775 6115c43,-30 76,-15 121,-28 22,-76 -222,-22 -204,90 68,21 41,-32 83,-62z"/>
   <path class="fil1" d="M6370 7721c8,-5 13,3 17,-22l4 -106c3,-26 16,-120 13,-137 -24,-15 -39,-12 -42,24 -3,40 -27,220 8,241z"/>
   <path class="fil1" d="M5042 6637c-34,-14 -39,8 -39,33 0,26 -3,41 -5,66 -3,40 -8,101 10,130 34,3 33,-12 31,-44 -1,-26 -2,-45 -1,-71 1,-27 28,-105 4,-114z"/>
   <path class="fil1" d="M3927 5242c16,-33 12,-91 13,-131 1,-39 20,-107 -33,-91 -26,8 -20,33 -16,53l9 133c-1,25 1,37 27,36z"/>
   <path class="fil1" d="M3118 6650c14,-19 -8,-98 8,-157 5,-19 13,-27 13,-49 -9,-8 7,2 -12,-9 -59,-33 -51,50 -49,85 2,40 -2,127 40,130z"/>
   <path class="fil1" d="M7727 2406c-49,23 29,41 -61,156 -13,15 -26,22 -22,45 40,10 68,-41 86,-77l47 -113c-21,-11 -24,-22 -50,-11z"/>
   <path class="fil1" d="M7493 5683c-102,-29 -47,50 -45,69 7,67 -14,131 32,128 15,-20 10,-63 11,-94 0,-35 4,-68 2,-103z"/>
   <path class="fil1" d="M4737 4917c35,-5 99,11 115,-1 15,-12 12,-35 -1,-44 -12,-6 -38,-1 -54,-1 -40,0 -86,-6 -118,13 -32,18 -28,47 58,33z"/>
   <path class="fil1" d="M6903 6304c19,-18 9,-86 8,-126 -1,-34 25,-101 -32,-85 -24,6 -16,31 -14,51 3,24 -3,40 3,63 8,28 9,23 12,56 4,54 17,40 23,41z"/>
   <path class="fil1" d="M7320 8297c-15,36 0,63 5,109 2,12 -11,125 23,73 12,-18 21,-88 22,-114 2,-50 13,-72 -50,-68z"/>
   <path class="fil1" d="M4606 4381c30,-5 100,8 95,-38 -4,-43 -70,-7 -97,-2 -29,5 -100,2 -110,25 -10,23 30,15 47,16 21,0 43,2 65,-1z"/>
   <path class="fil1" d="M3928 6220c24,-20 10,-53 14,-118 1,-27 14,-107 -28,-99 -28,6 -14,81 -12,110l9 86c6,19 4,15 17,21z"/>
   <path class="fil1" d="M4675 8212c3,-11 7,-156 -1,-171 -5,-11 -25,-22 -38,-9 -13,12 -3,89 -2,112 2,39 -3,75 41,68z"/>
   <path class="fil1" d="M5529 2422c17,29 54,24 81,7 14,-9 20,-13 26,-30 33,-100 -169,-82 -107,23z"/>
   <path class="fil1" d="M7380 5896c3,-38 -7,-74 -1,-108 3,-14 11,-29 4,-44 -11,-22 -82,-34 -47,86 12,39 1,68 44,66z"/>
   <path class="fil1" d="M3629 6303c5,36 -1,76 21,102 11,12 29,15 29,-8 0,-12 -5,-41 -6,-54 -1,-38 28,-72 7,-88 -1,-1 -60,-27 -51,48z"/>
   <path class="fil1" d="M7657 4005c-32,-13 -61,19 -15,52 10,7 31,16 39,25 16,19 6,34 17,44 11,11 61,-2 23,-58 -17,-26 -34,-52 -64,-63z"/>
   <path class="fil1" d="M8089 7620c40,6 34,-20 31,-54 -1,-21 6,-58 -2,-69 -13,-19 -36,-18 -54,-6 -19,33 0,47 10,65 11,21 4,40 15,64z"/>
   <path class="fil1" d="M6381 5666c31,-4 24,-18 15,-42 -29,-7 -38,12 -98,24 -21,5 -37,4 -58,7 -6,1 -22,5 -28,8 -19,11 -10,-5 -13,18 39,15 122,-7 182,-15z"/>
   <path class="fil1" d="M5154 6821c23,-9 49,-162 -14,-149 -38,7 -9,48 -5,74 3,28 -23,90 19,75z"/>
   <path class="fil1" d="M7259 5921c10,-23 5,-65 7,-95 2,-38 5,-45 -41,-49 -27,38 -15,24 -4,77 8,41 -7,75 38,67z"/>
   <path class="fil1" d="M6789 7782c3,20 8,15 8,40 -1,38 -25,101 27,101 9,-23 7,-51 13,-81 6,-32 9,-48 -5,-74 -28,-5 -27,0 -43,14z"/>
   <path class="fil1" d="M5731 4543c43,1 28,-20 81,-19 38,0 56,22 68,-10 0,-24 -58,-24 -78,-24 -41,1 -67,-5 -89,19 3,25 5,20 18,34z"/>
   <path class="fil1" d="M6254 2631c28,68 77,41 94,18 11,-14 13,-22 8,-42 -17,-68 -128,-39 -102,24z"/>
   <path class="fil1" d="M5491 7681c8,-15 10,-56 19,-81 11,-30 3,-57 -34,-50 -33,6 -27,42 -22,70 6,31 8,59 37,61z"/>
   <path class="fil1" d="M4963 2324c36,4 28,-38 29,-68 1,-32 19,-73 -14,-78 -44,-6 -31,34 -28,61 3,30 -4,62 13,85z"/>
   <path class="fil1" d="M4309 8551c10,-25 29,-165 -33,-140 -31,12 -3,56 0,80 3,28 0,61 33,60z"/>
   <path class="fil1" d="M5838 8470c9,-24 40,-162 -19,-144 -31,9 -11,56 -10,79 2,30 -10,65 29,65z"/>
   <path class="fil1" d="M7177 5949c15,-39 0,-42 -3,-78 -1,-16 5,-35 -5,-45 -8,-8 -27,-8 -36,-1 -21,13 -2,54 2,77 5,32 1,54 42,47z"/>
   <path class="fil1" d="M7732 6979c15,-23 11,-12 14,-44 9,-90 16,-107 -46,-90 -10,26 3,42 8,65 6,25 -1,49 9,68l15 1z"/>
   <path class="fil1" d="M3204 6520c-70,-45 -67,118 -2,89 8,-3 15,-14 16,-24 0,-5 -11,-60 -14,-65z"/>
   <path class="fil1" d="M6763 5920c-23,-15 -39,8 -52,26 -15,22 -23,38 -10,72 33,0 33,-26 54,-43 20,-15 42,-32 8,-55z"/>
   <path class="fil1" d="M7069 5935c30,-1 40,-97 -14,-85 -40,8 -23,87 14,85z"/>
   <path class="fil1" d="M7481 6166c24,-10 30,-135 -15,-129 -33,5 -4,46 -2,61 4,27 -2,54 17,68z"/>
   <path class="fil1" d="M7283 8412c-28,-22 -55,-24 -60,8 -3,27 10,60 36,63 3,-5 25,-49 24,-71z"/>
   <path class="fil1" d="M5741 8434c-1,44 18,61 55,40 6,-25 7,-47 -13,-55 -20,-8 -29,6 -42,15z"/>
   <path class="fil1" d="M6994 5908c52,-52 8,-79 -38,-58 0,34 9,54 38,58z"/>
   <path class="fil1" d="M8233 7613c12,-29 12,-49 -5,-70 -30,-3 -21,0 -39,13 -1,17 -2,4 1,18l2 9c13,33 25,32 41,30z"/>
   <path class="fil1" d="M3363 7878c-20,-15 -14,-13 -45,-11 -8,14 -25,44 3,55 36,14 48,-10 42,-44z"/>
   <path class="fil1" d="M3884 5303c8,42 41,40 66,19 4,-58 -42,-52 -66,-19z"/>
   <path class="fil1" d="M4382 8479c-37,-19 -68,34 -30,50 37,14 68,-31 30,-50z"/>
   <path class="fil1" d="M7228 8509c11,-25 10,-31 -8,-48 -30,-3 -43,4 -45,31 16,18 22,20 53,17z"/>
   <path class="fil1" d="M7531 4719c-5,0 -16,-13 -37,-6 -13,4 -18,13 -21,27 18,26 65,30 58,-21z"/>
   <path class="fil1" d="M5763 4615l0 -30c-22,-10 -23,-9 -47,-6l-8 30c21,20 32,15 55,6z"/>
   <path class="fil1" d="M6953 3362c21,15 27,10 51,4l-2 -24c-25,-15 -50,-16 -49,20z"/>
   <path class="fil15" d="M7481 5102c-13,-4 -70,-36 -85,-45 5,-9 -5,0 10,-10l37 -13c21,-8 30,-21 48,-13 18,14 -1,66 -10,81z"/>
   <path class="fil1" d="M5560 4175c20,4 91,-15 122,-17 66,-5 373,-46 395,-39 15,13 16,22 48,14 24,-6 30,-19 28,-43 -30,-19 -105,-1 -143,4l-300 31c-57,5 -36,-6 -72,0 -28,5 -49,0 -80,4 -21,28 -15,22 2,46z"/>
   <path class="fil1" d="M6130 4172c-38,-22 -184,8 -229,11 -64,4 -123,9 -186,13l0 -8c0,0 0,-2 0,-2 0,-10 9,7 0,-9 -42,31 -40,12 -57,28 -19,18 2,42 27,41 16,0 53,-12 70,-16 65,-16 166,-15 236,-25 26,-4 43,-10 71,-12 30,-2 65,8 68,-21z"/>
  </g>
 </g>
</svg>
