<?xml version="1.0" encoding="UTF-8"?>
<!DOCTYPE svg PUBLIC "-//W3C//DTD SVG 1.1//EN" "http://www.w3.org/Graphics/SVG/1.1/DTD/svg11.dtd">
<!-- Creator: CorelDRAW X7 -->
<svg xmlns="http://www.w3.org/2000/svg" xml:space="preserve" width="84.6666mm" height="84.6666mm" version="1.1" style="shape-rendering:geometricPrecision; text-rendering:geometricPrecision; image-rendering:optimizeQuality; fill-rule:evenodd; clip-rule:evenodd"
viewBox="0 0 8467 8467"
 xmlns:xlink="http://www.w3.org/1999/xlink">
 <defs>
  <style type="text/css">
   <![CDATA[
    .fil8 {fill:none}
    .fil9 {fill:black}
    .fil1 {fill:#96B348}
    .fil0 {fill:#DCF29F}
    .fil11 {fill:#FEFEFE;fill-rule:nonzero}
    .fil10 {fill:#F18839;fill-rule:nonzero}
    .fil6 {fill:url(#id1)}
    .fil3 {fill:url(#id2)}
    .fil2 {fill:url(#id3)}
    .fil5 {fill:url(#id4)}
    .fil4 {fill:url(#id5)}
    .fil7 {fill:url(#id6)}
   ]]>
  </style>
   <clipPath id="id0">
    <path d="M754 0l7332 0c209,0 381,171 381,381l0 7331c0,210 -172,381 -381,381l-7332 0c-209,0 -380,-171 -380,-381l0 -7331c0,-210 171,-381 380,-381z"/>
   </clipPath>
  <linearGradient id="id1" gradientUnits="userSpaceOnUse" x1="5064.25" y1="566.92" x2="7346.58" y2="701.18">
   <stop offset="0" style="stop-opacity:1; stop-color:#F80C3A"/>
   <stop offset="1" style="stop-opacity:1; stop-color:#FFDA1E"/>
  </linearGradient>
  <linearGradient id="id2" gradientUnits="userSpaceOnUse" x1="5064.25" y1="566.92" x2="7346.58" y2="701.18">
   <stop offset="0" style="stop-opacity:1; stop-color:#FB736A"/>
   <stop offset="1" style="stop-opacity:1; stop-color:#FBD995"/>
  </linearGradient>
  <linearGradient id="id3" gradientUnits="userSpaceOnUse" x1="5300.67" y1="6192.64" x2="5759.38" y2="4311.94">
   <stop offset="0" style="stop-opacity:1; stop-color:#FBD995"/>
   <stop offset="0.568627" style="stop-opacity:1; stop-color:#FBA680"/>
   <stop offset="1" style="stop-opacity:1; stop-color:#FB736A"/>
  </linearGradient>
  <linearGradient id="id4" gradientUnits="userSpaceOnUse" x1="5300.67" y1="6192.64" x2="5759.38" y2="4311.94">
   <stop offset="0" style="stop-opacity:1; stop-color:#FFDA1E"/>
   <stop offset="0.568627" style="stop-opacity:1; stop-color:#FC732C"/>
   <stop offset="1" style="stop-opacity:1; stop-color:#F80C3A"/>
  </linearGradient>
  <linearGradient id="id5" gradientUnits="userSpaceOnUse" x1="4693.3" y1="477.31" x2="7453.29" y2="7311.58">
   <stop offset="0" style="stop-opacity:1; stop-color:#FBD995"/>
   <stop offset="1" style="stop-opacity:1; stop-color:#FB736A"/>
  </linearGradient>
  <linearGradient id="id6" gradientUnits="userSpaceOnUse" x1="4693.3" y1="477.31" x2="7453.29" y2="7311.58">
   <stop offset="0" style="stop-opacity:1; stop-color:#FFDA1E"/>
   <stop offset="1" style="stop-opacity:1; stop-color:#F80C3A"/>
  </linearGradient>
 </defs>
 <g id="Layer_x0020_1">
  <metadata id="CorelCorpID_0Corel-Layer"/>
  <rect class="fil0" y="381" width="8086" height="8086" rx="374" ry="374"/>
  <path class="fil1" d="M754 0l7332 0c209,0 381,171 381,381l0 7331c0,210 -172,381 -381,381l-7332 0c-209,0 -380,-171 -380,-381l0 -7331c0,-210 171,-381 380,-381z"/>
  <g style="clip-path:url(#id0)">
   <g id="_1671771184240">
    <g>
     <g>
      <path id="1" class="fil2" d="M5232 6208c98,84 208,154 328,206 -181,-89 -315,-258 -356,-461 -8,-42 -12,-85 -12,-130 0,-58 7,-114 21,-168 75,-281 331,-489 636,-489 168,0 321,63 438,166 -1,-375 -159,-713 -411,-952 -136,-128 -298,-228 -478,-290 -375,232 -624,647 -624,1120 0,399 177,756 458,998z"/>
      <path class="fil3" d="M7087 -181c-156,-208 -371,-368 -622,-455 -310,93 -588,261 -813,483 -364,357 -590,855 -590,1406 0,87 6,173 17,258 0,0 1,1 2,2 0,-8 0,-16 0,-24 0,-364 294,-658 657,-658 160,0 305,56 419,151 44,36 82,77 115,123 78,108 124,240 124,384 0,157 -56,302 -148,415 623,-102 1099,-642 1101,-1293 0,-2 0,-3 0,-5 0,-9 0,-18 0,-28 -6,-284 -103,-546 -262,-759z"/>
      <path class="fil4" d="M6646 3188c125,25 256,38 389,38 266,0 521,-53 753,-149 -136,134 -289,246 -455,335 224,101 435,228 629,375l10 7c402,308 731,706 956,1164l85 188c87,222 135,465 135,718 0,330 -81,641 -224,914 -25,45 -51,91 -78,135 -576,950 -1620,1584 -2812,1584 -1010,0 -1913,-454 -2516,-1170 -91,-108 -175,-222 -251,-340 -171,-292 -268,-632 -268,-994 0,-1090 883,-1973 1972,-1973 148,0 294,25 427,70 -375,232 -624,647 -624,1120 0,399 177,756 458,998 98,84 208,154 328,206l103 40c133,46 277,71 426,71 723,0 1315,-586 1315,-1315 0,-556 -345,-1032 -833,-1224 -356,-141 -766,-118 -1101,63 240,-130 494,-229 758,-296 -326,-98 -631,-245 -906,-433 -49,-33 -96,-68 -143,-103 -295,-226 -550,-500 -754,-811 -59,-90 -138,-222 -183,-316 -116,-251 -181,-531 -181,-826 0,-1081 870,-1960 1949,-1972l0 0c159,-3 311,21 455,72 -914,275 -1513,1176 -1386,2147 9,70 8,83 27,158 26,123 64,241 112,355 248,585 778,1031 1412,1160 5,1 10,2 15,4 0,0 1,0 1,0z"/>
     </g>
     <path class="fil5" d="M5232 6208c98,84 208,154 328,206 -181,-89 -315,-258 -356,-461 -8,-42 -12,-85 -12,-130 0,-58 7,-114 21,-168 75,-281 331,-489 636,-489 168,0 321,63 438,166 -1,-375 -159,-713 -411,-952 -136,-128 -298,-228 -478,-290 -375,232 -624,647 -624,1120 0,399 177,756 458,998z"/>
     <path class="fil6" d="M7087 -181c-156,-208 -371,-368 -622,-455 -310,93 -588,261 -813,483 -364,357 -590,855 -590,1406 0,87 6,173 17,258 0,0 1,1 2,2 0,-8 0,-16 0,-24 0,-364 294,-658 657,-658 160,0 305,56 419,151 44,36 82,77 115,123 78,108 124,240 124,384 0,157 -56,302 -148,415 623,-102 1099,-642 1101,-1293 0,-2 0,-3 0,-5 0,-9 0,-18 0,-28 -6,-284 -103,-546 -262,-759z"/>
     <path class="fil7" d="M6646 3188c125,25 256,38 389,38 266,0 521,-53 753,-149 -136,134 -289,246 -455,335 224,101 435,228 629,375l10 7c402,308 731,706 956,1164l85 188c87,222 135,465 135,718 0,330 -81,641 -224,914 -25,45 -51,91 -78,135 -576,950 -1620,1584 -2812,1584 -1010,0 -1913,-454 -2516,-1170 -91,-108 -175,-222 -251,-340 -171,-292 -268,-632 -268,-994 0,-1090 883,-1973 1972,-1973 148,0 294,25 427,70 -375,232 -624,647 -624,1120 0,399 177,756 458,998 98,84 208,154 328,206l103 40c133,46 277,71 426,71 723,0 1315,-586 1315,-1315 0,-556 -345,-1032 -833,-1224 -356,-141 -766,-118 -1101,63 240,-130 494,-229 758,-296 -326,-98 -631,-245 -906,-433 -49,-33 -96,-68 -143,-103 -295,-226 -550,-500 -754,-811 -59,-90 -138,-222 -183,-316 -116,-251 -181,-531 -181,-826 0,-1081 870,-1960 1949,-1972l0 0c159,-3 311,21 455,72 -914,275 -1513,1176 -1386,2147 9,70 8,83 27,158 26,123 64,241 112,355 248,585 778,1031 1412,1160 5,1 10,2 15,4 0,0 1,0 1,0z"/>
    </g>
   </g>
  </g>
  <path class="fil8" d="M754 0l7332 0c209,0 381,171 381,381l0 7331c0,210 -172,381 -381,381l-7332 0c-209,0 -380,-171 -380,-381l0 -7331c0,-210 171,-381 380,-381z"/>
  <g id="_1671771181744">
   <g>
    <path class="fil9" d="M20 6413c0,-229 99,-442 308,-550 82,-42 173,-63 266,-63 136,0 266,61 362,157 20,20 21,54 2,76l-153 173c-21,22 -56,25 -79,5 -40,-36 -74,-58 -129,-58 -130,0 -179,141 -179,250 0,114 35,255 172,255 60,0 105,-25 145,-68 11,-11 25,-17 42,-17 16,0 30,6 40,18l154 170c18,21 19,52 0,73 -98,114 -234,176 -384,176 -352,0 -567,-250 -567,-597zm1437 597c-358,0 -547,-269 -547,-610 0,-343 190,-600 547,-600 357,0 548,258 548,600 0,341 -190,610 -548,610zm1200 -685l9 -27c1,-1 1,-1 1,-2l160 -440c8,-22 28,-36 52,-36l290 0c31,0 56,25 56,55l0 1060c0,30 -25,55 -56,55l-261 0c-30,0 -55,-25 -55,-55l0 -305 -99 240c-9,21 -28,34 -51,34l-105 0c-23,0 -42,-13 -51,-34l-95 -232 0 297c0,30 -25,55 -56,55l-257 0c-31,0 -56,-25 -56,-55l0 -1060c0,-30 25,-55 56,-55l290 0c24,0 44,14 52,36l166 440c0,0 1,1 1,2l9 27zm691 610l0 -1060c0,-30 25,-55 56,-55l280 0c31,0 56,25 56,55l0 1060c0,30 -25,55 -56,55l-280 0c-31,0 -56,-25 -56,-55zm1111 -675c-2,-26 -2,-52 -2,-78l0 -307c0,-30 25,-55 55,-55l267 0c31,0 56,25 56,55l0 1060c0,30 -25,55 -56,55l-286 0c-22,0 -41,-11 -50,-31l-203 -410c1,26 2,53 2,79l0 307c0,30 -25,55 -56,55l-267 0c-31,0 -56,-25 -56,-55l0 -1060c0,-30 25,-55 56,-55l287 0c21,0 40,11 50,31l203 409zm1099 395l0 -53 -100 0c-31,0 -56,-24 -56,-55l0 -228c0,-31 25,-56 56,-56l404 0c30,0 55,25 55,56l0 505c0,17 -6,32 -20,43 -107,89 -261,143 -400,143 -357,0 -584,-240 -584,-597 0,-351 235,-613 590,-613 144,0 277,55 379,157 20,20 21,54 2,76l-153 173c-21,22 -56,25 -79,5 -47,-42 -81,-58 -146,-58 -139,0 -195,127 -195,250 0,157 55,255 222,255 6,0 16,-1 25,-3zm-5124 970c13,15 103,48 121,55l129 50c154,61 242,173 242,342 0,37 -5,74 -16,109 -61,198 -259,286 -453,286 -158,0 -321,-61 -439,-166 -22,-20 -24,-54 -5,-77l160 -192c19,-24 54,-27 77,-8 56,44 141,90 213,90 12,0 65,2 65,-19 0,-1 0,-1 0,-1 -8,-13 -92,-44 -109,-51l-131 -55c-149,-59 -249,-182 -249,-346 0,-45 8,-89 25,-130 68,-171 249,-255 425,-255 144,0 289,57 391,158 21,20 23,52 5,74l-140 176c-19,23 -52,28 -76,11 -57,-40 -109,-67 -180,-67 -8,0 -53,1 -55,16zm1053 842c-358,0 -548,-269 -548,-610 0,-343 191,-600 548,-600 356,0 548,258 548,600 0,341 -190,610 -548,610zm1128 0c-358,0 -548,-269 -548,-610 0,-343 191,-600 548,-600 356,0 548,258 548,600 0,341 -190,610 -548,610zm1221 -751c-1,-26 -2,-52 -2,-78l0 -306c0,-31 25,-56 55,-56l268 0c30,0 55,25 55,56l0 1059c0,31 -25,56 -55,56l-287 0c-22,0 -40,-11 -50,-31l-203 -410c1,26 2,53 2,79l0 306c0,31 -25,56 -56,56l-267 0c-30,0 -55,-25 -55,-56l0 -1059c0,-31 25,-56 55,-56l287 0c22,0 40,12 50,31l203 409zm-2379 -1058c125,0 150,-163 150,-258 0,-98 -24,-247 -150,-247 -125,0 -149,149 -149,247 0,95 24,258 149,258zm30 1456c125,0 150,-162 150,-257 0,-98 -24,-248 -150,-248 -126,0 -150,150 -150,248 0,95 25,257 150,257zm1128 0c125,0 150,-162 150,-257 0,-98 -24,-248 -150,-248 -126,0 -150,150 -150,248 0,95 25,257 150,257z"/>
   </g>
   <path class="fil10" d="M75 6413c0,362 235,541 512,541 130,0 253,-52 342,-156l-153 -170c-46,49 -104,85 -186,85 -137,0 -228,-111 -228,-310 0,-192 108,-306 235,-306 68,0 114,26 166,72l153 -173c-75,-75 -189,-140 -322,-140 -274,0 -519,202 -519,557z"/>
   <path id="1" class="fil10" d="M1457 6954c294,0 493,-205 493,-554 0,-347 -199,-544 -493,-544 -293,0 -492,195 -492,544 0,349 199,554 492,554zm0 -241c-127,0 -205,-120 -205,-313 0,-192 78,-303 205,-303 128,0 206,111 206,303 0,193 -78,313 -206,313z"/>
   <path id="2" class="fil10" d="M2139 6935l257 0 0 -313c0,-108 -22,-272 -36,-378l7 0 85 247 146 357 105 0 147 -357 88 -247 6 0c-13,106 -36,270 -36,378l0 313 261 0 0 -1060 -290 0 -160 440 -59 173 -6 0 -59 -173 -166 -440 -290 0 0 1060z"/>
   <polygon id="3" class="fil10" points="3404,6935 3684,6935 3684,5875 3404,5875 "/>
   <path id="4" class="fil10" d="M3919 6935l267 0 0 -307c0,-130 -23,-283 -36,-404l7 0 101 236 235 475 286 0 0 -1060 -267 0 0 307c0,130 23,290 36,404l-7 0 -101 -238 -234 -473 -287 0 0 1060z"/>
   <path id="5" class="fil10" d="M4969 6413c0,362 238,541 528,541 150,0 287,-65 365,-130l0 -505 -404 0 0 228 156 0 0 147c-20,13 -52,19 -81,19 -190,0 -278,-111 -278,-310 0,-192 108,-306 251,-306 85,0 131,26 183,72l153 -173c-75,-75 -189,-140 -339,-140 -290,0 -534,202 -534,557z"/>
   <path id="6" class="fil10" d="M56 8259c114,103 267,152 401,152 264,0 414,-160 414,-339 0,-147 -75,-238 -207,-290l-129 -51c-96,-37 -157,-55 -157,-106 0,-47 43,-71 111,-71 78,0 140,26 212,76l140 -176c-98,-96 -231,-142 -352,-142 -231,0 -394,149 -394,330 0,153 99,249 213,295l132 55c90,36 144,52 144,103 0,47 -36,75 -121,75 -78,0 -173,-43 -248,-103l-159 192z"/>
   <path id="7" class="fil10" d="M1487 8411c293,0 492,-205 492,-554 0,-347 -199,-545 -492,-545 -294,0 -492,196 -492,545 0,349 198,554 492,554zm0 -241c-127,0 -206,-121 -206,-313 0,-193 79,-303 206,-303 127,0 205,110 205,303 0,192 -78,313 -205,313z"/>
   <path id="8" class="fil10" d="M2615 8411c293,0 492,-205 492,-554 0,-347 -199,-545 -492,-545 -294,0 -492,196 -492,545 0,349 198,554 492,554zm0 -241c-127,0 -206,-121 -206,-313 0,-193 79,-303 206,-303 127,0 205,110 205,303 0,192 -78,313 -205,313z"/>
   <path id="9" class="fil10" d="M3296 8391l267 0 0 -306c0,-130 -22,-284 -35,-404l6 0 101 236 235 474 287 0 0 -1059 -268 0 0 306c0,131 23,291 36,405l-6 0 -101 -238 -235 -473 -287 0 0 1059z"/>
   <g>
    <path class="fil9" d="M136 6237c0,-230 100,-445 311,-553 82,-43 174,-64 267,-64 137,0 268,62 365,158 22,22 23,58 2,81l-153 173c-22,24 -59,27 -84,5 -39,-34 -73,-57 -127,-57 -127,0 -175,140 -175,247 0,111 34,251 169,251 58,0 103,-24 142,-66 12,-13 27,-19 44,-19 17,0 32,7 43,19l154 170c20,22 20,56 1,78 -99,115 -237,178 -388,178 -354,0 -571,-252 -571,-601zm1442 601c-360,0 -552,-271 -552,-614 0,-345 193,-604 552,-604 358,0 551,260 551,604 0,343 -191,614 -551,614zm1199 -701l6 -17c0,0 1,-1 1,-1l159 -440c9,-24 31,-39 56,-39l290 0c33,0 60,27 60,59l0 1060c0,32 -27,59 -60,59l-260 0c-33,0 -60,-27 -60,-59l0 -286 -91 222c-9,23 -30,37 -55,37l-104 0c-25,0 -46,-14 -55,-37l-88 -214 0 278c0,32 -27,59 -59,59l-258 0c-33,0 -59,-27 -59,-59l0 -1060c0,-32 26,-59 59,-59l290 0c25,0 47,15 56,38l166 440c0,1 1,2 1,2l5 17zm688 622l0 -1060c0,-32 26,-59 59,-59l280 0c33,0 60,27 60,59l0 1060c0,32 -27,59 -60,59l-280 0c-33,0 -59,-27 -59,-59zm1109 -693c0,-20 -1,-40 -1,-60l0 -307c0,-32 27,-59 59,-59l268 0c32,0 59,27 59,59l0 1060c0,32 -27,59 -59,59l-287 0c-23,0 -43,-12 -53,-33l-196 -395c1,21 2,42 2,62l0 307c0,32 -27,59 -60,59l-267 0c-33,0 -59,-27 -59,-59l0 -1060c0,-32 26,-59 59,-59l287 0c23,0 43,12 53,33l195 393zm1101 410l0 -46 -97 0c-33,0 -59,-27 -59,-59l0 -228c0,-33 26,-60 59,-60l404 0c33,0 59,27 59,60l0 505c0,18 -7,34 -21,45 -108,91 -263,145 -403,145 -359,0 -587,-242 -587,-601 0,-353 237,-617 594,-617 144,0 278,56 381,158 22,22 23,58 2,81l-153 173c-22,24 -59,27 -84,5 -47,-41 -80,-57 -143,-57 -138,0 -192,126 -192,247 0,155 54,251 218,251 6,0 14,-1 22,-2zm-5030 1459c-13,-13 -90,-41 -106,-48 -1,0 -1,0 -1,0l-131 -55c-151,-60 -251,-185 -251,-350 0,-45 8,-90 25,-131 69,-173 251,-258 429,-258 144,0 290,57 393,159 22,21 24,55 5,79l-140 176c-20,25 -55,30 -81,12 -56,-40 -108,-66 -177,-66 -10,0 -45,2 -52,10 0,0 0,0 0,0 15,15 101,46 119,53l129 51c155,61 244,175 244,345 0,37 -5,74 -16,110 -62,200 -261,288 -457,288 -159,0 -323,-60 -441,-166 -23,-22 -26,-58 -6,-82l160 -193c21,-25 58,-28 83,-8 55,44 139,89 210,89 11,0 53,-1 61,-11 1,0 1,-2 1,-4zm962 375c-360,0 -551,-270 -551,-613 0,-345 192,-604 551,-604 358,0 552,260 552,604 0,343 -192,613 -552,613zm1128 0c-360,0 -552,-270 -552,-613 0,-345 193,-604 552,-604 358,0 552,260 552,604 0,343 -192,613 -552,613zm1217 -771c-1,-20 -2,-41 -2,-61l0 -306c0,-33 27,-59 60,-59l267 0c33,0 59,26 59,59l0 1059c0,33 -26,60 -59,60l-287 0c-23,0 -43,-12 -53,-33l-195 -395c1,21 1,41 1,62l0 306c0,33 -27,60 -59,60l-268 0c-32,0 -59,-27 -59,-60l0 -1059c0,-33 27,-59 59,-59l287 0c23,0 43,12 54,33l195 393zm-2374 -1061c122,0 146,-162 146,-254 0,-95 -23,-244 -146,-244 -124,0 -146,149 -146,244 0,92 23,254 146,254zm29 1472c122,0 146,-161 146,-253 0,-96 -23,-244 -146,-244 -123,0 -146,149 -146,244 0,92 24,253 146,253zm1128 0c122,0 146,-161 146,-253 0,-96 -23,-244 -146,-244 -123,0 -146,149 -146,244 0,92 24,253 146,253z"/>
   </g>
   <path class="fil11" d="M196 6237c0,362 234,541 511,541 131,0 253,-52 343,-156l-154 -170c-45,49 -104,85 -185,85 -137,0 -229,-111 -229,-310 0,-192 108,-306 235,-306 69,0 114,26 166,72l154 -173c-75,-75 -189,-140 -323,-140 -274,0 -518,202 -518,557z"/>
   <path id="1" class="fil11" d="M1578 6778c293,0 492,-205 492,-554 0,-347 -199,-544 -492,-544 -294,0 -492,195 -492,544 0,349 198,554 492,554zm0 -241c-127,0 -206,-121 -206,-313 0,-192 79,-303 206,-303 127,0 205,111 205,303 0,192 -78,313 -205,313z"/>
   <path id="2" class="fil11" d="M2259 6759l258 0 0 -313c0,-108 -23,-272 -36,-378l6 0 85 247 147 357 104 0 147 -357 88 -247 6 0c-13,106 -35,270 -35,378l0 313 260 0 0 -1060 -290 0 -160 440 -58 173 -7 0 -58 -173 -167 -440 -290 0 0 1060z"/>
   <polygon id="3" class="fil11" points="3524,6759 3804,6759 3804,5699 3524,5699 "/>
   <path id="4" class="fil11" d="M4039 6759l267 0 0 -307c0,-130 -22,-283 -35,-404l6 0 101 236 235 475 287 0 0 -1060 -268 0 0 307c0,130 23,290 36,404l-6 0 -101 -238 -235 -473 -287 0 0 1060z"/>
   <path id="5" class="fil11" d="M5089 6237c0,362 238,541 528,541 150,0 287,-65 365,-130l0 -505 -404 0 0 228 156 0 0 146c-19,14 -52,20 -81,20 -189,0 -277,-111 -277,-310 0,-192 107,-306 251,-306 85,0 130,26 182,72l154 -173c-75,-75 -189,-140 -339,-140 -291,0 -535,202 -535,557z"/>
   <path id="6" class="fil11" d="M176 8099c114,103 267,152 401,152 264,0 414,-160 414,-339 0,-147 -75,-238 -207,-290l-129 -51c-96,-37 -156,-55 -156,-106 0,-47 42,-71 111,-71 78,0 140,26 211,76l141 -176c-98,-96 -232,-142 -352,-142 -232,0 -395,149 -395,330 0,153 99,249 214,295l132 55c89,36 143,52 143,103 0,47 -36,75 -121,75 -78,0 -172,-43 -247,-103l-160 192z"/>
   <path id="7" class="fil11" d="M1607 8251c294,0 492,-205 492,-554 0,-347 -198,-545 -492,-545 -293,0 -492,196 -492,545 0,349 199,554 492,554zm0 -241c-127,0 -205,-121 -205,-313 0,-193 78,-303 205,-303 127,0 206,110 206,303 0,192 -79,313 -206,313z"/>
   <path id="8" class="fil11" d="M2735 8251c294,0 492,-205 492,-554 0,-347 -198,-545 -492,-545 -293,0 -492,196 -492,545 0,349 199,554 492,554zm0 -241c-127,0 -205,-121 -205,-313 0,-193 78,-303 205,-303 127,0 205,110 205,303 0,192 -78,313 -205,313z"/>
   <path id="9" class="fil11" d="M3416 8231l268 0 0 -306c0,-130 -23,-284 -36,-404l6 0 102 236 234 474 287 0 0 -1059 -267 0 0 306c0,131 23,291 36,405l-7 0 -101 -238 -235 -473 -287 0 0 1059z"/>
  </g>
 </g>
</svg>
