<?xml version="1.0" encoding="UTF-8"?>
<!DOCTYPE svg PUBLIC "-//W3C//DTD SVG 1.1//EN" "http://www.w3.org/Graphics/SVG/1.1/DTD/svg11.dtd">
<!-- Creator: CorelDRAW X7 -->
<svg xmlns="http://www.w3.org/2000/svg" xml:space="preserve" width="61.963mm" height="98.946mm" version="1.1" style="shape-rendering:geometricPrecision; text-rendering:geometricPrecision; image-rendering:optimizeQuality; fill-rule:evenodd; clip-rule:evenodd"
viewBox="0 0 6196 9895"
 xmlns:xlink="http://www.w3.org/1999/xlink">
 <defs>
  <style type="text/css">
   <![CDATA[
    .str0 {stroke:#BD99DB;stroke-width:7.62}
    .fil4 {fill:none}
    .fil5 {fill:#C29FCA}
    .fil6 {fill:#AF81B7}
    .fil7 {fill:#AF81B7}
    .fil8 {fill:#825196}
    .fil16 {fill:#724185}
    .fil11 {fill:#5F337A}
    .fil14 {fill:#5F337A}
    .fil10 {fill:#3E264F}
    .fil12 {fill:#442958}
    .fil3 {fill:#452063}
    .fil15 {fill:#633985}
    .fil2 {fill:#805C9E}
    .fil0 {fill:#AC80D1}
    .fil1 {fill:#BD99DB}
    .fil9 {fill:#724185}
    .fil17 {fill:#663778}
    .fil13 {fill:#3E264F}
   ]]>
  </style>
    <clipPath id="id0">
     <path d="M3102 426l0 11c377,590 1478,1055 2875,1214l18 0 0 2 10 1 -10 0 0 5340 -2902 2901 -2902 -2892 0 -5349 0 -3 28 0c1398,-159 2498,-624 2875,-1214l0 -11c2,1 3,3 4,5 1,-2 3,-4 4,-5z"/>
    </clipPath>
    <clipPath id="id1">
     <path d="M3102 243l0 12c402,602 1575,1077 3065,1239l18 0 0 2 11 2 -11 0 0 5318 -3092 2962 -3093 -2955 0 -5325 0 -4 29 0c1490,-162 2663,-637 3065,-1239l0 -12c1,2 3,4 4,6 1,-2 3,-4 4,-6z"/>
    </clipPath>
    <clipPath id="id2">
     <path d="M3102 426l0 11c377,590 1478,1055 2875,1214l18 0 0 2 10 1 -10 0 0 5340 -2902 2901 -2902 -2892 0 -5349 0 -3 28 0c1398,-159 2498,-624 2875,-1214l0 -11c2,1 3,3 4,5 1,-2 3,-4 4,-5z"/>
    </clipPath>
     <clipPath id="id3">
      <path d="M191 7003l1296 -1073 202 -1526 244 -84 2182 34 409 70 199 1571 1272 999 -2902 2901 -2902 -2892z"/>
     </clipPath>
     <clipPath id="id4">
      <path d="M3102 426l0 11c377,590 1478,1055 2875,1214l18 0 0 2 10 1 -10 0 0 5340 -2902 2901 -2902 -2892 0 -5349 0 -3 28 0c1398,-159 2498,-624 2875,-1214l0 -11c2,1 3,3 4,5 1,-2 3,-4 4,-5z"/>
     </clipPath>
    <clipPath id="id5">
     <path d="M1731 4611c95,17 353,122 592,222 35,15 70,30 106,44 125,53 237,100 304,127 55,21 93,45 146,61 -5,76 -30,172 -44,251l-77 331 343 274c68,-44 308,-235 344,-288l-130 -573c222,-82 446,-170 665,-257 167,-66 326,-137 493,-194 -15,198 -66,417 -92,628 -27,30 -118,55 -223,84l-112 1426 0 -46 0 -1349c-118,35 -231,79 -278,141 -73,98 -162,1401 -183,1623 -26,263 -65,566 -74,830 88,-49 445,-386 508,-460 673,-787 698,-1103 748,-2186 14,-205 37,-427 27,-645 53,-1043 54,-2192 -1246,-2502l-5 52 -8 71 0 0 -5 54 0 0 -17 163 -16 157 -394 0 0 -17 0 17 0 0 0 -478 0 478 -393 0 -34 -329 0 0 -17 -168c-1264,301 -1381,1622 -1241,2688l19 459c31,1030 69,1382 741,2174 73,86 159,172 245,245 65,55 202,194 271,225 -12,-192 -184,-2183 -217,-2354 -24,-127 -107,-163 -221,-205 -89,-33 -400,-97 -425,-156 -57,-138 -74,-448 -100,-618z"/>
    </clipPath>
    <clipPath id="id6">
     <path d="M2476 343l627 -343 0 2646 -396 0 -231 -2303zm1255 0l-628 -343 0 2646 397 0 231 -2303z"/>
    </clipPath>
 </defs>
 <g id="Layer_x0020_1">
  <metadata id="CorelCorpID_0Corel-Layer"/>
  <g id="_1708512988288">
   <path class="fil0" d="M3102 426l0 11c377,590 1478,1055 2875,1214l18 0 0 2 10 1 -10 0 0 5340 -2902 2901 -2902 -2892 0 -5349 0 -3 28 0c1398,-159 2498,-624 2875,-1214l0 -11c2,1 3,3 4,5 1,-2 3,-4 4,-5z"/>
   <g style="clip-path:url(#id0)">
    <g>
     <rect class="fil1" x="3094" y="-196" width="5630" height="11450"/>
     <polygon class="fil2" points="191,7003 1487,5930 1689,4404 1933,4320 4115,4354 4524,4424 4723,5995 5995,6994 8358,12793 -1833,12793 "/>
     <polygon class="fil0" points="191,6583 3083,9585 5995,6684 6527,11031 -757,11031 "/>
     <polygon class="fil3" points="-419,7097 502,6223 1176,5913 1176,6649 773,6975 1379,8558 "/>
     <polygon class="fil3" points="6626,7097 5705,6223 5031,5913 5031,6649 5434,6975 4768,8618 "/>
    </g>
   </g>
   <path class="fil4" d="M3102 426l0 11c377,590 1478,1055 2875,1214l18 0 0 2 10 1 -10 0 0 5340 -2902 2901 -2902 -2892 0 -5349 0 -3 28 0c1398,-159 2498,-624 2875,-1214l0 -11c2,1 3,3 4,5 1,-2 3,-4 4,-5z"/>
   <path class="fil5" d="M3102 243l0 12c402,602 1575,1077 3065,1239l18 0 0 2 11 2 -11 0 0 5318 -3092 2962 -3093 -2955 0 -5325 0 -4 29 0c1490,-162 2663,-637 3065,-1239l0 -12c1,2 3,4 4,6 1,-2 3,-4 4,-6z"/>
   <g style="clip-path:url(#id1)">
    <g>
     <rect class="fil6 str0" x="3094" y="-111" width="6000" height="11693"/>
    </g>
   </g>
   <path class="fil4" d="M3102 243l0 12c402,602 1575,1077 3065,1239l18 0 0 2 11 2 -11 0 0 5318 -3092 2962 -3093 -2955 0 -5325 0 -4 29 0c1490,-162 2663,-637 3065,-1239l0 -12c1,2 3,4 4,6 1,-2 3,-4 4,-6z"/>
   <path class="fil7" d="M3102 426l0 11c377,590 1478,1055 2875,1214l18 0 0 2 10 1 -10 0 0 5340 -2902 2901 -2902 -2892 0 -5349 0 -3 28 0c1398,-159 2498,-624 2875,-1214l0 -11c2,1 3,3 4,5 1,-2 3,-4 4,-5z"/>
   <g style="clip-path:url(#id2)">
    <g>
     <rect class="fil5" x="3094" y="-196" width="5630" height="11450"/>
     <polygon class="fil8" points="191,7003 1487,5930 1689,4404 1933,4320 4115,4354 4524,4424 4723,5995 5995,6994 8358,12793 -1833,12793 "/>
    </g>
    <g style="clip-path:url(#id3)">
     <g>
      <polygon id="1" class="fil9" points="3098,-823 8175,-823 8175,10925 3098,10925 "/>
     </g>
    </g>
    <g style="clip-path:url(#id4)">
     <polygon class="fil4" points="191,7003 1487,5930 1689,4404 1933,4320 4115,4354 4524,4424 4723,5995 5995,6994 8358,12793 -1833,12793 "/>
     <polygon class="fil10" points="-419,7097 502,6223 1176,5913 1176,6649 773,6975 1379,8558 "/>
     <polygon class="fil10" points="6626,7097 5705,6223 5031,5913 5031,6649 5434,6975 4768,8618 "/>
    </g>
   </g>
   <path class="fil4" d="M3102 426l0 11c377,590 1478,1055 2875,1214l18 0 0 2 10 1 -10 0 0 5340 -2902 2901 -2902 -2892 0 -5349 0 -3 28 0c1398,-159 2498,-624 2875,-1214l0 -11c2,1 3,3 4,5 1,-2 3,-4 4,-5z"/>
   <g>
    <polygon class="fil11" points="1518,4381 3181,5034 3060,5385 1398,4733 "/>
    <polygon class="fil11" points="2962,5027 4661,4489 4759,4848 3061,5386 "/>
   </g>
   <path class="fil12" d="M1731 4611c95,17 353,122 592,222 35,15 70,30 106,44 125,53 237,100 304,127 55,21 93,45 146,61 -5,76 -30,172 -44,251l-77 331 343 274c68,-44 308,-235 344,-288l-130 -573c222,-82 446,-170 665,-257 167,-66 326,-137 493,-194 -15,198 -66,417 -92,628 -27,30 -118,55 -223,84l-112 1426 0 -46 0 -1349c-118,35 -231,79 -278,141 -73,98 -162,1401 -183,1623 -26,263 -65,566 -74,830 88,-49 445,-386 508,-460 673,-787 698,-1103 748,-2186 14,-205 37,-427 27,-645 53,-1043 54,-2192 -1246,-2502l-5 52 -8 71 0 0 -5 54 0 0 -17 163 -16 157 -394 0 0 -17 0 17 0 0 0 -478 0 478 -393 0 -34 -329 0 0 -17 -168c-1264,301 -1381,1622 -1241,2688l19 459c31,1030 69,1382 741,2174 73,86 159,172 245,245 65,55 202,194 271,225 -12,-192 -184,-2183 -217,-2354 -24,-127 -107,-163 -221,-205 -89,-33 -400,-97 -425,-156 -57,-138 -74,-448 -100,-618z"/>
   <g style="clip-path:url(#id5)">
    <g>
     <polygon id="1" class="fil13" points="-3098,-2509 3098,-2509 3098,12276 -3098,12276 "/>
    </g>
   </g>
   <path class="fil4" d="M1731 4611c95,17 353,122 592,222 35,15 70,30 106,44 125,53 237,100 304,127 55,21 93,45 146,61 -5,76 -30,172 -44,251l-77 331 343 274c68,-44 308,-235 344,-288l-130 -573c222,-82 446,-170 665,-257 167,-66 326,-137 493,-194 -15,198 -66,417 -92,628 -27,30 -118,55 -223,84l-112 1426 0 -46 0 -1349c-118,35 -231,79 -278,141 -73,98 -162,1401 -183,1623 -26,263 -65,566 -74,830 88,-49 445,-386 508,-460 673,-787 698,-1103 748,-2186 14,-205 37,-427 27,-645 53,-1043 54,-2192 -1246,-2502l-5 52 -8 71 0 0 -5 54 0 0 -17 163 -16 157 -394 0 0 -17 0 17 0 0 0 -478 0 478 -393 0 -34 -329 0 0 -17 -168c-1264,301 -1381,1622 -1241,2688l19 459c31,1030 69,1382 741,2174 73,86 159,172 245,245 65,55 202,194 271,225 -12,-192 -184,-2183 -217,-2354 -24,-127 -107,-163 -221,-205 -89,-33 -400,-97 -425,-156 -57,-138 -74,-448 -100,-618z"/>
   <path class="fil14" d="M3341 3244l119 -44 304 847c-2,1 -84,-3 -92,-3 -72,-7 -106,-35 -143,-99 -13,-23 -39,-80 -46,-104 27,-18 47,-52 54,-82 29,-113 -84,-222 -200,-176 -114,44 -129,196 -31,263 14,10 28,16 44,21 22,6 30,5 51,5 29,72 54,137 105,194 28,31 62,49 103,58 20,5 39,6 61,7 33,3 62,2 96,5 10,1 21,3 31,4l80 223c0,0 0,0 0,0l-18 18c-15,20 -26,41 -32,66 -7,34 -2,76 20,112 37,59 112,90 188,59 103,-43 130,-190 24,-265 -13,-9 -29,-16 -44,-20 -9,-3 -16,-4 -25,-5 -4,0 -8,0 -13,0 -4,-1 -10,0 -14,0l-127 -353c-11,-33 43,-83 63,-105 46,-52 80,-103 90,-173 11,-74 -3,-146 -31,-229 5,-4 63,-23 74,-27l-87 -241 -240 87 87 241 83 -31c25,65 37,142 20,208 -15,60 -49,91 -85,133 -5,5 -11,13 -16,17l-247 -686 118 -45c-4,-4 -11,-9 -16,-13l-250 -207 -54 319c-1,6 -4,16 -4,21z"/>
   <path class="fil14" d="M3919 4427l139 -35c1,0 1,0 1,1l118 645c0,0 0,-5 -1,-5l-138 44c0,0 -2,-4 -2,-4l-118 -645c0,0 0,-1 1,-1z"/>
   <path class="fil15" d="M2476 343l627 -343 0 2646 -396 0 -231 -2303zm1255 0l-628 -343 0 2646 397 0 231 -2303z"/>
   <path class="fil16" d="M2476 343l627 -343 0 2646 -396 0 -231 -2303zm1255 0l-628 -343 0 2646 397 0 231 -2303z"/>
   <g style="clip-path:url(#id6)">
    <g>
     <polygon id="1" class="fil17" points="-1985,-1319 3092,-1319 3092,10429 -1985,10429 "/>
    </g>
   </g>
   <path class="fil4" d="M2476 343l627 -343 0 2646 -396 0 -231 -2303zm1255 0l-628 -343 0 2646 397 0 231 -2303z"/>
  </g>
 </g>
</svg>
