<?xml version="1.0" encoding="UTF-8"?>
<!DOCTYPE svg PUBLIC "-//W3C//DTD SVG 1.1//EN" "http://www.w3.org/Graphics/SVG/1.1/DTD/svg11.dtd">
<!-- Creator: CorelDRAW X7 -->
<svg xmlns="http://www.w3.org/2000/svg" xml:space="preserve" width="62.831mm" height="98.946mm" version="1.1" style="shape-rendering:geometricPrecision; text-rendering:geometricPrecision; image-rendering:optimizeQuality; fill-rule:evenodd; clip-rule:evenodd"
viewBox="0 0 6283 9895"
 xmlns:xlink="http://www.w3.org/1999/xlink">
 <defs>
  <style type="text/css">
   <![CDATA[
    .fil3 {fill:none}
    .fil0 {fill:#4A95CB}
    .fil2 {fill:#4A95CB}
    .fil1 {fill:#30719F}
    .fil12 {fill:#30719F}
    .fil9 {fill:#23618D}
    .fil6 {fill:#12334C}
    .fil4 {fill:#12334C}
    .fil11 {fill:#143047}
    .fil10 {fill:black;fill-opacity:0.141176}
    .fil8 {fill:#13466B;fill-opacity:0.501961}
    .fil13 {fill:#143047;fill-opacity:0.501961}
    .fil7 {fill:#172B3D}
    .fil5 {fill:#172B3D}
   ]]>
  </style>
    <clipPath id="id0">
     <path d="M3142 384c1128,0 1671,1025 3088,1025 0,1721 0,3443 0,5165 0,807 277,1586 -438,1813 -886,281 -1115,248 -1641,1263l-118 -607 -891 852 -891 -852 -119 607c-526,-1015 -755,-982 -1641,-1263 -715,-227 -438,-1006 -438,-1813 0,-1722 0,-3444 0,-5165 1423,0 2004,-1025 3089,-1025z"/>
    </clipPath>
     <clipPath id="id1">
      <path d="M6039 8260c-8,6 -15,11 -23,17 -15,11 -31,22 -48,32 -8,5 -17,10 -26,15 -17,9 -36,19 -56,27 -9,5 -19,9 -30,13 -10,4 -20,8 -31,12 -11,4 -22,7 -33,11l-41 13c-27,8 -53,16 -79,24l-38 12 -38 12 -36 11 -36 11 -35 10 -34 11 -33 10 -33 10 -32 10 -31 10 -31 9c-10,4 -20,7 -30,10 -9,4 -19,7 -29,10 -17,6 -33,11 -49,17 -12,4 -24,9 -35,13 -18,7 -36,13 -53,20 -18,7 -35,14 -52,21 -8,4 -16,8 -25,11 -8,4 -16,8 -24,12 -8,4 -16,7 -24,11 -8,4 -16,8 -24,12 -15,8 -31,17 -46,25 -8,5 -15,9 -23,13 -7,5 -15,9 -22,14 -7,5 -15,9 -22,14 -15,10 -29,20 -43,30 -15,11 -29,21 -43,33 -11,8 -21,17 -32,26 -7,6 -13,12 -20,17 -17,16 -34,32 -51,50 -7,6 -14,13 -21,21 -13,14 -27,29 -41,44 -6,8 -13,16 -20,24 -7,8 -13,16 -20,24 -7,8 -14,17 -21,26 -6,8 -13,17 -20,26 -7,9 -14,18 -21,28 -7,9 -13,19 -20,28 -7,10 -14,20 -21,30 -21,30 -42,62 -63,96 -8,11 -15,23 -22,34 -22,35 -44,72 -66,111 -23,39 -45,80 -69,123 -23,43 -47,89 -72,136l-118 -607 -891 852 -891 -852 -119 607c-24,-47 -48,-93 -72,-136 -101,-187 -193,-333 -282,-450 -47,-63 -95,-117 -142,-165 -21,-21 -41,-40 -62,-58 -14,-13 -28,-24 -42,-35 -28,-23 -56,-43 -86,-63 -21,-14 -44,-28 -67,-41 -7,-4 -15,-8 -23,-12 -15,-9 -31,-17 -47,-25 -23,-11 -48,-23 -73,-34 -9,-3 -17,-7 -26,-10 -17,-7 -34,-14 -52,-21 -9,-3 -18,-7 -27,-10 -9,-4 -18,-7 -27,-10 -19,-7 -38,-13 -57,-20 -10,-3 -19,-6 -29,-10 -10,-3 -20,-6 -30,-10l-31 -9 -31 -10 -32 -10 -32 -10 -34 -10c-33,-11 -68,-21 -104,-32l-37 -11c-28,-9 -58,-18 -88,-27 -22,-7 -44,-14 -67,-21l-41 -13c-45,-14 -86,-31 -123,-49 -28,-14 -54,-29 -78,-45 -8,-5 -16,-11 -23,-16 -15,-11 -30,-23 -43,-35 -7,-6 -14,-12 -20,-19 -7,-6 -13,-12 -19,-19 -12,-13 -23,-26 -34,-40 -5,-7 -11,-14 -16,-21 -10,-14 -19,-29 -28,-44 -8,-15 -16,-31 -24,-47 -3,-8 -7,-16 -10,-24 -4,-8 -7,-16 -10,-24 -10,-25 -18,-51 -25,-78 -5,-18 -9,-36 -12,-54 -4,-18 -7,-37 -10,-56 -2,-10 -3,-19 -4,-29 -1,-10 -2,-19 -3,-29 -1,-10 -2,-20 -3,-30 -2,-20 -3,-40 -4,-61 -2,-41 -2,-83 -2,-126 1,-22 1,-43 2,-66 1,-22 1,-44 3,-66 1,-23 2,-45 3,-68 4,-57 8,-116 13,-175l3 -36 3 -36c13,-168 26,-343 26,-520 0,-1722 0,-3444 0,-5165 89,0 175,-4 257,-12 21,-2 41,-4 62,-6 81,-9 159,-22 235,-37 38,-8 75,-17 112,-26 18,-4 36,-9 54,-14 18,-5 36,-10 54,-15 36,-10 70,-21 105,-33 52,-17 102,-35 152,-55 33,-13 65,-26 97,-40 32,-14 64,-28 95,-42 16,-8 32,-15 47,-22 16,-8 31,-15 46,-22 16,-8 31,-16 46,-23 91,-46 179,-94 266,-142 43,-24 86,-48 129,-72 28,-15 56,-31 84,-47l43 -24c19,-10 38,-21 57,-31 60,-33 120,-65 181,-96 12,-6 23,-12 35,-18 14,-7 29,-14 43,-21 12,-5 23,-10 34,-16 19,-9 39,-18 59,-26 8,-4 17,-8 26,-12 238,-103 487,-173 770,-173 299,0 558,73 802,179 29,12 58,25 86,38 28,14 57,28 85,42 70,35 140,72 210,111 14,8 28,16 42,23l42 24 42 24 42 23c42,24 85,48 127,72 86,48 173,96 263,142 15,7 30,15 45,23 30,15 61,29 91,44 31,14 63,28 94,42 32,14 64,27 97,40 32,13 65,26 99,38 16,6 33,11 50,17 34,12 69,23 104,33 158,47 327,81 511,98 83,8 168,12 256,12 0,1721 0,3443 0,5165 0,177 14,352 27,520 19,240 38,467 18,664 -12,118 -38,225 -87,318 -8,15 -16,31 -26,45 -14,22 -29,43 -46,64 -23,26 -49,51 -77,75zm-1641 -7227c-399,-227 -778,-441 -1256,-441 -452,0 -825,209 -1224,433 -463,260 -957,538 -1658,584l0 4965c0,190 -14,377 -28,556 -40,504 -74,934 321,1059 148,47 207,65 261,81 590,179 871,265 1221,796l12 -62 73 -372 273 261 749 715 748 -715 274 -261 72 372 12 62c350,-531 631,-617 1222,-796 54,-16 112,-34 260,-81 395,-125 361,-555 322,-1059 -14,-179 -29,-366 -29,-556l0 -4965c-689,-46 -1169,-318 -1625,-576z"/>
     </clipPath>
     <clipPath id="id2">
      <path d="M3142 384c1128,0 1671,1025 3088,1025 0,1721 0,3443 0,5165 0,807 277,1586 -438,1813 -886,281 -1115,248 -1641,1263l-118 -607 -891 852 -891 -852 -119 607c-526,-1015 -755,-982 -1641,-1263 -715,-227 -438,-1006 -438,-1813 0,-1722 0,-3444 0,-5165 1423,0 2004,-1025 3089,-1025z"/>
     </clipPath>
     <clipPath id="id3">
      <path d="M6283 7587c-1,-1188 -1489,-1055 -1489,-1953 -1102,0 -2203,0 -3305,0 0,816 -1487,938 -1489,1953 3,377 94,674 491,800 886,281 1115,248 1641,1263l119 -607 891 852 891 -852 118 607c526,-1015 755,-982 1641,-1263 398,-126 489,-423 491,-800z"/>
     </clipPath>
     <clipPath id="id4">
      <path d="M3142 384c1128,0 1671,1025 3088,1025 0,1721 0,3443 0,5165 0,807 277,1586 -438,1813 -886,281 -1115,248 -1641,1263l-118 -607 -891 852 -891 -852 -119 607c-526,-1015 -755,-982 -1641,-1263 -715,-227 -438,-1006 -438,-1813 0,-1722 0,-3444 0,-5165 1423,0 2004,-1025 3089,-1025z"/>
     </clipPath>
    <clipPath id="id5">
     <path d="M1545 4186l1597 -4186 1596 4186c925,154 1545,437 1545,761 0,489 -1406,884 -3141,884 -1735,0 -3142,-395 -3142,-884 0,-324 620,-607 1545,-761z"/>
    </clipPath>
     <clipPath id="id6">
      <path d="M2773 3051l121 7c20,1 43,-1 63,0 19,2 37,4 61,4l-34 91c-12,30 -23,60 -34,90l-102 271c-12,29 -23,60 -34,90l-58 156c-4,9 -7,14 -9,25 6,-4 9,-10 14,-16 6,-9 8,-11 14,-19 11,-13 18,-22 28,-35l141 -180c10,-14 19,-24 29,-38 97,-129 211,-265 309,-395l241 -307c21,-28 25,-17 -114,-18 -43,0 -86,0 -130,0l154 -398c10,-29 18,-31 2,-33l-325 -3 -19 45c-4,8 -8,14 -12,22l-73 153c-8,17 -14,30 -22,45l-83 177c-8,15 -14,29 -21,43 -4,8 -7,14 -11,22 -25,54 -69,151 -96,201z"/>
     </clipPath>
     <clipPath id="id7">
      <path d="M1545 4186l1597 -4186 1596 4186c925,154 1545,437 1545,761 0,489 -1406,884 -3141,884 -1735,0 -3142,-395 -3142,-884 0,-324 620,-607 1545,-761z"/>
     </clipPath>
    <clipPath id="id8">
     <path d="M1489 5064c1096,-540 2198,-543 3305,0 132,991 -431,1476 -959,1903 -468,379 -1003,359 -1436,-10 -490,-417 -1016,-894 -910,-1893z"/>
    </clipPath>
    <clipPath id="id9">
     <path d="M3726 5690c-327,0 -655,0 -982,0 -232,0 -633,-31 -775,207 -97,161 -48,488 109,653l61 60c3,-73 -17,-189 106,-283 197,-150 418,-58 668,-152 97,-37 186,-107 221,-192 22,26 44,79 89,112 36,28 77,56 128,76 252,98 498,12 668,150 79,64 125,140 114,287 383,-286 317,-918 -407,-918zm-1327 1267l746 622 690 -602c-142,123 -693,-115 -693,-385 0,270 -620,467 -743,365z"/>
    </clipPath>
 </defs>
 <g id="Layer_x0020_1">
  <metadata id="CorelCorpID_0Corel-Layer"/>
  <g id="_1671505669616">
   <path class="fil0" d="M3142 384c1128,0 1671,1025 3088,1025 0,1721 0,3443 0,5165 0,807 277,1586 -438,1813 -886,281 -1115,248 -1641,1263l-118 -607 -891 852 -891 -852 -119 607c-526,-1015 -755,-982 -1641,-1263 -715,-227 -438,-1006 -438,-1813 0,-1722 0,-3444 0,-5165 1423,0 2004,-1025 3089,-1025z"/>
   <g style="clip-path:url(#id0)">
    <g>
     <rect class="fil1" x="-4496" y="-923" width="7640" height="12046"/>
     <path class="fil2" d="M6230 1409c0,1721 0,3443 0,5165 0,807 277,1586 -438,1813 -886,281 -1115,248 -1641,1263l-118 -607 -891 852 -891 -852 -119 607c-526,-1015 -755,-982 -1641,-1263 -715,-227 -438,-1006 -438,-1813 0,-1722 0,-3444 0,-5165 1423,0 2004,-1025 3089,-1025 1128,0 1671,1025 3088,1025zm-1832 -376c-399,-227 -778,-441 -1256,-441 -452,0 -825,209 -1224,433 -463,260 -957,538 -1658,584l0 4965c0,190 -14,377 -28,556 -40,504 -74,934 321,1059 148,47 207,65 261,81 590,179 871,265 1221,796l12 -62 73 -372 273 261 749 715 748 -715 274 -261 72 372 12 62c350,-531 631,-617 1222,-796 54,-16 112,-34 260,-81 395,-125 361,-555 322,-1059 -14,-179 -29,-366 -29,-556l0 -4965c-689,-46 -1169,-318 -1625,-576z"/>
    </g>
    <g style="clip-path:url(#id1)">
     <g>
      <rect class="fil1" x="3144" y="-923" width="7640" height="12046"/>
     </g>
    </g>
    <g style="clip-path:url(#id2)">
     <path class="fil3" d="M6230 1409c0,1721 0,3443 0,5165 0,807 277,1586 -438,1813 -886,281 -1115,248 -1641,1263l-118 -607 -891 852 -891 -852 -119 607c-526,-1015 -755,-982 -1641,-1263 -715,-227 -438,-1006 -438,-1813 0,-1722 0,-3444 0,-5165 1423,0 2004,-1025 3089,-1025 1128,0 1671,1025 3088,1025zm-1832 -376c-399,-227 -778,-441 -1256,-441 -452,0 -825,209 -1224,433 -463,260 -957,538 -1658,584l0 4965c0,190 -14,377 -28,556 -40,504 -74,934 321,1059 148,47 207,65 261,81 590,179 871,265 1221,796l12 -62 73 -372 273 261 749 715 748 -715 274 -261 72 372 12 62c350,-531 631,-617 1222,-796 54,-16 112,-34 260,-81 395,-125 361,-555 322,-1059 -14,-179 -29,-366 -29,-556l0 -4965c-689,-46 -1169,-318 -1625,-576z"/>
     <path class="fil4" d="M0 7588l-1021 3535 7944 -378c635,-31 239,-2564 -640,-3157 0,-1189 -1489,-1055 -1489,-1954 -1102,0 -2203,0 -3305,0 0,816 -1489,938 -1489,1954z"/>
    </g>
    <g style="clip-path:url(#id3)">
     <g>
      <polygon id="1" class="fil5" points="-4496,-923 3144,-923 3144,11123 -4496,11123 "/>
     </g>
    </g>
    <g style="clip-path:url(#id4)">
     <path class="fil3" d="M0 7588l-1021 3535 7944 -378c635,-31 239,-2564 -640,-3157 0,-1189 -1489,-1055 -1489,-1954 -1102,0 -2203,0 -3305,0 0,816 -1489,938 -1489,1954z"/>
    </g>
   </g>
   <path class="fil3" d="M3142 384c1128,0 1671,1025 3088,1025 0,1721 0,3443 0,5165 0,807 277,1586 -438,1813 -886,281 -1115,248 -1641,1263l-118 -607 -891 852 -891 -852 -119 607c-526,-1015 -755,-982 -1641,-1263 -715,-227 -438,-1006 -438,-1813 0,-1722 0,-3444 0,-5165 1423,0 2004,-1025 3089,-1025z"/>
   <path class="fil6" d="M1545 4186l1597 -4186 1596 4186c925,154 1545,437 1545,761 0,489 -1406,884 -3141,884 -1735,0 -3142,-395 -3142,-884 0,-324 620,-607 1545,-761z"/>
   <g style="clip-path:url(#id5)">
    <g>
     <polygon id="1" class="fil7" points="-4496,-923 3144,-923 3144,11123 -4496,11123 "/>
     <path class="fil8" d="M1470 3455c1198,-218 2304,-188 3338,23 1,-203 2,-406 4,-610 -1081,-234 -2189,-271 -3338,-22 -1,203 -3,406 -4,609z"/>
     <path class="fil9" d="M2773 3051l121 7c20,1 43,-1 63,0 19,2 37,4 61,4l-34 91c-12,30 -23,60 -34,90l-102 271c-12,29 -23,60 -34,90l-58 156c-4,9 -7,14 -9,25 6,-4 9,-10 14,-16 6,-9 8,-11 14,-19 11,-13 18,-22 28,-35l141 -180c10,-14 19,-24 29,-38 97,-129 211,-265 309,-395l241 -307c21,-28 25,-17 -114,-18 -43,0 -86,0 -130,0l154 -398c10,-29 18,-31 2,-33l-325 -3 -19 45c-4,8 -8,14 -12,22l-73 153c-8,17 -14,30 -22,45l-83 177c-8,15 -14,29 -21,43 -4,8 -7,14 -11,22 -25,54 -69,151 -96,201z"/>
    </g>
    <g style="clip-path:url(#id6)">
     <g>
      <polygon id="1" class="fil10" points="-4496,-923 3144,-923 3144,11123 -4496,11123 "/>
     </g>
    </g>
    <g style="clip-path:url(#id7)">
     <g>
      <path class="fil11" d="M2773 3051l121 7c20,1 43,-1 63,0 19,2 37,4 61,4l-34 91c-12,30 -23,60 -34,90l-102 271c-12,29 -23,60 -34,90l-58 156c-4,9 -7,14 -9,25 6,-4 9,-10 14,-16 6,-9 8,-11 14,-19 11,-13 18,-22 28,-35l141 -180c10,-14 19,-24 29,-38 97,-129 211,-265 309,-395l241 -307c21,-28 25,-17 -114,-18 -43,0 -86,0 -130,0l154 -398c10,-29 18,-31 2,-33l-325 -3 -19 45c-4,8 -8,14 -12,22l-73 153c-8,17 -14,30 -22,45l-83 177c-8,15 -14,29 -21,43 -4,8 -7,14 -11,22 -25,54 -69,151 -96,201zm118 60l-119 -7c-8,0 -17,-2 -24,-6 -26,-14 -35,-46 -22,-72 20,-36 49,-99 73,-151 8,-16 15,-31 22,-47 3,-6 6,-11 8,-16 2,-3 3,-6 4,-7 2,-5 5,-12 8,-18 3,-7 6,-13 11,-23l1 -1 84 -177 0 0 0 -1c4,-7 7,-14 11,-22 1,-3 4,-10 10,-21l0 0 0 -1 72 -151c1,-2 2,-3 2,-4l5 -9 0 0c2,-4 4,-8 5,-10l0 0 20 -45 0 0c8,-18 27,-31 48,-31l321 2c4,0 7,0 10,0 46,6 61,17 56,64l0 0c-2,10 -4,16 -9,25 -1,4 -3,8 -6,15l0 0 0 1 -126 326 53 1c40,0 68,-1 87,-1l0 0 1 0c15,-1 25,-1 33,0 3,0 5,0 8,0 99,16 79,40 30,98 -2,4 -2,3 -4,5l-238 305 -2 2c-47,63 -99,128 -151,193 -55,70 -110,139 -158,202 -8,10 -12,15 -15,20 -5,6 -9,11 -14,18l0 -1 -1 1 -140 180 0 0 0 0 -13 16 -1 2c-2,2 -6,7 -14,17 -4,5 -6,8 -8,11 -2,2 -4,4 -6,7l-3 4 0 0c-6,9 -11,16 -22,24l0 0c-12,8 -28,12 -43,8 -29,-7 -46,-35 -40,-63 4,-13 6,-19 9,-26 1,-1 1,-3 2,-5l0 0 58 -153c0,-1 0,-2 0,-3l4 -10c10,-26 19,-52 31,-81l0 0 101 -269 1 -1c3,-11 9,-26 16,-45 6,-15 11,-30 17,-44l0 -2 9 -23c-5,0 -11,0 -17,0 -12,0 -24,0 -35,0l0 0zm-91 693l0 0 0 0zm730 -1080c3,0 5,0 7,0"/>
     </g>
    </g>
   </g>
   <path class="fil3" d="M1545 4186l1597 -4186 1596 4186c925,154 1545,437 1545,761 0,489 -1406,884 -3141,884 -1735,0 -3142,-395 -3142,-884 0,-324 620,-607 1545,-761z"/>
   <path class="fil12" d="M1489 5064c1096,-540 2198,-543 3305,0 132,991 -431,1476 -959,1903 -468,379 -1003,359 -1436,-10 -490,-417 -1016,-894 -910,-1893z"/>
   <g style="clip-path:url(#id8)">
    <g id="_1671505672816">
     <path id="1" class="fil13" d="M1291 5552c645,-350 1286,-716 1826,-716 520,0 1408,250 1875,716l-50 -1523 -3651 0c0,446 0,1077 0,1523z"/>
    </g>
   </g>
   <path class="fil3" d="M1489 5064c1096,-540 2198,-543 3305,0 132,991 -431,1476 -959,1903 -468,379 -1003,359 -1436,-10 -490,-417 -1016,-894 -910,-1893z"/>
   <path class="fil4" d="M3726 5690c-327,0 -655,0 -982,0 -232,0 -633,-31 -775,207 -97,161 -48,488 109,653l61 60c3,-73 -17,-189 106,-283 197,-150 418,-58 668,-152 97,-37 186,-107 221,-192 22,26 44,79 89,112 36,28 77,56 128,76 252,98 498,12 668,150 79,64 125,140 114,287 383,-286 317,-918 -407,-918zm-1327 1267l746 622 690 -602c-142,123 -693,-115 -693,-385 0,270 -620,467 -743,365z"/>
   <g style="clip-path:url(#id9)">
    <g id="_1671505670512">
     <polygon id="1" class="fil5" points="-4496,-923 3144,-923 3144,11123 -4496,11123 "/>
    </g>
   </g>
   <path class="fil3" d="M3726 5690c-327,0 -655,0 -982,0 -232,0 -633,-31 -775,207 -97,161 -48,488 109,653l61 60c3,-73 -17,-189 106,-283 197,-150 418,-58 668,-152 97,-37 186,-107 221,-192 22,26 44,79 89,112 36,28 77,56 128,76 252,98 498,12 668,150 79,64 125,140 114,287 383,-286 317,-918 -407,-918zm-1327 1267l746 622 690 -602c-142,123 -693,-115 -693,-385 0,270 -620,467 -743,365z"/>
  </g>
 </g>
</svg>
