<?xml version="1.0" encoding="UTF-8"?>
<!DOCTYPE svg PUBLIC "-//W3C//DTD SVG 1.1//EN" "http://www.w3.org/Graphics/SVG/1.1/DTD/svg11.dtd">
<!-- Creator: CorelDRAW X7 -->
<svg xmlns="http://www.w3.org/2000/svg" xml:space="preserve" width="101.613mm" height="98.946mm" version="1.1" style="shape-rendering:geometricPrecision; text-rendering:geometricPrecision; image-rendering:optimizeQuality; fill-rule:evenodd; clip-rule:evenodd"
viewBox="0 0 10161 9895"
 xmlns:xlink="http://www.w3.org/1999/xlink">
 <defs>
  <style type="text/css">
   <![CDATA[
    .str0 {stroke:#2B602B;stroke-width:70.56}
    .fil2 {fill:none}
    .fil4 {fill:#5EA35F}
    .fil0 {fill:#458F46}
    .fil3 {fill:#458F46}
    .fil10 {fill:#2B602B}
    .fil7 {fill:#2A5B2A}
    .fil5 {fill:#28682E}
    .fil8 {fill:#2A5B2A;fill-rule:nonzero}
    .fil11 {fill:#2A5B2A;fill-opacity:0.501961}
    .fil1 {fill:#5EA35F}
    .fil6 {fill:#2A5B2A}
    .fil9 {fill:#28682E}
   ]]>
  </style>
    <clipPath id="id0">
     <path d="M2307 2070l-88 -704 -18 -148 140 -57c253,-102 557,-191 873,-256 241,-50 491,-86 730,-104l0 -332 0 -169 166 -25 1756 -271 28 -4 29 4 1784 259 168 24 -1 170 0 333c231,18 467,54 695,104 315,68 620,162 880,267l140 57 -19 149 -521 4139 -6 51 -29 39 -2960 4079 -160 220 -158 -221 -2997 -4176 -29 -41 -6 -51 -397 -3336 0 0z"/>
    </clipPath>
    <clipPath id="id1">
     <path d="M2501 2047l-87 -704c479,-194 1151,-337 1726,-356l-1 -518 1756 -271 1784 259 -1 518c575,19 1219,174 1698,368l-521 4139 -2960 4078 -2996 -4177 -398 -3336z"/>
    </clipPath>
     <clipPath id="id2">
      <path d="M5119 5281l1594 -79 1408 544 -2226 2130 -2108 -2137 1332 -458z"/>
     </clipPath>
     <clipPath id="id3">
      <path d="M2501 2047l-87 -704c479,-194 1151,-337 1726,-356l-1 -518 1756 -271 1784 259 -1 518c575,19 1219,174 1698,368l-521 4139 -2960 4078 -2996 -4177 -398 -3336z"/>
     </clipPath>
    <clipPath id="id4">
     <path d="M3839 5720l2055 2155 2226 -2130 616 232 -2842 3918 -2811 -3919 756 -256z"/>
    </clipPath>
    <clipPath id="id5">
     <path d="M5895 3615c-871,0 -1667,1116 -1538,-517 250,-189 1163,-263 1538,-263 375,0 1288,74 1538,263 129,1633 -667,517 -1538,517zm0 -2567c-408,0 -912,76 -1243,318 -297,217 -334,292 -444,704 -81,307 -124,636 -163,954 -33,264 -93,249 -120,436 -20,146 49,376 75,506 117,566 128,-8 333,780l268 759c162,442 723,837 1294,851 571,-14 1133,-409 1294,-851l268 -759c205,-788 216,-214 333,-780 27,-130 95,-360 75,-506 -27,-187 -87,-172 -120,-436 -39,-318 -82,-647 -163,-954 -110,-412 -147,-487 -444,-704 -330,-242 -835,-318 -1243,-318z"/>
    </clipPath>
 </defs>
 <g id="Layer_x0020_1">
  <metadata id="CorelCorpID_0Corel-Layer"/>
  <g id="_1707425791568">
   <path class="fil0" d="M2307 2070l-88 -704 -18 -148 140 -57c253,-102 557,-191 873,-256 241,-50 491,-86 730,-104l0 -332 0 -169 166 -25 1756 -271 28 -4 29 4 1784 259 168 24 -1 170 0 333c231,18 467,54 695,104 315,68 620,162 880,267l140 57 -19 149 -521 4139 -6 51 -29 39 -2960 4079 -160 220 -158 -221 -2997 -4176 -29 -41 -6 -51 -397 -3336 0 0z"/>
   <g style="clip-path:url(#id0)">
    <g>
     <polygon id="1" class="fil1" points="10154,-68 5894,-68 5894,10153 10154,10153 "/>
    </g>
   </g>
   <path class="fil2" d="M2307 2070l-88 -704 -18 -148 140 -57c253,-102 557,-191 873,-256 241,-50 491,-86 730,-104l0 -332 0 -169 166 -25 1756 -271 28 -4 29 4 1784 259 168 24 -1 170 0 333c231,18 467,54 695,104 315,68 620,162 880,267l140 57 -19 149 -521 4139 -6 51 -29 39 -2960 4079 -160 220 -158 -221 -2997 -4176 -29 -41 -6 -51 -397 -3336 0 0z"/>
   <path class="fil3" d="M2501 2047l-87 -704c479,-194 1151,-337 1726,-356l-1 -518 1756 -271 1784 259 -1 518c575,19 1219,174 1698,368l-521 4139 -2960 4078 -2996 -4177 -398 -3336z"/>
   <g style="clip-path:url(#id1)">
    <g>
     <rect class="fil4" x="-1149" y="-1750" width="7044" height="12686"/>
     <polygon class="fil5" points="5119,5281 6713,5202 8121,5746 5895,7876 3787,5739 "/>
    </g>
    <g style="clip-path:url(#id2)">
     <g>
      <polygon id="1" class="fil6" points="5895,10257 2636,10257 2636,4219 5895,4219 "/>
     </g>
    </g>
    <g style="clip-path:url(#id3)">
     <polygon class="fil2" points="5119,5281 6713,5202 8121,5746 5895,7876 3787,5739 "/>
    </g>
   </g>
   <path class="fil2" d="M2501 2047l-87 -704c479,-194 1151,-337 1726,-356l-1 -518 1756 -271 1784 259 -1 518c575,19 1219,174 1698,368l-521 4139 -2960 4078 -2996 -4177 -398 -3336z"/>
   <path class="fil7" d="M93 6153l198 226c49,-34 69,-72 101,-123 199,-312 645,-887 928,-1131 244,-210 787,-450 1131,-435 -268,-253 -1059,80 -1318,312 -414,370 -677,715 -1040,1151z"/>
   <path class="fil8" d="M185 6152l110 124c8,-11 16,-23 24,-36l14 -21c110,-173 294,-425 485,-658 160,-194 325,-376 456,-489 135,-116 355,-240 585,-329 67,-25 135,-48 202,-67 -47,6 -96,15 -146,27 -287,68 -595,225 -736,351 -342,307 -582,598 -863,939 -41,51 -84,102 -131,159zm53 274l-198 -226 -40 -45 39 -47c54,-65 112,-136 168,-204 285,-346 528,-640 879,-954 155,-139 489,-312 797,-385 246,-58 481,-54 616,74l137 129 -188 -8c-152,-6 -348,41 -538,115 -216,82 -420,197 -544,303 -126,108 -285,284 -439,473 -188,228 -369,475 -476,643 -3,5 -4,7 -12,20 -30,48 -54,85 -107,123l-52 36 -42 -47z"/>
   <path class="fil7" d="M1826 6342c-6,147 11,216 4,367 63,-2 206,-45 255,-66 4,-98 -15,-106 -11,-214 18,-439 30,-650 215,-1058 142,-311 222,-369 357,-601 112,7 235,67 332,104 568,212 924,-45 1213,-452l0 -532c-90,172 -228,362 -311,464 -380,471 -669,348 -1073,323 -40,-2 -118,87 -161,85 192,-328 914,-798 1304,-917 66,-21 172,-56 241,-104l0 -201 -3 -2c11,267 -24,78 -703,327 -951,349 -1618,1505 -1659,2477z"/>
   <path class="fil8" d="M1897 6344c-3,70 -1,123 2,175l0 0c1,34 3,68 3,107 8,-2 16,-4 24,-6 31,-8 63,-18 88,-26 -1,-17 -2,-30 -4,-44 -4,-31 -9,-63 -6,-123 9,-223 17,-389 46,-551 29,-164 80,-324 175,-534 93,-204 160,-302 232,-407 23,-34 46,-68 71,-107l-1 -1 59 -101c95,-164 312,-359 557,-530 185,-131 388,-250 566,-332 -59,18 -125,40 -199,67 -442,162 -822,505 -1102,923 -305,456 -491,998 -511,1490zm-139 182c-3,-56 -5,-111 -2,-187 22,-518 217,-1087 535,-1563 296,-441 699,-805 1170,-978 291,-106 467,-134 572,-151 83,-13 88,-14 85,-107l-7 -149 120 91 3 2 28 22 0 34 0 201 0 37 0 0 0 112 0 532 0 23 -13 18c-152,213 -322,387 -531,481 -213,96 -461,109 -765,-5 -28,-10 -48,-18 -69,-27 -64,-26 -135,-54 -200,-67 -40,66 -76,118 -111,169 -68,101 -132,194 -220,386 -90,198 -137,348 -165,501 -27,155 -35,315 -44,531 -2,49 2,75 5,100 4,30 8,60 6,113l-2 45 -41 17c-30,13 -91,33 -150,49 -48,12 -96,22 -129,24l-76 3 3 -76c3,-73 0,-127 -2,-181l0 0zm1104 -1774c26,10 51,20 75,30 26,10 52,21 65,26 265,99 478,89 658,8 178,-80 327,-231 461,-416l0 -257 -8 13c-65,97 -131,184 -178,242 -345,428 -618,400 -954,365 -39,-4 -78,-8 -119,-11zm1267 -894l2 -4c-12,5 -24,10 -36,15 -46,18 -90,32 -125,43 -198,60 -488,217 -746,399 -138,97 -266,200 -365,299 47,4 92,9 136,13 294,31 533,55 830,-313 46,-56 109,-140 171,-232 47,-71 95,-148 133,-220z"/>
   <polygon class="fil7" points="3839,5720 5894,7875 8120,5745 8736,5977 5894,9895 3083,5976 "/>
   <g style="clip-path:url(#id4)">
    <g>
     <polygon id="1" class="fil9" points="5894,10256 2635,10256 2635,5555 5894,5555 "/>
    </g>
   </g>
   <polygon class="fil2" points="3839,5720 5894,7875 8120,5745 8736,5977 5894,9895 3083,5976 "/>
   <path class="fil7" d="M9375 2756l-416 672c-113,-73 -515,-417 -691,-702 -283,454 -150,1049 296,1340l-913 1498 199 77 807 -1522c448,228 1003,79 1274,-356 -383,-74 -800,-256 -913,-307l357 -657 0 -43z"/>
   <circle class="fil10" cx="9400" cy="2756" r="84"/>
   <path class="fil2 str0" d="M9123 2023c126,-62 455,-50 637,52 167,93 365,377 401,530"/>
   <path class="fil2 str0" d="M9179 2248c94,-46 340,-38 476,39 125,70 273,282 300,396"/>
   <path class="fil2 str0" d="M9244 2453c65,-32 234,-27 328,26 86,48 189,195 207,273"/>
   <path class="fil11" d="M4226 3604c591,-334 1179,-683 1674,-683 477,0 1292,238 1719,683l-45 -1454 -3348 0c0,426 0,1028 0,1454z"/>
   <path class="fil5" d="M5895 3615c-871,0 -1667,1116 -1538,-517 250,-189 1163,-263 1538,-263 375,0 1288,74 1538,263 129,1633 -667,517 -1538,517zm0 -2567c-408,0 -912,76 -1243,318 -297,217 -334,292 -444,704 -81,307 -124,636 -163,954 -33,264 -93,249 -120,436 -20,146 49,376 75,506 117,566 128,-8 333,780l268 759c162,442 723,837 1294,851 571,-14 1133,-409 1294,-851l268 -759c205,-788 216,-214 333,-780 27,-130 95,-360 75,-506 -27,-187 -87,-172 -120,-436 -39,-318 -82,-647 -163,-954 -110,-412 -147,-487 -444,-704 -330,-242 -835,-318 -1243,-318z"/>
   <g style="clip-path:url(#id5)">
    <g>
     <rect class="fil7" x="5895" y="-241" width="3511" height="7886"/>
    </g>
   </g>
   <path class="fil2" d="M5895 3615c-871,0 -1667,1116 -1538,-517 250,-189 1163,-263 1538,-263 375,0 1288,74 1538,263 129,1633 -667,517 -1538,517zm0 -2567c-408,0 -912,76 -1243,318 -297,217 -334,292 -444,704 -81,307 -124,636 -163,954 -33,264 -93,249 -120,436 -20,146 49,376 75,506 117,566 128,-8 333,780l268 759c162,442 723,837 1294,851 571,-14 1133,-409 1294,-851l268 -759c205,-788 216,-214 333,-780 27,-130 95,-360 75,-506 -27,-187 -87,-172 -120,-436 -39,-318 -82,-647 -163,-954 -110,-412 -147,-487 -444,-704 -330,-242 -835,-318 -1243,-318z"/>
  </g>
 </g>
</svg>
