<?xml version="1.0" encoding="UTF-8"?>
<!DOCTYPE svg PUBLIC "-//W3C//DTD SVG 1.1//EN" "http://www.w3.org/Graphics/SVG/1.1/DTD/svg11.dtd">
<!-- Creator: CorelDRAW X7 -->
<svg xmlns="http://www.w3.org/2000/svg" xml:space="preserve" width="88.953mm" height="98.946mm" version="1.1" style="shape-rendering:geometricPrecision; text-rendering:geometricPrecision; image-rendering:optimizeQuality; fill-rule:evenodd; clip-rule:evenodd"
viewBox="0 0 8895 9895"
 xmlns:xlink="http://www.w3.org/1999/xlink">
 <defs>
  <style type="text/css">
   <![CDATA[
    .fil2 {fill:none}
    .fil5 {fill:none;fill-rule:nonzero}
    .fil4 {fill:#F5A55E}
    .fil6 {fill:#C24327}
    .fil9 {fill:#862723}
    .fil11 {fill:#862723}
    .fil8 {fill:#C24327}
    .fil1 {fill:#EE822B}
    .fil0 {fill:#F5A55E}
    .fil10 {fill:#862723;fill-rule:nonzero}
    .fil3 {fill:#EE822B;fill-rule:nonzero}
    .fil7 {fill:black;fill-opacity:0.101961}
   ]]>
  </style>
    <clipPath id="id0">
     <path d="M7621 6843l0 -44 0 -6265 -3229 832 -3229 -832 0 6265 0 44 0 0 3234 2902 3224 -2901 0 -1z"/>
    </clipPath>
    <clipPath id="id1" style="clip-rule:nonzero">
     <path d="M7735 6799l0 92c-1113,1001 -2225,2002 -3337,3003l-3349 -3003 0 -6500 3343 861 3343 -861 0 6408zm-227 -3l0 -6119 -3087 795 -58 0 -3087 -795 0 6119 3121 2799 3111 -2799z"/>
    </clipPath>
    <clipPath id="id2">
     <path d="M4389 9235c-641,-846 -1810,-2851 -1386,-3788 -9,3 -1113,1238 -1375,1505 104,67 676,244 843,293 -118,200 -322,370 -416,548l2343 2102 0 -1 0 1 2325 -2102c-94,-178 -298,-348 -416,-548 167,-49 739,-226 843,-293 -262,-267 -1137,-1450 -1147,-1454 425,937 -973,2891 -1614,3737z"/>
    </clipPath>
    <clipPath id="id3">
     <path d="M5916 8229l-1527 1167 -1352 -1438 -527 -2233 3754 0 -348 2504z"/>
    </clipPath>
    <clipPath id="id4">
     <path d="M1669 5529l-506 -31c107,867 852,393 288,711 416,136 460,321 980,293l-80 471c966,-231 304,-1333 599,-2255 354,-855 593,-807 2299,-1247l100 199c25,67 32,121 67,211 189,471 496,418 468,1360 -21,681 55,1200 1033,1488 -76,-294 -131,-284 -269,-518 218,123 458,275 622,481 109,-390 -52,-416 -237,-708l442 8c-144,-357 -353,-320 -634,-971l338 -156c-111,-242 -603,-369 -725,-533 -9,-652 60,-999 -304,-1607 -319,-534 -421,-342 -974,-584 -1258,-549 -2243,562 -2782,1656 -106,216 -60,392 -64,532 -1,41 -407,204 -731,192 -11,-1 -293,-250 -262,437 15,328 170,396 332,571z"/>
    </clipPath>
    <clipPath id="id5">
     <path d="M1315 4125c156,-7 102,-48 304,-50 169,-1 592,-23 717,41 10,5 20,11 29,18 -15,64 -27,129 -35,195l-174 -4c-366,-37 -563,-141 -841,-200 156,-7 102,-48 304,-50 169,-1 592,-23 717,41 10,5 20,11 29,18 29,-122 71,-241 124,-353 1,-10 3,-19 4,-26l1 15 -1 -15c30,-75 79,-153 141,-231 368,-545 1017,-908 1758,-908 1065,0 1942,750 2062,1716l173 0 1 -7c607,-73 1199,-282 1646,-699 220,-206 588,-656 621,-977 -486,71 -1028,-5 -1403,-210 -710,-388 -910,-1205 -1532,-1807 -213,-207 -669,-549 -1066,-632 -215,814 -768,862 -1009,0 -376,77 -848,434 -1047,618 -284,262 -483,581 -718,951 -239,378 -452,643 -814,858 -371,221 -814,269 -1306,196 20,279 237,721 419,913 270,284 466,382 896,589z"/>
    </clipPath>
    <clipPath id="id6">
     <path d="M7621 6843l0 -44 0 -6265 -3229 832 -3229 -832 0 6265 0 44 0 0 3234 2902 3224 -2901 0 -1z"/>
    </clipPath>
    <clipPath id="id7" style="clip-rule:nonzero">
     <path d="M7735 6799l0 92c-1113,1001 -2225,2002 -3337,3003l-3349 -3003 0 -6500 3343 861 3343 -861 0 6408zm-227 -3l0 -6119 -3087 795 -58 0 -3087 -795 0 6119 3121 2799 3111 -2799z"/>
    </clipPath>
    <clipPath id="id8">
     <path d="M4389 9235c-641,-846 -1810,-2851 -1386,-3788 -9,3 -1113,1238 -1375,1505 104,67 676,244 843,293 -118,200 -322,370 -416,548l2343 2102 0 -1 0 1 2325 -2102c-94,-178 -298,-348 -416,-548 167,-49 739,-226 843,-293 -262,-267 -1137,-1450 -1147,-1454 425,937 -973,2891 -1614,3737z"/>
    </clipPath>
    <clipPath id="id9">
     <path d="M5916 8229l-1527 1167 -1352 -1438 -527 -2233 3754 0 -348 2504z"/>
    </clipPath>
    <clipPath id="id10">
     <path d="M4446 2008c1153,0 2087,1229 2087,2745 0,1516 -1376,3026 -2173,3074 -798,47 -2001,-1558 -2001,-3074 0,-1516 934,-2745 2087,-2745z"/>
    </clipPath>
    <clipPath id="id11">
     <path d="M1669 5529l-506 -31c107,867 852,393 288,711 416,136 460,321 980,293l-80 471c966,-231 304,-1333 599,-2255 354,-855 593,-807 2299,-1247l100 199c25,67 32,121 67,211 189,471 496,418 468,1360 -21,681 55,1200 1033,1488 -76,-294 -131,-284 -269,-518 218,123 458,275 622,481 109,-390 -52,-416 -237,-708l442 8c-144,-357 -353,-320 -634,-971l338 -156c-111,-242 -603,-369 -725,-533 -9,-652 60,-999 -304,-1607 -319,-534 -421,-342 -974,-584 -1258,-549 -2243,562 -2782,1656 -106,216 -60,392 -64,532 -1,41 -407,204 -731,192 -11,-1 -293,-250 -262,437 15,328 170,396 332,571z"/>
    </clipPath>
    <clipPath id="id12">
     <path d="M1315 4125c156,-7 102,-48 304,-50 169,-1 592,-23 717,41 10,5 20,11 29,18 -15,64 -27,129 -35,195l-174 -4c-366,-37 -563,-141 -841,-200 156,-7 102,-48 304,-50 169,-1 592,-23 717,41 10,5 20,11 29,18 29,-122 71,-241 124,-353 1,-10 3,-19 4,-26l1 15 -1 -15c30,-75 79,-153 141,-231 368,-545 1017,-908 1758,-908 1065,0 1942,750 2062,1716l173 0 1 -7c607,-73 1199,-282 1646,-699 220,-206 588,-656 621,-977 -486,71 -1028,-5 -1403,-210 -710,-388 -910,-1205 -1532,-1807 -213,-207 -669,-549 -1066,-632 -215,814 -768,862 -1009,0 -376,77 -848,434 -1047,618 -284,262 -483,581 -718,951 -239,378 -452,643 -814,858 -371,221 -814,269 -1306,196 20,279 237,721 419,913 270,284 466,382 896,589z"/>
    </clipPath>
 </defs>
 <g id="Layer_x0020_1">
  <metadata id="CorelCorpID_0Corel-Layer"/>
  <g id="_1671957902832">
   <polygon class="fil0" points="7621,6843 7621,6799 7621,534 4392,1366 1163,534 1163,6799 1163,6843 1163,6843 4397,9745 7621,6844 "/>
   <g style="clip-path:url(#id0)">
    <g>
     <rect class="fil1" x="4402" y="-223" width="4200" height="11786"/>
    </g>
   </g>
   <polygon class="fil2" points="7621,6843 7621,6799 7621,534 4392,1366 1163,534 1163,6799 1163,6843 1163,6843 4397,9745 7621,6844 "/>
   <path class="fil3" d="M7735 6799l0 92c-1113,1001 -2225,2002 -3337,3003l-3349 -3003 0 -6500 3343 861 3343 -861 0 6408zm-227 -3l0 -6119 -3087 795 -58 0 -3087 -795 0 6119 3121 2799 3111 -2799z"/>
   <g style="clip-path:url(#id1)">
    <g>
     <rect class="fil4" x="4402" y="-223" width="4200" height="11786"/>
    </g>
   </g>
   <path class="fil5" d="M7735 6799l0 92c-1113,1001 -2225,2002 -3337,3003l-3349 -3003 0 -6500 3343 861 3343 -861 0 6408zm-227 -3l0 -6119 -3087 795 -58 0 -3087 -795 0 6119 3121 2799 3111 -2799z"/>
   <path class="fil6" d="M4389 9235c-641,-846 -1810,-2851 -1386,-3788 -9,3 -1113,1238 -1375,1505 104,67 676,244 843,293 -118,200 -322,370 -416,548l2343 2102 0 -1 0 1 2325 -2102c-94,-178 -298,-348 -416,-548 167,-49 739,-226 843,-293 -262,-267 -1137,-1450 -1147,-1454 425,937 -973,2891 -1614,3737z"/>
   <g style="clip-path:url(#id2)">
    <g>
     <polygon id="1" class="fil7" points="8126,1170 10695,1170 10695,7851 8126,7851 "/>
     <polygon class="fil7" points="10703,-4631 7688,-4631 7688,2049 10703,2049 "/>
     <polygon class="fil7" points="4453,13281 -675,13281 -675,23896 4453,23896 "/>
    </g>
   </g>
   <path class="fil2" d="M4389 9235c-641,-846 -1810,-2851 -1386,-3788 -9,3 -1113,1238 -1375,1505 104,67 676,244 843,293 -118,200 -322,370 -416,548l2343 2102 0 -1 0 1 2325 -2102c-94,-178 -298,-348 -416,-548 167,-49 739,-226 843,-293 -262,-267 -1137,-1450 -1147,-1454 425,937 -973,2891 -1614,3737z"/>
   <polygon class="fil8" points="5916,8229 4389,9396 3037,7958 2510,5725 6264,5725 "/>
   <g style="clip-path:url(#id3)">
    <g>
     <polygon id="1" class="fil7" points="4398,3982 9591,3982 9591,14730 4398,14730 "/>
    </g>
   </g>
   <polygon class="fil2" points="5916,8229 4389,9396 3037,7958 2510,5725 6264,5725 "/>
   <path class="fil0" d="M4446 2008c1153,0 2087,1229 2087,2745 0,1516 -1376,3026 -2173,3074 -798,47 -2001,-1558 -2001,-3074 0,-1516 934,-2745 2087,-2745z"/>
   <path class="fil9" d="M1669 5529l-506 -31c107,867 852,393 288,711 416,136 460,321 980,293l-80 471c966,-231 304,-1333 599,-2255 354,-855 593,-807 2299,-1247l100 199c25,67 32,121 67,211 189,471 496,418 468,1360 -21,681 55,1200 1033,1488 -76,-294 -131,-284 -269,-518 218,123 458,275 622,481 109,-390 -52,-416 -237,-708l442 8c-144,-357 -353,-320 -634,-971l338 -156c-111,-242 -603,-369 -725,-533 -9,-652 60,-999 -304,-1607 -319,-534 -421,-342 -974,-584 -1258,-549 -2243,562 -2782,1656 -106,216 -60,392 -64,532 -1,41 -407,204 -731,192 -11,-1 -293,-250 -262,437 15,328 170,396 332,571z"/>
   <g style="clip-path:url(#id4)">
    <g>
     <polygon id="1" class="fil7" points="-795,-231 4398,-231 4398,10517 -795,10517 "/>
    </g>
   </g>
   <path class="fil2" d="M1669 5529l-506 -31c107,867 852,393 288,711 416,136 460,321 980,293l-80 471c966,-231 304,-1333 599,-2255 354,-855 593,-807 2299,-1247l100 199c25,67 32,121 67,211 189,471 496,418 468,1360 -21,681 55,1200 1033,1488 -76,-294 -131,-284 -269,-518 218,123 458,275 622,481 109,-390 -52,-416 -237,-708l442 8c-144,-357 -353,-320 -634,-971l338 -156c-111,-242 -603,-369 -725,-533 -9,-652 60,-999 -304,-1607 -319,-534 -421,-342 -974,-584 -1258,-549 -2243,562 -2782,1656 -106,216 -60,392 -64,532 -1,41 -407,204 -731,192 -11,-1 -293,-250 -262,437 15,328 170,396 332,571z"/>
   <path class="fil8" d="M1315 4125c156,-7 102,-48 304,-50 169,-1 592,-23 717,41 10,5 20,11 29,18 -15,64 -27,129 -35,195l-174 -4c-366,-37 -563,-141 -841,-200 156,-7 102,-48 304,-50 169,-1 592,-23 717,41 10,5 20,11 29,18 29,-122 71,-241 124,-353 1,-10 3,-19 4,-26l1 15 -1 -15c30,-75 79,-153 141,-231 368,-545 1017,-908 1758,-908 1065,0 1942,750 2062,1716l173 0 1 -7c607,-73 1199,-282 1646,-699 220,-206 588,-656 621,-977 -486,71 -1028,-5 -1403,-210 -710,-388 -910,-1205 -1532,-1807 -213,-207 -669,-549 -1066,-632 -215,814 -768,862 -1009,0 -376,77 -848,434 -1047,618 -284,262 -483,581 -718,951 -239,378 -452,643 -814,858 -371,221 -814,269 -1306,196 20,279 237,721 419,913 270,284 466,382 896,589z"/>
   <g style="clip-path:url(#id5)">
    <g>
     <polygon id="1" class="fil7" points="-795,-1915 4398,-1915 4398,8833 -795,8833 "/>
    </g>
   </g>
   <path class="fil2" d="M1315 4125c156,-7 102,-48 304,-50 169,-1 592,-23 717,41 10,5 20,11 29,18 -15,64 -27,129 -35,195l-174 -4c-366,-37 -563,-141 -841,-200 156,-7 102,-48 304,-50 169,-1 592,-23 717,41 10,5 20,11 29,18 29,-122 71,-241 124,-353 1,-10 3,-19 4,-26l1 15 -1 -15c30,-75 79,-153 141,-231 368,-545 1017,-908 1758,-908 1065,0 1942,750 2062,1716l173 0 1 -7c607,-73 1199,-282 1646,-699 220,-206 588,-656 621,-977 -486,71 -1028,-5 -1403,-210 -710,-388 -910,-1205 -1532,-1807 -213,-207 -669,-549 -1066,-632 -215,814 -768,862 -1009,0 -376,77 -848,434 -1047,618 -284,262 -483,581 -718,951 -239,378 -452,643 -814,858 -371,221 -814,269 -1306,196 20,279 237,721 419,913 270,284 466,382 896,589z"/>
   <path class="fil10" d="M3464 1619l571 -299 0 152c0,10 -3,21 -9,30 -5,9 -14,17 -27,23l-200 108c-12,7 -25,12 -38,17 -14,4 -28,8 -43,12 15,4 29,8 43,12 13,4 26,9 38,16l200 108c13,7 22,15 27,24 6,9 9,18 9,29l0 152 -571 -299 0 -85zm836 511c-5,13 -12,24 -20,34 -8,10 -17,18 -27,24 -10,7 -21,12 -33,15 -11,3 -23,5 -34,5l-93 0 400 -1051c10,-24 24,-43 43,-55 20,-13 42,-19 67,-19l93 0 -396 1047zm1020 -426l-571 299 0 -152c0,-11 3,-20 8,-29 6,-9 15,-17 27,-24l200 -108c12,-7 25,-12 39,-16 14,-4 28,-8 43,-12 -15,-4 -29,-8 -43,-12 -14,-5 -27,-10 -39,-17l-200 -108c-12,-6 -21,-14 -27,-23 -5,-9 -8,-20 -8,-30l0 -152 571 299 0 85z"/>
   <polygon class="fil0" points="7621,6843 7621,6799 7621,534 4392,1366 1163,534 1163,6799 1163,6843 1163,6843 4397,9745 7621,6844 "/>
   <g style="clip-path:url(#id6)">
    <g>
     <rect class="fil1" x="4402" y="-223" width="4200" height="11786"/>
    </g>
   </g>
   <polygon class="fil2" points="7621,6843 7621,6799 7621,534 4392,1366 1163,534 1163,6799 1163,6843 1163,6843 4397,9745 7621,6844 "/>
   <path class="fil3" d="M7735 6799l0 92c-1113,1001 -2225,2002 -3337,3003l-3349 -3003 0 -6500 3343 861 3343 -861 0 6408zm-227 -3l0 -6119 -3087 795 -58 0 -3087 -795 0 6119 3121 2799 3111 -2799z"/>
   <g style="clip-path:url(#id7)">
    <g>
     <rect class="fil4" x="4402" y="-223" width="4200" height="11786"/>
    </g>
   </g>
   <path class="fil5" d="M7735 6799l0 92c-1113,1001 -2225,2002 -3337,3003l-3349 -3003 0 -6500 3343 861 3343 -861 0 6408zm-227 -3l0 -6119 -3087 795 -58 0 -3087 -795 0 6119 3121 2799 3111 -2799z"/>
   <path class="fil6" d="M4389 9235c-641,-846 -1810,-2851 -1386,-3788 -9,3 -1113,1238 -1375,1505 104,67 676,244 843,293 -118,200 -322,370 -416,548l2343 2102 0 -1 0 1 2325 -2102c-94,-178 -298,-348 -416,-548 167,-49 739,-226 843,-293 -262,-267 -1137,-1450 -1147,-1454 425,937 -973,2891 -1614,3737z"/>
   <g style="clip-path:url(#id8)">
    <g>
     <polygon id="1" class="fil7" points="8126,1170 10695,1170 10695,7851 8126,7851 "/>
     <polygon class="fil7" points="10703,-4631 7688,-4631 7688,2049 10703,2049 "/>
     <polygon class="fil7" points="4453,13281 -675,13281 -675,23896 4453,23896 "/>
    </g>
   </g>
   <path class="fil2" d="M4389 9235c-641,-846 -1810,-2851 -1386,-3788 -9,3 -1113,1238 -1375,1505 104,67 676,244 843,293 -118,200 -322,370 -416,548l2343 2102 0 -1 0 1 2325 -2102c-94,-178 -298,-348 -416,-548 167,-49 739,-226 843,-293 -262,-267 -1137,-1450 -1147,-1454 425,937 -973,2891 -1614,3737z"/>
   <polygon class="fil8" points="5916,8229 4389,9396 3037,7958 2510,5725 6264,5725 "/>
   <g style="clip-path:url(#id9)">
    <g>
     <polygon id="1" class="fil7" points="4398,3982 9591,3982 9591,14730 4398,14730 "/>
    </g>
   </g>
   <polygon class="fil2" points="5916,8229 4389,9396 3037,7958 2510,5725 6264,5725 "/>
   <path class="fil0" d="M4446 2008c1153,0 2087,1229 2087,2745 0,1516 -1376,3026 -2173,3074 -798,47 -2001,-1558 -2001,-3074 0,-1516 934,-2745 2087,-2745z"/>
   <g style="clip-path:url(#id10)">
    <g>
     <g>
      <path id="1" class="fil11" d="M4449 4706c-9,-9 -14,-36 -39,-70 -17,-23 -29,-35 -52,-52 -45,-34 -100,-55 -148,-62 -368,-49 -944,-169 -1175,250 -16,28 -30,63 -40,96 -7,26 -16,98 -23,113l0 104c8,21 7,151 79,312 140,310 481,392 793,283 134,-47 263,-135 353,-232 103,-111 164,-204 220,-363 45,-128 52,-202 42,-333l-10 -46z"/>
      <path class="fil11" d="M2252 7280c211,-1935 2005,-3452 4199,-3485l0 153c-2101,33 -3818,1481 -4029,3332l-170 0z"/>
     </g>
    </g>
   </g>
   <path class="fil2" d="M4446 2008c1153,0 2087,1229 2087,2745 0,1516 -1376,3026 -2173,3074 -798,47 -2001,-1558 -2001,-3074 0,-1516 934,-2745 2087,-2745z"/>
   <path class="fil9" d="M1669 5529l-506 -31c107,867 852,393 288,711 416,136 460,321 980,293l-80 471c966,-231 304,-1333 599,-2255 354,-855 593,-807 2299,-1247l100 199c25,67 32,121 67,211 189,471 496,418 468,1360 -21,681 55,1200 1033,1488 -76,-294 -131,-284 -269,-518 218,123 458,275 622,481 109,-390 -52,-416 -237,-708l442 8c-144,-357 -353,-320 -634,-971l338 -156c-111,-242 -603,-369 -725,-533 -9,-652 60,-999 -304,-1607 -319,-534 -421,-342 -974,-584 -1258,-549 -2243,562 -2782,1656 -106,216 -60,392 -64,532 -1,41 -407,204 -731,192 -11,-1 -293,-250 -262,437 15,328 170,396 332,571z"/>
   <g style="clip-path:url(#id11)">
    <g>
     <polygon id="1" class="fil7" points="-795,-231 4398,-231 4398,10517 -795,10517 "/>
    </g>
   </g>
   <path class="fil2" d="M1669 5529l-506 -31c107,867 852,393 288,711 416,136 460,321 980,293l-80 471c966,-231 304,-1333 599,-2255 354,-855 593,-807 2299,-1247l100 199c25,67 32,121 67,211 189,471 496,418 468,1360 -21,681 55,1200 1033,1488 -76,-294 -131,-284 -269,-518 218,123 458,275 622,481 109,-390 -52,-416 -237,-708l442 8c-144,-357 -353,-320 -634,-971l338 -156c-111,-242 -603,-369 -725,-533 -9,-652 60,-999 -304,-1607 -319,-534 -421,-342 -974,-584 -1258,-549 -2243,562 -2782,1656 -106,216 -60,392 -64,532 -1,41 -407,204 -731,192 -11,-1 -293,-250 -262,437 15,328 170,396 332,571z"/>
   <path class="fil8" d="M1315 4125c156,-7 102,-48 304,-50 169,-1 592,-23 717,41 10,5 20,11 29,18 -15,64 -27,129 -35,195l-174 -4c-366,-37 -563,-141 -841,-200 156,-7 102,-48 304,-50 169,-1 592,-23 717,41 10,5 20,11 29,18 29,-122 71,-241 124,-353 1,-10 3,-19 4,-26l1 15 -1 -15c30,-75 79,-153 141,-231 368,-545 1017,-908 1758,-908 1065,0 1942,750 2062,1716l173 0 1 -7c607,-73 1199,-282 1646,-699 220,-206 588,-656 621,-977 -486,71 -1028,-5 -1403,-210 -710,-388 -910,-1205 -1532,-1807 -213,-207 -669,-549 -1066,-632 -215,814 -768,862 -1009,0 -376,77 -848,434 -1047,618 -284,262 -483,581 -718,951 -239,378 -452,643 -814,858 -371,221 -814,269 -1306,196 20,279 237,721 419,913 270,284 466,382 896,589z"/>
   <g style="clip-path:url(#id12)">
    <g>
     <polygon id="1" class="fil7" points="-795,-1915 4398,-1915 4398,8833 -795,8833 "/>
    </g>
   </g>
   <path class="fil2" d="M1315 4125c156,-7 102,-48 304,-50 169,-1 592,-23 717,41 10,5 20,11 29,18 -15,64 -27,129 -35,195l-174 -4c-366,-37 -563,-141 -841,-200 156,-7 102,-48 304,-50 169,-1 592,-23 717,41 10,5 20,11 29,18 29,-122 71,-241 124,-353 1,-10 3,-19 4,-26l1 15 -1 -15c30,-75 79,-153 141,-231 368,-545 1017,-908 1758,-908 1065,0 1942,750 2062,1716l173 0 1 -7c607,-73 1199,-282 1646,-699 220,-206 588,-656 621,-977 -486,71 -1028,-5 -1403,-210 -710,-388 -910,-1205 -1532,-1807 -213,-207 -669,-549 -1066,-632 -215,814 -768,862 -1009,0 -376,77 -848,434 -1047,618 -284,262 -483,581 -718,951 -239,378 -452,643 -814,858 -371,221 -814,269 -1306,196 20,279 237,721 419,913 270,284 466,382 896,589z"/>
   <path class="fil10" d="M3464 1619l571 -299 0 152c0,10 -3,21 -9,30 -5,9 -14,17 -27,23l-200 108c-12,7 -25,12 -38,17 -14,4 -28,8 -43,12 15,4 29,8 43,12 13,4 26,9 38,16l200 108c13,7 22,15 27,24 6,9 9,18 9,29l0 152 -571 -299 0 -85zm836 511c-5,13 -12,24 -20,34 -8,10 -17,18 -27,24 -10,7 -21,12 -33,15 -11,3 -23,5 -34,5l-93 0 400 -1051c10,-24 24,-43 43,-55 20,-13 42,-19 67,-19l93 0 -396 1047zm1020 -426l-571 299 0 -152c0,-11 3,-20 8,-29 6,-9 15,-17 27,-24l200 -108c12,-7 25,-12 39,-16 14,-4 28,-8 43,-12 -15,-4 -29,-8 -43,-12 -14,-5 -27,-10 -39,-17l-200 -108c-12,-6 -21,-14 -27,-23 -5,-9 -8,-20 -8,-30l0 -152 571 299 0 85z"/>
  </g>
 </g>
</svg>
