<?xml version="1.0" encoding="UTF-8"?>
<!DOCTYPE svg PUBLIC "-//W3C//DTD SVG 1.1//EN" "http://www.w3.org/Graphics/SVG/1.1/DTD/svg11.dtd">
<!-- Creator: CorelDRAW X7 -->
<svg xmlns="http://www.w3.org/2000/svg" xml:space="preserve" width="81.263mm" height="98.946mm" version="1.1" style="shape-rendering:geometricPrecision; text-rendering:geometricPrecision; image-rendering:optimizeQuality; fill-rule:evenodd; clip-rule:evenodd"
viewBox="0 0 8126 9895"
 xmlns:xlink="http://www.w3.org/1999/xlink">
 <defs>
  <style type="text/css">
   <![CDATA[
    .str1 {stroke:#2B2A29;stroke-width:17.64;stroke-opacity:0.101961}
    .str0 {stroke:#C05554;stroke-width:7.62}
    .fil4 {fill:none}
    .fil1 {fill:#DC7173}
    .fil5 {fill:#CF6265}
    .fil0 {fill:#CB5A5C}
    .fil2 {fill:#A82F2E}
    .fil6 {fill:#8C2B2A}
    .fil3 {fill:#080808;fill-opacity:0.101961}
   ]]>
  </style>
    <clipPath id="id0">
     <path d="M7230 1280l0 5287 -1 10c-110,1025 -686,1762 -1528,2311 -311,203 -636,366 -971,525 -373,177 -419,167 -667,482 -249,-316 -294,-305 -667,-482 -335,-159 -660,-322 -971,-525 -842,-549 -1419,-1286 -1529,-2311l-1 -10 0 -6119 411 -149 76 109c257,364 755,525 1184,525 398,0 1041,-92 1256,-485 46,-85 67,-177 67,-274l0 -174 348 0 0 174c0,97 21,189 67,274 214,393 857,485 1256,485 429,0 927,-161 1184,-526l76 -108 411 149 0 832 -1 0z"/>
    </clipPath>
      <clipPath id="id1">
       <path d="M2550 2978l3009 0 0 6000c-267,162 -545,300 -829,435 -373,177 -419,167 -667,482 -249,-316 -294,-305 -667,-482 -335,-159 -660,-322 -971,-525 -785,-511 -1339,-1186 -1500,-2106l563 -1131 -205 87 728 -1137 -326 175 865 -1798z"/>
      </clipPath>
      <clipPath id="id2">
       <path d="M7230 1280l0 5287 -1 10c-110,1025 -686,1762 -1528,2311 -311,203 -636,366 -971,525 -373,177 -419,167 -667,482 -249,-316 -294,-305 -667,-482 -335,-159 -660,-322 -971,-525 -842,-549 -1419,-1286 -1529,-2311l-1 -10 0 -6119 411 -149 76 109c257,364 755,525 1184,525 398,0 1041,-92 1256,-485 46,-85 67,-177 67,-274l0 -174 348 0 0 174c0,97 21,189 67,274 214,393 857,485 1256,485 429,0 927,-161 1184,-526l76 -108 411 149 0 832 -1 0z"/>
      </clipPath>
    <clipPath id="id3">
     <path d="M4063 6558l0 3052c-9,-12 -18,-24 -27,-35l0 0c-319,-361 -2735,-853 -2967,-3017l0 -5452 0 -536 171 -62c250,356 750,598 1326,598 827,0 1497,-314 1497,-932 0,618 670,932 1497,932 576,0 1076,-242 1326,-599l171 63 0 536 0 0 0 5452c-232,2164 -2648,2656 -2967,3017l0 0c-9,11 -18,23 -27,35l0 -3052 0 0z"/>
    </clipPath>
      <clipPath id="id4">
       <path d="M2550 2978l3009 0 0 5795c-657,418 -1313,626 -1469,802l0 0c-9,11 -18,23 -27,35l0 -3052 0 0 0 3052c-9,-12 -18,-24 -27,-35l0 0c-319,-361 -2735,-853 -2967,-3017l0 -65 419 -842 -205 87 728 -1137 -326 175 865 -1798z"/>
      </clipPath>
      <clipPath id="id5">
       <path d="M4063 6558l0 3052c-9,-12 -18,-24 -27,-35l0 0c-319,-361 -2735,-853 -2967,-3017l0 -5452 0 -536 171 -62c250,356 750,598 1326,598 827,0 1497,-314 1497,-932 0,618 670,932 1497,932 576,0 1076,-242 1326,-599l171 63 0 536 0 0 0 5452c-232,2164 -2648,2656 -2967,3017l0 0c-9,11 -18,23 -27,35l0 -3052 0 0z"/>
      </clipPath>
    <clipPath id="id6">
     <path d="M0 464l0 57c129,21 779,-40 799,531 7,202 -87,494 -67,859 18,317 133,625 396,847l-13 7 21 0c150,124 346,220 599,276 114,24 174,38 278,48 10,1 20,2 31,2l0 0 212 1562 272 -1195 1124 134 146 1194 265 139 266 -139 145 -1194 1124 -134 272 1195 212 -1562 0 0c11,0 22,-1 32,-2 103,-10 163,-24 277,-48 253,-56 449,-152 599,-276l21 0 -12 -7c263,-222 377,-530 395,-847 21,-365 -74,-657 -67,-859 20,-571 670,-510 799,-531l0 -57c-336,-161 -708,-150 -1035,35 -933,530 -90,1447 -963,1593 -68,12 -142,13 -210,13 -15,0 -32,-1 -51,-2l-1037 -600c-354,-206 -1180,-206 -1534,0l-1036 600c-19,1 -37,2 -52,2 -67,0 -142,-1 -210,-13 -872,-146 -29,-1063 -963,-1593 -327,-185 -699,-196 -1035,-35z"/>
    </clipPath>
 </defs>
 <g id="Layer_x0020_1">
  <metadata id="CorelCorpID_0Corel-Layer"/>
  <g id="_1671998846736">
   <path class="fil0" d="M7230 1280l0 5287 -1 10c-110,1025 -686,1762 -1528,2311 -311,203 -636,366 -971,525 -373,177 -419,167 -667,482 -249,-316 -294,-305 -667,-482 -335,-159 -660,-322 -971,-525 -842,-549 -1419,-1286 -1529,-2311l-1 -10 0 -6119 411 -149 76 109c257,364 755,525 1184,525 398,0 1041,-92 1256,-485 46,-85 67,-177 67,-274l0 -174 348 0 0 174c0,97 21,189 67,274 214,393 857,485 1256,485 429,0 927,-161 1184,-526l76 -108 411 149 0 832 -1 0z"/>
   <g style="clip-path:url(#id0)">
    <g>
     <rect class="fil1" x="-951" y="-1772" width="5013" height="13141"/>
     <g>
      <polygon class="fil2" points="5559,2978 2550,2978 2550,10863 9058,10549 6620,5651 6825,5738 6098,4601 6424,4776 "/>
      <polygon class="fil2" points="2550,2978 5559,2978 5559,10863 -949,10549 1488,5651 1283,5738 2011,4601 1685,4776 "/>
     </g>
     <g style="clip-path:url(#id1)">
      <g>
       <polygon id="1" class="fil3" points="-6366,-3998 4062,-3998 4062,14118 -6366,14118 "/>
      </g>
     </g>
     <g style="clip-path:url(#id2)">
      <polygon class="fil4" points="2550,2978 5559,2978 5559,10863 -949,10549 1488,5651 1283,5738 2011,4601 1685,4776 "/>
     </g>
    </g>
   </g>
   <path class="fil4" d="M7230 1280l0 5287 -1 10c-110,1025 -686,1762 -1528,2311 -311,203 -636,366 -971,525 -373,177 -419,167 -667,482 -249,-316 -294,-305 -667,-482 -335,-159 -660,-322 -971,-525 -842,-549 -1419,-1286 -1529,-2311l-1 -10 0 -6119 411 -149 76 109c257,364 755,525 1184,525 398,0 1041,-92 1256,-485 46,-85 67,-177 67,-274l0 -174 348 0 0 174c0,97 21,189 67,274 214,393 857,485 1256,485 429,0 927,-161 1184,-526l76 -108 411 149 0 832 -1 0z"/>
   <path class="fil0" d="M4063 6558l0 3052c-9,-12 -18,-24 -27,-35l0 0c-319,-361 -2735,-853 -2967,-3017l0 -5452 0 -536 171 -62c250,356 750,598 1326,598 827,0 1497,-314 1497,-932 0,618 670,932 1497,932 576,0 1076,-242 1326,-599l171 63 0 536 0 0 0 5452c-232,2164 -2648,2656 -2967,3017l0 0c-9,11 -18,23 -27,35l0 -3052 0 0z"/>
   <g style="clip-path:url(#id3)">
    <g>
     <rect class="fil1" x="4062" y="-1772" width="5013" height="13141"/>
     <g>
      <polygon class="fil2" points="5559,2978 2550,2978 2550,10863 9058,10549 6620,5651 6825,5738 6098,4601 6424,4776 "/>
      <polygon class="fil2" points="2550,2978 5559,2978 5559,10863 -949,10549 1488,5651 1283,5738 2011,4601 1685,4776 "/>
     </g>
     <g style="clip-path:url(#id4)">
      <g>
       <polygon id="1" class="fil3" points="-6366,-3998 4062,-3998 4062,14118 -6366,14118 "/>
      </g>
     </g>
     <g style="clip-path:url(#id5)">
      <polygon class="fil4" points="2550,2978 5559,2978 5559,10863 -949,10549 1488,5651 1283,5738 2011,4601 1685,4776 "/>
     </g>
    </g>
   </g>
   <path class="fil4" d="M4063 6558l0 3052c-9,-12 -18,-24 -27,-35l0 0c-319,-361 -2735,-853 -2967,-3017l0 -5452 0 -536 171 -62c250,356 750,598 1326,598 827,0 1497,-314 1497,-932 0,618 670,932 1497,932 576,0 1076,-242 1326,-599l171 63 0 536 0 0 0 5452c-232,2164 -2648,2656 -2967,3017l0 0c-9,11 -18,23 -27,35l0 -3052 0 0z"/>
   <polygon class="fil5 str0" points="3723,5062 4404,5062 4404,4064 3723,4064 "/>
   <path class="fil5" d="M2568 4237l1239 -521 477 3 1325 515 149 652 -520 649c-191,-323 -578,-571 -986,-670l0 -463 -373 0 0 463c-407,99 -799,340 -990,663l-521 -655 200 -636z"/>
   <path class="fil6" d="M0 464l0 57c129,21 779,-40 799,531 7,202 -87,494 -67,859 18,317 133,625 396,847l-13 7 21 0c150,124 346,220 599,276 114,24 174,38 278,48 10,1 20,2 31,2l0 0 212 1562 272 -1195 1124 134 146 1194 265 139 266 -139 145 -1194 1124 -134 272 1195 212 -1562 0 0c11,0 22,-1 32,-2 103,-10 163,-24 277,-48 253,-56 449,-152 599,-276l21 0 -12 -7c263,-222 377,-530 395,-847 21,-365 -74,-657 -67,-859 20,-571 670,-510 799,-531l0 -57c-336,-161 -708,-150 -1035,35 -933,530 -90,1447 -963,1593 -68,12 -142,13 -210,13 -15,0 -32,-1 -51,-2l-1037 -600c-354,-206 -1180,-206 -1534,0l-1036 600c-19,1 -37,2 -52,2 -67,0 -142,-1 -210,-13 -872,-146 -29,-1063 -963,-1593 -327,-185 -699,-196 -1035,-35z"/>
   <g style="clip-path:url(#id6)">
    <g>
     <polygon id="1" class="fil3 str1" points="4056,-536 -3052,-536 -3052,6176 4056,6176 "/>
    </g>
   </g>
   <path class="fil4" d="M0 464l0 57c129,21 779,-40 799,531 7,202 -87,494 -67,859 18,317 133,625 396,847l-13 7 21 0c150,124 346,220 599,276 114,24 174,38 278,48 10,1 20,2 31,2l0 0 212 1562 272 -1195 1124 134 146 1194 265 139 266 -139 145 -1194 1124 -134 272 1195 212 -1562 0 0c11,0 22,-1 32,-2 103,-10 163,-24 277,-48 253,-56 449,-152 599,-276l21 0 -12 -7c263,-222 377,-530 395,-847 21,-365 -74,-657 -67,-859 20,-571 670,-510 799,-531l0 -57c-336,-161 -708,-150 -1035,35 -933,530 -90,1447 -963,1593 -68,12 -142,13 -210,13 -15,0 -32,-1 -51,-2l-1037 -600c-354,-206 -1180,-206 -1534,0l-1036 600c-19,1 -37,2 -52,2 -67,0 -142,-1 -210,-13 -872,-146 -29,-1063 -963,-1593 -327,-185 -699,-196 -1035,-35z"/>
   <path class="fil2" d="M4063 1110c139,0 268,18 380,50l0 4 -101 849 -524 1 -135 -850 0 -4c112,-32 242,-50 380,-50z"/>
   <path class="fil5" d="M3757 2829c0,-43 10,-91 28,-127 13,-25 17,-34 36,-59 17,-22 35,-38 57,-56l11 -8c38,-25 63,-35 106,-46 22,-6 38,-6 59,-7 5,0 5,-1 9,-1 4,0 4,1 8,1 3,0 7,0 10,0 11,0 40,4 49,7 11,2 20,5 30,8 33,11 60,26 87,45 12,9 30,26 40,36 3,2 3,3 4,5l13 15c4,4 6,7 9,11 9,13 14,22 21,35 2,3 3,4 4,7 32,68 39,129 23,203 -7,31 -19,55 -33,81 -2,4 -4,8 -7,11 -29,46 -72,84 -120,108 -35,18 -64,25 -103,31l-36 2c-30,0 -68,-7 -97,-16 -9,-3 -19,-7 -27,-11l-25 -13c-12,-6 -34,-21 -45,-31 -40,-33 -60,-61 -83,-107 -17,-34 -28,-83 -28,-124zm287 -500l34 0c6,0 12,1 17,1 8,1 7,-2 8,6 2,11 12,80 14,82 2,3 2,2 5,2 10,1 20,3 29,5l44 11c6,-12 34,-49 45,-64 1,-3 5,-9 7,-9 6,0 58,26 69,33 0,9 -9,34 -12,44 -3,7 -12,36 -13,43 11,6 23,15 32,23l29 25c5,-1 7,-3 11,-5l29 -17c7,-3 33,-19 39,-21 3,2 5,4 8,7 7,7 13,15 19,22l23 31 -16 17c-9,12 -20,22 -30,33l-15 17 23 43c4,8 9,18 11,27l90 -6c5,10 18,63 18,77 -4,0 -77,29 -84,33 0,13 2,26 2,39l-1 19c0,8 -1,13 -1,20 6,3 14,6 21,8 9,4 57,25 63,25 0,14 -13,67 -18,77l-90 -6c-3,11 -11,27 -16,37 -5,11 -12,23 -18,33l54 58c3,4 3,6 7,9l-12 16c-9,13 -19,26 -31,37 -2,3 -4,5 -7,7 -8,-2 -22,-12 -30,-17 -3,-1 -6,-3 -9,-5 -7,-3 -13,-7 -20,-11 -6,-3 -12,-8 -20,-10 -4,3 -9,9 -14,13 -3,2 -4,4 -7,6l-40 29c1,12 24,74 25,86 -17,10 -34,19 -51,27 -6,2 -13,5 -19,7 -4,-4 -34,-48 -39,-55 -4,-6 -9,-12 -12,-18 -4,0 -8,2 -12,3 -3,1 -7,2 -10,3 -8,2 -15,4 -22,5 -8,2 -15,3 -23,4 -3,1 -4,1 -7,1 -4,1 -2,-1 -4,2 -2,4 -12,71 -14,83 -1,7 -1,4 -8,5 -4,0 -8,1 -13,1l-33 0c-7,-1 -12,-1 -18,-1 -8,-1 -7,2 -8,-6l-11 -70c-2,-12 0,-13 -8,-14l-29 -5c-8,-2 -15,-4 -22,-5 -7,-2 -15,-6 -21,-6 -4,6 -9,12 -13,18 -4,6 -8,12 -13,18 -4,6 -21,33 -26,37 -9,-3 -19,-8 -28,-12 -3,-1 -5,-2 -8,-4l-34 -18c0,-4 4,-16 6,-22 3,-8 19,-57 19,-64 -5,-4 -11,-7 -16,-11l-23 -18c-8,-6 -14,-14 -22,-19 -4,1 -7,3 -11,5 -7,4 -64,37 -68,38 -11,-7 -41,-48 -50,-60 5,-4 41,-44 47,-50 3,-3 4,-6 7,-9 2,-2 6,-7 8,-8 -2,-2 -4,-5 -5,-8 -5,-9 -10,-16 -14,-26 -5,-11 -13,-23 -15,-36l-91 6c-5,-9 -18,-63 -18,-77 4,0 17,-6 22,-8 14,-6 51,-19 62,-25 0,-9 -1,-20 -2,-29 0,-17 2,-33 2,-49 -5,-3 -14,-6 -20,-8 -10,-4 -58,-25 -64,-25 0,-14 13,-67 18,-77l91 6c1,-6 5,-13 7,-19 3,-6 5,-12 8,-18 3,-6 6,-11 9,-17 3,-6 7,-12 10,-16 -3,-3 -5,-6 -8,-9l-46 -50c-3,-3 -4,-5 -8,-8 8,-11 39,-53 50,-60 6,2 24,13 30,17 3,1 6,3 10,5 7,4 12,7 19,11 7,3 13,8 20,10l53 -43c3,-2 5,-3 8,-5 -1,-12 -24,-74 -25,-87l17 -9c6,-3 11,-5 17,-8 4,-3 32,-16 36,-16 1,0 23,33 26,37 5,6 9,12 13,18l13 18c4,0 7,-2 11,-3 18,-5 37,-9 56,-12 13,-3 10,2 13,-15 2,-16 5,-32 7,-48 6,-31 1,-27 13,-28 4,0 8,-1 12,-1z"/>
   <path class="fil5" d="M3799 2826c0,22 3,42 7,60 3,15 10,35 16,48 29,61 70,102 131,131 67,32 152,32 220,0 41,-19 72,-44 99,-78 14,-17 22,-32 31,-51 7,-14 13,-34 17,-49 19,-77 -2,-168 -54,-226 -24,-27 -41,-41 -72,-60 -11,-7 -31,-15 -45,-20 -61,-20 -135,-19 -194,9 -19,9 -24,12 -42,23 -27,18 -47,40 -66,65 -12,16 -26,44 -33,64 -9,27 -15,54 -15,84z"/>
   <path class="fil5" d="M4063 5168c531,0 961,689 961,997 0,309 -6,131 -18,193l-635 -205 -52 -454 0 -9 -1 0 -511 0 -1 0 0 9 -52 457 -634 202c-12,-62 -18,116 -18,-193 0,-308 430,-997 961,-997z"/>
  </g>
 </g>
</svg>
